<?xml version="1.0" encoding="utf-8"?>
<!-- Generator: Adobe Illustrator 17.0.0, SVG Export Plug-In . SVG Version: 6.00 Build 0)  -->
<!DOCTYPE svg PUBLIC "-//W3C//DTD SVG 1.1//EN" "http://www.w3.org/Graphics/SVG/1.1/DTD/svg11.dtd">
<svg version="1.1" id="Layer_1" xmlns="http://www.w3.org/2000/svg" xmlns:xlink="http://www.w3.org/1999/xlink" x="0px" y="0px"
	 width="895.455px" height="883.456px" viewBox="0 0 895.455 883.456" enable-background="new 0 0 895.455 883.456"
	 xml:space="preserve">
<g>
	<g>
		<path fill="none" stroke="#FFFFFF" stroke-width="1.5" stroke-miterlimit="10" d="M482.955,65.351L262.308,255.603
			c-8.367,7.215-9.287,17.062-1.626,21.69l389.327,235.174c10.68,6.451,26.363,2.467,34.812-8.775l191.92-255.369
			c5.98-7.957,3.36-18.053-7.468-22.982L508.182,60.988C500.887,57.654,489.722,59.517,482.955,65.351z"/>
		<path fill="none" stroke="#FFFFFF" stroke-width="1.5" stroke-miterlimit="10" d="M484.584,66.103L264.005,256.611
			c-3.526,3.045-5.633,6.699-5.931,10.285c-0.303,3.643,1.328,6.73,4.568,8.684l389.154,234.56
			c9.347,5.634,23.141,2.062,30.625-7.87l192.122-254.962c2.64-3.504,3.461-7.503,2.308-11.244c-1.173-3.796-4.307-7.03-8.831-9.092
			L506.739,62.249c-3.114-1.42-7.102-1.81-11.233-1.108C491.339,61.857,487.465,63.615,484.584,66.103z"/>
		<g>
			<path fill="none" stroke="#FFFFFF" stroke-width="0.5" stroke-miterlimit="10" d="M772.378,344.166
				c6.228,3.207,8.023,10.135,3.954,15.474c-4.096,5.375-12.558,7.083-18.827,3.792c-6.24-3.276-7.907-10.25-3.77-15.541
				C757.855,342.621,766.179,340.973,772.378,344.166z"/>
		</g>
		<path fill="none" stroke="#FFFFFF" stroke-width="0.5" stroke-miterlimit="10" d="M762.884,349.992l-2.937,3.789
			c-0.699,0.902-0.413,2.07,0.644,2.622l4.462,2.328c1.062,0.554,2.475,0.27,3.172-0.638l2.926-3.811
			c0.693-0.902,0.397-2.067-0.662-2.615l-4.452-2.307C764.994,348.801,763.579,349.095,762.884,349.992L762.884,349.992z"/>
		<path fill="none" stroke="#FFFFFF" stroke-width="0.5" stroke-miterlimit="10" d="M394.732,161.221
			c1.078-0.943,2.826-1.24,3.903-0.681c1.089,0.565,1.089,1.787,0.024,2.723c-1.067,0.937-2.833,1.246-3.911,0.684
			C393.671,163.385,393.653,162.165,394.732,161.221z"/>
		<path fill="none" stroke="#FFFFFF" stroke-width="1.5" stroke-miterlimit="10" d="M298.09,272.165L512.254,81.509l322.37,149.174
			L641.5,475.364L298.09,272.165z"/>
	</g>
	
		<line fill="none" stroke="#FFFFFF" stroke-width="0.5" stroke-miterlimit="10" x1="883.908" y1="577.238" x2="445.743" y2="821.907"/>
	
		<line fill="none" stroke="#FFFFFF" stroke-width="0.5" stroke-miterlimit="10" x1="881.266" y1="573.728" x2="470.126" y2="803.307"/>
	
		<line fill="none" stroke="#FFFFFF" stroke-width="0.5" stroke-miterlimit="10" x1="881.897" y1="570.916" x2="531.011" y2="766.849"/>
	
		<line fill="none" stroke="#FFFFFF" stroke-width="0.5" stroke-miterlimit="10" x1="876.108" y1="571.455" x2="642.529" y2="701.885"/>
	
		<line fill="none" stroke="#FFFFFF" stroke-width="0.5" stroke-miterlimit="10" x1="882.054" y1="565.521" x2="734.895" y2="647.693"/>
	
		<line fill="none" stroke="#FFFFFF" stroke-width="0.5" stroke-miterlimit="10" x1="878.046" y1="565.404" x2="799.96" y2="609.007"/>
	
		<line fill="none" stroke="#FFFFFF" stroke-width="1.5" stroke-miterlimit="10" x1="10.429" y1="281.808" x2="446.377" y2="800.194"/>
	<path fill="none" stroke="#FFFFFF" stroke-width="1.5" stroke-miterlimit="10" d="M881.73,557.833c0,0,2.703,4.798,0.956,17.574"/>
	<g>
		<path fill="none" stroke="#FFFFFF" stroke-width="1.5" stroke-miterlimit="10" d="M885.133,576.656
			c-1.143-1.465-1.811-1.684-3.204-0.908L445.324,818.807l-0.875,5.308l440.103-245.006
			C884.551,579.109,886.276,578.121,885.133,576.656z"/>
		<path fill="none" stroke="#FFFFFF" stroke-width="1.5" stroke-miterlimit="10" d="M444.214,98.756
			c-0.664-0.286-1.604-0.465-2.704-0.031c-2.186,0.863-431.081,183.083-431.081,183.083S6.458,293.649,9.773,304.3l434.675,519.815
			c0,0-0.171-16.522,1.928-23.92l440.102-245.006c0,0,1.246-0.463-0.106-1.906c-0.495-0.528-59.748-61.498-134.671-138.583"/>
	</g>
</g>
</svg>
