<?xml version="1.0" encoding="utf-8"?>
<!-- Generator: Adobe Illustrator 17.0.0, SVG Export Plug-In . SVG Version: 6.00 Build 0)  -->
<!DOCTYPE svg PUBLIC "-//W3C//DTD SVG 1.1//EN" "http://www.w3.org/Graphics/SVG/1.1/DTD/svg11.dtd">
<svg version="1.1" id="Layer_1" xmlns="http://www.w3.org/2000/svg" xmlns:xlink="http://www.w3.org/1999/xlink" x="0px" y="0px"
	 width="895.455px" height="883.456px" viewBox="0 0 895.455 883.456" enable-background="new 0 0 895.455 883.456"
	 xml:space="preserve">
<g>
	
		<line fill="none" stroke="#FFFFFF" stroke-width="0.5" stroke-miterlimit="10" x1="727.482" y1="675.416" x2="727.483" y2="675.416"/>
	<g>
		<path fill="none" stroke="#FFFFFF" stroke-width="0.5" stroke-miterlimit="10" d="M877.412,746.494c0,0-2.033,5.36-6.848,2.673"/>
		<path fill="none" stroke="#FFFFFF" stroke-width="0.5" stroke-miterlimit="10" d="M745.605,252.591c0,0,5.42,6.686,13.525,39.329
			c8.105,32.642,10.893,37.367,8.336,38.118"/>
		<path fill="none" stroke="#FFFFFF" stroke-width="0.5" stroke-miterlimit="10" d="M700.221,209.888l7.597,29.802L818.79,634.105
			c0,0,35.795,109.409,51.104,115.938c0,0,3.377-5.403,8.78-3.152c0,0,0.901-47.725-20.036-114.362
			c-20.938-66.636-80.073-263.168-80.073-263.168l-42.022-148.88c0,0,12.457,3.902,16.059,16.959
			c3.602,13.057,29.492,113.011,29.492,113.011s2.476,14.633-1.801,15.984l5.403-0.451c0,0,5.178-2.026,1.35-15.533
			c-3.827-13.507-30.617-113.687-30.617-113.687s-3.377-15.083-20.262-22.062l-3.152-13.057
			C733.015,201.645,715.379,190.667,700.221,209.888z"/>
	</g>
	<g>
		
			<ellipse transform="matrix(0.9423 -0.3347 0.3347 0.9423 -204.2915 279.2651)" fill="none" stroke="#FFFFFF" stroke-width="0.5" stroke-miterlimit="10" cx="708.239" cy="732.455" rx="4.637" ry="2.364"/>
		
			<ellipse transform="matrix(0.9423 -0.3347 0.3347 0.9423 -206.6691 275.3814)" fill="none" stroke="#FFFFFF" stroke-width="0.5" stroke-miterlimit="10" cx="695.78" cy="737.413" rx="4.637" ry="2.364"/>
		
			<ellipse transform="matrix(0.9423 -0.3347 0.3347 0.9423 -209.0467 271.4975)" fill="none" stroke="#FFFFFF" stroke-width="0.5" stroke-miterlimit="10" cx="683.321" cy="742.37" rx="4.637" ry="2.364"/>
		
			<ellipse transform="matrix(0.9427 -0.3336 0.3336 0.9427 -237.8313 219.5389)" fill="none" stroke="#FFFFFF" stroke-width="0.5" stroke-miterlimit="10" cx="520.3" cy="802.246" rx="11.635" ry="4.948"/>
		
			<ellipse transform="matrix(0.9423 -0.3347 0.3347 0.9423 -235.0404 227.0471)" fill="none" stroke="#FFFFFF" stroke-width="0.5" stroke-miterlimit="10" cx="541.19" cy="795.424" rx="4.637" ry="2.364"/>
		
			<ellipse transform="matrix(0.9423 -0.3347 0.3347 0.9423 -211.4578 267.6753)" fill="none" stroke="#FFFFFF" stroke-width="0.5" stroke-miterlimit="10" cx="670.862" cy="747.328" rx="4.637" ry="2.364"/>
		<path fill="none" stroke="#FFFFFF" stroke-width="0.5" stroke-miterlimit="10" d="M589.797,778.427c0,0,0.75,2.102,9.305-0.901
			c8.555-3.001,28.067-10.655,28.067-10.655s7.054-2.852,5.403-7.354c0,0-1.351-2.777-6.905-0.676
			c-5.553,2.101-30.167,11.707-30.167,11.707S587.545,774,589.797,778.427z"/>
		
			<ellipse fill="none" stroke="#FFFFFF" stroke-width="0.5" stroke-miterlimit="10" cx="592.826" cy="721.004" rx="26.838" ry="22.755"/>
		<path fill="none" stroke="#FFFFFF" stroke-width="0.5" stroke-miterlimit="10" d="M402.676,348.745c0,0-3.827,1.2-2.551,3.902
			c1.276,2.702,5.403,0.901,5.403,0.901l38.122-13.132c0,0,2.326-1.201,1.126-3.227c-1.201-2.026-3.978-0.901-3.978-0.901
			L402.676,348.745z"/>
		
			<ellipse fill="none" stroke="#FFFFFF" stroke-width="0.5" stroke-miterlimit="10" cx="413.069" cy="325.97" rx="4.465" ry="3.714"/>
		<path fill="none" stroke="#FFFFFF" stroke-width="1.5" stroke-miterlimit="10" d="M726.713,685.302
			c0-4.346-0.987-8.461-2.746-12.136l-0.006-0.011c-0.029-0.061-0.06-0.121-0.089-0.181L539.855,300.979l-0.007-0.004
			c-4.985-10.662-15.801-18.053-28.349-18.053c-2.667,0-5.254,0.336-7.726,0.963h-0.001c-4.95,0.839-10.444,2.688-10.444,2.688
			l-177.553,59.245c0,0-5.008,1.785-8.433,4.352l-0.001,0.004c-6.823,4.225-11.37,11.776-11.37,20.391
			c0,3.211,0.636,6.272,1.781,9.071l-0.003,0.008l162.27,391.022l0.005,0.002c4.255,11.976,15.683,20.554,29.119,20.554
			c3.877,0,7.583-0.721,11.001-2.024l0.01,0.004l201.117-73.059c0,0,7.928-3.274,12.805-7.357l-0.001-0.004
			C721.689,703.747,726.713,695.113,726.713,685.302z M456.782,737.155l241.189-89.448l-156.24-318.023l-223.179,74.891
			L456.782,737.155z"/>
		<path fill="none" stroke="#FFFFFF" stroke-width="1.5" stroke-miterlimit="10" d="M547.623,798.688l137.779-51.628
			c0,0,34.971-11.706,43.525-24.914c8.555-13.207,12.007-29.115,5.103-44.874c-6.905-15.758-186.708-377.004-186.708-377.004
			s-14.408-29.266-51.029-17.86c-36.621,11.406-180.216,58.682-180.216,58.682s-41.311,11.931-24.427,52.791
			c16.885,40.859,157.816,385.446,157.816,385.446s14.628,51.464,67.989,31.067C543.12,800.339,547.623,798.688,547.623,798.688z"/>
	</g>
	<path fill="none" stroke="#FFFFFF" stroke-miterlimit="10" d="M20.497,111.261c11.698-17.313,29.012-7.955,29.012-7.955
		l93.586,436.111c0,0-26.204,4.913-30.415,35.095"/>
	<path fill="none" stroke="#FFFFFF" stroke-miterlimit="10" d="M643.549,490.9c28.67-2.753,45.32-4.35,46.696-4.476
		c7.627-0.702,3.603-7.721,3.603-7.721S518.55,85.115,516.444,79.325c-2.106-5.791-8.598-4.562-8.598-4.562
		S80.743,96.521,68.46,97.574c-12.283,1.053-18.951,5.732-18.951,5.732l101.424,436.111c2.808-2.106,12.283-2.344,12.283-2.344
		s79.143-7.611,177.776-17.093"/>
	<g>
		<path fill="none" stroke="#FFFFFF" stroke-width="0.5" stroke-miterlimit="10" d="M344.833,533.397l-212.852,20.409
			c0,0-15.793,15.442-15.442,31.585c0.351,16.144,14.389,25.268,14.389,25.268c22.488-6.421,124.646-18.004,236.021-29.319"/>
		<path fill="none" stroke="#FFFFFF" stroke-width="0.5" stroke-miterlimit="10" d="M674.441,552.179
			c14.691-1.316,21.162-1.883,21.162-1.883c-15.091-22.812,7.37-51.238,7.37-51.238l-52.861,5.068"/>
	</g>
	<g>
		<path fill="none" stroke="#FFFFFF" stroke-width="1.5" stroke-miterlimit="10" d="M649.162,501.64l53.811-5.039
			c15.793-1.755,8.423-15.793,8.423-15.793S534.752,95.819,527.265,80.377s-29.012-11.698-29.012-11.698
			S76.649,91.608,43.894,93.947c-32.755,2.34-26.672,33.691-26.672,33.691l94.581,467.314c0,0,5.933,22.521,26.73,17.988
			c14.15-3.085,64.691-11.055,64.691-11.055c4.389-0.448,77.339-7.241,165.705-15.454"/>
		
			<line fill="none" stroke="#FFFFFF" stroke-width="1.5" stroke-miterlimit="10" x1="159.706" y1="547.473" x2="344.833" y2="530.138"/>
		<path fill="none" stroke="#FFFFFF" stroke-width="1.5" stroke-linecap="round" stroke-miterlimit="10" d="M677.713,557.759
			c11.814-1.096,16.135-1.497,16.135-1.497s9.125,0.702,5.966-6.668l-8.176-16.792"/>
	</g>
</g>
</svg>
