<?xml version="1.0" encoding="utf-8"?>
<!-- Generator: Adobe Illustrator 17.0.0, SVG Export Plug-In . SVG Version: 6.00 Build 0)  -->
<!DOCTYPE svg PUBLIC "-//W3C//DTD SVG 1.1//EN" "http://www.w3.org/Graphics/SVG/1.1/DTD/svg11.dtd">
<svg version="1.1" id="Layer_1" xmlns="http://www.w3.org/2000/svg" xmlns:xlink="http://www.w3.org/1999/xlink" x="0px" y="0px"
	 width="895.455px" height="883.456px" viewBox="0 0 895.455 883.456" enable-background="new 0 0 895.455 883.456"
	 xml:space="preserve">
<path fill="none" stroke="#FFFFFF" stroke-width="1.5" stroke-miterlimit="10" d="M486.976,829.813
	c0,7.867-4.582,14.244-10.235,14.244c-5.653,0-10.235-6.377-10.235-14.244s4.582-14.245,10.235-14.245
	C482.394,815.568,486.976,821.946,486.976,829.813z M479.782,90.492c0,2.93-1.61,5.305-3.596,5.305
	c-1.987,0-3.597-2.375-3.597-5.305s1.61-5.306,3.597-5.306C478.172,85.186,479.782,87.562,479.782,90.492z M280.085,26.739
	c0,0-47.817-11.583-47.393,36.377c0.423,47.96,0,769.057,0,769.057s-4.232,35.679,27.928,35.679 M250.433,868.25l435.002-8.489
	c0,0,22.004,0,22.004-43.291V118.291c0,0,3.808-36.924-40.623-40.744c-44.431-3.82-396.918-52.204-396.918-52.204
	s-47.816-10.187-47.393,37.773s0,769.057,0,769.057S218.273,868.25,250.433,868.25z M258.473,95.797v697.754l423.577-3.82V147.577
	L258.473,95.797z"/>
<polygon fill="#FFFFFF" points="682.134,206.333 258.336,159.245 258.538,157.391 682.336,204.479 "/>
<path fill="#FFFFFF" d="M377.534,126.084l9.223,9.058l5.057-4.442c2.079,2.864,3.35,6.618,3.35,10.742
	c0,8.97-5.966,16.241-13.326,16.241c-7.359,0-13.325-7.271-13.325-16.241C368.513,134.311,372.289,128.267,377.534,126.084"/>
<path fill="#FFFFFF" d="M285.543,712.963h373.86V492.698l-373.86-21.958V712.963z M661.251,714.828H283.695V468.763l0.977,0.058
	l376.579,22.118V714.828z"/>
<path fill="#FFFFFF" d="M285.543,335.086l186.005,15.079V248.212l-186.005-18.003V335.086z M473.397,352.187l-189.702-15.38V228.156
	l189.702,18.362V352.187z"/>
<path fill="#FFFFFF" d="M488.108,351.509l171.295,13.888v-99.002l-171.295-16.579V351.509z M661.251,367.418L486.26,353.23V247.764
	l174.991,16.937V367.418z"/>
<path fill="#FFFFFF" d="M488.108,468.686l171.295,10.487V378.309l-171.295-12.328V468.686z M661.251,481.154L486.26,470.442V363.977
	l0.99,0.072l174.001,12.523V481.154z"/>
<path fill="#FFFFFF" d="M285.543,456.286l186.005,11.388V364.788l-186.005-13.387V456.286z M473.397,469.655l-189.702-11.614
	V349.398l0.99,0.072l188.712,13.581V469.655z"/>
<rect x="469.404" y="552.27" transform="matrix(0.0027 1 -1 0.0027 1233.2417 291.7861)" fill="#FFFFFF" width="1.865" height="423.799"/>
<rect x="363.873" y="764.516" transform="matrix(0.9999 0.0157 -0.0157 0.9999 12.2548 -5.6249)" fill="#FFFFFF" width="1.849" height="28.181"/>
<polygon fill="#FFFFFF" points="540.79,763.47 538.942,763.47 538.942,735.031 417.556,735.031 417.556,763.47 415.708,763.47 
	415.708,733.166 540.79,733.166 "/>
<path fill="#FFFFFF" d="M293.862,584.937l357.685,11.131v-96.059l-357.685-18.864V584.937z M653.395,597.991l-0.953-0.029
	l-360.429-11.218V479.182l0.972,0.051l360.41,19.005V597.991z"/>
<polygon fill="#FFFFFF" points="652.435,548.077 292.902,534.09 292.972,532.226 652.505,546.212 "/>
<path fill="#FFFFFF" d="M293.862,645.538l357.685,8.813V605.86l-357.685-10.668V645.538z M653.395,656.263l-0.947-0.024
	l-360.435-8.88v-54.086l0.951,0.027l360.431,10.75V656.263z"/>
<path fill="#FFFFFF" d="M293.862,706.13l357.685,1.854V661.35l-357.685-7.422V706.13z M653.395,709.86l-0.929-0.005l-360.453-1.871
	v-55.96l0.943,0.019l360.439,7.478V709.86z"/>
<path fill="#FFFFFF" d="M510.521,295.021c2.297,0,4.16,2.007,4.16,4.483c0,2.476-1.863,4.483-4.16,4.483s-4.159-2.007-4.159-4.483
	C506.362,297.028,508.224,295.021,510.521,295.021 M518.693,303.546c0.527-1.234,0.84-2.595,0.84-4.042
	c0-5.365-4.035-9.713-9.012-9.713c-4.977,0-9.011,4.348-9.011,9.713c0,1.441,0.31,2.797,0.832,4.027
	c-0.001,0-0.018-0.006-0.018-0.006l0.067,0.102c0.465,1.063,1.088,2.027,1.861,2.836l6.269,9.553l6.27-9.553
	c0.773-0.809,1.396-1.773,1.862-2.837l0.066-0.101C518.711,303.533,518.701,303.538,518.693,303.546"/>
<path fill="#FFFFFF" d="M315.169,295.659v-4.16l3.339,0.347v4.162L315.169,295.659z M304.489,290.389l2.885,0.3v4.155l-2.885-0.302
	V290.389z M313.32,289.431l-4.098-0.425v-4.487l4.098,0.426V289.431z M313.32,295.465l-4.098-0.428v-4.156l4.098,0.426V295.465z
	 M304.489,284.027l2.885,0.3v4.486l-2.885-0.3V284.027z M318.508,289.971l-3.339-0.347v-4.487l3.339,0.347V289.971z
	 M318.508,275.853v7.755l-14.019-1.456v-7.513L318.508,275.853z M316.823,272.618v-1.767l-2.453-0.233v1.789l-12.884-1.109v1.826
	v24.127l19.525,2.185v-24.593v-1.865L316.823,272.618z"/>
<path fill="#FFFFFF" d="M310.126,409.192l-2.767,4.303v-4.213l-3.464-0.09v-12.637l14.734,0.717l0.013,11.92H310.126z
	 M324.031,393.447l-25.548-1.243v21.912l6.006,0.155v7.305l4.798-7.46h14.767L324.031,393.447z"/>
<polygon fill="#FFFFFF" points="522.306,433.462 498.738,431.607 498.738,403.761 511.368,405.035 511.368,409.532 509.52,409.532 
	509.52,406.724 500.586,405.822 500.586,429.883 520.457,431.446 520.457,417.846 522.306,417.846 "/>
<polygon fill="#FFFFFF" points="510.599,421.035 504.59,415.588 505.824,414.2 510.444,418.387 518.683,408.917 520.073,410.148 "/>
<path fill="#FFFFFF" d="M405.497,151.809l9.679,0.971l-4.393-12.346l-0.418-1.305l-0.044-0.004l-0.417,1.222L405.497,151.809z
	 M415.464,153.593l-10.256-1.028l-2.333,6.081l-0.851-0.086l7.837-20.351l0.951,0.094l7.851,21.925l-0.851-0.085L415.464,153.593z"
	/>
<path fill="#FFFFFF" d="M431.943,158.83l-0.043-0.019c-0.48,0.93-1.164,1.613-2.052,2.051c-0.888,0.439-1.99,0.592-3.306,0.46
	c-1.642-0.164-2.907-0.852-3.796-2.065c-0.889-1.21-1.333-3.046-1.333-5.505v-8.956l0.778,0.077v8.986
	c0,2.178,0.382,3.801,1.146,4.871c0.763,1.068,1.821,1.67,3.176,1.806c1.652,0.165,2.903-0.103,3.752-0.807
	c0.85-0.704,1.4-1.721,1.649-3.051v-10.829l0.793,0.079v15.707l-0.648-0.064L431.943,158.83z"/>
<path fill="#FFFFFF" d="M439.362,142.356v4.24l3.544,0.355v0.797l-3.544-0.355v10.86c0,1.316,0.211,2.262,0.634,2.836
	c0.422,0.575,0.994,0.898,1.714,0.971c0.269,0.027,0.504,0.04,0.705,0.041c0.203,0.001,0.481-0.004,0.837-0.018l0.144,0.727
	c-0.25,0.052-0.503,0.08-0.757,0.083c-0.254,0.004-0.549-0.011-0.885-0.045c-1.058-0.106-1.851-0.522-2.385-1.248
	c-0.532-0.726-0.799-1.868-0.799-3.426v-10.86l-2.882-0.289v-0.798l2.882,0.29v-4.24L439.362,142.356z"/>
<path fill="#FFFFFF" d="M447.732,150.976l0.043,0.019c0.48-1.094,1.193-1.949,2.139-2.566c0.945-0.616,2.062-0.86,3.349-0.731
	c1.652,0.166,2.891,0.793,3.717,1.883c0.826,1.089,1.239,2.765,1.239,5.031v9.581l-0.778-0.077v-9.581
	c0-2.131-0.358-3.64-1.073-4.53c-0.716-0.888-1.765-1.403-3.148-1.541c-1.555-0.156-2.786,0.25-3.688,1.219
	c-0.903,0.969-1.503,2.102-1.8,3.398v10.06l-0.778-0.077v-22.647l0.778,0.078V150.976z"/>
<path fill="#FFFFFF" d="M462.655,157.09c0,2.013,0.538,3.748,1.614,5.206c1.075,1.459,2.559,2.282,4.451,2.471
	c1.862,0.187,3.332-0.343,4.407-1.589c1.077-1.248,1.615-2.873,1.615-4.877v-0.61c0-1.965-0.544-3.685-1.629-5.164
	c-1.085-1.478-2.559-2.311-4.422-2.497c-1.873-0.188-3.347,0.349-4.422,1.61c-1.076,1.263-1.614,2.875-1.614,4.84V157.09z
	 M461.877,156.402c0-2.342,0.621-4.172,1.866-5.49c1.243-1.317,2.892-1.872,4.948-1.666c2.064,0.206,3.718,1.091,4.963,2.653
	c1.243,1.562,1.865,3.519,1.865,5.871v0.61c0,2.361-0.619,4.198-1.858,5.511c-1.24,1.314-2.886,1.867-4.941,1.66
	c-2.075-0.207-3.734-1.092-4.977-2.655c-1.245-1.561-1.866-3.523-1.866-5.884V156.402z"/>
<path fill="#FFFFFF" d="M486.122,151.849l-1.009-0.187c-1.421-0.143-2.557,0.189-3.406,0.993c-0.851,0.806-1.41,1.95-1.678,3.432
	v10.293l-0.778-0.077v-15.708l0.633,0.063l0.145,2.745v0.42l0.043,0.004c0.421-1.051,1.051-1.835,1.886-2.351
	c0.836-0.517,1.888-0.71,3.155-0.584c0.221,0.023,0.423,0.057,0.606,0.104c0.182,0.047,0.345,0.103,0.489,0.166L486.122,151.849z"/>
<path fill="#FFFFFF" d="M489.233,167.303l0.778,0.078v-15.707l-0.778-0.078V167.303z M489.233,146.659l0.778,0.077v-2.003
	l-0.778-0.077V146.659z"/>
<polygon fill="#FFFFFF" points="494.951,167.092 506.044,168.205 506.044,168.989 493.899,167.771 493.899,167.133 504.142,153.888 
	494.347,152.906 494.347,152.108 505.193,153.195 505.193,153.892 "/>
<path fill="#FFFFFF" d="M512.713,169.193c1.498,0.15,2.78-0.048,3.846-0.594c1.067-0.547,1.877-1.397,2.435-2.55v-3.732
	l-3.832-0.384c-1.949-0.196-3.491,0.02-4.624,0.647c-1.134,0.627-1.699,1.55-1.699,2.769c0,0.997,0.35,1.857,1.051,2.581
	C510.591,168.653,511.532,169.075,512.713,169.193 M518.994,167.471l-0.043-0.019c-0.586,0.87-1.403,1.543-2.449,2.019
	c-1.048,0.476-2.311,0.64-3.789,0.491c-1.47-0.147-2.612-0.652-3.428-1.512c-0.816-0.861-1.224-1.94-1.224-3.236
	c0-1.443,0.628-2.539,1.887-3.288c1.258-0.751,2.981-1.016,5.17-0.796l3.876,0.389v-2.294c0-1.335-0.409-2.402-1.225-3.201
	c-0.817-0.798-1.992-1.274-3.529-1.428c-1.45-0.144-2.643,0.098-3.58,0.73c-0.936,0.632-1.404,1.5-1.404,2.604l-0.777-0.107
	c0-1.269,0.54-2.296,1.62-3.084c1.081-0.786,2.46-1.095,4.141-0.927c1.71,0.172,3.058,0.726,4.048,1.662
	c0.989,0.936,1.484,2.222,1.484,3.857v7.869c0,0.562,0.029,1.102,0.086,1.62c0.058,0.52,0.164,1.048,0.318,1.586l-0.866-0.087
	c-0.125-0.709-0.208-1.233-0.251-1.571c-0.043-0.339-0.065-0.711-0.065-1.118V167.471z"/>
<path fill="#FFFFFF" d="M526.527,151.095v4.24l3.544,0.355v0.797l-3.544-0.355v10.86c0,1.316,0.211,2.262,0.634,2.836
	c0.422,0.575,0.994,0.899,1.714,0.971c0.269,0.026,0.504,0.04,0.705,0.041c0.203,0.002,0.482-0.005,0.837-0.018l0.144,0.726
	c-0.25,0.053-0.502,0.081-0.757,0.084c-0.253,0.004-0.549-0.011-0.885-0.045c-1.057-0.106-1.851-0.521-2.385-1.248
	c-0.532-0.726-0.799-1.868-0.799-3.426v-10.86l-2.882-0.289v-0.797l2.882,0.288v-4.239L526.527,151.095z"/>
<path fill="#FFFFFF" d="M534.306,171.822l0.777,0.078v-15.708l-0.777-0.077V171.822z M534.306,151.179l0.777,0.077v-2.003
	l-0.777-0.077V151.179z"/>
<path fill="#FFFFFF" d="M539.751,164.819c0,2.013,0.538,3.748,1.614,5.207c1.075,1.458,2.559,2.282,4.451,2.471
	c1.863,0.187,3.333-0.343,4.408-1.59c1.076-1.247,1.614-2.872,1.614-4.876v-0.61c0-1.965-0.544-3.686-1.629-5.164
	c-1.085-1.478-2.559-2.311-4.422-2.497c-1.873-0.189-3.347,0.348-4.422,1.611c-1.076,1.261-1.614,2.873-1.614,4.838V164.819z
	 M538.973,164.131c0-2.342,0.622-4.171,1.866-5.489c1.243-1.317,2.892-1.873,4.948-1.666c2.065,0.206,3.719,1.09,4.963,2.652
	c1.243,1.563,1.866,3.52,1.866,5.871v0.61c0,2.362-0.62,4.199-1.859,5.512c-1.239,1.314-2.885,1.866-4.941,1.66
	c-2.075-0.208-3.734-1.092-4.977-2.655c-1.244-1.561-1.866-3.523-1.866-5.885V164.131z"/>
<path fill="#FFFFFF" d="M557.124,161.944l0.043,0.019c0.479-1.094,1.193-1.949,2.139-2.567c0.945-0.616,2.062-0.859,3.349-0.73
	c1.652,0.166,2.891,0.792,3.717,1.882c0.826,1.089,1.239,2.766,1.239,5.032v9.581l-0.778-0.078v-9.581
	c0-2.13-0.358-3.639-1.073-4.529c-0.716-0.889-1.765-1.403-3.148-1.542c-1.555-0.156-2.786,0.25-3.688,1.219
	c-0.903,0.97-1.503,2.103-1.8,3.398v10.062l-0.778-0.079v-15.707l0.735,0.073l0.043,3.358V161.944z"/>
<polygon fill="#FFFFFF" points="306.386,509.371 311.941,509.613 311.941,510.018 305.976,509.758 305.976,498.846 306.386,498.863 
	"/>
<path fill="#FFFFFF" d="M313.398,506.184c0,1.04,0.278,1.92,0.832,2.641c0.556,0.723,1.322,1.104,2.299,1.148
	c0.961,0.041,1.719-0.276,2.275-0.951c0.555-0.674,0.833-1.53,0.833-2.564v-0.315c0-1.013-0.28-1.887-0.84-2.617
	c-0.561-0.733-1.321-1.12-2.284-1.162c-0.966-0.042-1.727,0.278-2.283,0.961c-0.554,0.683-0.832,1.532-0.832,2.544V506.184z
	 M312.996,505.853c0-1.209,0.32-2.173,0.963-2.888c0.642-0.716,1.494-1.051,2.554-1.006c1.066,0.048,1.92,0.456,2.562,1.226
	c0.643,0.77,0.963,1.761,0.963,2.976v0.315c0,1.218-0.319,2.185-0.959,2.899c-0.64,0.714-1.49,1.049-2.55,1.002
	c-1.072-0.048-1.928-0.456-2.57-1.226c-0.643-0.77-0.963-1.765-0.963-2.983V505.853z"/>
<path fill="#FFFFFF" d="M321.994,506.554c0,1.144,0.217,2.049,0.648,2.715c0.431,0.665,1.082,1.018,1.956,1.055
	c0.728,0.032,1.318-0.104,1.77-0.408c0.45-0.306,0.775-0.736,0.974-1.293v-3.679c-0.194-0.614-0.498-1.129-0.911-1.546
	c-0.414-0.417-1.021-0.645-1.819-0.68c-0.872-0.038-1.527,0.279-1.963,0.949c-0.437,0.671-0.655,1.579-0.655,2.728V506.554z
	 M321.586,506.379c0-1.315,0.262-2.331,0.788-3.05c0.525-0.72,1.274-1.057,2.247-1.015c0.643,0.029,1.189,0.195,1.639,0.499
	c0.448,0.304,0.804,0.714,1.066,1.231l0.023-0.007l0.06-1.45l0.341,0.015v8.004c0,1.058-0.265,1.874-0.799,2.449
	c-0.533,0.574-1.281,0.84-2.242,0.798c-0.402-0.018-0.811-0.076-1.227-0.175c-0.417-0.098-0.786-0.229-1.108-0.393l0.119-0.399
	c0.371,0.18,0.721,0.317,1.049,0.406c0.327,0.088,0.711,0.144,1.152,0.162c0.873,0.039,1.532-0.193,1.978-0.697
	c0.446-0.501,0.67-1.226,0.67-2.169v-1.133l-0.023-0.007c-0.262,0.419-0.621,0.743-1.075,0.976c-0.454,0.231-1,0.333-1.639,0.306
	c-0.967-0.042-1.712-0.434-2.235-1.173c-0.523-0.741-0.784-1.746-0.784-3.021V506.379z"/>
<path fill="#FFFFFF" d="M330.413,510.827l0.4,0.018v-8.11l-0.4-0.016V510.827z M330.413,500.169l0.4,0.018v-1.034l-0.4-0.018
	V500.169z"/>
<path fill="#FFFFFF" d="M333.856,504.697l0.023,0.009c0.247-0.579,0.615-1.042,1.103-1.386c0.489-0.346,1.065-0.504,1.73-0.475
	c0.852,0.036,1.491,0.324,1.918,0.863c0.427,0.537,0.639,1.391,0.639,2.561v4.946l-0.401-0.018v-4.947
	c0-1.098-0.185-1.868-0.554-2.305c-0.369-0.439-0.911-0.674-1.625-0.705c-0.803-0.035-1.438,0.211-1.903,0.738
	c-0.467,0.526-0.777,1.129-0.93,1.806v5.194l-0.403-0.018v-8.108l0.38,0.017l0.023,1.731V504.697z"/>
<path fill="#FFFFFF" d="M306.378,560.632l2.981,0.131c1.046,0.045,1.823-0.173,2.332-0.659c0.508-0.485,0.761-1.118,0.761-1.903
	c0-0.805-0.252-1.47-0.758-1.998c-0.505-0.527-1.284-0.812-2.335-0.858l-2.981-0.131V560.632z M306.378,561.038v4.684l-0.403-0.018
	v-10.913l3.384,0.148c1.146,0.051,2.014,0.368,2.607,0.951c0.592,0.582,0.889,1.354,0.889,2.312c0,0.971-0.297,1.72-0.889,2.248
	c-0.593,0.528-1.461,0.768-2.607,0.717L306.378,561.038z"/>
<path fill="#FFFFFF" d="M316.64,565.932c0.773,0.033,1.435-0.108,1.986-0.421c0.55-0.311,0.969-0.774,1.256-1.386v-1.927
	l-1.978-0.087c-1.006-0.044-1.802,0.113-2.387,0.47c-0.585,0.357-0.877,0.848-0.877,1.479c0,0.515,0.181,0.948,0.542,1.302
	C315.544,565.713,316.031,565.904,316.64,565.932 M319.882,564.859l-0.022-0.009c-0.302,0.466-0.724,0.838-1.264,1.115
	c-0.541,0.275-1.193,0.397-1.956,0.364c-0.758-0.033-1.349-0.261-1.769-0.681c-0.423-0.421-0.633-0.966-0.633-1.636
	c0-0.745,0.325-1.329,0.974-1.752c0.65-0.424,1.54-0.612,2.671-0.561l1.999,0.088v-1.186c0-0.688-0.21-1.227-0.632-1.617
	c-0.42-0.388-1.029-0.599-1.821-0.634c-0.749-0.033-1.366,0.128-1.849,0.483c-0.484,0.353-0.725,0.814-0.725,1.384l-0.401-0.033
	c0-0.654,0.279-1.2,0.837-1.639c0.557-0.437,1.269-0.637,2.138-0.599c0.882,0.038,1.578,0.286,2.089,0.739
	c0.51,0.456,0.766,1.106,0.766,1.949v4.063c0,0.29,0.015,0.568,0.045,0.832c0.03,0.268,0.084,0.538,0.163,0.811l-0.447-0.02
	c-0.064-0.363-0.107-0.631-0.13-0.805c-0.022-0.173-0.033-0.364-0.033-0.574V564.859z"/>
<path fill="#FFFFFF" d="M327.802,564.673c0-0.435-0.179-0.834-0.535-1.197c-0.358-0.362-0.997-0.666-1.918-0.912
	c-0.978-0.251-1.675-0.544-2.094-0.874c-0.419-0.332-0.628-0.821-0.628-1.47c0-0.595,0.238-1.074,0.717-1.439
	c0.479-0.364,1.137-0.526,1.975-0.489c0.907,0.04,1.613,0.278,2.119,0.717c0.506,0.439,0.758,1.014,0.758,1.723l-0.408-0.016
	c0-0.539-0.219-1.004-0.655-1.39c-0.437-0.386-1.041-0.597-1.814-0.63c-0.769-0.035-1.343,0.104-1.721,0.411
	c-0.38,0.308-0.57,0.68-0.57,1.115s0.159,0.805,0.476,1.111c0.317,0.306,0.972,0.597,1.964,0.869
	c0.917,0.255,1.602,0.57,2.056,0.945c0.453,0.375,0.68,0.892,0.68,1.552c0,0.648-0.253,1.156-0.759,1.52
	c-0.506,0.366-1.195,0.53-2.066,0.492c-0.958-0.042-1.698-0.286-2.224-0.729c-0.526-0.44-0.788-0.983-0.788-1.622l0.4,0.018
	c0.045,0.656,0.316,1.135,0.815,1.433c0.499,0.299,1.096,0.463,1.797,0.494c0.758,0.033,1.351-0.113,1.78-0.439
	C327.587,565.54,327.802,565.143,327.802,564.673"/>
<path fill="#FFFFFF" d="M335.379,565.005c0-0.433-0.178-0.834-0.535-1.196c-0.358-0.363-0.997-0.667-1.918-0.913
	c-0.978-0.251-1.674-0.544-2.094-0.874c-0.418-0.331-0.628-0.821-0.628-1.47c0-0.595,0.238-1.074,0.717-1.438
	c0.479-0.365,1.137-0.527,1.975-0.49c0.907,0.04,1.613,0.278,2.119,0.717s0.759,1.015,0.759,1.725l-0.409-0.018
	c0-0.539-0.218-1.002-0.655-1.39c-0.437-0.386-1.041-0.595-1.814-0.63c-0.769-0.035-1.343,0.104-1.721,0.412
	c-0.38,0.307-0.57,0.679-0.57,1.114c0,0.435,0.159,0.805,0.476,1.111c0.317,0.306,0.972,0.597,1.964,0.869
	c0.917,0.256,1.602,0.572,2.056,0.945c0.453,0.375,0.68,0.892,0.68,1.552c0,0.648-0.253,1.156-0.758,1.522
	c-0.507,0.364-1.195,0.528-2.067,0.49c-0.958-0.042-1.698-0.284-2.224-0.728c-0.526-0.441-0.788-0.984-0.788-1.623l0.401,0.018
	c0.045,0.656,0.315,1.135,0.815,1.433c0.498,0.299,1.096,0.465,1.796,0.494c0.758,0.034,1.351-0.113,1.78-0.439
	C335.165,565.871,335.379,565.474,335.379,565.005"/>
<polygon fill="#FFFFFF" points="339.47,564.824 339.902,566.55 339.924,566.552 340.459,564.868 342.266,559.184 342.676,559.2 
	344.475,565.043 345.003,566.775 345.025,566.775 345.472,565.086 347.108,559.395 347.576,559.415 345.234,567.421 
	344.831,567.405 342.847,561.225 342.475,559.799 342.452,559.79 342.058,561.191 340.102,567.197 339.701,567.179 337.365,558.969 
	337.827,558.989 "/>
<path fill="#FFFFFF" d="M349.324,563.704c0,1.038,0.278,1.92,0.832,2.641c0.555,0.721,1.322,1.102,2.299,1.146
	c0.961,0.041,1.719-0.276,2.274-0.949c0.556-0.676,0.833-1.53,0.833-2.565v-0.315c0-1.014-0.28-1.886-0.84-2.619
	c-0.56-0.732-1.321-1.118-2.283-1.159c-0.966-0.044-1.728,0.278-2.283,0.959c-0.554,0.683-0.832,1.532-0.832,2.546V563.704z
	 M348.921,563.371c0-1.207,0.321-2.171,0.963-2.888c0.643-0.716,1.495-1.051,2.555-1.004c1.065,0.046,1.92,0.454,2.562,1.224
	c0.642,0.77,0.963,1.763,0.963,2.976v0.315c0,1.22-0.32,2.187-0.96,2.901c-0.639,0.712-1.49,1.047-2.549,1
	c-1.072-0.046-1.928-0.456-2.571-1.224c-0.642-0.77-0.963-1.765-0.963-2.985V563.371z"/>
<path fill="#FFFFFF" d="M361.437,560.315l-0.52-0.069c-0.735-0.031-1.32,0.173-1.758,0.614c-0.44,0.44-0.729,1.047-0.868,1.821
	v5.312l-0.401-0.016v-8.11l0.327,0.015l0.074,1.411v0.219h0.023c0.218-0.554,0.543-0.978,0.974-1.27
	c0.431-0.289,0.974-0.42,1.629-0.393c0.114,0.005,0.218,0.018,0.312,0.036c0.094,0.02,0.178,0.044,0.253,0.071L361.437,560.315z"/>
<path fill="#FFFFFF" d="M362.851,564.289c0,1.143,0.214,2.049,0.643,2.715c0.429,0.665,1.079,1.016,1.952,1.054
	c0.714,0.031,1.298-0.098,1.751-0.391c0.454-0.292,0.787-0.709,1-1.249v-3.799c-0.199-0.598-0.506-1.1-0.925-1.507
	c-0.419-0.404-1.023-0.626-1.811-0.659c-0.873-0.038-1.525,0.277-1.959,0.947c-0.435,0.67-0.651,1.581-0.651,2.73V564.289z
	 M362.434,564.112c0-1.313,0.263-2.329,0.788-3.049c0.526-0.719,1.274-1.058,2.246-1.014c0.644,0.027,1.19,0.193,1.636,0.495
	c0.447,0.301,0.803,0.707,1.071,1.219l0.022,0.001v-5.029l0.403,0.018v11.692l-0.388-0.017l-0.015-1.253l-0.022-0.009
	c-0.258,0.425-0.614,0.754-1.071,0.989c-0.456,0.235-1.006,0.337-1.651,0.31c-0.967-0.042-1.711-0.434-2.235-1.173
	c-0.522-0.741-0.784-1.749-0.784-3.022V564.112z"/>
<polygon fill="#FFFFFF" points="466.966,624.384 461.538,624.233 461.538,629.314 467.724,629.489 467.724,629.893 461.135,629.707 
	461.135,618.795 467.724,618.981 467.724,619.385 461.538,619.212 461.538,623.828 466.966,623.98 "/>
<path fill="#FFFFFF" d="M470,623.675l0.022,0.009c0.248-0.583,0.616-1.051,1.104-1.404c0.49-0.353,1.065-0.523,1.73-0.503
	c0.853,0.024,1.492,0.301,1.918,0.833c0.427,0.531,0.64,1.382,0.64,2.551v4.946l-0.402-0.011v-4.946c0-1.1-0.185-1.865-0.554-2.298
	c-0.368-0.432-0.911-0.659-1.625-0.68c-0.803-0.021-1.438,0.235-1.903,0.769c-0.467,0.534-0.777,1.142-0.93,1.821v5.194
	l-0.402-0.011v-8.109l0.379,0.011l0.023,1.731V623.675z"/>
<path fill="#FFFFFF" d="M478.835,619.906v2.189l1.83,0.053v0.412l-1.83-0.053v5.607c0,0.679,0.108,1.16,0.327,1.44
	c0.217,0.281,0.512,0.427,0.884,0.438c0.139,0.003,0.261,0.002,0.365-0.006c0.105-0.007,0.248-0.02,0.431-0.04l0.075,0.37
	c-0.129,0.034-0.259,0.06-0.391,0.071c-0.131,0.011-0.284,0.014-0.457,0.009c-0.545-0.015-0.956-0.2-1.231-0.556
	c-0.275-0.353-0.412-0.934-0.412-1.737v-5.607l-1.488-0.042v-0.412l1.488,0.042v-2.189L478.835,619.906z"/>
<path fill="#FFFFFF" d="M485.498,622.537c-0.819-0.024-1.492,0.249-2.019,0.816c-0.528,0.568-0.84,1.309-0.933,2.227l5.607,0.157
	v-0.248c0-0.845-0.241-1.542-0.722-2.092C486.95,622.845,486.306,622.559,485.498,622.537 M485.647,630.552
	c-1.012-0.027-1.852-0.417-2.521-1.164c-0.67-0.748-1.005-1.695-1.005-2.839v-0.479c0-1.189,0.322-2.151,0.963-2.881
	c0.642-0.732,1.447-1.084,2.414-1.056c0.922,0.025,1.662,0.338,2.219,0.941c0.558,0.603,0.837,1.423,0.837,2.457v0.621l-6.031-0.169
	v0.098v0.479c0,1,0.295,1.841,0.885,2.524s1.336,1.038,2.239,1.064c0.475,0.012,0.899-0.049,1.271-0.19
	c0.372-0.138,0.746-0.384,1.123-0.732l0.215,0.321c-0.317,0.335-0.681,0.592-1.093,0.766
	C486.752,630.49,486.246,630.57,485.647,630.552"/>
<path fill="#FFFFFF" d="M493.975,622.812l-0.521-0.06c-0.733-0.02-1.319,0.193-1.758,0.641c-0.439,0.446-0.728,1.058-0.867,1.834
	v5.314l-0.4-0.011v-8.11l0.326,0.01l0.074,1.411v0.217l0.022,0.001c0.218-0.559,0.543-0.987,0.975-1.285
	c0.431-0.297,0.975-0.437,1.628-0.419c0.115,0.003,0.219,0.014,0.313,0.033c0.094,0.016,0.178,0.038,0.253,0.065L493.975,622.812z"
	/>
<path fill="#FFFFFF" d="M441.166,680.358l2.974,0.056c1.131,0.022,1.951-0.195,2.462-0.646c0.51-0.454,0.767-1.037,0.767-1.751
	c0-0.834-0.26-1.467-0.778-1.899c-0.519-0.432-1.31-0.659-2.376-0.679l-3.049-0.059V680.358z M441.166,680.762v5.127l-0.402-0.009
	v-10.911l3.451,0.065c1.164,0.022,2.049,0.283,2.651,0.782c0.602,0.499,0.902,1.234,0.902,2.209c0,0.619-0.187,1.174-0.564,1.664
	c-0.376,0.49-0.894,0.802-1.554,0.935v0.021c0.758,0.15,1.294,0.441,1.607,0.873c0.311,0.433,0.467,1.003,0.467,1.706v1.027
	c0,0.347,0.04,0.65,0.119,0.918c0.08,0.266,0.216,0.488,0.409,0.667v0.187l-0.394-0.007c-0.178-0.213-0.313-0.468-0.402-0.765
	c-0.087-0.297-0.133-0.637-0.133-1.022v-0.996c0-0.759-0.24-1.346-0.721-1.761c-0.481-0.413-1.195-0.628-2.142-0.646
	L441.166,680.762z"/>
<path fill="#FFFFFF" d="M453.302,678.258c-0.818-0.016-1.49,0.262-2.018,0.834c-0.528,0.574-0.84,1.317-0.933,2.235l5.606,0.107
	v-0.247c0-0.844-0.24-1.539-0.721-2.086C454.755,678.555,454.111,678.273,453.302,678.258 M453.451,686.273
	c-1.011-0.02-1.851-0.401-2.521-1.144c-0.669-0.741-1.004-1.684-1.004-2.828v-0.481c0-1.189,0.322-2.151,0.963-2.888
	c0.642-0.738,1.447-1.097,2.413-1.078c0.922,0.018,1.663,0.324,2.22,0.923c0.558,0.597,0.837,1.413,0.837,2.448v0.621l-6.031-0.115
	v0.098v0.479c0,1,0.295,1.838,0.885,2.517c0.59,0.678,1.335,1.025,2.238,1.042c0.476,0.009,0.9-0.057,1.272-0.2
	s0.746-0.39,1.123-0.742l0.215,0.319c-0.317,0.337-0.681,0.597-1.093,0.776C454.557,686.2,454.051,686.284,453.451,686.273"/>
<path fill="#FFFFFF" d="M458.262,682.303c0,1.143,0.216,2.043,0.647,2.699c0.431,0.655,1.084,0.99,1.957,1.007
	c0.728,0.014,1.319-0.137,1.769-0.454c0.451-0.315,0.775-0.754,0.974-1.315v-3.68c-0.193-0.608-0.498-1.114-0.911-1.522
	c-0.413-0.408-1.02-0.62-1.818-0.636c-0.873-0.016-1.527,0.317-1.963,0.998c-0.437,0.681-0.655,1.595-0.655,2.744V682.303z
	 M457.853,682.137c0-1.313,0.263-2.336,0.789-3.068c0.525-0.733,1.273-1.09,2.245-1.071c0.645,0.012,1.192,0.166,1.64,0.459
	c0.448,0.293,0.805,0.695,1.067,1.205l0.023-0.007l0.059-1.453l0.343,0.007v8.004c0,1.057-0.268,1.881-0.8,2.467
	c-0.534,0.588-1.28,0.872-2.242,0.854c-0.402-0.007-0.811-0.056-1.228-0.144c-0.416-0.087-0.785-0.209-1.107-0.366l0.118-0.402
	c0.372,0.171,0.722,0.299,1.049,0.381c0.328,0.079,0.712,0.125,1.153,0.134c0.872,0.017,1.532-0.233,1.978-0.747
	c0.446-0.513,0.669-1.241,0.669-2.187v-1.13l-0.022-0.008c-0.263,0.425-0.622,0.758-1.074,1.002
	c-0.454,0.244-1.001,0.359-1.64,0.348c-0.968-0.018-1.712-0.392-2.236-1.118c-0.522-0.729-0.784-1.729-0.784-3.002V682.137z"/>
<path fill="#FFFFFF" d="M466.681,686.368l0.401,0.007v-8.108l-0.401-0.007V686.368z M466.681,675.71l0.401,0.007v-1.034
	l-0.401-0.007V675.71z"/>
<path fill="#FFFFFF" d="M474.652,684.533c0-0.433-0.179-0.829-0.535-1.182c-0.358-0.355-0.998-0.643-1.919-0.865
	c-0.977-0.229-1.674-0.505-2.093-0.823c-0.42-0.321-0.629-0.807-0.629-1.455c0-0.596,0.239-1.08,0.718-1.455
	c0.479-0.376,1.136-0.556,1.975-0.54c0.906,0.017,1.613,0.239,2.118,0.665c0.506,0.428,0.759,0.996,0.759,1.705l-0.409-0.007
	c0-0.54-0.218-0.997-0.655-1.374c-0.436-0.375-1.04-0.57-1.813-0.584c-0.769-0.015-1.343,0.136-1.722,0.453
	c-0.379,0.319-0.57,0.694-0.57,1.129c0,0.436,0.159,0.802,0.477,1.1c0.317,0.297,0.971,0.572,1.963,0.82
	c0.917,0.233,1.602,0.532,2.056,0.894c0.454,0.364,0.681,0.874,0.681,1.534c0,0.65-0.253,1.163-0.759,1.542
	c-0.506,0.377-1.195,0.557-2.067,0.541c-0.957-0.018-1.698-0.242-2.223-0.672c-0.527-0.43-0.789-0.965-0.789-1.604l0.401,0.007
	c0.045,0.655,0.316,1.127,0.815,1.413c0.498,0.288,1.097,0.437,1.796,0.45c0.758,0.014,1.352-0.146,1.78-0.483
	C474.437,685.407,474.652,685.003,474.652,684.533"/>
<path fill="#FFFFFF" d="M478.199,676.289v2.189l1.83,0.036v0.412l-1.83-0.036v5.607c0,0.679,0.109,1.158,0.328,1.437
	c0.218,0.28,0.513,0.422,0.885,0.43c0.138,0.001,0.26,0,0.364-0.01c0.105-0.007,0.248-0.021,0.431-0.043l0.075,0.369
	c-0.129,0.037-0.259,0.062-0.391,0.075c-0.131,0.013-0.283,0.017-0.457,0.013c-0.545-0.009-0.956-0.191-1.231-0.545
	c-0.275-0.351-0.413-0.93-0.413-1.733v-5.608l-1.486-0.027v-0.412l1.486,0.028v-2.189L478.199,676.289z"/>
<path fill="#FFFFFF" d="M485.666,678.913l-0.521-0.055c-0.734-0.014-1.319,0.204-1.759,0.656c-0.439,0.452-0.727,1.066-0.866,1.843
	v5.312l-0.401-0.007v-8.108l0.327,0.006l0.074,1.409v0.219h0.023c0.218-0.561,0.542-0.991,0.974-1.293
	c0.431-0.303,0.974-0.446,1.628-0.434c0.115,0.002,0.219,0.011,0.313,0.029c0.094,0.017,0.178,0.037,0.253,0.064L485.666,678.913z"
	/>
<path fill="#FFFFFF" d="M488.983,686.555c0.774,0.014,1.435-0.142,1.986-0.47c0.55-0.326,0.969-0.798,1.257-1.417v-1.927
	l-1.978-0.038c-1.008-0.02-1.803,0.157-2.388,0.528c-0.585,0.372-0.877,0.871-0.877,1.501c0,0.515,0.181,0.943,0.543,1.287
	C487.887,686.364,488.373,686.542,488.983,686.555 M492.226,685.402l-0.023-0.009c-0.302,0.475-0.723,0.856-1.264,1.145
	c-0.541,0.29-1.192,0.428-1.956,0.414c-0.759-0.015-1.349-0.228-1.769-0.637c-0.422-0.41-0.633-0.951-0.633-1.621
	c0-0.745,0.325-1.337,0.975-1.776c0.648-0.441,1.538-0.648,2.669-0.627l2.001,0.039v-1.186c0-0.688-0.211-1.222-0.633-1.601
	c-0.421-0.377-1.029-0.573-1.822-0.59c-0.748-0.014-1.365,0.162-1.848,0.528c-0.483,0.365-0.724,0.833-0.724,1.403l-0.402-0.022
	c0-0.656,0.279-1.208,0.837-1.661c0.557-0.45,1.27-0.668,2.137-0.652c0.883,0.018,1.58,0.246,2.09,0.688
	c0.511,0.443,0.767,1.086,0.767,1.931v4.061c0,0.29,0.014,0.568,0.044,0.832c0.03,0.266,0.083,0.536,0.162,0.805l-0.445-0.007
	c-0.064-0.361-0.107-0.628-0.13-0.801c-0.022-0.173-0.033-0.365-0.033-0.574V685.402z"/>
<path fill="#FFFFFF" d="M496.114,676.631v2.189l1.829,0.036v0.412l-1.829-0.036v5.607c0,0.679,0.109,1.158,0.328,1.437
	c0.218,0.28,0.513,0.422,0.885,0.43c0.138,0.001,0.26,0,0.364-0.01c0.103-0.007,0.247-0.021,0.43-0.043l0.075,0.369
	c-0.129,0.037-0.259,0.062-0.391,0.075c-0.13,0.013-0.282,0.017-0.456,0.013c-0.546-0.009-0.956-0.191-1.231-0.545
	c-0.275-0.351-0.413-0.93-0.413-1.733v-5.608l-1.487-0.029v-0.411l1.487,0.029v-2.189L496.114,676.631z"/>
<path fill="#FFFFFF" d="M500.13,687.007l0.4,0.007v-8.108l-0.4-0.009V687.007z M500.13,676.349l0.4,0.007v-1.034l-0.4-0.007V676.349
	z"/>
<path fill="#FFFFFF" d="M502.941,683.162c0,1.04,0.278,1.914,0.833,2.621c0.555,0.708,1.321,1.071,2.298,1.089
	c0.962,0.018,1.72-0.317,2.275-1.005c0.555-0.689,0.833-1.55,0.833-2.584v-0.316c0-1.014-0.28-1.879-0.84-2.596
	c-0.56-0.718-1.321-1.088-2.283-1.106c-0.967-0.018-1.728,0.322-2.283,1.018s-0.833,1.552-0.833,2.564V683.162z M502.54,682.84
	c0-1.208,0.32-2.178,0.962-2.912c0.642-0.731,1.494-1.087,2.555-1.067c1.066,0.02,1.919,0.408,2.562,1.162
	c0.642,0.754,0.963,1.739,0.963,2.952v0.315c0,1.22-0.32,2.194-0.959,2.924c-0.64,0.729-1.49,1.084-2.551,1.064
	c-1.071-0.02-1.928-0.408-2.57-1.162s-0.962-1.741-0.962-2.961V682.84z"/>
<path fill="#FFFFFF" d="M511.909,680.951l0.023,0.007c0.248-0.584,0.616-1.056,1.103-1.413c0.489-0.359,1.065-0.532,1.73-0.519
	c0.853,0.016,1.492,0.289,1.919,0.818c0.426,0.528,0.639,1.375,0.639,2.544v4.946l-0.402-0.007v-4.946
	c0-1.099-0.184-1.863-0.553-2.293c-0.37-0.43-0.912-0.65-1.626-0.665c-0.803-0.015-1.438,0.248-1.903,0.785
	c-0.466,0.537-0.776,1.149-0.93,1.83v5.194l-0.402-0.009v-8.108l0.38,0.008l0.022,1.731V680.951z"/>
<polygon fill="#FFFFFF" points="436.467,748.431 431.039,748.429 431.039,753.51 437.226,753.512 437.226,753.917 430.637,753.913 
	430.637,743 437.226,743.004 437.226,743.408 431.039,743.406 431.039,748.023 436.467,748.025 "/>
<polygon fill="#FFFFFF" points="441.457,749.407 444.022,745.81 444.529,745.81 441.702,749.759 444.677,753.92 444.178,753.92 
	441.45,750.11 438.728,753.916 438.229,753.916 441.204,749.759 438.378,745.806 438.884,745.806 "/>
<path fill="#FFFFFF" d="M448.953,753.674c0.699,0,1.292-0.182,1.777-0.546c0.486-0.365,0.754-0.92,0.803-1.665l0.402,0.002
	c-0.045,0.819-0.346,1.46-0.903,1.921c-0.558,0.463-1.251,0.692-2.079,0.692c-1.046,0-1.856-0.368-2.428-1.098
	c-0.573-0.732-0.859-1.719-0.859-2.957v-0.316c0-1.233,0.285-2.216,0.855-2.948c0.57-0.732,1.376-1.096,2.417-1.096
	c0.833,0,1.53,0.244,2.094,0.733c0.562,0.492,0.863,1.19,0.903,2.093l-0.402-0.002c-0.039-0.783-0.304-1.382-0.792-1.797
	c-0.488-0.415-1.089-0.623-1.803-0.623c-0.962,0-1.681,0.333-2.157,1.003c-0.475,0.669-0.714,1.548-0.714,2.637v0.316
	c0,1.099,0.239,1.983,0.714,2.649C447.257,753.339,447.981,753.674,448.953,753.674"/>
<path fill="#FFFFFF" d="M454.351,747.642l0.023,0.009c0.247-0.59,0.615-1.069,1.104-1.437c0.488-0.364,1.064-0.548,1.729-0.548
	c0.852,0,1.492,0.26,1.919,0.779c0.426,0.52,0.639,1.364,0.639,2.534v4.946h-0.402v-4.946c0-1.1-0.185-1.86-0.554-2.282
	c-0.369-0.423-0.911-0.634-1.625-0.634c-0.803,0-1.438,0.273-1.903,0.82c-0.466,0.546-0.777,1.161-0.93,1.846v5.194h-0.402v-11.692
	h0.402V747.642z"/>
<path fill="#FFFFFF" d="M464.093,753.689c0.774,0,1.435-0.168,1.986-0.505c0.55-0.338,0.969-0.819,1.256-1.444v-1.925h-1.978
	c-1.006,0-1.802,0.19-2.387,0.572c-0.585,0.381-0.877,0.887-0.877,1.517c0,0.514,0.18,0.94,0.542,1.279
	C462.997,753.52,463.484,753.687,464.093,753.689 M467.335,752.476l-0.022-0.007c-0.302,0.479-0.724,0.868-1.264,1.169
	c-0.541,0.299-1.193,0.448-1.956,0.448c-0.758-0.002-1.349-0.202-1.77-0.605c-0.422-0.402-0.632-0.938-0.632-1.608
	c0-0.743,0.325-1.342,0.974-1.794c0.65-0.451,1.54-0.677,2.67-0.677h2v-1.184c0-0.688-0.21-1.218-0.632-1.588
	c-0.421-0.37-1.029-0.555-1.821-0.555c-0.749,0-1.365,0.185-1.849,0.561c-0.483,0.375-0.725,0.846-0.725,1.416l-0.401-0.016
	c0-0.654,0.279-1.213,0.837-1.674c0.557-0.462,1.269-0.692,2.138-0.692c0.882,0,1.578,0.217,2.089,0.649
	c0.51,0.431,0.766,1.071,0.766,1.914v4.063c0,0.289,0.015,0.566,0.045,0.832c0.03,0.264,0.084,0.532,0.163,0.801h-0.446
	c-0.065-0.36-0.108-0.626-0.13-0.797c-0.022-0.173-0.034-0.365-0.034-0.574V752.476z"/>
<path fill="#FFFFFF" d="M470.727,747.649l0.023,0.009c0.247-0.59,0.615-1.069,1.103-1.437c0.489-0.364,1.065-0.548,1.73-0.548
	c0.852,0,1.492,0.26,1.919,0.779c0.426,0.519,0.639,1.364,0.639,2.534v4.946h-0.402v-4.946c0-1.1-0.185-1.86-0.554-2.282
	c-0.369-0.423-0.911-0.634-1.625-0.634c-0.803,0-1.438,0.271-1.903,0.82c-0.466,0.546-0.777,1.161-0.93,1.846v5.194h-0.402v-8.109
	h0.379l0.023,1.731V747.649z"/>
<path fill="#FFFFFF" d="M478.691,750.03c0,1.143,0.216,2.039,0.647,2.686c0.431,0.648,1.083,0.971,1.956,0.972
	c0.728,0,1.319-0.162,1.77-0.486c0.45-0.326,0.775-0.77,0.974-1.335v-3.679c-0.193-0.604-0.498-1.107-0.911-1.507
	c-0.414-0.399-1.02-0.6-1.819-0.6c-0.872-0.002-1.527,0.345-1.963,1.033c-0.436,0.69-0.654,1.61-0.654,2.759V750.03z
	 M478.282,749.873c0-1.315,0.263-2.342,0.788-3.085c0.525-0.741,1.274-1.113,2.246-1.111c0.644,0,1.191,0.142,1.64,0.428
	c0.448,0.284,0.804,0.679,1.066,1.184l0.023-0.008l0.06-1.455h0.342v8.005c0,1.059-0.267,1.888-0.8,2.485
	c-0.533,0.596-1.28,0.895-2.242,0.895c-0.402,0-0.811-0.041-1.227-0.121c-0.416-0.08-0.786-0.195-1.108-0.346l0.119-0.404
	c0.372,0.166,0.721,0.284,1.049,0.361c0.327,0.074,0.711,0.113,1.153,0.113c0.872,0,1.531-0.261,1.977-0.784
	c0.447-0.522,0.67-1.254,0.67-2.199v-1.132l-0.023-0.007c-0.262,0.43-0.621,0.771-1.074,1.024c-0.454,0.251-1,0.377-1.64,0.377
	c-0.967-0.002-1.711-0.359-2.235-1.077c-0.522-0.717-0.784-1.711-0.784-2.986V749.873z"/>
<path fill="#FFFFFF" d="M489.756,746.085c-0.818,0-1.491,0.289-2.019,0.872c-0.528,0.581-0.839,1.333-0.933,2.251l5.608,0.002
	v-0.248c0-0.843-0.242-1.533-0.723-2.07C491.209,746.354,490.565,746.085,489.756,746.085 M489.905,754.096
	c-1.011,0-1.851-0.366-2.521-1.094c-0.669-0.731-1.004-1.667-1.004-2.812v-0.479c0-1.19,0.321-2.159,0.963-2.909
	c0.642-0.748,1.446-1.123,2.413-1.122c0.923,0,1.663,0.294,2.22,0.882c0.558,0.586,0.837,1.397,0.837,2.431v0.621l-6.031-0.002
	v0.099v0.479c0,0.999,0.294,1.834,0.885,2.5c0.59,0.666,1.335,1.002,2.238,1.002c0.476,0,0.9-0.075,1.272-0.224
	c0.372-0.151,0.746-0.405,1.123-0.765l0.215,0.315c-0.317,0.344-0.681,0.61-1.093,0.797
	C491.011,754.003,490.505,754.096,489.905,754.096"/>
<path fill="#FFFFFF" d="M501.878,746.129l-0.521-0.045c-0.734-0.002-1.319,0.227-1.758,0.688c-0.439,0.459-0.728,1.078-0.867,1.857
	v5.315h-0.401v-8.11h0.327l0.074,1.409v0.217h0.023c0.218-0.564,0.542-1.001,0.974-1.311c0.431-0.31,0.974-0.464,1.628-0.463
	c0.115,0,0.219,0.008,0.313,0.022c0.094,0.017,0.178,0.037,0.253,0.06L501.878,746.129z"/>
<path fill="#FFFFFF" d="M505.194,753.705c0.773,0.002,1.435-0.166,1.986-0.503c0.55-0.338,0.969-0.819,1.256-1.444v-1.925h-1.978
	c-1.006,0-1.802,0.19-2.387,0.572c-0.585,0.381-0.877,0.887-0.877,1.517c0,0.514,0.18,0.94,0.542,1.279
	C504.098,753.537,504.585,753.705,505.194,753.705 M508.436,752.494l-0.022-0.007c-0.302,0.479-0.724,0.868-1.264,1.169
	c-0.541,0.299-1.193,0.448-1.956,0.446c-0.758,0-1.349-0.2-1.77-0.603c-0.422-0.402-0.632-0.938-0.632-1.608
	c0-0.743,0.325-1.342,0.974-1.794c0.65-0.451,1.54-0.679,2.67-0.677h2v-1.184c0-0.688-0.21-1.218-0.632-1.588
	c-0.421-0.37-1.029-0.556-1.821-0.556c-0.749-0.001-1.365,0.186-1.849,0.561c-0.483,0.376-0.725,0.847-0.725,1.417l-0.401-0.016
	c0-0.654,0.279-1.213,0.837-1.674c0.557-0.462,1.269-0.694,2.138-0.692c0.882,0,1.578,0.217,2.089,0.649
	c0.51,0.431,0.766,1.07,0.766,1.914v4.063c0,0.289,0.015,0.566,0.045,0.832c0.03,0.264,0.084,0.532,0.163,0.801H508.6
	c-0.065-0.36-0.108-0.626-0.13-0.798c-0.022-0.173-0.034-0.364-0.034-0.573V752.494z"/>
<path fill="#FFFFFF" d="M512.326,743.652v2.187l1.83,0.002v0.414l-1.83-0.002v5.605c0,0.68,0.109,1.157,0.328,1.432
	c0.217,0.275,0.512,0.411,0.884,0.411c0.139,0,0.26-0.003,0.365-0.012c0.104-0.01,0.247-0.028,0.431-0.053l0.074,0.368
	c-0.129,0.04-0.259,0.067-0.391,0.082c-0.13,0.014-0.283,0.021-0.456,0.02c-0.546,0-0.956-0.174-1.231-0.521
	c-0.276-0.346-0.413-0.922-0.413-1.727v-5.605h-1.487v-0.414h1.487v-2.187H512.326z"/>
<path fill="#FFFFFF" d="M518.989,746.098c-0.818,0-1.491,0.289-2.019,0.872c-0.528,0.581-0.838,1.333-0.933,2.251l5.608,0.002
	v-0.248c0-0.843-0.241-1.533-0.723-2.071C520.442,746.367,519.798,746.098,518.989,746.098 M519.138,754.109
	c-1.011,0-1.851-0.366-2.521-1.094c-0.669-0.731-1.004-1.667-1.004-2.813v-0.478c0-1.19,0.321-2.158,0.963-2.909
	c0.642-0.748,1.446-1.122,2.413-1.122c0.923,0,1.663,0.294,2.22,0.882c0.558,0.586,0.837,1.398,0.837,2.433v0.621l-6.031-0.004
	v0.099v0.478c0,1,0.294,1.834,0.885,2.501c0.59,0.667,1.335,1.002,2.238,1.002c0.476,0,0.9-0.075,1.272-0.224
	c0.372-0.151,0.746-0.405,1.123-0.765l0.215,0.315c-0.317,0.344-0.681,0.61-1.093,0.798
	C520.244,754.016,519.738,754.109,519.138,754.109"/>
<path fill="#FFFFFF" d="M528.85,751.969c0-0.433-0.179-0.825-0.536-1.173c-0.357-0.346-0.997-0.623-1.918-0.827
	c-0.977-0.213-1.674-0.473-2.094-0.785c-0.419-0.313-0.628-0.794-0.628-1.444c0-0.593,0.239-1.083,0.717-1.468
	c0.479-0.384,1.137-0.577,1.975-0.575c0.907,0,1.614,0.209,2.119,0.626c0.506,0.417,0.759,0.98,0.759,1.69h-0.409
	c0-0.54-0.219-0.994-0.655-1.36c-0.436-0.368-1.04-0.552-1.814-0.552c-0.769-0.002-1.342,0.16-1.722,0.486
	c-0.379,0.325-0.569,0.705-0.569,1.139c0,0.435,0.159,0.797,0.476,1.091c0.318,0.291,0.972,0.553,1.964,0.785
	c0.917,0.214,1.602,0.499,2.056,0.854c0.453,0.355,0.681,0.861,0.681,1.522c0,0.648-0.254,1.168-0.759,1.554
	c-0.506,0.387-1.195,0.58-2.067,0.58c-0.957-0.001-1.699-0.211-2.224-0.63c-0.526-0.42-0.788-0.949-0.788-1.59h0.401
	c0.045,0.656,0.316,1.122,0.815,1.399c0.498,0.277,1.096,0.415,1.796,0.417c0.758,0,1.352-0.171,1.78-0.517
	C528.635,752.847,528.85,752.439,528.85,751.969"/>
<polygon fill="#FFFFFF" points="307.648,780.134 302.22,780.132 302.22,785.213 308.407,785.215 308.407,785.62 301.818,785.616 
	301.818,774.703 308.407,774.707 308.407,775.111 302.22,775.11 302.22,779.726 307.648,779.728 "/>
<path fill="#FFFFFF" d="M317.777,774.71v7.398c0,1.209-0.336,2.123-1.007,2.742c-0.673,0.62-1.568,0.929-2.689,0.927
	c-1.126,0-2.024-0.309-2.695-0.928c-0.673-0.62-1.008-1.534-1.008-2.743v-7.398h0.401v7.398c0,1.043,0.303,1.85,0.907,2.417
	c0.605,0.568,1.404,0.85,2.395,0.85c0.986,0.002,1.783-0.28,2.387-0.845c0.605-0.564,0.907-1.371,0.907-2.42v-7.398H317.777z"/>
<path fill="#FFFFFF" d="M321.005,780.101l2.974,0.001c1.13,0,1.951-0.231,2.461-0.693c0.511-0.459,0.767-1.047,0.767-1.763
	c0-0.834-0.259-1.463-0.777-1.887c-0.519-0.423-1.311-0.632-2.376-0.632l-3.049-0.002V780.101z M321.005,780.505v5.127h-0.402
	v-10.913l3.451,0.002c1.164,0,2.048,0.244,2.651,0.732c0.602,0.488,0.903,1.218,0.903,2.193c0,0.619-0.188,1.178-0.565,1.675
	c-0.377,0.495-0.895,0.816-1.554,0.962v0.021c0.758,0.135,1.293,0.418,1.606,0.846c0.312,0.428,0.468,0.992,0.468,1.697v1.027
	c0,0.344,0.04,0.65,0.119,0.914c0.08,0.266,0.216,0.485,0.409,0.66v0.187h-0.393c-0.179-0.209-0.313-0.462-0.402-0.757
	c-0.089-0.294-0.135-0.634-0.135-1.019v-0.998c0-0.759-0.24-1.34-0.721-1.746c-0.481-0.406-1.195-0.608-2.141-0.608L321.005,780.505
	z"/>
<polygon fill="#FFFFFF" points="391.261,785.535 390.859,785.539 383.891,775.406 383.869,775.413 383.869,785.599 383.46,785.603 
	383.46,774.69 383.869,774.686 390.837,784.799 390.859,784.788 390.859,774.626 391.261,774.623 "/>
<path fill="#FFFFFF" d="M395.833,785.257c0.773-0.007,1.435-0.18,1.986-0.523c0.55-0.342,0.969-0.826,1.256-1.453v-1.927
	l-1.978,0.019c-1.006,0.009-1.802,0.205-2.387,0.593c-0.585,0.386-0.877,0.895-0.877,1.525c0,0.513,0.18,0.938,0.542,1.274
	C394.737,785.099,395.224,785.263,395.833,785.257 M399.075,784.016l-0.022-0.007c-0.302,0.48-0.724,0.874-1.264,1.18
	c-0.541,0.302-1.192,0.457-1.956,0.464c-0.758,0.006-1.349-0.189-1.77-0.588c-0.422-0.399-0.632-0.932-0.632-1.603
	c0-0.743,0.325-1.344,0.974-1.801c0.65-0.457,1.54-0.694,2.67-0.703l2-0.016v-1.184c0-0.688-0.21-1.218-0.632-1.584
	c-0.421-0.366-1.029-0.547-1.821-0.539c-0.749,0.007-1.365,0.2-1.849,0.579c-0.483,0.379-0.724,0.852-0.724,1.422l-0.402-0.013
	c0-0.654,0.279-1.215,0.837-1.681c0.557-0.466,1.269-0.704,2.138-0.712c0.882-0.007,1.578,0.204,2.089,0.63
	c0.51,0.428,0.766,1.066,0.766,1.909v4.063c0,0.29,0.015,0.567,0.045,0.831c0.03,0.264,0.084,0.531,0.163,0.801l-0.446,0.003
	c-0.065-0.36-0.108-0.626-0.13-0.797c-0.022-0.173-0.034-0.363-0.034-0.574V784.016z"/>
<path fill="#FFFFFF" d="M402.965,775.138v2.187l1.83-0.016v0.413l-1.83,0.017v5.605c0,0.68,0.109,1.157,0.328,1.43
	c0.217,0.273,0.512,0.406,0.884,0.402c0.139,0,0.26-0.007,0.365-0.016c0.104-0.011,0.247-0.031,0.43-0.056l0.074,0.366
	c-0.129,0.041-0.258,0.069-0.389,0.085c-0.131,0.017-0.284,0.024-0.457,0.026c-0.546,0.005-0.956-0.164-1.231-0.51
	c-0.276-0.345-0.413-0.918-0.413-1.723v-5.606l-1.487,0.013v-0.413l1.487-0.013v-2.187L402.965,775.138z"/>
<path fill="#FFFFFF" d="M406.98,777.291v8.11l0.401-0.004v-8.11L406.98,777.291z M406.98,773.709v1.034l0.401-0.003v-1.035
	L406.98,773.709z"/>
<path fill="#FFFFFF" d="M409.792,781.479c0,1.04,0.277,1.904,0.832,2.597c0.556,0.693,1.321,1.035,2.298,1.026
	c0.962-0.009,1.72-0.364,2.276-1.069c0.555-0.703,0.832-1.574,0.832-2.608v-0.315c0-1.015-0.279-1.87-0.84-2.574
	c-0.56-0.703-1.321-1.05-2.283-1.041c-0.966,0.009-1.727,0.368-2.283,1.082c-0.555,0.71-0.832,1.573-0.832,2.587V781.479z
	 M409.39,781.168c0-1.209,0.32-2.189,0.963-2.939c0.642-0.751,1.493-1.129,2.554-1.139c1.066-0.009,1.92,0.356,2.562,1.091
	c0.642,0.738,0.963,1.712,0.963,2.925v0.315c0,1.22-0.319,2.204-0.959,2.95c-0.639,0.749-1.49,1.126-2.551,1.135
	c-1.071,0.009-1.927-0.353-2.569-1.091c-0.643-0.736-0.963-1.712-0.963-2.932V781.168z"/>
<path fill="#FFFFFF" d="M418.76,779.017l0.023,0.009c0.247-0.592,0.615-1.074,1.103-1.446c0.489-0.37,1.065-0.559,1.73-0.564
	c0.852-0.008,1.492,0.247,1.919,0.763c0.426,0.515,0.639,1.358,0.639,2.527v4.947l-0.402,0.003v-4.946
	c0-1.1-0.185-1.859-0.554-2.278c-0.369-0.419-0.911-0.625-1.625-0.619c-0.803,0.007-1.438,0.285-1.903,0.837
	c-0.466,0.55-0.777,1.169-0.93,1.854v5.194l-0.402,0.004v-8.11l0.379-0.004l0.023,1.733V779.017z"/>
<path fill="#FFFFFF" d="M428.501,784.974c0.773-0.005,1.434-0.18,1.985-0.521c0.55-0.344,0.969-0.828,1.256-1.455v-1.925
	l-1.978,0.017c-1.005,0.009-1.801,0.207-2.386,0.593c-0.585,0.386-0.877,0.896-0.877,1.527c0,0.513,0.18,0.937,0.542,1.273
	C427.405,784.816,427.892,784.98,428.501,784.974 M431.742,783.734l-0.022-0.007c-0.302,0.48-0.724,0.874-1.264,1.18
	c-0.541,0.302-1.192,0.459-1.955,0.464c-0.758,0.007-1.349-0.187-1.77-0.586c-0.422-0.399-0.632-0.933-0.632-1.603
	c0-0.743,0.325-1.346,0.974-1.803c0.65-0.457,1.54-0.692,2.669-0.703l2-0.016v-1.184c0-0.688-0.21-1.216-0.632-1.582
	c-0.421-0.367-1.029-0.547-1.82-0.541c-0.749,0.007-1.365,0.2-1.849,0.579c-0.483,0.379-0.725,0.854-0.725,1.424l-0.401-0.013
	c0-0.654,0.279-1.216,0.836-1.681c0.558-0.468,1.27-0.705,2.139-0.714c0.881-0.007,1.577,0.204,2.088,0.632
	c0.51,0.426,0.766,1.064,0.766,1.907v4.063c0,0.29,0.015,0.566,0.045,0.832c0.03,0.264,0.084,0.53,0.163,0.8l-0.446,0.003
	c-0.065-0.36-0.108-0.624-0.13-0.795c-0.022-0.173-0.034-0.365-0.034-0.574V783.734z"/>
<polygon fill="#FFFFFF" points="434.829,773.469 434.829,785.161 435.23,785.157 435.23,773.465 "/>
<path fill="#FFFFFF" d="M447.247,780.991c0-1.149-0.218-2.067-0.654-2.752c-0.436-0.685-1.088-1.025-1.955-1.018
	c-0.799,0.007-1.408,0.21-1.83,0.61c-0.421,0.401-0.724,0.902-0.907,1.497v3.717c0.198,0.56,0.523,0.996,0.977,1.315
	c0.454,0.319,1.046,0.474,1.774,0.468c0.867-0.007,1.517-0.335,1.949-0.989c0.431-0.65,0.646-1.548,0.646-2.691V780.991z
	 M447.664,781.144c0,1.275-0.263,2.273-0.789,2.994c-0.525,0.723-1.269,1.085-2.23,1.095c-0.65,0.005-1.205-0.119-1.666-0.367
	c-0.462-0.251-0.818-0.595-1.071-1.025h-0.022l-0.053,1.259l-0.334,0.003v-11.692l0.402-0.003v5.013l0.022,0.008
	c0.258-0.503,0.611-0.894,1.059-1.179c0.449-0.284,0.999-0.427,1.647-0.433c0.967-0.009,1.714,0.357,2.243,1.093
	c0.528,0.739,0.792,1.763,0.792,3.078V781.144z"/>
<path fill="#FFFFFF" d="M451.657,784.776c0.773-0.007,1.435-0.18,1.985-0.523c0.551-0.342,0.969-0.826,1.256-1.455v-1.925
	l-1.977,0.018c-1.006,0.008-1.802,0.206-2.387,0.594c-0.585,0.386-0.877,0.894-0.877,1.524c0,0.514,0.18,0.939,0.542,1.274
	C450.561,784.617,451.048,784.78,451.657,784.776 M454.898,783.534l-0.022-0.007c-0.302,0.482-0.723,0.876-1.263,1.18
	c-0.541,0.304-1.193,0.459-1.956,0.466c-0.758,0.005-1.349-0.189-1.77-0.588c-0.422-0.399-0.632-0.933-0.632-1.603
	c0-0.743,0.325-1.346,0.974-1.803c0.65-0.457,1.54-0.692,2.67-0.701l1.999-0.018v-1.184c0-0.688-0.21-1.217-0.632-1.582
	c-0.42-0.366-1.028-0.547-1.82-0.54c-0.749,0.006-1.365,0.199-1.849,0.58c-0.483,0.378-0.725,0.852-0.725,1.422l-0.401-0.013
	c0-0.654,0.279-1.215,0.836-1.681c0.558-0.468,1.27-0.705,2.139-0.712c0.881-0.007,1.578,0.202,2.088,0.63
	c0.51,0.426,0.766,1.064,0.766,1.907v4.063c0,0.29,0.015,0.567,0.045,0.832c0.03,0.264,0.084,0.532,0.163,0.8l-0.446,0.003
	c-0.065-0.358-0.108-0.624-0.13-0.795c-0.022-0.173-0.034-0.365-0.034-0.574V783.534z"/>
<path fill="#FFFFFF" d="M458.289,778.677l0.023,0.009c0.247-0.592,0.615-1.074,1.104-1.446c0.488-0.371,1.065-0.559,1.729-0.564
	c0.852-0.008,1.492,0.247,1.919,0.763c0.426,0.515,0.639,1.358,0.639,2.527v4.947l-0.402,0.001v-4.946
	c0-1.1-0.185-1.857-0.554-2.276s-0.911-0.627-1.625-0.62c-0.803,0.008-1.437,0.287-1.903,0.838c-0.466,0.55-0.776,1.168-0.93,1.854
	v5.194l-0.402,0.004v-8.11l0.38-0.003l0.022,1.731V778.677z"/>
<polygon fill="#FFFFFF" points="467.726,780.731 466.626,780.742 466.626,784.887 466.224,784.89 466.224,773.199 466.626,773.195 
	466.626,780.338 467.57,780.328 471.229,776.737 471.757,776.732 468.024,780.46 472.032,784.839 471.511,784.845 "/>
<path fill="#FFFFFF" d="M508.313,780.465c0-1.149-0.218-2.067-0.654-2.754c-0.436-0.684-1.088-1.023-1.955-1.016
	c-0.799,0.006-1.408,0.21-1.83,0.61c-0.421,0.401-0.723,0.902-0.906,1.497v3.717c0.198,0.559,0.523,0.996,0.976,1.315
	c0.454,0.319,1.046,0.474,1.774,0.468c0.867-0.009,1.517-0.337,1.949-0.989c0.431-0.65,0.646-1.548,0.646-2.691V780.465z
	 M508.73,780.618c0,1.275-0.263,2.273-0.789,2.994c-0.525,0.723-1.269,1.085-2.23,1.095c-0.65,0.005-1.205-0.119-1.666-0.368
	c-0.461-0.25-0.817-0.594-1.07-1.024h-0.022l-0.053,1.259l-0.334,0.003v-11.692l0.402-0.003v5.013l0.022,0.006
	c0.258-0.501,0.611-0.892,1.058-1.179c0.449-0.282,0.999-0.426,1.647-0.431c0.967-0.009,1.715,0.357,2.242,1.093
	c0.529,0.739,0.793,1.762,0.793,3.077V780.618z"/>
<path fill="#FFFFFF" d="M516.322,783.047l-0.023-0.007c-0.248,0.508-0.601,0.9-1.059,1.174c-0.459,0.279-1.027,0.418-1.707,0.425
	c-0.848,0.007-1.501-0.277-1.96-0.853c-0.458-0.575-0.687-1.498-0.687-2.768v-4.624l0.401-0.003v4.64
	c0,1.124,0.197,1.94,0.592,2.448c0.394,0.511,0.94,0.761,1.64,0.756c0.852-0.008,1.498-0.217,1.937-0.629
	c0.438-0.411,0.723-0.967,0.851-1.668v-5.591l0.409-0.002v8.108l-0.334,0.004L516.322,783.047z"/>
<path fill="#FFFFFF" d="M521.379,782.944l0.32,0.869l0.067-0.181l2.781-7.355l0.447-0.004l-3.577,9.49
	c-0.223,0.581-0.475,1.049-0.756,1.404c-0.279,0.355-0.744,0.534-1.393,0.539c-0.095,0.002-0.199-0.005-0.312-0.021
	c-0.115-0.019-0.199-0.035-0.254-0.055l0.068-0.383c0.054,0.015,0.136,0.03,0.244,0.044c0.109,0.013,0.194,0.02,0.254,0.018
	c0.466-0.003,0.824-0.136,1.074-0.406c0.25-0.266,0.475-0.67,0.673-1.211l0.483-1.324l-3.205-8.037l0.439-0.003L521.379,782.944z"/>
<path fill="#FFFFFF" d="M526.331,783.472v0.899l0.639-0.005v-0.899L526.331,783.472z M526.369,776.262v0.899l0.64-0.005v-0.9
	L526.369,776.262z"/>
<polygon fill="#FFFFFF" points="536.497,784.284 536.095,784.288 536.095,773.743 533.135,774.329 533.135,773.971 536.497,773.311 
	"/>
<polygon fill="#FFFFFF" points="541.218,783.343 541.218,784.242 541.858,784.237 541.858,783.338 "/>
<path fill="#FFFFFF" d="M546.298,778.42l0.825-0.005c0.927-0.01,1.646-0.239,2.157-0.691c0.51-0.451,0.766-1.016,0.766-1.695
	c0-0.745-0.22-1.35-0.658-1.816c-0.439-0.466-1.104-0.696-1.997-0.688c-0.818,0.007-1.488,0.246-2.012,0.719
	c-0.522,0.47-0.784,1.107-0.784,1.912l-0.402,0.004c0-0.923,0.303-1.659,0.911-2.207c0.607-0.547,1.37-0.823,2.287-0.833
	c0.951-0.007,1.699,0.246,2.242,0.765c0.543,0.518,0.814,1.241,0.814,2.169c0,0.59-0.177,1.109-0.531,1.556
	c-0.355,0.448-0.84,0.77-1.454,0.965l0.007,0.022c0.709,0.169,1.255,0.477,1.64,0.927c0.384,0.449,0.576,1.03,0.576,1.746
	c0,0.969-0.295,1.721-0.885,2.258c-0.589,0.538-1.371,0.809-2.342,0.818c-0.937,0.007-1.754-0.255-2.451-0.787
	c-0.696-0.533-1.044-1.327-1.044-2.376l0.402-0.002c0,0.825,0.288,1.492,0.865,2.003c0.578,0.514,1.321,0.765,2.228,0.758
	c0.912-0.008,1.611-0.242,2.097-0.7c0.486-0.459,0.729-1.105,0.729-1.939c0-0.869-0.279-1.501-0.837-1.892
	c-0.558-0.394-1.332-0.585-2.324-0.576l-0.825,0.006V778.42z"/>
<path fill="#FFFFFF" d="M553.027,779.181l0.58-5.957l5.132-0.044v0.397l-4.768,0.04l-0.453,4.606l0.023,0.007
	c0.306-0.311,0.639-0.546,1-0.706c0.359-0.157,0.903-0.25,1.632-0.275c0.882-0.031,1.599,0.253,2.149,0.856
	c0.55,0.601,0.825,1.437,0.825,2.507c0,1.139-0.255,2.031-0.766,2.678c-0.511,0.646-1.321,0.972-2.431,0.983
	c-0.898,0.007-1.632-0.235-2.205-0.727c-0.573-0.491-0.858-1.251-0.858-2.274l0.408-0.004c0,0.88,0.234,1.533,0.702,1.965
	c0.469,0.432,1.12,0.643,1.953,0.636c0.982-0.009,1.691-0.277,2.13-0.805s0.659-1.339,0.659-2.433c0-0.94-0.22-1.669-0.659-2.184
	s-1.072-0.77-1.9-0.763c-0.808,0.005-1.435,0.142-1.881,0.41c-0.446,0.266-0.769,0.666-0.967,1.204L553.027,779.181z"/>
<path fill="#FFFFFF" d="M595.228,781.791c0-0.433-0.179-0.823-0.536-1.169c-0.357-0.342-0.997-0.614-1.918-0.811
	c-0.977-0.202-1.674-0.457-2.094-0.765c-0.419-0.309-0.628-0.788-0.628-1.438c0-0.594,0.239-1.086,0.717-1.474
	c0.479-0.387,1.137-0.586,1.975-0.593c0.907-0.009,1.614,0.195,2.119,0.606c0.506,0.414,0.759,0.975,0.759,1.685l-0.409,0.003
	c0-0.54-0.219-0.992-0.655-1.354c-0.436-0.365-1.04-0.543-1.814-0.536c-0.769,0.006-1.342,0.173-1.722,0.503
	c-0.379,0.326-0.569,0.708-0.569,1.142c0,0.435,0.159,0.797,0.476,1.087c0.318,0.289,0.972,0.546,1.964,0.766
	c0.917,0.206,1.602,0.485,2.056,0.837c0.453,0.351,0.681,0.856,0.681,1.516c0,0.649-0.254,1.17-0.759,1.559
	c-0.506,0.394-1.195,0.592-2.067,0.6c-0.957,0.009-1.699-0.195-2.224-0.609c-0.526-0.417-0.788-0.941-0.788-1.582l0.401-0.004
	c0.045,0.654,0.316,1.118,0.815,1.391c0.498,0.272,1.096,0.407,1.796,0.399c0.758-0.005,1.352-0.182,1.78-0.532
	C595.013,782.671,595.228,782.261,595.228,781.791"/>
<path fill="#FFFFFF" d="M600.618,775.876c-0.818,0.007-1.491,0.304-2.019,0.892c-0.528,0.585-0.839,1.341-0.933,2.258l5.607-0.047
	v-0.248c0-0.843-0.241-1.531-0.722-2.065C602.071,776.133,601.427,775.868,600.618,775.876 M600.767,783.887
	c-1.011,0.007-1.851-0.35-2.521-1.073c-0.669-0.722-1.004-1.657-1.004-2.802v-0.479c0-1.19,0.321-2.16,0.963-2.916
	c0.642-0.754,1.446-1.136,2.413-1.146c0.923-0.007,1.663,0.279,2.22,0.864c0.557,0.581,0.836,1.389,0.836,2.424v0.621l-6.03,0.051
	v0.098v0.479c0,1,0.294,1.832,0.884,2.493c0.591,0.661,1.336,0.989,2.239,0.982c0.476-0.006,0.9-0.084,1.272-0.235
	c0.372-0.155,0.745-0.412,1.122-0.776l0.215,0.313c-0.317,0.348-0.681,0.616-1.092,0.807
	C601.873,783.783,601.367,783.882,600.767,783.887"/>
<rect x="605.645" y="771.994" fill="#FFFFFF" width="0.401" height="11.692"/>
<polygon fill="#FFFFFF" points="608.783,771.969 608.783,783.661 609.184,783.657 609.184,771.965 "/>
<path fill="#FFFFFF" d="M611.632,782.736v0.9l0.639-0.006v-0.9L611.632,782.736z M611.669,775.526v0.9l0.64-0.005v-0.9
	L611.669,775.526z"/>
<polygon fill="#FFFFFF" points="621.798,783.548 621.396,783.552 621.396,773.007 618.436,773.593 618.436,773.235 621.798,772.575 
	"/>
<polygon fill="#FFFFFF" points="626.52,782.609 626.52,783.508 627.159,783.503 627.159,782.604 "/>
<path fill="#FFFFFF" d="M636.112,783.425l-6.477,0.057v-0.405l3.547-4.154c0.689-0.809,1.184-1.495,1.487-2.054
	c0.302-0.559,0.454-1.084,0.454-1.574c0-0.81-0.215-1.431-0.644-1.865c-0.429-0.433-1.069-0.646-1.921-0.639
	c-0.908,0.008-1.6,0.273-2.075,0.794c-0.476,0.521-0.715,1.206-0.715,2.055l-0.401,0.003c0-0.929,0.285-1.701,0.855-2.318
	c0.57-0.618,1.348-0.929,2.336-0.938c0.911-0.007,1.635,0.237,2.17,0.734c0.536,0.497,0.804,1.222,0.804,2.171
	c0,0.619-0.191,1.236-0.573,1.852c-0.381,0.613-0.935,1.353-1.659,2.214l-3.137,3.714l5.949-0.051V783.425z"/>
<path fill="#FFFFFF" d="M640.722,779.48c0.748-0.005,1.366-0.222,1.852-0.648c0.486-0.428,0.831-0.942,1.034-1.548v-1.133
	c0-1.129-0.256-1.985-0.767-2.568c-0.511-0.582-1.186-0.87-2.029-0.863c-0.848,0.007-1.529,0.357-2.042,1.053
	c-0.513,0.694-0.769,1.511-0.769,2.456c0,0.909,0.243,1.68,0.728,2.313C639.215,779.176,639.879,779.488,640.722,779.48
	 M640.64,783.139c0.932-0.009,1.66-0.292,2.183-0.852c0.523-0.558,0.785-1.344,0.785-2.359v-1.776h-0.023
	c-0.272,0.536-0.658,0.959-1.156,1.261c-0.498,0.306-1.067,0.459-1.707,0.464c-0.952,0.009-1.72-0.337-2.305-1.04
	c-0.585-0.701-0.877-1.571-0.877-2.604c0-1.1,0.299-2.025,0.899-2.777c0.6-0.752,1.38-1.131,2.343-1.14
	c0.991-0.009,1.787,0.311,2.387,0.958c0.599,0.646,0.9,1.602,0.9,2.866v3.77c0,1.144-0.309,2.033-0.926,2.668
	c-0.617,0.636-1.451,0.956-2.503,0.965c-0.396,0.004-0.784-0.033-1.163-0.105c-0.38-0.075-0.768-0.19-1.164-0.346l0.118-0.428
	c0.382,0.171,0.737,0.295,1.065,0.368C639.822,783.108,640.204,783.143,640.64,783.139"/>
<path fill="#FFFFFF" d="M340.576,276.04l2.981,0.309c1.046,0.109,1.824-0.063,2.333-0.518c0.508-0.454,0.761-1.073,0.761-1.857
	c0-0.805-0.252-1.486-0.758-2.044c-0.505-0.556-1.284-0.889-2.336-0.999l-2.981-0.309V276.04z M340.576,276.445v4.684l-0.402-0.042
	v-10.912l3.383,0.351c1.147,0.119,2.015,0.488,2.607,1.107c0.593,0.619,0.889,1.408,0.889,2.367c0,0.97-0.296,1.7-0.889,2.194
	c-0.592,0.492-1.46,0.68-2.607,0.561L340.576,276.445z"/>
<path fill="#FFFFFF" d="M349.515,275.778l0.022,0.009c0.248-0.564,0.616-1.004,1.104-1.32s1.065-0.44,1.729-0.372
	c0.853,0.088,1.492,0.414,1.919,0.979c0.426,0.564,0.64,1.431,0.64,2.6v4.946l-0.403-0.042v-4.946c0-1.099-0.184-1.88-0.554-2.339
	c-0.368-0.461-0.91-0.729-1.624-0.803c-0.803-0.083-1.438,0.125-1.904,0.623s-0.776,1.083-0.929,1.751v5.194l-0.402-0.042v-11.692
	l0.402,0.042V275.778z"/>
<path fill="#FFFFFF" d="M357.218,278.96c0,1.039,0.278,1.937,0.833,2.691c0.555,0.755,1.321,1.183,2.298,1.284
	c0.961,0.1,1.72-0.171,2.275-0.813c0.556-0.641,0.833-1.479,0.833-2.514v-0.315c0-1.013-0.279-1.903-0.84-2.669
	c-0.56-0.765-1.321-1.198-2.284-1.297c-0.965-0.101-1.727,0.175-2.282,0.823c-0.555,0.65-0.833,1.481-0.833,2.495V278.96z
	 M356.817,278.603c0-1.207,0.32-2.152,0.962-2.83c0.642-0.678,1.494-0.961,2.554-0.85c1.066,0.11,1.92,0.569,2.563,1.378
	c0.642,0.809,0.963,1.82,0.963,3.034v0.315c0,1.219-0.321,2.166-0.959,2.842c-0.64,0.675-1.491,0.958-2.551,0.848
	c-1.072-0.111-1.928-0.572-2.57-1.38c-0.642-0.808-0.962-1.822-0.962-3.042V278.603z"/>
<path fill="#FFFFFF" d="M366.187,277.508l0.023,0.01c0.247-0.564,0.615-1.004,1.103-1.32c0.488-0.317,1.065-0.441,1.729-0.372
	c0.853,0.088,1.492,0.414,1.919,0.979c0.426,0.564,0.64,1.43,0.64,2.599v4.946l-0.402-0.041v-4.946c0-1.099-0.184-1.88-0.554-2.339
	c-0.369-0.462-0.911-0.729-1.625-0.804c-0.803-0.082-1.438,0.125-1.904,0.623c-0.466,0.499-0.776,1.084-0.929,1.751v5.194
	l-0.402-0.042v-8.108l0.379,0.04l0.023,1.732V277.508z"/>
<path fill="#FFFFFF" d="M376.865,277.043c-0.818-0.084-1.491,0.137-2.019,0.664c-0.528,0.528-0.838,1.246-0.932,2.156l5.607,0.582
	v-0.247c0-0.844-0.241-1.561-0.722-2.148C378.318,277.463,377.674,277.127,376.865,277.043 M377.015,285.071
	c-1.013-0.105-1.853-0.557-2.522-1.356c-0.67-0.799-1.004-1.771-1.004-2.915v-0.479c0-1.19,0.321-2.125,0.964-2.808
	c0.641-0.683,1.446-0.974,2.412-0.874c0.923,0.096,1.663,0.466,2.22,1.111c0.557,0.646,0.837,1.485,0.837,2.52v0.621l-6.031-0.626
	v0.097v0.48c0,0.999,0.294,1.862,0.885,2.592c0.59,0.728,1.335,1.138,2.239,1.232c0.476,0.049,0.899,0.019,1.271-0.093
	c0.372-0.111,0.746-0.327,1.124-0.647l0.214,0.337c-0.317,0.312-0.682,0.54-1.093,0.684
	C378.12,285.092,377.614,285.133,377.015,285.071"/>
<path fill="#FFFFFF" d="M345.707,296.249c0-1.149-0.22-2.092-0.658-2.827c-0.44-0.735-1.092-1.147-1.96-1.237
	c-0.793-0.083-1.401,0.049-1.822,0.395c-0.421,0.346-0.726,0.801-0.915,1.367v3.792c0.204,0.571,0.533,1.038,0.989,1.4
	c0.457,0.362,1.044,0.579,1.763,0.654c0.867,0.09,1.518-0.165,1.952-0.767c0.434-0.603,0.651-1.476,0.651-2.62V296.249z
	 M346.115,296.448c0,1.274-0.262,2.242-0.788,2.905c-0.525,0.662-1.269,0.943-2.23,0.844c-0.64-0.067-1.189-0.248-1.647-0.543
	c-0.46-0.295-0.817-0.667-1.075-1.12l-0.023-0.002v4.34l-0.401-0.042v-11.226l0.313,0.032l0.081,1.425l0.022,0.002
	c0.263-0.463,0.62-0.809,1.072-1.038c0.45-0.232,0.998-0.314,1.643-0.246c0.967,0.1,1.713,0.548,2.241,1.345
	c0.528,0.797,0.792,1.853,0.792,3.167V296.448z"/>
<path fill="#FFFFFF" d="M350.109,300.528c0.774,0.081,1.436-0.02,1.986-0.3c0.55-0.279,0.969-0.717,1.256-1.312v-1.927l-1.978-0.204
	c-1.006-0.105-1.802,0.003-2.386,0.324c-0.586,0.323-0.878,0.797-0.878,1.428c0,0.514,0.181,0.959,0.543,1.333
	C349.013,300.246,349.5,300.465,350.109,300.528 M353.351,299.65l-0.022-0.009c-0.302,0.448-0.724,0.794-1.263,1.038
	c-0.541,0.243-1.193,0.326-1.957,0.246c-0.759-0.078-1.349-0.341-1.77-0.787s-0.632-1.003-0.632-1.673
	c0-0.745,0.325-1.31,0.974-1.693c0.65-0.386,1.54-0.519,2.67-0.402l2,0.208v-1.185c0-0.689-0.21-1.24-0.632-1.654
	c-0.421-0.414-1.028-0.662-1.822-0.744c-0.748-0.078-1.365,0.046-1.848,0.371c-0.483,0.323-0.725,0.771-0.725,1.34l-0.401-0.056
	c0-0.655,0.279-1.184,0.837-1.589c0.557-0.403,1.27-0.561,2.137-0.471c0.883,0.092,1.579,0.38,2.09,0.866
	c0.51,0.486,0.767,1.15,0.767,1.995v4.062c0,0.289,0.014,0.569,0.043,0.835c0.031,0.269,0.085,0.542,0.164,0.82l-0.446-0.046
	c-0.065-0.366-0.107-0.637-0.13-0.813c-0.022-0.175-0.034-0.367-0.034-0.576V299.65z"/>
<path fill="#FFFFFF" d="M358.356,300.156l0.32,0.902l0.067-0.173l2.781-7.04l0.447,0.046l-3.577,9.086
	c-0.224,0.557-0.476,0.997-0.755,1.319c-0.28,0.324-0.746,0.452-1.395,0.385c-0.094-0.01-0.199-0.029-0.312-0.059
	c-0.114-0.029-0.199-0.057-0.253-0.082l0.067-0.376c0.055,0.021,0.136,0.044,0.246,0.07c0.108,0.027,0.192,0.043,0.252,0.05
	c0.466,0.048,0.824-0.048,1.075-0.286c0.25-0.24,0.475-0.618,0.673-1.137l0.483-1.268l-3.205-8.397l0.439,0.045L358.356,300.156z"/>
<path fill="#FFFFFF" d="M369.257,302.756l-0.402-0.041v-5.097c0-1.038-0.188-1.779-0.564-2.22c-0.377-0.442-0.922-0.7-1.637-0.774
	c-0.822-0.085-1.466,0.132-1.93,0.65c-0.463,0.519-0.762,1.116-0.895,1.792v5.126l-0.41-0.041v-8.11l0.387,0.041l0.023,1.74v0.12
	l0.022,0.01c0.238-0.57,0.601-1.017,1.089-1.341c0.488-0.323,1.068-0.451,1.736-0.381c0.705,0.072,1.264,0.298,1.678,0.675
	c0.414,0.378,0.685,0.936,0.814,1.674l0.022,0.011c0.229-0.591,0.6-1.057,1.112-1.396c0.514-0.339,1.124-0.471,1.833-0.397
	c0.858,0.088,1.502,0.415,1.934,0.98c0.431,0.564,0.647,1.431,0.647,2.6v4.946l-0.402-0.041v-4.947c0-1.099-0.188-1.88-0.565-2.344
	s-0.922-0.73-1.636-0.8c-0.873-0.076-1.556,0.163-2.049,0.713c-0.493,0.551-0.762,1.135-0.807,1.756V302.756z"/>
<path fill="#FFFFFF" d="M379.9,296.007c-0.818-0.084-1.492,0.137-2.02,0.664c-0.527,0.528-0.838,1.246-0.932,2.155l5.607,0.583
	v-0.247c0-0.844-0.24-1.561-0.722-2.148C381.352,296.427,380.708,296.091,379.9,296.007 M380.049,304.035
	c-1.012-0.105-1.852-0.557-2.521-1.356c-0.671-0.799-1.005-1.771-1.005-2.915v-0.48c0-1.189,0.322-2.124,0.964-2.807
	c0.641-0.683,1.445-0.974,2.413-0.874c0.922,0.096,1.662,0.466,2.22,1.111c0.556,0.646,0.836,1.485,0.836,2.519v0.622l-6.031-0.626
	v0.097v0.48c0,0.999,0.294,1.863,0.885,2.592c0.59,0.727,1.335,1.138,2.239,1.232c0.476,0.049,0.899,0.019,1.271-0.093
	c0.372-0.111,0.746-0.327,1.124-0.648l0.214,0.338c-0.317,0.312-0.682,0.54-1.093,0.684
	C381.154,304.056,380.648,304.098,380.049,304.035"/>
<path fill="#FFFFFF" d="M385.231,298.135l0.023,0.01c0.248-0.564,0.616-1.004,1.104-1.32c0.488-0.317,1.064-0.441,1.729-0.372
	c0.853,0.088,1.492,0.414,1.918,0.979c0.427,0.564,0.641,1.431,0.641,2.6v4.946l-0.403-0.042v-4.946c0-1.099-0.184-1.88-0.554-2.339
	c-0.369-0.461-0.91-0.729-1.624-0.804c-0.803-0.082-1.439,0.125-1.904,0.623c-0.466,0.499-0.776,1.084-0.93,1.751v5.194
	l-0.401-0.042v-8.108l0.379,0.04l0.022,1.733V298.135z"/>
<path fill="#FFFFFF" d="M394.067,295.035v2.189l1.829,0.189v0.412l-1.829-0.189v5.606c0,0.679,0.108,1.168,0.327,1.465
	c0.217,0.298,0.513,0.465,0.885,0.504c0.138,0.014,0.26,0.023,0.364,0.023c0.105,0.001,0.248-0.001,0.431-0.008l0.074,0.375
	c-0.129,0.026-0.259,0.041-0.39,0.042c-0.13,0.002-0.284-0.007-0.457-0.024c-0.545-0.058-0.956-0.274-1.23-0.649
	c-0.277-0.376-0.414-0.967-0.414-1.771v-5.606l-1.486-0.154v-0.412l1.486,0.154v-2.189L394.067,295.035z"/>
<path fill="#FFFFFF" d="M402.916,304.266c0-0.434-0.179-0.844-0.535-1.228c-0.358-0.385-0.997-0.728-1.919-1.028
	c-0.977-0.311-1.674-0.645-2.093-1.001c-0.42-0.355-0.629-0.858-0.629-1.507c0-0.595,0.24-1.06,0.718-1.394
	c0.478-0.336,1.136-0.46,1.974-0.373c0.907,0.094,1.614,0.376,2.119,0.846c0.506,0.469,0.759,1.059,0.759,1.769l-0.409-0.043
	c0-0.539-0.219-1.016-0.654-1.428c-0.437-0.412-1.041-0.659-1.815-0.739c-0.768-0.08-1.342,0.023-1.721,0.307
	c-0.379,0.286-0.569,0.647-0.569,1.081c0,0.436,0.158,0.815,0.476,1.14c0.317,0.325,0.971,0.655,1.963,0.987
	c0.917,0.31,1.602,0.667,2.056,1.068c0.454,0.402,0.681,0.933,0.681,1.592c0,0.649-0.253,1.142-0.759,1.476
	c-0.506,0.335-1.195,0.457-2.067,0.367c-0.957-0.1-1.698-0.387-2.224-0.861s-0.788-1.031-0.788-1.67l0.401,0.042
	c0.045,0.658,0.317,1.153,0.815,1.482c0.499,0.329,1.096,0.529,1.796,0.602c0.759,0.078,1.352-0.032,1.781-0.332
	C402.701,305.121,402.916,304.736,402.916,304.266"/>
<path fill="#FFFFFF" d="M347.535,406.827c-0.113,1.171-0.503,2.021-1.166,2.55c-0.665,0.53-1.563,0.754-2.693,0.672
	c-1.209-0.087-2.166-0.59-2.867-1.507c-0.701-0.917-1.053-2.108-1.053-3.573v-1.633c0-1.459,0.352-2.598,1.053-3.416
	c0.701-0.819,1.658-1.184,2.867-1.098c1.13,0.082,2.028,0.436,2.693,1.063c0.663,0.628,1.053,1.528,1.166,2.701l-0.402-0.03
	c-0.118-1.028-0.464-1.821-1.037-2.379c-0.572-0.558-1.379-0.875-2.42-0.951c-1.076-0.077-1.93,0.257-2.566,1
	c-0.634,0.743-0.952,1.785-0.952,3.124v1.649c0,1.349,0.318,2.441,0.952,3.277c0.636,0.835,1.49,1.29,2.566,1.367
	c1.041,0.076,1.849-0.113,2.424-0.566c0.576-0.453,0.921-1.213,1.033-2.279L347.535,406.827z"/>
<path fill="#FFFFFF" d="M349.603,406.421c0,1.039,0.278,1.928,0.833,2.664c0.554,0.738,1.32,1.142,2.298,1.212
	c0.961,0.069,1.72-0.226,2.275-0.885c0.555-0.66,0.833-1.507,0.833-2.541v-0.315c0-1.014-0.279-1.894-0.841-2.643
	c-0.559-0.746-1.32-1.155-2.282-1.224c-0.967-0.07-1.729,0.229-2.283,0.896c-0.555,0.667-0.833,1.508-0.833,2.521V406.421z
	 M349.202,406.078c0-1.209,0.32-2.163,0.962-2.861s1.494-1.009,2.555-0.933c1.066,0.077,1.919,0.509,2.561,1.297
	c0.643,0.789,0.964,1.79,0.964,3.004v0.315c0,1.22-0.32,2.177-0.96,2.873c-0.639,0.695-1.49,1.005-2.55,0.929
	c-1.071-0.078-1.928-0.51-2.57-1.298s-0.962-1.793-0.962-3.011V406.078z"/>
<path fill="#FFFFFF" d="M358.571,404.684l0.023,0.009c0.247-0.572,0.615-1.024,1.103-1.356c0.489-0.332,1.065-0.474,1.73-0.426
	c0.853,0.061,1.492,0.367,1.919,0.917c0.425,0.551,0.639,1.41,0.639,2.58v4.946l-0.402-0.029v-4.946c0-1.1-0.185-1.873-0.553-2.322
	c-0.37-0.449-0.912-0.7-1.626-0.751c-0.803-0.058-1.438,0.17-1.904,0.683c-0.465,0.515-0.776,1.108-0.929,1.781v5.194l-0.402-0.029
	v-8.109l0.379,0.028l0.023,1.732V404.684z"/>
<path fill="#FFFFFF" d="M367.405,401.303v2.189l1.83,0.131v0.412l-1.83-0.131v5.606c0,0.679,0.109,1.164,0.328,1.455
	c0.218,0.291,0.513,0.448,0.885,0.475c0.138,0.01,0.26,0.014,0.364,0.011c0.104-0.001,0.248-0.009,0.431-0.021l0.074,0.373
	c-0.128,0.03-0.259,0.049-0.391,0.054c-0.13,0.006-0.283,0.002-0.456-0.01c-0.545-0.04-0.956-0.243-1.231-0.61
	c-0.275-0.366-0.413-0.953-0.413-1.757v-5.606l-1.486-0.107v-0.411l1.486,0.106v-2.189L367.405,401.303z"/>
<path fill="#FFFFFF" d="M373.132,411.775c0.773,0.055,1.435-0.067,1.985-0.364c0.551-0.297,0.97-0.748,1.257-1.352v-1.927
	l-1.978-0.142c-1.007-0.073-1.802,0.061-2.387,0.402c-0.585,0.339-0.877,0.824-0.877,1.454c0,0.514,0.18,0.954,0.542,1.317
	C372.036,411.526,372.523,411.73,373.132,411.775 M376.374,410.793l-0.022-0.009c-0.302,0.459-0.724,0.818-1.264,1.078
	c-0.541,0.261-1.193,0.364-1.956,0.31c-0.759-0.055-1.349-0.299-1.77-0.732c-0.422-0.432-0.632-0.983-0.632-1.652
	c0-0.745,0.325-1.321,0.974-1.725c0.649-0.406,1.54-0.568,2.67-0.486l2,0.144v-1.185c0-0.689-0.211-1.234-0.632-1.635
	c-0.421-0.399-1.029-0.628-1.822-0.685c-0.748-0.054-1.364,0.089-1.848,0.43c-0.484,0.339-0.725,0.795-0.725,1.363l-0.402-0.043
	c0-0.655,0.279-1.193,0.838-1.615c0.556-0.422,1.269-0.602,2.137-0.54c0.883,0.064,1.578,0.33,2.09,0.799
	c0.51,0.47,0.766,1.127,0.766,1.971v4.062c0,0.289,0.015,0.568,0.045,0.834c0.03,0.267,0.083,0.539,0.163,0.814l-0.447-0.032
	c-0.064-0.364-0.107-0.634-0.13-0.808c-0.021-0.174-0.033-0.366-0.033-0.575V410.793z"/>
<path fill="#FFFFFF" d="M382.093,412.411c0.699,0.05,1.292-0.089,1.777-0.419c0.486-0.329,0.754-0.865,0.803-1.606l0.401,0.028
	c-0.044,0.817-0.345,1.436-0.902,1.859c-0.559,0.421-1.251,0.603-2.079,0.542c-1.046-0.074-1.856-0.499-2.428-1.273
	c-0.573-0.773-0.859-1.779-0.859-3.017v-0.315c0-1.235,0.285-2.197,0.855-2.888c0.57-0.691,1.376-0.999,2.418-0.924
	c0.832,0.06,1.529,0.355,2.093,0.886c0.562,0.529,0.863,1.248,0.902,2.155l-0.401-0.028c-0.039-0.788-0.304-1.406-0.791-1.856
	c-0.489-0.45-1.09-0.701-1.803-0.753c-0.963-0.069-1.681,0.214-2.158,0.85c-0.475,0.635-0.714,1.497-0.714,2.586v0.315
	c0,1.099,0.239,2,0.714,2.702C380.398,411.956,381.122,412.342,382.093,412.411"/>
<path fill="#FFFFFF" d="M387.99,402.786v2.189l1.83,0.132v0.412l-1.83-0.132v5.606c0,0.68,0.109,1.165,0.328,1.455
	c0.218,0.291,0.513,0.448,0.885,0.476c0.138,0.01,0.26,0.014,0.364,0.011c0.104-0.002,0.248-0.01,0.43-0.021l0.075,0.373
	c-0.128,0.03-0.259,0.048-0.391,0.054c-0.13,0.005-0.283,0.002-0.456-0.01c-0.545-0.04-0.956-0.244-1.231-0.61
	c-0.275-0.367-0.413-0.953-0.413-1.757v-5.606l-1.487-0.108v-0.411l1.487,0.107v-2.189L387.99,402.786z"/>
<path fill="#FFFFFF" d="M400.96,412.609l-0.023-0.01c-0.248,0.488-0.602,0.851-1.059,1.089c-0.459,0.239-1.028,0.335-1.708,0.286
	c-0.847-0.061-1.5-0.397-1.959-1.011c-0.459-0.612-0.687-1.552-0.687-2.822v-4.624l0.401,0.03v4.638
	c0,1.125,0.197,1.956,0.591,2.497c0.394,0.541,0.94,0.836,1.64,0.886c0.853,0.062,1.498-0.095,1.937-0.471
	c0.439-0.376,0.723-0.908,0.852-1.598v-5.591l0.409,0.029v8.109l-0.335-0.024L400.96,412.609z"/>
<path fill="#FFFFFF" d="M408.819,412.598c0-0.434-0.178-0.839-0.535-1.212c-0.357-0.372-0.996-0.695-1.919-0.966
	c-0.977-0.28-1.675-0.592-2.093-0.934c-0.419-0.343-0.629-0.839-0.629-1.488c0-0.595,0.24-1.067,0.718-1.417
	c0.479-0.351,1.137-0.495,1.974-0.435c0.908,0.065,1.615,0.325,2.119,0.778c0.507,0.454,0.759,1.035,0.759,1.745l-0.409-0.029
	c0-0.539-0.218-1.009-0.654-1.408c-0.437-0.399-1.042-0.626-1.815-0.682c-0.767-0.056-1.342,0.066-1.721,0.363
	c-0.379,0.298-0.569,0.664-0.569,1.099c0,0.435,0.158,0.81,0.477,1.125c0.316,0.315,0.971,0.624,1.962,0.924
	c0.917,0.282,1.603,0.616,2.056,1.003c0.454,0.388,0.681,0.91,0.681,1.57c0,0.65-0.253,1.151-0.759,1.5
	c-0.505,0.352-1.195,0.496-2.067,0.433c-0.956-0.069-1.698-0.333-2.224-0.791c-0.525-0.456-0.787-1.005-0.787-1.644l0.401,0.028
	c0.044,0.658,0.316,1.144,0.814,1.457c0.499,0.312,1.097,0.494,1.796,0.544c0.759,0.055,1.352-0.074,1.781-0.388
	C408.605,413.46,408.819,413.068,408.819,412.598"/>
<path fill="#FFFFFF" d="M535.9,417.498v10.103l2.595,0.187c1.189,0.085,2.165-0.249,2.926-1.004
	c0.761-0.755,1.142-1.784,1.142-3.088v-1.356c0-1.29-0.381-2.366-1.142-3.23c-0.761-0.864-1.737-1.339-2.926-1.425L535.9,417.498z
	 M535.498,427.976v-10.912l2.997,0.215c1.314,0.095,2.387,0.612,3.219,1.552c0.834,0.94,1.25,2.126,1.25,3.56v1.334
	c0,1.439-0.416,2.567-1.25,3.384c-0.832,0.817-1.905,1.178-3.219,1.083L535.498,427.976z"/>
<path fill="#FFFFFF" d="M547.999,421.022c-0.819-0.058-1.491,0.184-2.02,0.728c-0.527,0.545-0.839,1.272-0.933,2.186l5.608,0.403
	v-0.248c0-0.844-0.242-1.552-0.723-2.124C549.451,421.395,548.806,421.08,547.999,421.022 M548.147,429.045
	c-1.011-0.073-1.851-0.498-2.521-1.276c-0.67-0.777-1.004-1.739-1.004-2.883v-0.48c0-1.189,0.321-2.135,0.963-2.838
	c0.642-0.703,1.446-1.02,2.414-0.951c0.922,0.067,1.662,0.414,2.219,1.041c0.558,0.628,0.837,1.458,0.837,2.493v0.622l-6.031-0.435
	v0.098v0.479c0,0.999,0.294,1.854,0.885,2.564c0.59,0.709,1.336,1.096,2.238,1.161c0.477,0.034,0.9-0.01,1.272-0.133
	c0.371-0.123,0.746-0.351,1.123-0.684l0.215,0.33c-0.317,0.322-0.681,0.561-1.093,0.72
	C549.253,429.031,548.747,429.088,548.147,429.045"/>
<path fill="#FFFFFF" d="M558.685,429.647l-0.402-0.029v-5.097c0-1.039-0.188-1.773-0.566-2.202c-0.376-0.43-0.921-0.67-1.635-0.722
	c-0.823-0.059-1.467,0.179-1.93,0.712s-0.762,1.141-0.896,1.82v5.127l-0.409-0.03v-8.108l0.386,0.027l0.023,1.74v0.12l0.023,0.009
	c0.237-0.577,0.601-1.036,1.089-1.376c0.487-0.338,1.067-0.485,1.736-0.436c0.705,0.05,1.263,0.258,1.677,0.622
	c0.414,0.365,0.686,0.914,0.815,1.647l0.022,0.011c0.228-0.599,0.599-1.075,1.112-1.431c0.512-0.355,1.123-0.507,1.832-0.456
	c0.858,0.062,1.502,0.368,1.934,0.918c0.431,0.551,0.647,1.411,0.647,2.58v4.947l-0.402-0.029v-4.946
	c0-1.099-0.188-1.875-0.565-2.327c-0.376-0.452-0.921-0.701-1.635-0.747c-0.873-0.047-1.556,0.211-2.05,0.778
	c-0.493,0.566-0.762,1.16-0.806,1.781V429.647z"/>
<path fill="#FFFFFF" d="M566.352,426.308c0,1.037,0.277,1.925,0.833,2.661c0.554,0.736,1.32,1.138,2.297,1.209
	c0.961,0.069,1.72-0.226,2.276-0.884c0.554-0.658,0.832-1.504,0.832-2.537v-0.315c0-1.012-0.279-1.891-0.84-2.639
	c-0.56-0.745-1.321-1.154-2.283-1.223c-0.966-0.07-1.728,0.229-2.282,0.895c-0.556,0.667-0.833,1.506-0.833,2.518V426.308z
	 M565.95,425.964c0-1.207,0.32-2.159,0.962-2.857c0.643-0.697,1.494-1.007,2.555-0.931c1.066,0.077,1.92,0.509,2.562,1.295
	c0.642,0.788,0.963,1.787,0.963,3v0.315c0,1.217-0.32,2.173-0.959,2.868c-0.64,0.695-1.491,1.005-2.551,0.929
	c-1.071-0.078-1.927-0.51-2.57-1.296c-0.642-0.788-0.962-1.791-0.962-3.008V425.964z"/>
<path fill="#FFFFFF" d="M537.597,307.172l4.998,0.519l-2.269-6.381l-0.216-0.675l-0.022-0.002l-0.215,0.63L537.597,307.172z
	 M542.743,308.112l-5.294-0.55l-1.205,3.135l-0.439-0.045l4.045-10.493l0.491,0.051l4.053,11.333l-0.439-0.046L542.743,308.112z"/>
<path fill="#FFFFFF" d="M545.97,307.802c0,1.144,0.215,2.062,0.644,2.754c0.428,0.691,1.079,1.082,1.952,1.173
	c0.714,0.073,1.297-0.021,1.75-0.286c0.455-0.265,0.788-0.662,1.001-1.189v-3.8c-0.198-0.61-0.506-1.13-0.926-1.562
	c-0.419-0.431-1.023-0.687-1.811-0.769c-0.872-0.091-1.525,0.187-1.959,0.831c-0.433,0.645-0.651,1.542-0.651,2.691V307.802z
	 M545.553,307.601c0-1.314,0.264-2.315,0.789-3.002c0.526-0.688,1.273-0.98,2.246-0.879c0.645,0.067,1.19,0.264,1.636,0.593
	s0.802,0.757,1.071,1.284l0.022,0.003v-5.03l0.402,0.042v11.692l-0.387-0.041l-0.015-1.252L551.295,311
	c-0.259,0.409-0.615,0.716-1.071,0.924c-0.456,0.207-1.006,0.277-1.651,0.211c-0.968-0.101-1.711-0.537-2.235-1.308
	c-0.522-0.772-0.785-1.794-0.785-3.068V307.601z"/>
<path fill="#FFFFFF" d="M557.809,305.12l-0.52-0.099c-0.735-0.077-1.321,0.093-1.759,0.506c-0.439,0.414-0.728,1.005-0.867,1.769
	v5.314l-0.401-0.041v-8.109l0.327,0.034l0.074,1.416v0.217l0.023,0.003c0.218-0.542,0.542-0.945,0.974-1.211
	c0.431-0.265,0.974-0.364,1.629-0.295c0.114,0.012,0.218,0.03,0.311,0.054c0.094,0.025,0.179,0.054,0.253,0.087L557.809,305.12z"/>
<path fill="#FFFFFF" d="M561.922,305.509c-0.819-0.084-1.492,0.137-2.02,0.664c-0.528,0.528-0.839,1.246-0.932,2.155l5.607,0.583
	v-0.247c0-0.845-0.241-1.561-0.723-2.148C563.374,305.929,562.73,305.593,561.922,305.509 M562.071,313.537
	c-1.012-0.105-1.852-0.557-2.522-1.356c-0.67-0.799-1.004-1.771-1.004-2.915v-0.48c0-1.189,0.321-2.124,0.964-2.807
	c0.641-0.683,1.445-0.974,2.413-0.874c0.922,0.096,1.662,0.466,2.22,1.111c0.556,0.645,0.836,1.485,0.836,2.519v0.622l-6.031-0.626
	v0.097v0.48c0,0.999,0.294,1.863,0.885,2.592c0.59,0.727,1.335,1.138,2.239,1.232c0.476,0.049,0.899,0.019,1.271-0.093
	c0.372-0.11,0.746-0.327,1.124-0.647l0.214,0.337c-0.317,0.312-0.682,0.539-1.093,0.684
	C563.176,313.558,562.67,313.6,562.071,313.537"/>
<path fill="#FFFFFF" d="M571.783,312.402c0-0.434-0.179-0.845-0.535-1.228c-0.358-0.385-0.997-0.728-1.919-1.028
	c-0.977-0.312-1.674-0.645-2.094-1.001c-0.419-0.356-0.628-0.859-0.628-1.507c0-0.596,0.24-1.06,0.718-1.395
	c0.478-0.335,1.135-0.459,1.974-0.372c0.907,0.094,1.614,0.376,2.119,0.845c0.506,0.47,0.759,1.06,0.759,1.77l-0.409-0.043
	c0-0.539-0.219-1.016-0.654-1.428c-0.437-0.413-1.041-0.659-1.815-0.739c-0.768-0.08-1.342,0.023-1.722,0.307
	c-0.378,0.286-0.568,0.646-0.568,1.08c0,0.436,0.158,0.815,0.476,1.141c0.317,0.325,0.971,0.654,1.962,0.986
	c0.918,0.311,1.603,0.667,2.056,1.069c0.455,0.402,0.681,0.933,0.681,1.592c0,0.649-0.252,1.142-0.759,1.476
	c-0.505,0.334-1.193,0.457-2.066,0.366c-0.957-0.099-1.698-0.386-2.224-0.86s-0.788-1.031-0.788-1.67l0.401,0.042
	c0.045,0.658,0.316,1.152,0.815,1.482c0.499,0.328,1.096,0.529,1.796,0.601c0.759,0.079,1.352-0.031,1.781-0.331
	C571.568,313.256,571.783,312.872,571.783,312.402"/>
<path fill="#FFFFFF" d="M579.36,313.189c0-0.434-0.179-0.844-0.534-1.228c-0.358-0.385-0.998-0.728-1.919-1.028
	c-0.977-0.311-1.675-0.645-2.094-1.001c-0.419-0.355-0.628-0.858-0.628-1.507c0-0.595,0.239-1.06,0.718-1.394
	c0.478-0.336,1.135-0.46,1.974-0.373c0.907,0.094,1.614,0.376,2.119,0.845c0.506,0.47,0.758,1.06,0.758,1.77l-0.408-0.043
	c0-0.539-0.219-1.015-0.655-1.428c-0.436-0.413-1.041-0.659-1.814-0.739c-0.769-0.08-1.342,0.023-1.722,0.307
	c-0.379,0.286-0.569,0.647-0.569,1.081c0,0.436,0.158,0.815,0.477,1.14c0.317,0.325,0.971,0.655,1.962,0.987
	c0.918,0.31,1.603,0.666,2.056,1.067c0.454,0.403,0.681,0.934,0.681,1.593c0,0.649-0.252,1.142-0.759,1.476
	c-0.506,0.335-1.194,0.457-2.066,0.367c-0.958-0.1-1.698-0.387-2.224-0.861s-0.789-1.031-0.789-1.67l0.402,0.042
	c0.044,0.658,0.316,1.152,0.814,1.482c0.499,0.329,1.097,0.529,1.797,0.602c0.758,0.078,1.352-0.032,1.78-0.332
	C579.146,314.044,579.36,313.659,579.36,313.189"/>
<path fill="#FFFFFF" d="M584.752,307.88c-0.818-0.084-1.491,0.137-2.019,0.664c-0.528,0.527-0.839,1.246-0.933,2.155l5.607,0.583
	v-0.247c0-0.845-0.24-1.561-0.722-2.148C586.204,308.3,585.56,307.964,584.752,307.88 M584.901,315.908
	c-1.012-0.105-1.852-0.557-2.521-1.357c-0.67-0.798-1.004-1.77-1.004-2.914v-0.48c0-1.189,0.321-2.124,0.963-2.807
	c0.641-0.683,1.446-0.974,2.413-0.874c0.922,0.096,1.662,0.466,2.22,1.111c0.557,0.645,0.836,1.485,0.836,2.519v0.622l-6.031-0.626
	v0.097v0.48c0,0.999,0.295,1.862,0.885,2.592c0.591,0.727,1.335,1.138,2.239,1.232c0.476,0.049,0.9,0.019,1.272-0.093
	c0.371-0.111,0.745-0.327,1.123-0.648l0.215,0.338c-0.317,0.311-0.682,0.539-1.094,0.684
	C586.007,315.929,585.5,315.97,584.901,315.908"/>
<path fill="#FFFFFF" d="M594.612,314.773c0-0.435-0.179-0.845-0.535-1.229c-0.358-0.384-0.997-0.727-1.918-1.027
	c-0.978-0.312-1.675-0.645-2.094-1.001c-0.42-0.356-0.629-0.859-0.629-1.508c0-0.595,0.24-1.059,0.718-1.394
	c0.478-0.335,1.136-0.459,1.975-0.373c0.906,0.095,1.613,0.376,2.118,0.846c0.506,0.47,0.759,1.06,0.759,1.769l-0.409-0.042
	c0-0.539-0.218-1.016-0.654-1.429c-0.436-0.412-1.041-0.658-1.814-0.739c-0.769-0.079-1.342,0.023-1.722,0.308
	c-0.379,0.286-0.569,0.646-0.569,1.08c0,0.436,0.158,0.815,0.476,1.14c0.317,0.326,0.972,0.655,1.963,0.987
	c0.917,0.311,1.602,0.667,2.056,1.069c0.454,0.401,0.681,0.932,0.681,1.591c0,0.65-0.253,1.143-0.76,1.477
	c-0.505,0.334-1.193,0.457-2.066,0.366c-0.957-0.099-1.698-0.387-2.224-0.861c-0.526-0.473-0.788-1.03-0.788-1.669l0.402,0.041
	c0.044,0.658,0.316,1.153,0.814,1.482c0.499,0.329,1.096,0.529,1.796,0.602c0.759,0.079,1.352-0.032,1.781-0.332
	C594.397,315.627,594.612,315.243,594.612,314.773"/>
</svg>
