<?xml version="1.0" encoding="utf-8"?>
<!-- Generator: Adobe Illustrator 17.0.0, SVG Export Plug-In . SVG Version: 6.00 Build 0)  -->
<!DOCTYPE svg PUBLIC "-//W3C//DTD SVG 1.1//EN" "http://www.w3.org/Graphics/SVG/1.1/DTD/svg11.dtd">
<svg version="1.1" id="Layer_1" xmlns="http://www.w3.org/2000/svg" xmlns:xlink="http://www.w3.org/1999/xlink" x="0px" y="0px"
	 width="443px" height="593.125px" viewBox="90.625 0 443 593.125" enable-background="new 90.625 0 443 593.125"
	 xml:space="preserve">
<g>
	<defs>
		<path id="SVGID_1_" d="M361.01,316.043c-8.652,0-15.666,7.015-15.666,15.668v239.793c0,8.653,7.014,15.667,15.666,15.667h144.051
			c8.652,0,15.666-7.015,15.666-15.667V331.711c0-8.653-7.015-15.668-15.666-15.668H361.01z M262.761,38.46h-28.407h-0.402
			l-0.349,0.199l-1.321,0.755l-0.761,0.435v0.876v1.007h-97.136c-7.807,0-15.148,3.038-20.67,8.553
			c-5.522,5.516-8.564,12.851-8.564,20.652v25.422h-0.503h-0.626l-0.442,0.442l-0.755,0.755l-0.443,0.442v0.626v16.866v0.625
			l0.443,0.443l0.755,0.755l0.442,0.442h0.626h0.503v16.615h-0.503h-0.626l-0.442,0.442l-0.755,0.755l-0.443,0.443v0.625v12.587
			v0.625l0.443,0.443l0.755,0.755l0.442,0.443h0.626h0.503v16.363h-0.503h-0.626l-0.442,0.442l-0.755,0.755l-0.443,0.443v0.625
			v12.587v0.625l0.443,0.442l0.755,0.755l0.442,0.443h0.626h0.503V415.3c0,7.801,3.042,15.137,8.564,20.652
			c5.522,5.515,12.863,8.553,20.67,8.553h133.352c7.807,0,15.149-3.037,20.67-8.553c5.522-5.516,8.564-12.851,8.564-20.652V283.107
			l-0.159-7.309h65.559V144.976h-7.07h-1.247h-57.242l0.159-8.107V70.937c0-7.802-3.042-15.137-8.564-20.652
			c-5.522-5.515-12.864-8.553-20.67-8.553h-2.484v-1.007v-0.744l-0.592-0.454l-0.984-0.755l-0.407-0.312H262.761z M320.84,47.382
			c0,23.146,18.764,41.91,41.91,41.91c10.907,0,20.838-4.169,28.294-10.996h100.341c0,0,8.161-0.865,8.161-11.066v-8.023h21.3
			V35.556h-21.3v-8.022c0-10.202-8.161-11.066-8.161-11.066H391.044c-7.455-6.827-17.387-10.996-28.294-10.996
			C339.604,5.472,320.84,24.236,320.84,47.382"/>
	</defs>
	<clipPath id="SVGID_2_">
		<use xlink:href="#SVGID_1_"  overflow="visible"/>
	</clipPath>
	<g clip-path="url(#SVGID_2_)">
		<defs>
			<rect id="SVGID_3_" x="101.677" y="4.732" width="419.866" height="583.425"/>
		</defs>
		<clipPath id="SVGID_4_">
			<use xlink:href="#SVGID_3_"  overflow="visible"/>
		</clipPath>
		<g transform="matrix(1 0 0 1 -7.629395e-006 0)" clip-path="url(#SVGID_4_)">
			
				<image overflow="visible" width="670" height="931" xlink:href="C24A2E07.jpg"  transform="matrix(0.6267 0 0 0.6267 101.6773 4.7319)">
			</image>
		</g>
	</g>
</g>
<g>
	<defs>
		<rect id="SVGID_5_" x="101.625" y="4.988" width="419.43" height="582.667"/>
	</defs>
	<clipPath id="SVGID_6_">
		<use xlink:href="#SVGID_5_"  overflow="visible"/>
	</clipPath>
	<path clip-path="url(#SVGID_6_)" fill="none" stroke="#FFFFFF" stroke-width="0.5" stroke-miterlimit="10" d="M200.536,66.561
		c2.359,0,4.28-1.92,4.28-4.28c0-2.359-1.92-4.28-4.28-4.28c-2.36,0-4.28,1.92-4.28,4.28
		C196.257,64.641,198.176,66.561,200.536,66.561z M200.662,397.179c-9.384,0-16.992,7.608-16.992,16.992
		c0,9.385,7.608,16.992,16.992,16.992s16.992-7.607,16.992-16.992C217.654,404.787,210.046,397.179,200.662,397.179z
		 M283.104,136.869v-36.735c0-1.112-0.902-2.014-2.014-2.014H119.982c-1.112,0-2.014,0.902-2.014,2.014v285.968
		c0,1.112,0.902,2.014,2.014,2.014H281.09c1.112,0,2.014-0.902,2.014-2.014V283.107 M186.439,81.254h27.691
		c2.086,0,3.776-1.691,3.776-3.776c0-2.085-1.69-3.776-3.776-3.776h-27.691c-2.085,0-3.775,1.691-3.775,3.776
		C182.663,79.564,184.354,81.254,186.439,81.254z M290.656,283.107v132.174c0,12.773-10.405,23.164-23.193,23.164H134.112
		c-12.788,0-23.193-10.391-23.193-23.164V70.92c0-12.773,10.405-23.164,23.193-23.164h133.351c12.788,0,23.193,10.391,23.193,23.164
		v65.949"/>
	<path clip-path="url(#SVGID_6_)" fill="none" stroke="#FFFFFF" stroke-width="0.5" stroke-miterlimit="10" d="M353.922,262.586
		l-53.089-53.094l53.089-53.094V262.586z M172.391,267.62l52.351-52.344l22.628,22.625c3.342,3.345,7.793,5.19,12.524,5.19
		c4.731,0,9.182-1.845,12.524-5.19l22.629-22.628l52.347,52.347H172.391z M165.867,156.41l53.089,53.082l-53.089,53.09V156.41z
		 M345.606,153.152l-78.968,78.968c-3.601,3.601-9.886,3.601-13.486,0l-78.981-78.968H345.606z"/>
</g>
<polygon fill="none" stroke="#FFFFFF" stroke-width="1.5" stroke-miterlimit="10" points="353.782,144.976 165.994,144.976 
	164.366,144.976 160.413,144.976 157.691,144.976 157.691,275.798 362.098,275.798 362.098,144.976 355.027,144.976 "/>
<g>
	<defs>
		<rect id="SVGID_7_" x="101.625" y="4.988" width="419.43" height="582.667"/>
	</defs>
	<clipPath id="SVGID_8_">
		<use xlink:href="#SVGID_7_"  overflow="visible"/>
	</clipPath>
	<path clip-path="url(#SVGID_8_)" fill="none" stroke="#FFFFFF" stroke-width="1.5" stroke-miterlimit="10" d="M296.698,136.869
		V70.937c0-7.802-3.042-15.137-8.564-20.652c-5.522-5.515-12.862-8.553-20.67-8.553h-2.484v-1.007V39.98l-0.591-0.453l-0.983-0.755
		l-0.407-0.313h-0.512h-28.406h-0.402l-0.349,0.199l-1.32,0.755l-0.761,0.435v0.876v1.007h-97.136
		c-7.807,0-15.148,3.037-20.67,8.553c-5.523,5.516-8.564,12.85-8.564,20.652v25.421h-0.503h-0.626l-0.442,0.442l-0.755,0.755
		l-0.443,0.442v0.625v16.866v0.626l0.443,0.442l0.755,0.755l0.442,0.442h0.626h0.503v16.615h-0.503h-0.626l-0.442,0.442
		l-0.755,0.755l-0.443,0.442v0.625v12.587v0.625l0.443,0.442l0.755,0.755l0.442,0.442h0.626h0.503v16.363h-0.503h-0.626
		l-0.442,0.443l-0.755,0.755l-0.443,0.443v0.625v12.587v0.626l0.443,0.442l0.755,0.755l0.442,0.443h0.626h0.503V415.3
		c0,7.801,3.041,15.136,8.564,20.652c5.522,5.515,12.862,8.552,20.67,8.552h133.352c7.808,0,15.149-3.037,20.67-8.552
		c5.522-5.517,8.564-12.851,8.564-20.652V283.108"/>
	<path clip-path="url(#SVGID_8_)" fill="none" stroke="#FFFFFF" stroke-width="1.5" stroke-miterlimit="10" d="M520.572,59.207
		h-21.301V35.555h21.301V59.207z M491.11,16.468H390.769c-7.455-6.828-17.386-10.996-28.293-10.996
		c-23.146,0-41.91,18.764-41.91,41.91c0,23.146,18.764,41.909,41.91,41.909c10.907,0,20.837-4.168,28.293-10.996H491.11
		c0,0,8.161-0.864,8.161-11.065V27.533C499.271,17.332,491.11,16.468,491.11,16.468z"/>
	<path clip-path="url(#SVGID_8_)" fill="none" stroke="#FFFFFF" stroke-width="0.5" stroke-miterlimit="10" d="M469.413,56.494
		h-8.758V37.684h8.758V56.494z M455.16,56.494h-8.758V37.684h8.758V56.494z M440.908,56.494h-8.758V37.684h8.758V56.494z
		 M426.655,56.494h-8.758V37.684h8.758V56.494z M512.411,43.404h-2.766v-4.009h2.766V43.404z M512.411,55.368h-2.766v-4.009h2.766
		V55.368z M481.376,59.208h-74.469c-1.605-3.616-2.501-7.615-2.501-11.826c0-4.211,0.896-8.211,2.501-11.827h74.469
		c1.604,3.616,2.5,7.616,2.5,11.827C483.876,51.592,482.98,55.592,481.376,59.208z M389.303,58.884
		c-4.465,10.398-14.794,17.682-26.827,17.682c-16.118,0-29.184-13.066-29.184-29.184s13.066-29.185,29.184-29.185
		c12.033,0,22.363,7.284,26.827,17.682c-1.515,3.53-2.358,7.417-2.358,11.503C386.945,51.466,387.787,55.354,389.303,58.884z"/>
	<path clip-path="url(#SVGID_8_)" fill="none" stroke="#FFFFFF" stroke-width="1.5" stroke-miterlimit="10" d="M520.454,571.505
		c0,8.653-7.015,15.667-15.667,15.667H360.736c-8.652,0-15.667-7.015-15.667-15.667V331.71c0-8.652,7.015-15.667,15.667-15.667
		h144.051c8.652,0,15.667,7.015,15.667,15.667V571.505z"/>
</g>
<polygon fill="#FFFFFF" points="383.161,560.857 372.794,554.871 383.161,548.885 "/>
<polygon fill="#FFFFFF" points="482.711,548.885 493.079,554.871 482.711,560.857 "/>
<g>
	<defs>
		<rect id="SVGID_9_" x="101.625" y="4.988" width="419.43" height="582.667"/>
	</defs>
	<clipPath id="SVGID_10_">
		<use xlink:href="#SVGID_9_"  overflow="visible"/>
	</clipPath>
	<path clip-path="url(#SVGID_10_)" fill="#FFFFFF" d="M380.078,431.915h-1.24v-7.971c0-0.663,0.021-1.29,0.061-1.882
		c-0.107,0.108-0.227,0.22-0.359,0.336c-0.133,0.118-0.74,0.615-1.821,1.492l-0.673-0.872l2.96-2.288h1.071V431.915z"/>
	<path clip-path="url(#SVGID_10_)" fill="#FFFFFF" d="M436.744,431.915h-7.352v-1.094l2.945-2.961
		c0.898-0.908,1.489-1.555,1.775-1.943c0.286-0.388,0.5-0.765,0.643-1.133c0.143-0.367,0.215-0.762,0.215-1.185
		c0-0.597-0.181-1.07-0.543-1.419c-0.362-0.349-0.864-0.524-1.507-0.524c-0.464,0-0.904,0.077-1.319,0.229
		c-0.416,0.153-0.879,0.431-1.388,0.834l-0.673-0.864c1.03-0.857,2.152-1.285,3.365-1.285c1.051,0,1.874,0.269,2.471,0.807
		c0.596,0.538,0.895,1.261,0.895,2.169c0,0.708-0.199,1.41-0.596,2.103c-0.398,0.694-1.143,1.571-2.234,2.632l-2.448,2.394v0.061
		h5.753V431.915z"/>
	<path clip-path="url(#SVGID_10_)" fill="#FFFFFF" d="M489.101,423.362c0,0.714-0.2,1.298-0.601,1.752
		c-0.4,0.454-0.968,0.757-1.702,0.91v0.061c0.898,0.112,1.563,0.398,1.997,0.857c0.433,0.459,0.65,1.061,0.65,1.806
		c0,1.066-0.369,1.885-1.109,2.459c-0.739,0.574-1.79,0.861-3.151,0.861c-0.592,0-1.134-0.044-1.626-0.133
		c-0.492-0.09-0.97-0.246-1.434-0.471v-1.209c0.484,0.24,1,0.422,1.549,0.547c0.548,0.125,1.067,0.188,1.557,0.188
		c1.933,0,2.899-0.757,2.899-2.272c0-1.356-1.066-2.034-3.198-2.034h-1.102v-1.094h1.117c0.872,0,1.563-0.193,2.073-0.578
		c0.51-0.385,0.765-0.92,0.765-1.603c0-0.545-0.188-0.974-0.562-1.285c-0.375-0.311-0.884-0.466-1.526-0.466
		c-0.49,0-0.951,0.066-1.385,0.199c-0.434,0.133-0.928,0.378-1.485,0.734l-0.642-0.857c0.459-0.362,0.988-0.647,1.587-0.853
		c0.599-0.207,1.231-0.31,1.894-0.31c1.086,0,1.93,0.249,2.532,0.746C488.8,421.813,489.101,422.495,489.101,423.362"/>
	<path clip-path="url(#SVGID_10_)" fill="#FFFFFF" d="M380.376,471.274v-3.718c0-0.729,0.025-1.553,0.077-2.471h-0.061
		c-0.245,0.49-0.474,0.895-0.689,1.216l-3.496,4.972H380.376z M383.252,472.429h-1.66V475h-1.216v-2.571h-5.439v-1.109l5.309-7.566
		h1.347v7.52h1.66V472.429z"/>
	<path clip-path="url(#SVGID_10_)" fill="#FFFFFF" d="M432.888,468.168c1.178,0,2.105,0.292,2.781,0.876
		c0.676,0.584,1.013,1.383,1.013,2.398c0,1.158-0.368,2.066-1.105,2.723c-0.737,0.658-1.753,0.987-3.048,0.987
		c-1.26,0-2.221-0.201-2.884-0.604v-1.224c0.357,0.229,0.801,0.409,1.331,0.54c0.531,0.13,1.053,0.195,1.568,0.195
		c0.898,0,1.595-0.211,2.092-0.635c0.497-0.423,0.746-1.035,0.746-1.836c0-1.561-0.957-2.341-2.868-2.341
		c-0.485,0-1.133,0.074-1.943,0.222l-0.658-0.421l0.42-5.233h5.562v1.171h-4.475l-0.283,3.358
		C431.722,468.227,432.306,468.168,432.888,468.168"/>
	<path clip-path="url(#SVGID_10_)" fill="#FFFFFF" d="M486.057,474.073c0.724,0,1.287-0.228,1.687-0.685
		c0.4-0.456,0.6-1.116,0.6-1.977c0-0.74-0.186-1.321-0.558-1.745c-0.372-0.423-0.928-0.634-1.668-0.634
		c-0.459,0-0.88,0.094-1.262,0.283c-0.383,0.188-0.687,0.449-0.914,0.78c-0.228,0.331-0.341,0.676-0.341,1.033
		c0,0.525,0.102,1.015,0.306,1.469c0.204,0.454,0.494,0.813,0.868,1.078C485.15,473.941,485.577,474.073,486.057,474.073
		 M482.3,470.218c0-2.198,0.427-3.842,1.281-4.931c0.854-1.089,2.117-1.633,3.79-1.633c0.576,0,1.03,0.049,1.362,0.146v1.094
		c-0.393-0.128-0.842-0.191-1.347-0.191c-1.198,0-2.114,0.374-2.747,1.121c-0.632,0.747-0.979,1.922-1.04,3.523h0.092
		c0.561-0.877,1.448-1.316,2.662-1.316c1.005,0,1.796,0.304,2.375,0.91c0.579,0.607,0.868,1.43,0.868,2.471
		c0,1.162-0.318,2.077-0.953,2.742c-0.635,0.665-1.493,0.999-2.574,0.999c-1.158,0-2.076-0.435-2.754-1.305
		C482.639,472.978,482.3,471.768,482.3,470.218"/>
</g>
<polygon fill="#FFFFFF" points="376.788,517.105 381.424,507.091 375.327,507.091 375.327,505.92 382.771,505.92 382.771,506.938 
	378.196,517.105 "/>
<g>
	<defs>
		<rect id="SVGID_11_" x="101.625" y="4.988" width="419.43" height="582.667"/>
	</defs>
	<clipPath id="SVGID_12_">
		<use xlink:href="#SVGID_11_"  overflow="visible"/>
	</clipPath>
	<path clip-path="url(#SVGID_12_)" fill="#FFFFFF" d="M433.079,506.792c-0.637,0-1.137,0.153-1.499,0.459
		c-0.362,0.306-0.543,0.714-0.543,1.224c0,0.469,0.15,0.872,0.451,1.209s0.857,0.674,1.668,1.01
		c0.729-0.306,1.246-0.635,1.549-0.987c0.304-0.352,0.455-0.763,0.455-1.232c0-0.515-0.185-0.924-0.554-1.228
		C434.235,506.945,433.727,506.792,433.079,506.792 M430.677,514.282c0,0.612,0.213,1.089,0.639,1.43
		c0.425,0.342,1.024,0.513,1.794,0.513c0.76,0,1.351-0.179,1.775-0.536c0.423-0.356,0.635-0.846,0.635-1.468
		c0-0.495-0.199-0.935-0.596-1.32c-0.398-0.385-1.092-0.759-2.081-1.121c-0.759,0.326-1.31,0.687-1.652,1.082
		S430.677,513.731,430.677,514.282 M433.095,505.76c1.02,0,1.829,0.237,2.425,0.712c0.597,0.474,0.895,1.129,0.895,1.966
		c0,0.551-0.171,1.053-0.512,1.507c-0.342,0.454-0.888,0.867-1.637,1.239c0.908,0.434,1.553,0.889,1.935,1.366
		c0.383,0.477,0.574,1.029,0.574,1.656c0,0.928-0.324,1.669-0.971,2.223c-0.648,0.553-1.535,0.83-2.662,0.83
		c-1.193,0-2.111-0.261-2.754-0.784s-0.964-1.263-0.964-2.223c0-1.28,0.78-2.277,2.341-2.991c-0.704-0.398-1.209-0.828-1.515-1.289
		c-0.306-0.462-0.459-0.978-0.459-1.549c0-0.811,0.3-1.457,0.899-1.939C431.288,506.001,432.09,505.76,433.095,505.76"/>
	<path clip-path="url(#SVGID_12_)" fill="#FFFFFF" d="M430.693,554.099c0,1.627,0.191,2.811,0.574,3.553
		c0.382,0.743,0.992,1.113,1.828,1.113c0.846,0,1.46-0.376,1.84-1.128c0.38-0.752,0.57-1.932,0.57-3.538
		c0-1.606-0.19-2.783-0.57-3.53c-0.38-0.747-0.994-1.121-1.84-1.121c-0.836,0-1.446,0.369-1.828,1.105
		C430.883,551.29,430.693,552.472,430.693,554.099 M436.805,554.099c0,1.933-0.305,3.376-0.914,4.33
		c-0.61,0.954-1.541,1.43-2.796,1.43c-1.203,0-2.119-0.488-2.746-1.465c-0.628-0.977-0.941-2.409-0.941-4.296
		c0-1.948,0.304-3.394,0.91-4.338c0.607-0.944,1.533-1.416,2.777-1.416c1.214,0,2.136,0.492,2.765,1.477
		C436.49,550.807,436.805,552.232,436.805,554.099"/>
	<path clip-path="url(#SVGID_12_)" fill="#FFFFFF" d="M485.758,506.846c-0.729,0-1.292,0.235-1.691,0.703
		c-0.398,0.469-0.596,1.122-0.596,1.959c0,0.734,0.184,1.312,0.551,1.733c0.367,0.42,0.926,0.631,1.675,0.631
		c0.464,0,0.891-0.095,1.281-0.283c0.39-0.189,0.697-0.447,0.922-0.773c0.224-0.326,0.337-0.668,0.337-1.025
		c0-0.536-0.104-1.03-0.313-1.485c-0.21-0.454-0.502-0.811-0.876-1.071C486.672,506.976,486.243,506.846,485.758,506.846
		 M489.522,510.694c0,4.376-1.693,6.564-5.079,6.564c-0.592,0-1.061-0.052-1.408-0.153v-1.094c0.408,0.133,0.872,0.199,1.392,0.199
		c1.224,0,2.148-0.379,2.773-1.136c0.625-0.757,0.965-1.918,1.021-3.484h-0.092c-0.28,0.423-0.653,0.746-1.117,0.968
		c-0.464,0.222-0.986,0.333-1.568,0.333c-0.989,0-1.775-0.296-2.357-0.888c-0.581-0.591-0.872-1.417-0.872-2.478
		c0-1.163,0.326-2.081,0.976-2.754c0.65-0.673,1.505-1.01,2.566-1.01c0.76,0,1.424,0.195,1.993,0.585
		c0.569,0.39,1.006,0.959,1.312,1.706C489.369,508.798,489.522,509.679,489.522,510.694"/>
	<path clip-path="url(#SVGID_12_)" fill="none" stroke="#FFFFFF" stroke-width="0.5" stroke-miterlimit="10" d="M345.069,392.638
		h175.385 M497.769,554.871c0,6.444-5.224,11.669-11.669,11.669c-6.445,0-11.669-5.224-11.669-11.669
		c0-6.445,5.224-11.669,11.669-11.669C492.544,543.202,497.769,548.427,497.769,554.871z M444.43,554.871
		c0,6.444-5.225,11.669-11.669,11.669c-6.445,0-11.669-5.224-11.669-11.669c0-6.445,5.224-11.669,11.669-11.669
		C439.206,543.202,444.43,548.427,444.43,554.871z M391.091,554.871c0,6.444-5.224,11.669-11.669,11.669
		c-6.445,0-11.669-5.224-11.669-11.669c0-6.445,5.224-11.669,11.669-11.669C385.867,543.202,391.091,548.427,391.091,554.871z
		 M497.769,512.281c0,6.445-5.224,11.669-11.669,11.669c-6.445,0-11.669-5.225-11.669-11.669c0-6.444,5.224-11.669,11.669-11.669
		C492.544,500.612,497.769,505.836,497.769,512.281z M444.43,512.281c0,6.445-5.225,11.669-11.669,11.669
		c-6.445,0-11.669-5.225-11.669-11.669c0-6.444,5.224-11.669,11.669-11.669C439.206,500.612,444.43,505.836,444.43,512.281z
		 M391.091,512.281c0,6.445-5.224,11.669-11.669,11.669c-6.445,0-11.669-5.225-11.669-11.669c0-6.444,5.224-11.669,11.669-11.669
		C385.867,500.612,391.091,505.836,391.091,512.281z M497.769,469.691c0,6.444-5.224,11.669-11.669,11.669
		c-6.445,0-11.669-5.224-11.669-11.669c0-6.445,5.224-11.669,11.669-11.669C492.544,458.022,497.769,463.246,497.769,469.691z
		 M444.43,469.691c0,6.444-5.225,11.669-11.669,11.669c-6.445,0-11.669-5.224-11.669-11.669c0-6.445,5.224-11.669,11.669-11.669
		C439.206,458.022,444.43,463.246,444.43,469.691z M391.091,469.691c0,6.444-5.224,11.669-11.669,11.669
		c-6.445,0-11.669-5.224-11.669-11.669c0-6.445,5.224-11.669,11.669-11.669C385.867,458.022,391.091,463.246,391.091,469.691z
		 M497.769,427.1c0,6.445-5.224,11.669-11.669,11.669c-6.445,0-11.669-5.224-11.669-11.669c0-6.444,5.224-11.669,11.669-11.669
		C492.544,415.432,497.769,420.656,497.769,427.1z M444.43,427.1c0,6.445-5.225,11.669-11.669,11.669
		c-6.445,0-11.669-5.224-11.669-11.669c0-6.444,5.224-11.669,11.669-11.669C439.206,415.432,444.43,420.656,444.43,427.1z
		 M391.091,427.1c0,6.445-5.224,11.669-11.669,11.669c-6.445,0-11.669-5.224-11.669-11.669c0-6.444,5.224-11.669,11.669-11.669
		C385.867,415.432,391.091,420.656,391.091,427.1z M482.809,377.189c0,2.163-1.753,3.917-3.917,3.917h-92.262
		c-2.163,0-3.917-1.753-3.917-3.917V347.16c0-2.163,1.754-3.917,3.917-3.917h92.262c2.163,0,3.917,1.754,3.917,3.917V377.189z"/>
</g>
<path fill="none" stroke="#FFFFFF" stroke-width="0.5" stroke-miterlimit="10" d="M473.888,376.1h-7.072v-26.112h7.072V376.1z
	 M448.646,376.1h-7.072v-26.112h7.072V376.1z M423.405,376.1h-7.072v-26.112h7.072V376.1z M398.163,376.1h-7.072v-26.112h7.072
	V376.1z"/>
</svg>
