<?xml version="1.0" encoding="utf-8"?>
<!-- Generator: Adobe Illustrator 17.0.0, SVG Export Plug-In . SVG Version: 6.00 Build 0)  -->
<!DOCTYPE svg PUBLIC "-//W3C//DTD SVG 1.1//EN" "http://www.w3.org/Graphics/SVG/1.1/DTD/svg11.dtd">
<svg version="1.1" id="Layer_1" xmlns="http://www.w3.org/2000/svg" xmlns:xlink="http://www.w3.org/1999/xlink" x="0px" y="0px"
	 width="895.455px" height="883.456px" viewBox="-32.442 155.387 895.455 883.456"
	 enable-background="new -32.442 155.387 895.455 883.456" xml:space="preserve">
<g>
	<path fill="none" stroke="#FFFFFF" stroke-width="1.5" stroke-miterlimit="10" d="M536.839,902.35
		c-2.078,0.08-4.16,0.16-6.251,0.241c3.55,14.212,15.705,62.873,17.398,69.688c1.688,6.802,8.689,41.111-13.555,43.097
		c-23.386,2.085-78.102,7.249-111.368,7.249s-215.884,0-217.97,0c-1.39,0-1.589-0.348-0.894-0.646
		c-1.638,0.596-1.192,1.192-1.241,1.539c0,0.546,0.546,0.993,1.092,0.993c0.546,0,2.135,0,3.426,0c1.738,0,301.831,0,326.707,0
		c27.706,0,22.294-43.246,19.017-55.361L536.839,902.35z"/>
	<path fill="none" stroke="#FFFFFF" stroke-width="1.5" stroke-miterlimit="10" d="M530.745,902.584
		c-50.331,1.939-104.408,4.018-157.685,6.063c0.764,9.197,2.866,35.218,4.423,61.447c1.738,31.479-11.916,43.793-25.422,44.587
		c-13.456,0.794-123.731,5.412-135.251,5.859c-7.497,0.298-10.973,0.894-12.512,1.44c-0.645,0.298-0.447,0.596,0.943,0.596
		c2.085,0,184.753,0,217.97,0s87.933-5.164,111.368-7.249c22.244-1.986,15.243-36.295,13.555-43.097
		C546.401,965.421,534.299,916.852,530.745,902.584z"/>
	<g>
		<g>
			<path fill="none" stroke="#FFFFFF" stroke-width="1.5" stroke-miterlimit="10" d="M10.748,918.629l4.18,1.515
				c4.866,1.44,5.164,1.738,20.307,1.341c15.144-0.397,720.79-27.507,732.111-28.103c11.321-0.596,28.301-6.256,29.94-30.138
				c1.539-23.882,43.395-657.087,43.793-664.386c0.397-7.299,2.334-19.066-1.787-23.138l-2.244-1.954"/>
		</g>
	</g>
	<path fill="none" stroke="#FFFFFF" stroke-width="1.5" stroke-miterlimit="10" d="M796.094,787.476
		c-2.731,40.267-4.518,66.732-4.766,70.803c-1.291,21.648-14.846,29.195-27.606,29.99c-12.76,0.794-728.685,30.734-744.077,31.28
		c-15.392,0.497-20.307-7.795-19.563-16.683c0.149-1.837,3.029-24.081,6.604-58.34"/>
	<path fill="none" stroke="#FFFFFF" stroke-width="0.5" stroke-miterlimit="10" d="M834.276,171.351
		c5.114,3.178,5.263,8.143,5.064,12.413c-0.447,8.044-28.55,432.861-40.367,605.251l-2.88-1.539h-0.05
		c11.767-172.39,40.714-598.499,41.161-606.493C837.355,177.855,836.908,174.28,834.276,171.351z"/>
	<path fill="none" stroke="#FFFFFF" stroke-width="1.5" stroke-miterlimit="10" d="M6.686,844.476
		c13.704-132.271,46.226-444.43,47.467-458.283c1.589-17.477,11.469-24.776,20.059-26.564
		c8.59-1.837,711.257-186.59,734.444-192.101c13.902-3.277,21.698-0.546,25.57,3.823c2.632,2.929,3.376,6.753,3.327,9.732
		c-0.05,8.044-29.791,434.053-41.558,606.393l0,0"/>
	<path fill="none" stroke="#FFFFFF" stroke-width="0.5" stroke-miterlimit="10" d="M796.094,215.342l-36.643,533.455l-725.11,62.213
		l42.303-417.916L796.094,215.342z"/>
	<path fill="none" stroke="#FFFFFF" stroke-width="0.5" stroke-miterlimit="10" d="M405.089,299.005
		c-1.092,0-3.426-0.695-3.426-4.518c0-3.823,3.128-5.412,4.568-5.412s3.525,1.241,3.525,4.27
		C409.707,297.813,406.132,299.005,405.089,299.005z"/>
	<path fill="none" stroke="#FFFFFF" stroke-width="0.5" stroke-miterlimit="10" d="M423.51,289.372
		c0.348,0.05,0.546,0.447,0.497,0.844c-0.05,0.447-0.397,0.745-0.695,0.695c-0.348-0.05-0.546-0.447-0.497-0.844
		C422.864,289.621,423.162,289.323,423.51,289.372z"/>
	<path fill="none" stroke="#FFFFFF" stroke-width="0.5" stroke-miterlimit="10" d="M6.686,844.525l789.408-57.049"/>
	<path fill="none" stroke="#FFFFFF" stroke-width="0.5" stroke-miterlimit="10" d="M795.995,787.476l-789.309,57"/>
</g>
</svg>
