<?xml version="1.0" encoding="utf-8"?>
<!-- Generator: Adobe Illustrator 17.0.0, SVG Export Plug-In . SVG Version: 6.00 Build 0)  -->
<!DOCTYPE svg PUBLIC "-//W3C//DTD SVG 1.1//EN" "http://www.w3.org/Graphics/SVG/1.1/DTD/svg11.dtd">
<svg version="1.1" id="Layer_1" xmlns="http://www.w3.org/2000/svg" xmlns:xlink="http://www.w3.org/1999/xlink" x="0px" y="0px"
	 width="895.455px" height="883.456px" viewBox="0 0 895.455 883.456" enable-background="new 0 0 895.455 883.456"
	 xml:space="preserve">
<g>
	<path fill="none" stroke="#FFFFFF" stroke-width="1.5" stroke-miterlimit="10" d="M9.452,403.812
		c-6.211-5.033-6.103-15.297,7.752-23.288l631.12-363.998c13.817-7.968,23.425-3.323,24.507,4.655"/>
	<path fill="none" stroke="#FFFFFF" stroke-width="1.5" stroke-miterlimit="10" d="M191.947,504.891
		c-10.52,6.074-23.577,8.004-29.106,4.302L9.479,403.86c-5.57-3.923,1.171-13.625,15.024-21.616L646.967,23.169
		c13.818-7.971,25.42-8.859,25.863-1.988l10.32,187.624c0.307,6.712-7.986,17.1-18.478,23.158L191.947,504.891z"/>
	<path fill="none" stroke="#FFFFFF" stroke-width="0.5" stroke-miterlimit="10" d="M680.122,211.99
		c0.282,5.415-6.415,13.8-14.948,18.728L190.765,504.615c-8.552,4.938-19.093,6.5-23.54,3.484L14.891,402.219
		c-4.483-3.194,0.96-11.023,12.153-17.481L647.89,26.593c11.164-6.44,20.534-7.163,20.918-1.613L680.122,211.99z"/>
	<polygon fill="none" stroke="#FFFFFF" stroke-width="0.5" stroke-miterlimit="10" points="662.098,213.397 178.084,492.82 
		46.46,395.022 646.978,48.574 	"/>
	<path fill="none" stroke="#FFFFFF" stroke-width="0.5" stroke-miterlimit="10" d="M346.958,211.69
		c0.513,0.931-0.978,2.785-3.33,4.141c-2.356,1.359-4.687,1.709-5.205,0.783c-0.523-0.924,0.969-2.779,3.335-4.145
		C344.121,211.107,346.448,210.758,346.958,211.69z"/>
	<path fill="none" stroke="#FFFFFF" stroke-width="1.5" stroke-miterlimit="10" d="M669.37,232.926l-34.998,20.206l7.692,13.322
		c0.37,0.641,0.146,1.462-0.502,1.837L239.269,500.555c-0.646,0.373-1.471,0.158-1.842-0.484l-7.692-13.322l-34.998,20.206
		c-10.893,6.289-14.626,20.219-8.336,31.112l184.525,319.606c6.289,10.893,20.219,14.626,31.112,8.336L876.67,591.98
		c10.893-6.289,14.626-20.219,8.336-31.112L700.482,241.263C694.192,230.369,680.263,226.637,669.37,232.926z"/>
	<g>
		<path fill="none" stroke="#FFFFFF" stroke-width="1.5" stroke-miterlimit="10" d="M770.337,439.893
			c2.374,4.112,0.842,9.482-3.398,11.929L335.522,700.901c-4.242,2.449-9.656,1.09-12.03-3.022l-94.92-164.406
			c-2.375-4.113-0.845-9.48,3.398-11.93l431.417-249.079c4.24-2.448,9.655-1.091,12.03,3.022L770.337,439.893z"/>
	</g>
	<path fill="none" stroke="#FFFFFF" stroke-width="1.5" stroke-miterlimit="10" d="M770.337,439.893
		c2.374,4.112,0.842,9.482-3.398,11.929L335.522,700.901c-4.242,2.449-9.656,1.09-12.03-3.022l-94.92-164.406
		c-2.375-4.113-0.845-9.48,3.398-11.93l431.417-249.079c4.24-2.448,9.655-1.091,12.03,3.022L770.337,439.893z"/>
	<path fill="none" stroke="#FFFFFF" stroke-width="0.5" stroke-miterlimit="10" d="M319.8,536.482
		c1.121,1.942,0.408,4.454-1.595,5.61l-19.149,11.055c-2.003,1.157-4.537,0.52-5.659-1.422l-10.717-18.562
		c-1.121-1.942-0.406-4.455,1.597-5.612l19.149-11.055c2.003-1.157,4.535-0.518,5.656,1.424L319.8,536.482z"/>
	<path fill="none" stroke="#FFFFFF" stroke-width="0.5" stroke-miterlimit="10" d="M290.375,553.471
		c1.121,1.942,0.406,4.455-1.597,5.612l-19.149,11.056c-2.003,1.157-4.537,0.52-5.658-1.422l-10.717-18.562
		c-1.121-1.942-0.406-4.455,1.597-5.612L274,533.487c2.003-1.156,4.537-0.52,5.658,1.422L290.375,553.471z"/>
	<path fill="none" stroke="#FFFFFF" stroke-width="0.5" stroke-miterlimit="10" d="M378.653,502.503
		c1.121,1.942,0.408,4.454-1.597,5.612l-19.146,11.054c-2.003,1.157-4.537,0.52-5.659-1.422l-10.717-18.562
		c-1.121-1.942-0.406-4.455,1.597-5.612l19.146-11.054c2.005-1.158,4.537-0.52,5.658,1.422L378.653,502.503z"/>
	<path fill="none" stroke="#FFFFFF" stroke-width="0.5" stroke-miterlimit="10" d="M349.228,519.492
		c1.121,1.942,0.406,4.455-1.597,5.612l-19.149,11.055c-2.003,1.157-4.537,0.52-5.659-1.422l-10.717-18.562
		c-1.121-1.942-0.406-4.455,1.598-5.612l19.149-11.055c2.003-1.156,4.537-0.52,5.658,1.422L349.228,519.492z"/>
	<path fill="none" stroke="#FFFFFF" stroke-width="0.5" stroke-miterlimit="10" d="M437.71,468.407
		c1.121,1.942,0.406,4.455-1.597,5.612l-19.149,11.055c-2.003,1.157-4.537,0.52-5.659-1.422l-10.717-18.562
		c-1.121-1.942-0.406-4.455,1.598-5.612l19.149-11.055c2.003-1.157,4.537-0.52,5.659,1.422L437.71,468.407z"/>
	<path fill="none" stroke="#FFFFFF" stroke-width="0.5" stroke-miterlimit="10" d="M408.285,485.395
		c1.121,1.942,0.404,4.456-1.6,5.613l-19.146,11.054c-2.003,1.156-4.537,0.52-5.658-1.422l-10.717-18.562
		c-1.121-1.942-0.406-4.455,1.597-5.612l19.146-11.054c2.003-1.157,4.54-0.521,5.661,1.421L408.285,485.395z"/>
	<path fill="none" stroke="#FFFFFF" stroke-width="0.5" stroke-miterlimit="10" d="M496.561,434.429
		c1.121,1.942,0.41,4.452-1.598,5.612l-19.146,11.054c-2.003,1.157-4.537,0.52-5.659-1.422l-10.717-18.562
		c-1.121-1.942-0.406-4.455,1.598-5.612l19.146-11.054c2.008-1.159,4.537-0.52,5.659,1.422L496.561,434.429z"/>
	<path fill="none" stroke="#FFFFFF" stroke-width="0.5" stroke-miterlimit="10" d="M467.136,451.418
		c1.121,1.942,0.406,4.455-1.598,5.612l-19.146,11.054c-2.003,1.157-4.537,0.52-5.659-1.422L430.016,448.1
		c-1.121-1.942-0.406-4.455,1.598-5.612l19.146-11.054c2.003-1.157,4.537-0.52,5.659,1.422L467.136,451.418z"/>
	<path fill="none" stroke="#FFFFFF" stroke-width="0.5" stroke-miterlimit="10" d="M526.19,417.323
		c1.121,1.942,0.408,4.454-1.595,5.61l-19.149,11.055c-2.003,1.157-4.537,0.52-5.659-1.422l-10.717-18.562
		c-1.121-1.942-0.406-4.455,1.598-5.612l19.149-11.055c2.003-1.157,4.535-0.518,5.656,1.424L526.19,417.323z"/>
	<path fill="none" stroke="#FFFFFF" stroke-width="0.5" stroke-miterlimit="10" d="M585.245,383.227
		c1.121,1.942,0.408,4.454-1.595,5.61l-19.149,11.055c-2.003,1.156-4.537,0.52-5.659-1.422l-10.717-18.562
		c-1.121-1.942-0.406-4.455,1.597-5.612l19.149-11.055c2.003-1.157,4.535-0.518,5.656,1.424L585.245,383.227z"/>
	<path fill="none" stroke="#FFFFFF" stroke-width="0.5" stroke-miterlimit="10" d="M555.82,400.216
		c1.121,1.942,0.406,4.455-1.597,5.612l-19.149,11.055c-2.003,1.157-4.537,0.52-5.659-1.422l-10.717-18.562
		c-1.121-1.942-0.406-4.455,1.598-5.612l19.149-11.055c2.003-1.157,4.537-0.52,5.659,1.422L555.82,400.216z"/>
	<path fill="none" stroke="#FFFFFF" stroke-width="0.5" stroke-miterlimit="10" d="M644.098,349.248
		c1.121,1.942,0.408,4.454-1.595,5.61l-19.149,11.055c-2.003,1.157-4.537,0.52-5.659-1.422l-10.717-18.562
		c-1.121-1.942-0.406-4.455,1.597-5.612l19.149-11.055c2.003-1.157,4.535-0.518,5.656,1.424L644.098,349.248z"/>
	<path fill="none" stroke="#FFFFFF" stroke-width="0.5" stroke-miterlimit="10" d="M614.675,366.236
		c1.121,1.942,0.406,4.455-1.6,5.613l-19.146,11.054c-2.003,1.157-4.537,0.52-5.658-1.422l-10.717-18.562
		c-1.121-1.942-0.406-4.455,1.597-5.612l19.146-11.054c2.005-1.158,4.54-0.521,5.661,1.421L614.675,366.236z"/>
	<path fill="none" stroke="#FFFFFF" stroke-width="0.5" stroke-miterlimit="10" d="M586.235,419.388
		c1.121,1.942,0.406,4.455-1.598,5.612l-19.146,11.054c-2.006,1.158-4.535,0.518-5.656-1.424l-10.717-18.562
		c-1.121-1.942-0.41-4.452,1.595-5.61l19.146-11.054c2.003-1.157,4.537-0.52,5.659,1.422L586.235,419.388z"/>
	<path fill="none" stroke="#FFFFFF" stroke-width="0.5" stroke-miterlimit="10" d="M645.292,385.291
		c1.121,1.942,0.403,4.456-1.6,5.613l-19.144,11.053c-2.006,1.158-4.537,0.52-5.659-1.422l-10.717-18.562
		c-1.121-1.942-0.408-4.454,1.598-5.612l19.144-11.053c2.003-1.156,4.54-0.521,5.661,1.421L645.292,385.291z"/>
	<path fill="none" stroke="#FFFFFF" stroke-width="0.5" stroke-miterlimit="10" d="M615.865,402.281
		c1.121,1.942,0.408,4.454-1.595,5.61l-19.149,11.055c-2.003,1.157-4.537,0.52-5.659-1.422l-10.717-18.562
		c-1.121-1.942-0.406-4.455,1.598-5.612l19.149-11.055c2.003-1.156,4.535-0.518,5.656,1.424L615.865,402.281z"/>
	<path fill="none" stroke="#FFFFFF" stroke-width="0.5" stroke-miterlimit="10" d="M704.145,351.312
		c1.121,1.942,0.406,4.455-1.598,5.612l-19.146,11.054c-2.006,1.158-4.54,0.521-5.661-1.421l-10.717-18.562
		c-1.121-1.942-0.406-4.455,1.6-5.613l19.146-11.054c2.003-1.157,4.537-0.52,5.659,1.422L704.145,351.312z"/>
	<path fill="none" stroke="#FFFFFF" stroke-width="0.5" stroke-miterlimit="10" d="M674.718,368.302
		c1.121,1.942,0.406,4.455-1.598,5.612l-19.149,11.055c-2.003,1.157-4.537,0.52-5.658-1.422l-10.717-18.562
		c-1.121-1.942-0.406-4.455,1.597-5.612l19.149-11.055c2.003-1.157,4.537-0.52,5.659,1.422L674.718,368.302z"/>
	<path fill="none" stroke="#FFFFFF" stroke-width="0.5" stroke-miterlimit="10" d="M438.7,504.567
		c1.121,1.942,0.406,4.455-1.598,5.612l-19.149,11.055c-2.003,1.157-4.537,0.52-5.658-1.422l-10.717-18.562
		c-1.121-1.942-0.406-4.455,1.597-5.612l19.149-11.055c2.003-1.157,4.537-0.52,5.659,1.422L438.7,504.567z"/>
	<path fill="none" stroke="#FFFFFF" stroke-width="0.5" stroke-miterlimit="10" d="M497.755,470.472
		c1.121,1.942,0.406,4.455-1.597,5.612l-19.149,11.055c-2.003,1.157-4.537,0.52-5.659-1.422l-10.717-18.562
		c-1.121-1.942-0.406-4.455,1.597-5.612l19.149-11.056c2.003-1.157,4.537-0.52,5.658,1.422L497.755,470.472z"/>
	<path fill="none" stroke="#FFFFFF" stroke-width="0.5" stroke-miterlimit="10" d="M468.327,487.462
		c1.121,1.942,0.406,4.455-1.597,5.612l-19.149,11.055c-2.003,1.157-4.535,0.518-5.656-1.424l-10.717-18.562
		c-1.121-1.942-0.408-4.454,1.595-5.61l19.149-11.055c2.003-1.156,4.537-0.52,5.658,1.422L468.327,487.462z"/>
	<path fill="none" stroke="#FFFFFF" stroke-width="0.5" stroke-miterlimit="10" d="M350.419,555.536
		c1.121,1.942,0.406,4.455-1.598,5.612l-19.149,11.055c-2.003,1.157-4.535,0.518-5.656-1.424l-10.717-18.562
		c-1.121-1.942-0.408-4.454,1.595-5.61l19.149-11.055c2.003-1.157,4.537-0.52,5.659,1.422L350.419,555.536z"/>
	<path fill="none" stroke="#FFFFFF" stroke-width="0.5" stroke-miterlimit="10" d="M409.474,521.441
		c1.121,1.942,0.406,4.455-1.597,5.612l-19.146,11.054c-2.003,1.157-4.54,0.521-5.661-1.421l-10.717-18.562
		c-1.121-1.942-0.404-4.456,1.6-5.613l19.146-11.054c2.003-1.157,4.537-0.52,5.659,1.422L409.474,521.441z"/>
	<path fill="none" stroke="#FFFFFF" stroke-width="0.5" stroke-miterlimit="10" d="M380.049,538.43
		c1.121,1.942,0.406,4.455-1.6,5.613l-19.146,11.054c-2.003,1.157-4.537,0.52-5.658-1.422l-10.717-18.562
		c-1.121-1.942-0.406-4.455,1.597-5.612l19.146-11.054c2.005-1.158,4.54-0.521,5.661,1.421L380.049,538.43z"/>
	<path fill="none" stroke="#FFFFFF" stroke-width="0.5" stroke-miterlimit="10" d="M556.608,436.493
		c1.121,1.942,0.406,4.455-1.597,5.612l-19.146,11.054c-2.005,1.158-4.54,0.521-5.661-1.421l-10.717-18.562
		c-1.121-1.942-0.406-4.455,1.6-5.613l19.146-11.054c2.003-1.157,4.537-0.52,5.658,1.422L556.608,436.493z"/>
	<path fill="none" stroke="#FFFFFF" stroke-width="0.5" stroke-miterlimit="10" d="M527.18,453.483
		c1.121,1.942,0.406,4.455-1.597,5.612l-19.149,11.055c-2.003,1.157-4.535,0.518-5.656-1.424l-10.717-18.562
		c-1.121-1.942-0.408-4.454,1.595-5.61l19.149-11.055c2.003-1.156,4.537-0.52,5.658,1.422L527.18,453.483z"/>
	<path fill="none" stroke="#FFFFFF" stroke-width="0.5" stroke-miterlimit="10" d="M609.634,443.39
		c1.121,1.942,0.406,4.455-1.597,5.612l-19.146,11.054c-2.003,1.157-4.54,0.521-5.661-1.421l-10.716-18.56
		c-1.121-1.942-0.403-4.456,1.6-5.613l19.146-11.054c2.003-1.157,4.537-0.52,5.659,1.422L609.634,443.39z"/>
	<path fill="none" stroke="#FFFFFF" stroke-width="0.5" stroke-miterlimit="10" d="M668.689,409.294
		c1.121,1.942,0.406,4.455-1.595,5.61l-19.151,11.057c-2.003,1.157-4.535,0.518-5.656-1.424l-10.716-18.56
		c-1.121-1.942-0.408-4.454,1.595-5.61l19.151-11.057c2.001-1.155,4.535-0.518,5.656,1.424L668.689,409.294z"/>
	<path fill="none" stroke="#FFFFFF" stroke-width="0.5" stroke-miterlimit="10" d="M639.262,426.285
		c1.121,1.942,0.406,4.455-1.597,5.612l-19.144,11.053c-2.003,1.157-4.537,0.52-5.659-1.422l-10.716-18.56
		c-1.121-1.942-0.406-4.455,1.597-5.612l19.144-11.053c2.003-1.157,4.537-0.52,5.659,1.422L639.262,426.285z"/>
	<path fill="none" stroke="#FFFFFF" stroke-width="0.5" stroke-miterlimit="10" d="M462.097,528.57
		c1.121,1.942,0.406,4.455-1.598,5.612l-19.146,11.054c-2.003,1.157-4.537,0.52-5.659-1.422l-10.716-18.56
		c-1.121-1.942-0.406-4.455,1.598-5.612l19.146-11.054c2.003-1.157,4.537-0.52,5.659,1.422L462.097,528.57z"/>
	<path fill="none" stroke="#FFFFFF" stroke-width="0.5" stroke-miterlimit="10" d="M521.152,494.475
		c1.121,1.942,0.408,4.454-1.595,5.61l-19.149,11.055c-2.003,1.156-4.537,0.52-5.659-1.422l-10.716-18.56
		c-1.121-1.942-0.406-4.455,1.597-5.612l19.149-11.055c2.003-1.157,4.535-0.518,5.656,1.424L521.152,494.475z"/>
	<path fill="none" stroke="#FFFFFF" stroke-width="0.5" stroke-miterlimit="10" d="M491.727,511.464
		c1.121,1.942,0.406,4.455-1.598,5.612l-19.149,11.055c-2.003,1.157-4.537,0.52-5.659-1.422l-10.716-18.56
		c-1.121-1.942-0.406-4.455,1.597-5.612l19.149-11.055c2.003-1.157,4.537-0.52,5.659,1.422L491.727,511.464z"/>
	<path fill="none" stroke="#FFFFFF" stroke-width="0.5" stroke-miterlimit="10" d="M373.816,579.539
		c1.121,1.942,0.406,4.455-1.598,5.612l-19.146,11.054c-2.003,1.157-4.537,0.52-5.659-1.422l-10.716-18.56
		c-1.121-1.942-0.406-4.455,1.598-5.612l19.146-11.054c2.003-1.157,4.537-0.52,5.659,1.422L373.816,579.539z"/>
	<path fill="none" stroke="#FFFFFF" stroke-width="0.5" stroke-miterlimit="10" d="M432.871,545.444
		c1.121,1.942,0.408,4.454-1.597,5.612l-19.146,11.054c-2.003,1.156-4.535,0.518-5.656-1.424l-10.716-18.56
		c-1.121-1.942-0.408-4.454,1.595-5.61l19.146-11.054c2.005-1.158,4.537-0.52,5.659,1.422L432.871,545.444z"/>
	<path fill="none" stroke="#FFFFFF" stroke-width="0.5" stroke-miterlimit="10" d="M403.446,562.433
		c1.121,1.942,0.406,4.455-1.598,5.612l-19.146,11.054c-2.005,1.158-4.54,0.521-5.661-1.421l-10.716-18.56
		c-1.121-1.942-0.406-4.455,1.6-5.613l19.146-11.054c2.003-1.157,4.537-0.52,5.659,1.422L403.446,562.433z"/>
	<path fill="none" stroke="#FFFFFF" stroke-width="0.5" stroke-miterlimit="10" d="M580.007,460.495
		c1.121,1.942,0.406,4.455-1.598,5.612l-19.149,11.055c-2.003,1.156-4.537,0.52-5.659-1.422l-10.716-18.56
		c-1.121-1.942-0.406-4.455,1.597-5.612l19.149-11.055c2.003-1.157,4.537-0.52,5.659,1.422L580.007,460.495z"/>
	<path fill="none" stroke="#FFFFFF" stroke-width="0.5" stroke-miterlimit="10" d="M550.58,477.485
		c1.121,1.942,0.408,4.454-1.598,5.612l-19.149,11.055c-2.003,1.157-4.537,0.52-5.659-1.422l-10.716-18.56
		c-1.121-1.942-0.406-4.455,1.597-5.612l19.149-11.055c2.006-1.158,4.537-0.52,5.659,1.422L550.58,477.485z"/>
	<path fill="none" stroke="#FFFFFF" stroke-width="0.5" stroke-miterlimit="10" d="M640.321,462.795
		c1.121,1.942,0.408,4.454-1.598,5.612l-19.146,11.054c-2.003,1.157-4.535,0.518-5.656-1.424l-10.715-18.559
		c-1.122-1.943-0.409-4.455,1.595-5.611l19.146-11.054c2.006-1.158,4.537-0.52,5.659,1.423L640.321,462.795z"/>
	<path fill="none" stroke="#FFFFFF" stroke-width="0.5" stroke-miterlimit="10" d="M669.95,445.688
		c1.121,1.942,0.408,4.454-1.598,5.612l-19.149,11.055c-2.001,1.155-4.537,0.52-5.659-1.422l-10.715-18.559
		c-1.122-1.943-0.404-4.457,1.597-5.613l19.149-11.055c2.006-1.158,4.537-0.52,5.659,1.423L669.95,445.688z"/>
	<path fill="none" stroke="#FFFFFF" stroke-width="0.5" stroke-miterlimit="10" d="M492.786,547.974
		c1.121,1.942,0.406,4.455-1.598,5.612l-19.149,11.055c-2.003,1.156-4.537,0.52-5.659-1.422l-10.715-18.559
		c-1.122-1.943-0.406-4.456,1.597-5.613l19.149-11.055c2.003-1.157,4.537-0.52,5.659,1.423L492.786,547.974z"/>
	<path fill="none" stroke="#FFFFFF" stroke-width="0.5" stroke-miterlimit="10" d="M551.843,513.878
		c1.121,1.942,0.403,4.456-1.6,5.613l-19.146,11.054c-2.005,1.158-4.537,0.52-5.659-1.422l-10.715-18.559
		c-1.122-1.943-0.409-4.455,1.597-5.613l19.146-11.054c2.003-1.156,4.54-0.521,5.661,1.422L551.843,513.878z"/>
	<path fill="none" stroke="#FFFFFF" stroke-width="0.5" stroke-miterlimit="10" d="M522.413,530.869
		c1.121,1.942,0.406,4.455-1.597,5.612l-19.149,11.055c-2.003,1.157-4.535,0.518-5.656-1.424l-10.715-18.559
		c-1.122-1.943-0.409-4.455,1.595-5.611l19.149-11.055c2.003-1.157,4.537-0.52,5.659,1.424L522.413,530.869z"/>
	<path fill="none" stroke="#FFFFFF" stroke-width="0.5" stroke-miterlimit="10" d="M404.505,598.943
		c1.121,1.942,0.406,4.455-1.598,5.612l-19.146,11.054c-2.003,1.157-4.54,0.521-5.661-1.421l-10.715-18.559
		c-1.122-1.943-0.404-4.457,1.599-5.614l19.146-11.054c2.003-1.157,4.537-0.52,5.659,1.423L404.505,598.943z"/>
	<path fill="none" stroke="#FFFFFF" stroke-width="0.5" stroke-miterlimit="10" d="M356.431,667.884
		c1.271,2.201,0.677,4.925-1.326,6.082l-19.149,11.055c-2.003,1.157-4.659,0.309-5.93-1.893l-12.148-21.041
		c-1.271-2.201-0.677-4.924,1.327-6.081l19.149-11.056c2.003-1.156,4.658-0.31,5.929,1.891L356.431,667.884z"/>
	<path fill="none" stroke="#FFFFFF" stroke-width="0.5" stroke-miterlimit="10" d="M385.857,650.896
		c1.271,2.201,0.68,4.924-1.324,6.081l-19.149,11.055c-2.003,1.156-4.659,0.309-5.93-1.893l-12.148-21.041
		c-1.271-2.201-0.677-4.924,1.327-6.081l19.149-11.055c2.003-1.157,4.656-0.309,5.927,1.893L385.857,650.896z"/>
	<path fill="none" stroke="#FFFFFF" stroke-width="0.5" stroke-miterlimit="10" d="M415.284,633.905
		c1.271,2.201,0.677,4.925-1.326,6.082l-19.149,11.055c-2.003,1.157-4.659,0.309-5.93-1.893l-12.148-21.041
		c-1.271-2.201-0.677-4.924,1.327-6.081l19.149-11.055c2.003-1.157,4.658-0.31,5.929,1.891L415.284,633.905z"/>
	<path fill="none" stroke="#FFFFFF" stroke-width="0.5" stroke-miterlimit="10" d="M666.016,489.146
		c1.271,2.201,0.679,4.924-1.324,6.081l-19.149,11.055c-2.003,1.157-4.659,0.309-5.93-1.893l-12.148-21.041
		c-1.271-2.201-0.677-4.924,1.327-6.081l19.149-11.055c2.003-1.157,4.656-0.309,5.927,1.893L666.016,489.146z"/>
	<path fill="none" stroke="#FFFFFF" stroke-width="0.5" stroke-miterlimit="10" d="M463.56,564.848
		c1.121,1.942,0.406,4.455-1.597,5.612l-19.146,11.054c-2.003,1.157-4.537,0.52-5.659-1.422l-10.715-18.559
		c-1.122-1.943-0.406-4.456,1.597-5.613l19.146-11.054c2.003-1.157,4.537-0.52,5.659,1.423L463.56,564.848z"/>
	<path fill="none" stroke="#FFFFFF" stroke-width="0.5" stroke-miterlimit="10" d="M434.134,581.837
		c1.121,1.942,0.404,4.456-1.6,5.613l-19.146,11.054c-2.003,1.156-4.537,0.52-5.659-1.422l-10.715-18.559
		c-1.122-1.943-0.406-4.456,1.597-5.613l19.146-11.054c2.003-1.157,4.54-0.521,5.661,1.422L434.134,581.837z"/>
	<path fill="none" stroke="#FFFFFF" stroke-width="0.5" stroke-miterlimit="10" d="M610.693,479.9
		c1.121,1.942,0.406,4.455-1.597,5.612l-19.149,11.055c-2.003,1.157-4.537,0.52-5.659-1.422l-10.715-18.559
		c-1.122-1.943-0.406-4.456,1.597-5.613l19.149-11.055c2.003-1.156,4.537-0.52,5.659,1.424L610.693,479.9z"/>
	<path fill="none" stroke="#FFFFFF" stroke-width="0.5" stroke-miterlimit="10" d="M581.266,496.89
		c1.121,1.942,0.406,4.455-1.598,5.612l-19.146,11.054c-2.003,1.157-4.537,0.52-5.659-1.422l-10.715-18.559
		c-1.122-1.943-0.406-4.456,1.597-5.613l19.146-11.054c2.003-1.157,4.537-0.52,5.659,1.423L581.266,496.89z"/>
	<path fill="none" stroke="#FFFFFF" stroke-width="0.5" stroke-miterlimit="10" d="M274.131,525.336
		c1.121,1.942,0.405,4.454-1.598,5.61l-19.149,11.056c-2.003,1.156-4.537,0.521-5.658-1.421l-4.569-7.913
		c-1.121-1.942-0.405-4.454,1.598-5.611l19.149-11.055c2.003-1.157,4.537-0.521,5.658,1.421L274.131,525.336z"/>
	<path fill="none" stroke="#FFFFFF" stroke-width="0.5" stroke-miterlimit="10" d="M305.068,507.474
		c1.121,1.942,0.405,4.454-1.598,5.611l-19.146,11.054c-2.006,1.158-4.539,0.522-5.66-1.42l-4.569-7.913
		c-1.121-1.942-0.405-4.454,1.6-5.612l19.146-11.054c2.003-1.157,4.537-0.521,5.658,1.421L305.068,507.474z"/>
	<path fill="none" stroke="#FFFFFF" stroke-width="0.5" stroke-miterlimit="10" d="M335.302,490.019
		c1.121,1.942,0.405,4.454-1.598,5.611l-19.146,11.054c-2.003,1.157-4.537,0.521-5.658-1.421l-4.569-7.913
		c-1.121-1.942-0.405-4.454,1.598-5.611l19.146-11.054c2.003-1.157,4.537-0.521,5.658,1.421L335.302,490.019z"/>
	<path fill="none" stroke="#FFFFFF" stroke-width="0.5" stroke-miterlimit="10" d="M366.239,472.157
		c1.121,1.942,0.407,4.453-1.598,5.61l-19.146,11.054c-2.003,1.157-4.537,0.521-5.658-1.421l-4.569-7.913
		c-1.121-1.942-0.405-4.454,1.598-5.61l19.146-11.054c2.005-1.158,4.537-0.521,5.658,1.421L366.239,472.157z"/>
	<path fill="none" stroke="#FFFFFF" stroke-width="0.5" stroke-miterlimit="10" d="M396.222,454.847
		c1.121,1.942,0.405,4.454-1.598,5.61l-19.149,11.055c-2.003,1.157-4.537,0.521-5.658-1.421l-4.569-7.913
		c-1.121-1.942-0.405-4.454,1.598-5.611l19.149-11.055c2.003-1.157,4.537-0.521,5.658,1.421L396.222,454.847z"/>
	<path fill="none" stroke="#FFFFFF" stroke-width="0.5" stroke-miterlimit="10" d="M427.159,436.985
		c1.121,1.942,0.405,4.454-1.598,5.611l-19.146,11.054c-2.005,1.158-4.537,0.521-5.658-1.421l-4.569-7.913
		c-1.121-1.942-0.407-4.453,1.598-5.611l19.146-11.054c2.003-1.157,4.537-0.521,5.658,1.421L427.159,436.985z"/>
	<path fill="none" stroke="#FFFFFF" stroke-width="0.5" stroke-miterlimit="10" d="M457.645,419.384
		c1.121,1.942,0.405,4.454-1.598,5.611l-19.149,11.055c-2.003,1.156-4.537,0.521-5.658-1.421l-4.569-7.913
		c-1.121-1.942-0.405-4.454,1.598-5.611l19.149-11.055c2.003-1.157,4.537-0.521,5.658,1.421L457.645,419.384z"/>
	<path fill="none" stroke="#FFFFFF" stroke-width="0.5" stroke-miterlimit="10" d="M488.582,401.523
		c1.121,1.942,0.405,4.454-1.598,5.611l-19.146,11.054c-2.003,1.156-4.537,0.521-5.658-1.421l-4.569-7.913
		c-1.121-1.942-0.405-4.454,1.598-5.611l19.146-11.054c2.003-1.156,4.537-0.521,5.658,1.421L488.582,401.523z"/>
	<path fill="none" stroke="#FFFFFF" stroke-width="0.5" stroke-miterlimit="10" d="M518.819,384.065
		c1.121,1.942,0.405,4.454-1.598,5.611l-19.149,11.055c-2.003,1.157-4.537,0.521-5.658-1.421l-4.569-7.913
		c-1.121-1.942-0.405-4.454,1.598-5.61l19.149-11.055c2.003-1.157,4.537-0.521,5.658,1.421L518.819,384.065z"/>
	<path fill="none" stroke="#FFFFFF" stroke-width="0.5" stroke-miterlimit="10" d="M549.753,366.205
		c1.121,1.942,0.407,4.453-1.596,5.609l-19.149,11.055c-2.003,1.157-4.537,0.521-5.658-1.421l-4.569-7.913
		c-1.121-1.942-0.405-4.454,1.598-5.611l19.149-11.055c2.003-1.157,4.534-0.519,5.656,1.423L549.753,366.205z"/>
	<path fill="none" stroke="#FFFFFF" stroke-width="0.5" stroke-miterlimit="10" d="M579.736,348.895
		c1.121,1.942,0.405,4.454-1.598,5.611l-19.149,11.055c-2.003,1.156-4.534,0.52-5.656-1.423l-4.569-7.913
		c-1.121-1.942-0.407-4.453,1.596-5.609l19.149-11.055c2.003-1.157,4.537-0.521,5.658,1.421L579.736,348.895z"/>
	<path fill="none" stroke="#FFFFFF" stroke-width="0.5" stroke-miterlimit="10" d="M610.673,331.033
		c1.121,1.942,0.405,4.454-1.596,5.609l-19.149,11.056c-2.005,1.158-4.537,0.521-5.658-1.421l-4.569-7.913
		c-1.121-1.942-0.407-4.453,1.598-5.611l19.149-11.056c2.001-1.155,4.534-0.519,5.656,1.423L610.673,331.033z"/>
	<path fill="none" stroke="#FFFFFF" stroke-width="0.5" stroke-miterlimit="10" d="M641.059,313.49
		c1.121,1.942,0.405,4.454-1.598,5.611l-19.149,11.056c-2.003,1.157-4.537,0.521-5.658-1.421l-4.569-7.913
		c-1.121-1.942-0.405-4.454,1.598-5.611l19.149-11.056c2.003-1.157,4.537-0.521,5.658,1.421L641.059,313.49z"/>
	<path fill="none" stroke="#FFFFFF" stroke-width="0.5" stroke-miterlimit="10" d="M671.996,295.628
		c1.121,1.942,0.405,4.454-1.598,5.611l-19.146,11.054c-2.006,1.158-4.537,0.521-5.658-1.421l-4.569-7.913
		c-1.121-1.942-0.407-4.453,1.598-5.611l19.146-11.054c2.003-1.157,4.537-0.521,5.658,1.421L671.996,295.628z"/>
	<path fill="none" stroke="#FFFFFF" stroke-width="0.5" stroke-miterlimit="10" d="M320.69,572.7
		c1.121,1.942,0.406,4.455-1.597,5.612l-33.559,19.375c-2.003,1.157-4.537,0.52-5.658-1.422l-10.717-18.562
		c-1.121-1.942-0.406-4.455,1.597-5.612l33.559-19.375c2.003-1.157,4.537-0.52,5.658,1.422L320.69,572.7z"/>
	<path fill="none" stroke="#FFFFFF" stroke-width="0.5" stroke-miterlimit="10" d="M344.493,596.469
		c1.121,1.942,0.406,4.455-1.598,5.612l-41.119,23.74c-2.003,1.157-4.537,0.52-5.659-1.422l-10.716-18.56
		c-1.121-1.942-0.406-4.455,1.597-5.612l41.119-23.74c2.003-1.157,4.537-0.52,5.659,1.422L344.493,596.469z"/>
	<path fill="none" stroke="#FFFFFF" stroke-width="0.5" stroke-miterlimit="10" d="M375.682,615.584
		c1.121,1.942,0.406,4.455-1.598,5.612l-56.233,32.466c-2.003,1.157-4.537,0.52-5.659-1.422l-10.715-18.559
		c-1.122-1.943-0.406-4.456,1.597-5.613l56.233-32.466c2.003-1.157,4.537-0.52,5.659,1.423L375.682,615.584z"/>
	<path fill="none" stroke="#FFFFFF" stroke-width="0.5" stroke-miterlimit="10" d="M452.24,613.196
		c1.121,1.942,0.404,4.456-1.6,5.613l-26.402,15.243c-2.003,1.157-4.537,0.52-5.658-1.422l-12.69-21.98
		c-1.121-1.942-0.406-4.455,1.597-5.612l26.402-15.243c2.003-1.157,4.54-0.521,5.661,1.421L452.24,613.196z"/>
	<path fill="none" stroke="#FFFFFF" stroke-width="0.5" stroke-miterlimit="10" d="M635.955,507.128
		c1.121,1.942,0.406,4.455-1.598,5.612l-26.405,15.245c-2.003,1.156-4.537,0.52-5.658-1.422l-12.69-21.98
		c-1.121-1.942-0.406-4.455,1.597-5.612l26.405-15.245c2.003-1.157,4.537-0.52,5.659,1.422L635.955,507.128z"/>
	<path fill="none" stroke="#FFFFFF" stroke-width="0.5" stroke-miterlimit="10" d="M688.24,323.763
		c1.121,1.942,0.406,4.455-1.598,5.612l-34.465,19.899c-2.003,1.157-4.54,0.521-5.661-1.421l-10.717-18.562
		c-1.121-1.942-0.403-4.456,1.6-5.613l34.465-19.899c2.003-1.157,4.537-0.52,5.659,1.422L688.24,323.763z"/>
	<path fill="none" stroke="#FFFFFF" stroke-width="0.5" stroke-miterlimit="10" d="M720.39,379.445
		c1.121,1.942,0.404,4.456-1.6,5.613l-41.52,23.971c-2.003,1.157-4.537,0.52-5.659-1.422l-10.716-18.56
		c-1.121-1.942-0.406-4.455,1.598-5.612l41.52-23.971c2.003-1.157,4.54-0.521,5.661,1.421L720.39,379.445z"/>
	<path fill="none" stroke="#FFFFFF" stroke-width="0.5" stroke-miterlimit="10" d="M736.463,407.287
		c1.121,1.942,0.406,4.455-1.598,5.612l-56.029,32.349c-2.008,1.159-4.54,0.521-5.661-1.421l-10.715-18.559
		c-1.122-1.943-0.409-4.455,1.599-5.614l56.029-32.349c2.003-1.157,4.537-0.52,5.659,1.423L736.463,407.287z"/>
	<path fill="none" stroke="#FFFFFF" stroke-width="0.5" stroke-miterlimit="10" d="M695.715,472.626
		c1.121,1.942,0.403,4.456-1.6,5.613l-19.144,11.053c-2.006,1.158-4.537,0.52-5.659-1.422l-4.314-7.473
		c-1.122-1.943-0.409-4.455,1.597-5.613l19.144-11.053c2.003-1.157,4.54-0.521,5.661,1.422L695.715,472.626z"/>
	<path fill="none" stroke="#FFFFFF" stroke-width="0.5" stroke-miterlimit="10" d="M754.568,438.647
		c1.121,1.942,0.406,4.455-1.598,5.612l-19.146,11.054c-2.006,1.158-4.54,0.521-5.661-1.421l-4.314-7.473
		c-1.122-1.943-0.406-4.456,1.599-5.614l19.146-11.054c2.003-1.157,4.537-0.52,5.659,1.423L754.568,438.647z"/>
	<path fill="none" stroke="#FFFFFF" stroke-width="0.5" stroke-miterlimit="10" d="M725.14,455.637
		c1.121,1.942,0.406,4.455-1.598,5.612l-19.149,11.055c-2.003,1.157-4.537,0.52-5.659-1.422l-12.69-21.98
		c-1.121-1.942-0.406-4.455,1.597-5.612l19.149-11.055c2.003-1.157,4.537-0.52,5.659,1.422L725.14,455.637z"/>
	<path fill="none" stroke="#FFFFFF" stroke-width="0.5" stroke-miterlimit="10" d="M599.371,528.25
		c1.121,1.942,0.406,4.455-1.598,5.612l-136.852,79.011c-2.003,1.157-4.537,0.52-5.659-1.422l-12.69-21.98
		c-1.121-1.942-0.406-4.455,1.597-5.612l136.853-79.012c2.003-1.157,4.537-0.52,5.659,1.422L599.371,528.25z"/>
	<path fill="none" stroke="#FFFFFF" stroke-width="1.5" stroke-miterlimit="10" d="M711.366,661.694
		c1.85,3.204,0.752,7.301-2.452,9.151l-154.7,89.316c-3.203,1.849-7.301,0.752-9.151-2.452l-63.191-109.45
		c-1.85-3.204-0.751-7.301,2.452-9.151l154.7-89.316c3.204-1.85,7.301-0.753,9.151,2.452L711.366,661.694z"/>
	<path fill="none" stroke="#FFFFFF" stroke-width="1.5" stroke-miterlimit="10" d="M642.064,266.455
		c0.37,0.641,0.146,1.462-0.502,1.837L239.269,500.555c-0.646,0.373-1.471,0.158-1.841-0.484l-9.043-15.663
		c-0.37-0.641-0.144-1.464,0.502-1.837L631.18,250.307c0.648-0.374,1.471-0.157,1.841,0.484L642.064,266.455z"/>
</g>
</svg>
