<?xml version="1.0" encoding="utf-8"?>
<!-- Generator: Adobe Illustrator 17.0.0, SVG Export Plug-In . SVG Version: 6.00 Build 0)  -->
<!DOCTYPE svg PUBLIC "-//W3C//DTD SVG 1.1//EN" "http://www.w3.org/Graphics/SVG/1.1/DTD/svg11.dtd">
<svg version="1.1" id="Layer_1" xmlns="http://www.w3.org/2000/svg" xmlns:xlink="http://www.w3.org/1999/xlink" x="0px" y="0px"
	 width="64px" height="64px" viewBox="0 0 64 64" enable-background="new 0 0 64 64" xml:space="preserve">
<g>
	<path fill="#FFFFFF" d="M8.667,9.222h46.666V47H8.667V9.222z M2,7v2.222h4.444v40h24.444v5.556H13.111V57h37.778v-2.222H33.111
		v-5.556h24.443v-40H62V7H2z"/>
	<path fill="#FFFFFF" d="M26.444,27h-8.889v-8.889h8.889V27z M28.667,15.889H15.333v13.333h13.333V15.889z"/>
	<rect x="33.111" y="27" fill="#FFFFFF" width="15.556" height="2.222"/>
	<rect x="33.111" y="15.889" fill="#FFFFFF" width="15.556" height="2.222"/>
	<rect x="33.111" y="21.444" fill="#FFFFFF" width="15.556" height="2.222"/>
	<rect x="15.333" y="33.667" fill="#FFFFFF" width="33.333" height="2.222"/>
	<rect x="15.333" y="40.333" fill="#FFFFFF" width="33.333" height="2.222"/>
</g>
</svg>
