<?xml version="1.0" encoding="utf-8"?>
<!-- Generator: Adobe Illustrator 17.0.0, SVG Export Plug-In . SVG Version: 6.00 Build 0)  -->
<!DOCTYPE svg PUBLIC "-//W3C//DTD SVG 1.1//EN" "http://www.w3.org/Graphics/SVG/1.1/DTD/svg11.dtd">
<svg version="1.1" id="Layer_1" xmlns="http://www.w3.org/2000/svg" xmlns:xlink="http://www.w3.org/1999/xlink" x="0px" y="0px"
	 width="64px" height="64px" viewBox="0 0 64 64" enable-background="new 0 0 64 64" xml:space="preserve">
<g>
	<g>
		<defs>
			<rect id="SVGID_1_" x="8.852" y="2" width="46.296" height="60"/>
		</defs>
		<clipPath id="SVGID_2_">
			<use xlink:href="#SVGID_1_"  overflow="visible"/>
		</clipPath>
		<path clip-path="url(#SVGID_2_)" fill="#FFFFFF" d="M47.37,35.888v-2.224c0-0.408-0.332-0.74-0.74-0.74H11.074
			c-0.408,0-0.74,0.332-0.74,0.74v2.224H47.37z M10.334,55.888c0,0.408,0.332,0.74,0.74,0.74H46.63c0.408,0,0.74-0.332,0.74-0.74
			V41.813H10.334V55.888z M11.074,31.442H46.63c1.227,0,2.222,0.995,2.222,2.222v2.224v5.925v14.075
			c0,1.227-0.995,2.222-2.222,2.222H11.074c-1.227,0-2.222-0.995-2.222-2.222V41.813v-5.925v-2.224
			C8.852,32.437,9.847,31.442,11.074,31.442"/>
	</g>
	<path fill="#FFFFFF" d="M32.649,5.535V22H16.184L32.649,5.535z M32.649,2l-21.24,21.24l-0.012,0.002v8.2H13.9V24.5h21.248V4.498
		h17.501v55.003H13.9V58.11h-2.502V62h43.751V2H32.649z"/>
</g>
</svg>
