<?xml version="1.0" encoding="utf-8"?>
<!-- Generator: Adobe Illustrator 17.0.0, SVG Export Plug-In . SVG Version: 6.00 Build 0)  -->
<!DOCTYPE svg PUBLIC "-//W3C//DTD SVG 1.1//EN" "http://www.w3.org/Graphics/SVG/1.1/DTD/svg11.dtd">
<svg version="1.1" id="Layer_1" xmlns="http://www.w3.org/2000/svg" xmlns:xlink="http://www.w3.org/1999/xlink" x="0px" y="0px"
	 width="64px" height="64px" viewBox="0 0 64 64" enable-background="new 0 0 64 64" xml:space="preserve">
<g>
	<defs>
		<rect id="SVGID_1_" x="2" y="6.375" width="60" height="51.25"/>
	</defs>
	<clipPath id="SVGID_2_">
		<use xlink:href="#SVGID_1_"  overflow="visible"/>
	</clipPath>
	<path clip-path="url(#SVGID_2_)" fill="#FFFFFF" d="M57,55.125H7c-1.378,0-2.5-1.121-2.5-2.5v-26.25v-3.75h55v30
		C59.5,54.004,58.377,55.125,57,55.125 M4.5,11.375c0-1.379,1.122-2.5,2.5-2.5h12.5c1.377,0,2.5,1.121,2.5,2.5v1.25v2.5h2.5H57
		c1.377,0,2.5,1.121,2.5,2.5v2.5h-55v-2.5V11.375z M57,12.625H24.5v-1.25c0-2.761-2.239-5-5-5H7c-2.761,0-5,2.239-5,5v6.25v8.75
		v26.25c0,2.761,2.239,5,5,5h50c2.761,0,5-2.239,5-5v-35C62,14.864,59.761,12.625,57,12.625"/>
</g>
</svg>
