<?xml version="1.0" encoding="utf-8"?>
<!-- Generator: Adobe Illustrator 17.0.0, SVG Export Plug-In . SVG Version: 6.00 Build 0)  -->
<!DOCTYPE svg PUBLIC "-//W3C//DTD SVG 1.1//EN" "http://www.w3.org/Graphics/SVG/1.1/DTD/svg11.dtd">
<svg version="1.1" id="Layer_1" xmlns="http://www.w3.org/2000/svg" xmlns:xlink="http://www.w3.org/1999/xlink" x="0px" y="0px"
	 width="64px" height="64px" viewBox="0 0 64 64" enable-background="new 0 0 64 64" xml:space="preserve">
<g>
	<defs>
		<rect id="SVGID_1_" x="2" y="2" width="60" height="60"/>
	</defs>
	<clipPath id="SVGID_2_">
		<use xlink:href="#SVGID_1_"  overflow="visible"/>
	</clipPath>
	<path clip-path="url(#SVGID_2_)" fill="#FFFFFF" d="M38.426,58.836c2.332-2.418,4.302-6.106,5.705-10.626
		c2.634,0.799,5.155,1.847,7.544,3.121C48.105,54.964,43.539,57.613,38.426,58.836 M12.325,51.33c2.368-1.264,4.867-2.304,7.476-3.1
		c1.398,4.496,3.359,8.168,5.677,10.585C20.403,57.58,15.873,54.94,12.325,51.33 M25.478,5.185
		c-2.316,2.414-4.277,6.083-5.675,10.573c-2.606-0.794-5.105-1.835-7.471-3.096C15.878,9.055,20.407,6.418,25.478,5.185
		 M51.668,12.662c-2.388,1.27-4.908,2.32-7.54,3.118c-1.403-4.514-3.373-8.2-5.702-10.618C43.536,6.387,48.098,9.031,51.668,12.662
		 M46.414,30.8c-0.088-4.576-0.668-8.882-1.637-12.708c2.994-0.905,5.851-2.116,8.544-3.598c3.683,4.477,5.982,10.133,6.248,16.306
		H46.414z M46.414,33.2H59.57c-0.265,6.169-2.562,11.82-6.242,16.296c-2.694-1.481-5.551-2.695-8.548-3.6
		C45.747,42.074,46.327,37.768,46.414,33.2 M33.2,44.035V33.2h10.799c-0.088,4.463-0.644,8.533-1.54,12.068
		C39.476,44.541,36.381,44.12,33.2,44.035 M33.2,59.41V46.432c2.956,0.085,5.831,0.476,8.604,1.145
		C39.716,54.195,36.436,58.515,33.2,59.41 M30.8,46.432v13.006c-3.259-0.851-6.57-5.184-8.674-11.845
		C24.92,46.914,27.82,46.518,30.8,46.432 M19.927,33.2H30.8v10.835c-3.206,0.085-6.325,0.514-9.329,1.249
		C20.572,41.748,20.014,37.67,19.927,33.2 M17.511,33.2c0.088,4.578,0.668,8.892,1.638,12.72c-2.969,0.902-5.804,2.107-8.476,3.578
		C6.993,45.022,4.695,39.369,4.43,33.2H17.511z M17.511,30.8H4.43c0.265-6.169,2.563-11.822,6.244-16.298
		c2.671,1.472,5.506,2.676,8.476,3.576C18.18,21.906,17.599,26.221,17.511,30.8 M30.8,19.951V30.8H19.927
		c0.088-4.474,0.647-8.555,1.546-12.094C24.476,19.44,27.594,19.867,30.8,19.951 M30.8,4.562v12.991
		c-2.978-0.084-5.878-0.48-8.671-1.16C24.235,9.739,27.543,5.41,30.8,4.562 M33.2,17.553V4.59c3.235,0.895,6.512,5.208,8.602,11.822
		C39.03,17.08,36.154,17.469,33.2,17.553 M33.2,19.953c3.18-0.086,6.276-0.506,9.256-1.232c0.899,3.536,1.456,7.612,1.543,12.079
		H33.2V19.953z M32,2h-0.025h-0.012c-0.012,0-0.024,0.002-0.035,0.002C15.391,2.04,2,15.456,2,32
		c0,16.54,13.391,29.958,29.928,29.998c0.011,0,0.023,0.002,0.035,0.002h0.012H32c16.566,0,30-13.434,30-30C62,15.432,48.566,2,32,2
		"/>
</g>
</svg>
