<?xml version="1.0" encoding="utf-8"?>
<!-- Generator: Adobe Illustrator 17.0.0, SVG Export Plug-In . SVG Version: 6.00 Build 0)  -->
<!DOCTYPE svg PUBLIC "-//W3C//DTD SVG 1.1//EN" "http://www.w3.org/Graphics/SVG/1.1/DTD/svg11.dtd">
<svg version="1.1" id="Layer_1" xmlns="http://www.w3.org/2000/svg" xmlns:xlink="http://www.w3.org/1999/xlink" x="0px" y="0px"
	 width="64px" height="64px" viewBox="0 0 64 64" enable-background="new 0 0 64 64" xml:space="preserve">
<g>
	<g>
		<defs>
			<rect id="SVGID_1_" x="2" y="2" width="60" height="60"/>
		</defs>
		<clipPath id="SVGID_2_">
			<use xlink:href="#SVGID_1_"  overflow="visible"/>
		</clipPath>
		<path clip-path="url(#SVGID_2_)" fill="#FFFFFF" d="M32.15,21.097c1.987,0,3.6-1.613,3.6-3.6c0-1.99-1.613-3.598-3.6-3.598
			c-1.987,0-3.6,1.608-3.6,3.598C28.55,19.484,30.163,21.097,32.15,21.097"/>
	</g>
	<polygon fill="#FFFFFF" points="34.595,25.897 34.595,24.636 34.595,23.497 27.395,23.497 27.395,25.897 29.795,25.897 
		29.795,46.297 27.395,46.297 27.395,48.697 36.995,48.697 36.995,46.297 34.595,46.297 	"/>
	<g>
		<defs>
			<rect id="SVGID_3_" x="2" y="2" width="60" height="60"/>
		</defs>
		<clipPath id="SVGID_4_">
			<use xlink:href="#SVGID_3_"  overflow="visible"/>
		</clipPath>
		<path clip-path="url(#SVGID_4_)" fill="#FFFFFF" d="M32,59.6C16.78,59.6,4.4,47.218,4.4,32S16.78,4.4,32,4.4S59.6,16.782,59.6,32
			S47.22,59.6,32,59.6 M32,2C15.432,2,2,15.432,2,32c0,16.571,13.432,30,30,30s30-13.429,30-30C62,15.432,48.568,2,32,2"/>
	</g>
</g>
</svg>
