<?xml version="1.0" encoding="utf-8"?>
<!-- Generator: Adobe Illustrator 17.0.0, SVG Export Plug-In . SVG Version: 6.00 Build 0)  -->
<!DOCTYPE svg PUBLIC "-//W3C//DTD SVG 1.1//EN" "http://www.w3.org/Graphics/SVG/1.1/DTD/svg11.dtd">
<svg version="1.1" id="Layer_1" xmlns="http://www.w3.org/2000/svg" xmlns:xlink="http://www.w3.org/1999/xlink" x="0px" y="0px"
	 width="64px" height="64px" viewBox="0 0 64 64" enable-background="new 0 0 64 64" xml:space="preserve">
<g>
	<rect x="30.572" y="10.886" fill="#FFFFFF" width="2.223" height="8.89"/>
	<path fill="#FFFFFF" d="M36.49,29.98l-1.507,0.582v2.324l0.738,0.738l3.931,3.933l-4.018,4.021l-0.652,0.65v0.921v0.868v3.508
		v0.921l0.652,0.65l1.795,1.798l-1.795,1.798l-0.652,0.65v0.921v5.521h-6.667V32.058v-1.526l-1.423-0.548
		c-5.19-2.002-8.545-6.881-8.545-12.431c0-7.354,5.983-13.336,13.336-13.336s13.336,5.982,13.336,13.336
		C45.019,23.097,41.671,27.974,36.49,29.98 M47.242,17.553c0-8.593-6.967-15.559-15.559-15.559S16.126,8.96,16.126,17.553
		c0,6.618,4.14,12.257,9.967,14.505v29.947h11.113v-7.744l3.369-3.369l-3.369-3.369v-4.376l5.59-5.592l-5.504-5.504
		C43.111,29.799,47.242,24.165,47.242,17.553"/>
	<text transform="matrix(1 0 0 1 43.8935 23.5141)" fill="#231F20" font-family="'MinionPro-Regular'" font-size="17.5377"> </text>
</g>
</svg>
