<?xml version="1.0" encoding="utf-8"?>
<!-- Generator: Adobe Illustrator 17.0.0, SVG Export Plug-In . SVG Version: 6.00 Build 0)  -->
<!DOCTYPE svg PUBLIC "-//W3C//DTD SVG 1.1//EN" "http://www.w3.org/Graphics/SVG/1.1/DTD/svg11.dtd">
<svg version="1.1" id="Layer_1" xmlns="http://www.w3.org/2000/svg" xmlns:xlink="http://www.w3.org/1999/xlink" x="0px" y="0px"
	 width="64px" height="64px" viewBox="0 0 64 64" enable-background="new 0 0 64 64" xml:space="preserve">
<g>
	<defs>
		<rect id="SVGID_1_" x="2" y="3.211" width="60" height="57.578"/>
	</defs>
	<clipPath id="SVGID_2_">
		<use xlink:href="#SVGID_1_"  overflow="visible"/>
	</clipPath>
	<path clip-path="url(#SVGID_2_)" fill="#FFFFFF" d="M56.779,34.115h-2.96h-1.05v2.308h1.05c1.641,0,2.977,1.336,2.977,2.977
		s-1.336,2.977-2.977,2.977h-2.49h-0.868v2.308h0.868c1.582,0,2.868,1.288,2.868,2.87c0,1.583-1.287,2.871-2.868,2.871h-2.86h-0.315
		v2.308h0.315c1.681,0,3.052,1.289,3.052,2.871c0,1.584-1.371,2.871-3.052,2.871h-2.947v0.007H30.321
		c-2.232,0-6.202-1.769-9.392-3.189c-3.136-1.395-5.118-2.251-6.362-2.251H4.308V30.777c2.1-0.024,6.628-0.072,9.493-0.072
		c4.268,0,6.508-1.88,12.494-6.899c6.309-5.293,6.63-14.903,6.63-16.776c0-0.942,1.446-1.513,2.082-1.513
		c1.208,0,4.041,0,4.041,6.016c0,7.604-3.838,15.201-3.876,15.277l-0.858,1.679h7.543h4.764h1.83c0.04,0.03,0.065,0,0.065,0h8.265
		c1.687,0,2.913,1.17,2.913,2.713C59.692,32.809,58.385,34.115,56.779,34.115 M62,31.203c0-2.834-2.244-5.02-5.221-5.02h-7.852
		H38.001c1.199-2.782,3.353-8.62,3.353-14.648c0-6.88-3.452-8.324-6.348-8.324c-1.794,0-4.389,1.36-4.389,3.82
		c0,1.038-0.164,10.275-5.806,15.008c-6.009,5.041-7.718,6.359-11.01,6.359c-3.84,0-10.663,0.084-10.663,0.084L2,28.497v26.851
		h12.567c0.816,0,3.264,1.09,5.424,2.052c3.568,1.588,7.608,3.389,10.33,3.389h18.148v-0.007c2.955,0,5.36-2.324,5.36-5.178
		c0-1.163-0.414-2.227-1.086-3.092c2.165-0.62,3.763-2.596,3.763-4.957c0-1.187-0.417-2.268-1.09-3.144
		c2.131-0.681,3.689-2.656,3.689-5.01c0-1.183-0.405-2.266-1.066-3.148C60.307,35.685,62,33.645,62,31.203"/>
</g>
</svg>
