<?xml version="1.0" encoding="utf-8"?>
<!-- Generator: Adobe Illustrator 17.0.0, SVG Export Plug-In . SVG Version: 6.00 Build 0)  -->
<!DOCTYPE svg PUBLIC "-//W3C//DTD SVG 1.1//EN" "http://www.w3.org/Graphics/SVG/1.1/DTD/svg11.dtd">
<svg version="1.1" id="Layer_1" xmlns="http://www.w3.org/2000/svg" xmlns:xlink="http://www.w3.org/1999/xlink" x="0px" y="0px"
	 width="64px" height="64px" viewBox="0 0 64 64" enable-background="new 0 0 64 64" xml:space="preserve">
<g>
	<rect x="19.367" y="28.316" fill="#FFFFFF" width="25.264" height="2.105"/>
	<rect x="19.367" y="36.736" fill="#FFFFFF" width="25.264" height="2.105"/>
	<rect x="27.789" y="45.16" fill="#FFFFFF" width="16.842" height="2.105"/>
	<g>
		<defs>
			<rect id="SVGID_1_" x="6.737" y="2" width="50.526" height="60"/>
		</defs>
		<clipPath id="SVGID_2_">
			<use xlink:href="#SVGID_1_"  overflow="visible"/>
		</clipPath>
		<path clip-path="url(#SVGID_2_)" fill="#FFFFFF" d="M8.843,59.894h46.316V9.368H38.315v1.504c3.286,1.872,5.669,5.151,6.317,9.023
			H19.368c0.646-3.872,3.029-7.151,6.317-9.023V9.368H8.843V59.894z M36.21,12.096v-1.223V8.316c0-2.321-1.889-4.21-4.21-4.21
			c-2.321,0-4.21,1.889-4.21,4.21v2.556v1.225l-1.065,0.605c-2.068,1.176-3.652,2.966-4.562,5.088h19.672
			c-0.91-2.124-2.494-3.912-4.562-5.088L36.21,12.096z M25.779,7.263C26.281,4.278,28.871,2.001,32,2.001
			c3.128,0,5.719,2.278,6.221,5.263h19.043v54.737H6.736V7.263H25.779z"/>
	</g>
</g>
</svg>
