<?xml version="1.0" encoding="utf-8"?>
<!-- Generator: Adobe Illustrator 17.0.0, SVG Export Plug-In . SVG Version: 6.00 Build 0)  -->
<!DOCTYPE svg PUBLIC "-//W3C//DTD SVG 1.1//EN" "http://www.w3.org/Graphics/SVG/1.1/DTD/svg11.dtd">
<svg version="1.1" id="Layer_1" xmlns="http://www.w3.org/2000/svg" xmlns:xlink="http://www.w3.org/1999/xlink" x="0px" y="0px"
	 width="64px" height="64px" viewBox="0 0 64 64" enable-background="new 0 0 64 64" xml:space="preserve">
<path fill="#FFFFFF" d="M32,59.87c-9.45,0-17.136-7.687-17.136-17.136c0-9.449,7.687-17.135,17.136-17.135
	c9.449,0,17.136,7.687,17.136,17.135C49.136,52.183,41.449,59.87,32,59.87 M20.219,10.315V4.176H30.89v14.655h2.142V4.176h10.749
	v6.138c0,1.174-2.628,8.086-5.248,14.301c-2.042-0.738-4.237-1.16-6.533-1.16c-2.321,0-4.537,0.432-6.598,1.182
	C23.178,19.281,20.219,11.606,20.219,10.315 M40.506,25.453c1.307-3.103,5.417-13.033,5.417-15.139v-8.28H31.961H18.077v8.28
	c0,2.11,4.083,12.103,5.357,15.168c-6.343,3.156-10.712,9.685-10.712,17.251c0,10.648,8.63,19.278,19.278,19.278
	c10.647,0,19.278-8.63,19.278-19.278C51.278,35.144,46.881,28.598,40.506,25.453"/>
<path fill="#FFFFFF" d="M32,53.445c-5.906,0-10.71-4.805-10.71-10.71s4.805-10.71,10.71-10.71c5.907,0,10.71,4.805,10.71,10.71
	S37.907,53.445,32,53.445 M32,29.882c-7.098,0-12.852,5.755-12.852,12.852S24.902,55.587,32,55.587
	c7.099,0,12.852-5.755,12.852-12.852S39.099,29.882,32,29.882"/>
</svg>
