<?xml version="1.0" encoding="utf-8"?>
<!-- Generator: Adobe Illustrator 17.0.0, SVG Export Plug-In . SVG Version: 6.00 Build 0)  -->
<!DOCTYPE svg PUBLIC "-//W3C//DTD SVG 1.1//EN" "http://www.w3.org/Graphics/SVG/1.1/DTD/svg11.dtd">
<svg version="1.1" id="Layer_1" xmlns="http://www.w3.org/2000/svg" xmlns:xlink="http://www.w3.org/1999/xlink" x="0px" y="0px"
	 width="64px" height="64px" viewBox="0 0 64 64" enable-background="new 0 0 64 64" xml:space="preserve">
<g>
	<g>
		<defs>
			<rect id="SVGID_1_" x="14.222" y="2" width="35.556" height="60"/>
		</defs>
		<clipPath id="SVGID_2_">
			<use xlink:href="#SVGID_1_"  overflow="visible"/>
		</clipPath>
		<path clip-path="url(#SVGID_2_)" fill="#FFFFFF" d="M47.556,8.712H16.444V5.01c0-0.434,0.352-0.788,0.787-0.788h29.538
			c0.434,0,0.787,0.353,0.787,0.788V8.712z M47.556,46.452H16.444V10.934h31.111V46.452z M47.556,58.991
			c0,0.434-0.352,0.787-0.787,0.787H17.231c-0.434,0-0.787-0.352-0.787-0.787V48.674h31.111V58.991z M46.769,2H17.231
			c-1.661,0-3.009,1.349-3.009,3.01v53.981c0,1.663,1.348,3.009,3.009,3.009h29.538c1.661,0,3.009-1.346,3.009-3.009V5.01
			C49.778,3.349,48.43,2,46.769,2"/>
	</g>
	<rect x="28.667" y="53.111" fill="#FFFFFF" width="6.667" height="2.222"/>
</g>
</svg>
