<?xml version="1.0" encoding="utf-8"?>
<!-- Generator: Adobe Illustrator 17.0.0, SVG Export Plug-In . SVG Version: 6.00 Build 0)  -->
<!DOCTYPE svg PUBLIC "-//W3C//DTD SVG 1.1//EN" "http://www.w3.org/Graphics/SVG/1.1/DTD/svg11.dtd">
<svg version="1.1" id="Layer_1" xmlns="http://www.w3.org/2000/svg" xmlns:xlink="http://www.w3.org/1999/xlink" x="0px" y="0px"
	 width="64px" height="64px" viewBox="0 0 64 64" enable-background="new 0 0 64 64" xml:space="preserve">
<g>
	<polygon fill="#FFFFFF" points="23.05,43.186 24.841,43.186 51.019,43.186 52.809,43.186 56.844,43.186 56.844,37.383 
		56.844,35.596 56.844,26.683 56.844,24.896 56.844,20.813 56.844,19.093 58.564,19.093 58.564,44.907 17.261,44.907 17.261,43.186 
		18.981,43.186 	"/>
	<polygon fill="#FFFFFF" points="60.285,22.534 60.285,24.256 60.285,28.337 60.285,30.126 60.285,39.039 60.285,40.825 
		60.285,46.628 56.25,46.628 54.461,46.628 26.563,46.628 26.491,46.628 22.423,46.628 20.702,46.628 20.702,48.35 62.007,48.35 
		62.007,22.534 	"/>
	<rect x="45.658" y="19.144" fill="#FFFFFF" width="5.163" height="1.722"/>
	<rect x="45.658" y="36.301" fill="#FFFFFF" width="5.163" height="1.722"/>
	<rect x="18.12" y="19.144" fill="#FFFFFF" width="5.163" height="1.722"/>
	<rect x="18.12" y="36.301" fill="#FFFFFF" width="5.163" height="1.722"/>
	<polygon fill="#FFFFFF" points="1.993,28.558 10.74,37.305 11.956,36.087 5.286,29.418 32.527,29.418 32.527,27.696 5.286,27.696 
		11.956,21.029 10.74,19.811 	"/>
	<polygon fill="#FFFFFF" points="13.818,15.65 13.818,26.81 15.541,26.81 15.541,23.243 15.541,21.473 15.541,17.373 19.607,17.373 
		21.398,17.373 47.577,17.373 49.366,17.373 53.401,17.373 53.401,21.453 53.401,23.243 53.401,32.153 53.401,33.941 53.401,39.744 
		49.366,39.744 47.577,39.744 21.398,39.744 19.607,39.744 15.541,39.744 15.541,33.921 15.541,32.15 15.541,30.302 13.818,30.302 
		13.818,41.466 55.123,41.466 55.123,15.65 	"/>
	<g>
		<defs>
			<rect id="SVGID_1_" x="1.993" y="15.65" width="60.013" height="32.699"/>
		</defs>
		<clipPath id="SVGID_2_">
			<use xlink:href="#SVGID_1_"  overflow="visible"/>
		</clipPath>
		<path clip-path="url(#SVGID_2_)" fill="#FFFFFF" d="M31.521,30.304c0.601,1.01,1.692,1.696,2.949,1.696
			c1.898,0,3.443-1.544,3.443-3.443c0-1.897-1.544-3.441-3.443-3.441c-1.259,0-2.35,0.686-2.949,1.696h-1.904
			c0.716-1.99,2.616-3.416,4.853-3.416c2.852,0,5.163,2.311,5.163,5.161c0,2.852-2.311,5.165-5.163,5.165
			c-2.237,0-4.137-1.428-4.853-3.418H31.521z"/>
	</g>
</g>
</svg>
