<?xml version="1.0" encoding="utf-8"?>
<!-- Generator: Adobe Illustrator 17.0.0, SVG Export Plug-In . SVG Version: 6.00 Build 0)  -->
<!DOCTYPE svg PUBLIC "-//W3C//DTD SVG 1.1//EN" "http://www.w3.org/Graphics/SVG/1.1/DTD/svg11.dtd">
<svg version="1.1" id="Layer_1" xmlns="http://www.w3.org/2000/svg" xmlns:xlink="http://www.w3.org/1999/xlink" x="0px" y="0px"
	 width="64px" height="64px" viewBox="0 0 64 64" enable-background="new 0 0 64 64" xml:space="preserve">
<g>
	<path fill="#FFFFFF" d="M17,10.75h30v5H17V10.75z M14.501,18.25h35v-10h-35V18.25z"/>
	<g>
		<defs>
			<rect id="SVGID_1_" x="9.5" y="2" width="44.999" height="60"/>
		</defs>
		<clipPath id="SVGID_2_">
			<use xlink:href="#SVGID_1_"  overflow="visible"/>
		</clipPath>
		<path clip-path="url(#SVGID_2_)" fill="#FFFFFF" d="M52,57c0,1.379-1.121,2.501-2.499,2.501h-35c-1.377,0-2.499-1.122-2.499-2.501
			V7c0-1.377,1.122-2.501,2.499-2.501h35C50.879,4.5,52,5.623,52,7V57z M49.5,2h-35c-2.761,0-5,2.238-5,5v50c0,2.762,2.24,5,5,5h35
			c2.762,0,5-2.238,5-5V7C54.501,4.238,52.262,2,49.5,2"/>
	</g>
	<polygon fill="#FFFFFF" points="17,29.5 17,24.5 17,22.001 14.501,22.001 14.501,32 24.5,32 24.5,29.5 22.001,29.5 	"/>
	<polygon fill="#FFFFFF" points="17,42 17,37 17,34.5 14.501,34.5 14.501,44.499 24.5,44.499 24.5,42 22.001,42 	"/>
	<polygon fill="#FFFFFF" points="17,54.5 17,49.5 17,47 14.501,47 14.501,56.999 24.5,56.999 24.5,54.5 22.001,54.5 	"/>
	<polygon fill="#FFFFFF" points="29.5,29.5 29.5,24.5 29.5,22.001 27.001,22.001 27.001,32 37,32 37,29.5 34.501,29.5 	"/>
	<polygon fill="#FFFFFF" points="42,29.5 42,24.5 42,22.001 39.501,22.001 39.501,32 49.5,32 49.5,29.5 47.001,29.5 	"/>
	<polygon fill="#FFFFFF" points="29.5,42 29.5,37 29.5,34.5 27.001,34.5 27.001,44.499 37,44.499 37,42 34.501,42 	"/>
	<polygon fill="#FFFFFF" points="42,42 42,37 42,34.5 39.501,34.5 39.501,44.499 49.5,44.499 49.5,42 47.001,42 	"/>
	<polygon fill="#FFFFFF" points="42,54.5 42,49.5 42,47 39.501,47 39.501,56.999 49.5,56.999 49.5,54.5 47.001,54.5 	"/>
	<polygon fill="#FFFFFF" points="29.5,54.5 29.5,49.5 29.5,47 27.001,47 27.001,56.999 37,56.999 37,54.5 34.501,54.5 	"/>
</g>
</svg>
