<?xml version="1.0" encoding="utf-8"?>
<!-- Generator: Adobe Illustrator 17.0.0, SVG Export Plug-In . SVG Version: 6.00 Build 0)  -->
<!DOCTYPE svg PUBLIC "-//W3C//DTD SVG 1.1//EN" "http://www.w3.org/Graphics/SVG/1.1/DTD/svg11.dtd">
<svg version="1.1" id="Layer_1" xmlns="http://www.w3.org/2000/svg" xmlns:xlink="http://www.w3.org/1999/xlink" x="0px" y="0px"
	 width="64px" height="64px" viewBox="0 0 64 64" enable-background="new 0 0 64 64" xml:space="preserve">
<g>
	<g>
		<defs>
			<rect id="SVGID_1_" x="1.998" y="4.398" width="60.004" height="55.204"/>
		</defs>
		<clipPath id="SVGID_2_">
			<use xlink:href="#SVGID_1_"  overflow="visible"/>
		</clipPath>
		<path clip-path="url(#SVGID_2_)" fill="#FFFFFF" d="M32,40.401c-4.224,0-7.719-3.136-8.305-7.201H32v-2.4h-8.305
			c0.586-4.065,4.08-7.201,8.305-7.201c4.631,0,8.401,3.769,8.401,8.401S36.631,40.401,32,40.401 M32,21.199
			c-5.558,0-10.132,4.2-10.73,9.601h-2.471v2.4h2.471c0.598,5.4,5.172,9.601,10.73,9.601c5.966,0,10.801-4.835,10.801-10.801
			S37.966,21.199,32,21.199"/>
	</g>
	<polygon fill="#FFFFFF" points="9.198,42.951 9.198,38.15 9.198,35.75 6.798,35.75 6.798,45.351 9.198,45.351 	"/>
	<polygon fill="#FFFFFF" points="9.198,26 9.198,21.199 9.198,18.799 6.798,18.799 6.798,28.4 9.198,28.4 	"/>
	<path fill="#FFFFFF" d="M50.001,50.001H13.999V13.999h36.003V50.001z M11.599,11.598v4.05v3.15V28.4v7.351v9.601v4.35v2.7h40.803
		V11.598H11.599z"/>
	<path fill="#FFFFFF" d="M4.398,6.798h55.204v50.404h-7.201H40.401H23.599H11.599H4.398V6.798z M1.998,4.398v55.204h4.425h5.176h2.4
		h7.201h2.4h16.801h2.4h7.201h2.4h9.601V4.398H1.998z"/>
</g>
</svg>
