<?xml version="1.0" encoding="utf-8"?>
<!-- Generator: Adobe Illustrator 17.0.0, SVG Export Plug-In . SVG Version: 6.00 Build 0)  -->
<!DOCTYPE svg PUBLIC "-//W3C//DTD SVG 1.1//EN" "http://www.w3.org/Graphics/SVG/1.1/DTD/svg11.dtd">
<svg version="1.1" id="Layer_1" xmlns="http://www.w3.org/2000/svg" xmlns:xlink="http://www.w3.org/1999/xlink" x="0px" y="0px"
	 width="64px" height="64px" viewBox="0 0 64 64" enable-background="new 0 0 64 64" xml:space="preserve">
<g>
	<defs>
		<rect id="SVGID_1_" x="2" y="2" width="60" height="60"/>
	</defs>
	<clipPath id="SVGID_2_">
		<use xlink:href="#SVGID_1_"  overflow="visible"/>
	</clipPath>
	<path clip-path="url(#SVGID_2_)" fill="#FFFFFF" d="M47.321,45.732l-8.734-8.735c0.859-1.13,1.434-2.484,1.619-3.962h12.425
		C52.361,37.909,50.401,42.328,47.321,45.732 M33.034,52.513V40.206c1.541-0.193,2.95-0.808,4.108-1.728l8.716,8.718
		C42.426,50.302,37.959,52.268,33.034,52.513 M18.143,47.196l8.716-8.718c1.157,0.92,2.566,1.534,4.107,1.728v12.307
		C26.041,52.268,21.574,50.302,18.143,47.196 M11.369,33.034h12.426c0.185,1.478,0.76,2.832,1.619,3.962l-8.734,8.735
		C13.6,42.328,11.641,37.909,11.369,33.034 M16.68,18.017l8.842,8.842c-0.919,1.158-1.533,2.566-1.726,4.107h-12.44
		C11.575,25.992,13.547,21.478,16.68,18.017 M30.966,11.237v12.559c-1.478,0.185-2.831,0.76-3.962,1.619l-8.86-8.86
		C21.577,13.447,26.042,11.482,30.966,11.237 M45.857,16.554l-8.86,8.86c-1.13-0.859-2.483-1.434-3.962-1.619V11.237
		C37.959,11.482,42.424,13.447,45.857,16.554 M32,38.208c-3.423,0-6.207-2.785-6.207-6.207c0-3.423,2.784-6.208,6.207-6.208
		s6.207,2.785,6.207,6.208C38.207,35.423,35.423,38.208,32,38.208 M52.644,30.966H40.206c-0.194-1.541-0.808-2.949-1.728-4.107
		l8.842-8.842C50.453,21.478,52.427,25.992,52.644,30.966 M62,33.034v-2.069h-7.264c-0.217-5.554-2.424-10.597-5.93-14.435
		l5.138-5.137L52.482,9.93l-5.138,5.137c-3.809-3.479-8.803-5.679-14.309-5.926V2h-2.069v7.142
		c-5.503,0.246-10.499,2.447-14.309,5.926L11.52,9.93l-1.463,1.463l5.136,5.137c-3.506,3.838-5.71,8.881-5.929,14.435H2v2.069h7.271
		c0.273,5.455,2.469,10.404,5.922,14.185l-5.138,5.138l1.463,1.463l5.138-5.138c3.809,3.479,8.806,5.679,14.309,5.927V62h2.069
		v-7.391c5.506-0.247,10.501-2.448,14.311-5.927l5.137,5.138l1.463-1.463l-5.137-5.138c3.453-3.781,5.647-8.73,5.922-14.185H62z"/>
</g>
</svg>
