<?xml version="1.0" encoding="utf-8"?>
<!-- Generator: Adobe Illustrator 17.0.0, SVG Export Plug-In . SVG Version: 6.00 Build 0)  -->
<!DOCTYPE svg PUBLIC "-//W3C//DTD SVG 1.1//EN" "http://www.w3.org/Graphics/SVG/1.1/DTD/svg11.dtd">
<svg version="1.1" id="Layer_1" xmlns="http://www.w3.org/2000/svg" xmlns:xlink="http://www.w3.org/1999/xlink" x="0px" y="0px"
	 width="64px" height="64px" viewBox="0 0 64 64" enable-background="new 0 0 64 64" xml:space="preserve">
<g>
	<defs>
		<rect id="SVGID_1_" x="4.4" y="2" width="55.2" height="60"/>
	</defs>
	<clipPath id="SVGID_2_">
		<use xlink:href="#SVGID_1_"  overflow="visible"/>
	</clipPath>
	<path clip-path="url(#SVGID_2_)" fill="#FFFFFF" d="M32,59.6c-13.895,0-25.2-11.306-25.2-25.2C6.8,20.504,18.105,9.2,32,9.2
		s25.2,11.304,25.2,25.2C57.2,48.294,45.895,59.6,32,59.6 M52.345,15.751l2.03-2.029l2.058,2.057l2.545-2.545l-5.812-5.812
		l-2.545,2.545l2.057,2.058l-2.03,2.029C46.149,9.928,40.279,7.282,33.8,6.864V2h-3.6v4.864C15.797,7.791,4.4,19.761,4.4,34.4
		C4.4,49.644,16.757,62,32,62s27.6-12.356,27.6-27.6C59.6,27.21,56.849,20.664,52.345,15.751"/>
	<path clip-path="url(#SVGID_2_)" fill="#FFFFFF" d="M33.2,31.02V15.2h-2.4V31.02c-1.394,0.497-2.4,1.814-2.4,3.379
		c0,1.566,1.006,2.884,2.4,3.38v5.02h2.4v-5.02c1.394-0.497,2.4-1.814,2.4-3.38C35.6,32.835,34.594,31.517,33.2,31.02"/>
</g>
</svg>
