<?xml version="1.0" encoding="utf-8"?>
<!-- Generator: Adobe Illustrator 17.0.0, SVG Export Plug-In . SVG Version: 6.00 Build 0)  -->
<!DOCTYPE svg PUBLIC "-//W3C//DTD SVG 1.1//EN" "http://www.w3.org/Graphics/SVG/1.1/DTD/svg11.dtd">
<svg version="1.1" id="Layer_1" xmlns="http://www.w3.org/2000/svg" xmlns:xlink="http://www.w3.org/1999/xlink" x="0px" y="0px"
	 width="64px" height="64px" viewBox="0 0 64 64" enable-background="new 0 0 64 64" xml:space="preserve">
<g>
	<defs>
		<rect id="SVGID_1_" x="2" y="2.002" width="60" height="59.995"/>
	</defs>
	<clipPath id="SVGID_2_">
		<use xlink:href="#SVGID_1_"  overflow="visible"/>
	</clipPath>
	<path clip-path="url(#SVGID_2_)" fill="#FFFFFF" d="M29.042,34.081c0.047,0.059,0.113,0.108,0.164,0.164
		c0.66,0.82,1.66,1.355,2.794,1.355c1.987,0,3.6-1.61,3.6-3.6c0-1.057-0.464-1.997-1.186-2.656
		c-0.095-0.106-0.181-0.214-0.319-0.319l-14.548-11.07c-0.425-0.325-1.033-0.342-1.477,0c-0.529,0.408-0.628,1.168-0.22,1.698
		L29.042,34.081z"/>
	<path clip-path="url(#SVGID_2_)" fill="#FFFFFF" d="M32,2.002c-0.394,0-0.778,0.044-1.168,0.059v1.244H30.8v13.092h2.4V4.463
		C47.863,5.098,59.6,17.187,59.6,32c0,15.218-12.379,27.598-27.6,27.598S4.4,47.218,4.4,32c0-7.61,3.096-14.51,8.095-19.507
		l-1.706-1.706C5.359,16.215,2,23.715,2,32c0,16.568,13.429,29.998,30,29.998S62,48.568,62,32S48.571,2.002,32,2.002"/>
</g>
</svg>
