<?xml version="1.0" encoding="utf-8"?>
<!-- Generator: Adobe Illustrator 17.0.0, SVG Export Plug-In . SVG Version: 6.00 Build 0)  -->
<!DOCTYPE svg PUBLIC "-//W3C//DTD SVG 1.1//EN" "http://www.w3.org/Graphics/SVG/1.1/DTD/svg11.dtd">
<svg version="1.1" id="Layer_1" xmlns="http://www.w3.org/2000/svg" xmlns:xlink="http://www.w3.org/1999/xlink" x="0px" y="0px"
	 width="64px" height="64px" viewBox="0 0 64 64" enable-background="new 0 0 64 64" xml:space="preserve">
<g>
	<defs>
		<rect id="SVGID_1_" x="1.992" y="18.53" width="60.016" height="26.94"/>
	</defs>
	<clipPath id="SVGID_2_">
		<use xlink:href="#SVGID_1_"  overflow="visible"/>
	</clipPath>
	<path clip-path="url(#SVGID_2_)" fill="#FFFFFF" d="M48.063,43.468h-2.904v-2.904h2.904V43.468z M6.998,35.556
		c-1.655,0-3.004-1.347-3.004-3.004s1.348-3.005,3.004-3.005c1.657,0,3.006,1.348,3.006,3.005S8.655,35.556,6.998,35.556
		 M38.046,20.534c1.105,0,2.004,0.898,2.004,2.004c0,1.102-0.899,2.001-2.004,2.001c-1.103,0-2.001-0.899-2.001-2.001
		C36.044,21.432,36.942,20.534,38.046,20.534 M50.066,45.47v-6.909h-6.909v3.006h-4.809c-1.112,0.01-1.782,0.014-2.923-1.127
		l-6.87-6.87h27.954l-2.321,1.41l1.042,1.711l6.78-4.124l-6.78-4.122l-1.042,1.711l2.321,1.41H20.375l6.355-6.353
		c1.127-1.127,2.018-1.676,2.723-1.676h4.729c0.446,1.726,1.999,3.005,3.864,3.005c2.214,0,4.007-1.793,4.007-4.004
		c0-2.215-1.793-4.008-4.007-4.008c-1.865,0-3.417,1.279-3.864,3.005h-4.729c-1.664,0-3.087,1.209-4.141,2.263l-7.771,7.769h-5.634
		c-0.457-2.294-2.48-4.023-4.909-4.023c-2.764,0-5.006,2.242-5.006,5.008c0,2.767,2.242,5.008,5.006,5.008
		c2.417,0,4.434-1.713,4.904-3.99h13.819l8.287,8.286c1.733,1.735,3.065,1.724,4.355,1.714h4.794v1.9H50.066z"/>
</g>
</svg>
