<?xml version="1.0" encoding="utf-8"?>
<!-- Generator: Adobe Illustrator 17.0.0, SVG Export Plug-In . SVG Version: 6.00 Build 0)  -->
<!DOCTYPE svg PUBLIC "-//W3C//DTD SVG 1.1//EN" "http://www.w3.org/Graphics/SVG/1.1/DTD/svg11.dtd">
<svg version="1.1" id="Layer_1" xmlns="http://www.w3.org/2000/svg" xmlns:xlink="http://www.w3.org/1999/xlink" x="0px" y="0px"
	 width="64px" height="64px" viewBox="0 0 64 64" enable-background="new 0 0 64 64" xml:space="preserve">
<g>
	<rect x="38.943" y="23.904" fill="#646362" width="16.191" height="2.313"/>
	<rect x="38.94" y="37.784" fill="#646362" width="16.193" height="2.313"/>
	<rect x="38.941" y="30.844" fill="#646362" width="11.547" height="2.313"/>
	<path fill="#646362" d="M4.239,19.276h23.135h9.253H59.76v39.328H4.239V19.276z M4.239,12.336h23.135v4.627H4.239V12.336z
		 M36.627,12.336H59.76v4.627H36.627V12.336z M29.687,5.396h4.627v11.567h-4.627V5.396z M27.374,3.083v6.94H1.925v50.893h60.148
		V10.023H36.627v-6.94H27.374z"/>
	<g>
		<defs>
			<rect id="SVGID_1_" x="1.926" y="3.084" width="60.148" height="57.833"/>
		</defs>
		<clipPath id="SVGID_2_">
			<use xlink:href="#SVGID_1_"  overflow="visible"/>
		</clipPath>
		<path clip-path="url(#SVGID_2_)" fill="#646362" d="M36.027,48.322c-1.67-0.696-5.613-2.066-8.055-2.787
			c-0.206-0.065-0.239-0.074-0.239-0.942c0-0.716,0.293-1.437,0.58-2.046c0.311-0.663,0.68-1.777,0.811-2.778
			c0.37-0.43,0.875-1.278,1.2-2.893c0.284-1.424,0.152-1.943-0.038-2.429c-0.02-0.052-0.04-0.101-0.056-0.152
			c-0.07-0.334,0.027-2.069,0.273-3.416c0.166-0.924-0.045-2.888-1.316-4.515c-0.802-1.027-2.339-2.288-5.147-2.462H22.5
			c-2.758,0.173-4.296,1.435-5.098,2.462c-1.272,1.627-1.484,3.591-1.318,4.515c0.248,1.346,0.343,3.081,0.275,3.409
			c-0.014,0.058-0.036,0.107-0.058,0.159c-0.186,0.486-0.32,1.005-0.036,2.429c0.324,1.616,0.83,2.463,1.2,2.893
			c0.13,1.001,0.499,2.115,0.813,2.778c0.226,0.484,0.334,1.144,0.334,2.077c0,0.867-0.034,0.877-0.228,0.938
			c-2.523,0.746-6.542,2.198-8.041,2.854c-1.187,0.51-1.477,1.424-1.477,2.248v0.999h2.313v-0.999c0-0.036,0.002-0.065,0.004-0.089
			c0.02-0.011,0.047-0.025,0.087-0.04c1.422-0.624,5.364-2.044,7.813-2.769c1.842-0.584,1.842-2.313,1.842-3.143
			c0-1.281-0.175-2.254-0.555-3.063c-0.233-0.493-0.519-1.37-0.611-2.087l-0.09-0.69l-0.454-0.526
			c-0.069-0.08-0.423-0.539-0.683-1.836c-0.173-0.877-0.112-1.039-0.076-1.135c0.061-0.148,0.112-0.298,0.161-0.508
			c0.202-0.934-0.067-3.271-0.257-4.312c-0.061-0.34,0.027-1.608,0.862-2.675c0.732-0.938,1.861-1.466,3.356-1.574h1.388
			c1.522,0.108,2.666,0.636,3.398,1.574c0.835,1.066,0.924,2.335,0.862,2.675c-0.19,1.039-0.457,3.374-0.257,4.314l0.02,0.09
			l0.025,0.089c0.031,0.101,0.067,0.199,0.116,0.327c0.038,0.098,0.101,0.258-0.072,1.133c-0.264,1.299-0.618,1.762-0.687,1.842
			l-0.45,0.524l-0.09,0.685c-0.096,0.717-0.38,1.599-0.611,2.091c-0.374,0.793-0.801,1.854-0.801,3.033c0,0.831,0,2.561,1.898,3.161
			c2.31,0.681,6.185,2.021,7.795,2.693c0.244,0.105,0.333,0.233,0.358,0.282v0.934h2.313v-0.999
			C37.784,49.84,37.213,48.832,36.027,48.322"/>
	</g>
</g>
</svg>
