<?xml version="1.0" encoding="utf-8"?>
<!-- Generator: Adobe Illustrator 17.0.0, SVG Export Plug-In . SVG Version: 6.00 Build 0)  -->
<!DOCTYPE svg PUBLIC "-//W3C//DTD SVG 1.1//EN" "http://www.w3.org/Graphics/SVG/1.1/DTD/svg11.dtd">
<svg version="1.1" id="Layer_1" xmlns="http://www.w3.org/2000/svg" xmlns:xlink="http://www.w3.org/1999/xlink" x="0px" y="0px"
	 width="64px" height="64px" viewBox="0 0 64 64" enable-background="new 0 0 64 64" xml:space="preserve">
<g>
	<defs>
		<rect id="SVGID_1_" x="2.053" y="2" width="59.893" height="60"/>
	</defs>
	<clipPath id="SVGID_2_">
		<use xlink:href="#SVGID_1_"  overflow="visible"/>
	</clipPath>
	<path clip-path="url(#SVGID_2_)" fill="#FFFFFF" d="M58.957,6.832L27.254,38.539h-1.739v-1.955L57.113,4.988
		c0.331-0.332,0.719-0.38,0.921-0.38c0.203,0,0.591,0.049,0.924,0.382c0.332,0.332,0.383,0.72,0.383,0.924
		C59.34,6.113,59.289,6.5,58.957,6.832 M48.977,59.393H4.659V15.077h38.677L22.907,35.504v5.641h5.426L48.977,20.5V59.393z
		 M60.799,3.145C60.036,2.382,59.033,2,58.033,2c-1.002,0-2.002,0.382-2.765,1.145L43.763,14.649v-2.178H2.054V62h49.529V20.291
		h-2.397L60.799,8.676C62.329,7.151,62.329,4.673,60.799,3.145"/>
</g>
</svg>
