<svg xmlns="http://www.w3.org/2000/svg" width="895.455" height="883.456" viewBox="0 0 895.455 883.456"><path fill="none" stroke="#FFF" stroke-width="1.5" stroke-miterlimit="10" d="M482.955 65.351L262.308 255.603c-8.367 7.215-9.287 17.062-1.626 21.69l389.327 235.174c10.68 6.451 26.363 2.467 34.812-8.775l191.92-255.369c5.98-7.957 3.36-18.053-7.468-22.982L508.182 60.988c-7.295-3.334-18.46-1.471-25.227 4.363z"/><path fill="none" stroke="#FFF" stroke-width="1.5" stroke-miterlimit="10" d="M484.584 66.103L264.005 256.611c-3.526 3.045-5.633 6.699-5.931 10.285-.303 3.643 1.328 6.73 4.568 8.684l389.154 234.56c9.347 5.634 23.141 2.062 30.625-7.87l192.122-254.962c2.64-3.504 3.461-7.503 2.308-11.244-1.173-3.796-4.307-7.03-8.831-9.092L506.739 62.249c-3.114-1.42-7.102-1.81-11.233-1.108-4.167.716-8.041 2.474-10.922 4.962z"/><path fill="none" stroke="#FFF" stroke-width=".5" stroke-miterlimit="10" d="M772.378 344.166c6.228 3.207 8.023 10.135 3.954 15.474-4.096 5.375-12.558 7.083-18.827 3.792-6.24-3.276-7.907-10.25-3.77-15.541 4.12-5.27 12.444-6.918 18.643-3.725z"/><path fill="none" stroke="#FFF" stroke-width=".5" stroke-miterlimit="10" d="M762.884 349.992l-2.937 3.789c-.699.902-.413 2.07.644 2.622l4.462 2.328c1.062.554 2.475.27 3.172-.638l2.926-3.811c.693-.902.397-2.067-.662-2.615l-4.452-2.307c-1.043-.559-2.458-.265-3.153.632zM394.732 161.221c1.078-.943 2.826-1.24 3.903-.681 1.089.565 1.089 1.787.024 2.723-1.067.937-2.833 1.246-3.911.684-1.077-.562-1.095-1.782-.016-2.726z"/><path fill="none" stroke="#FFF" stroke-width="1.5" stroke-miterlimit="10" d="M298.09 272.165L512.254 81.509l322.37 149.174L641.5 475.364 298.09 272.165z"/><path fill="none" stroke="#FFF" stroke-width=".5" stroke-miterlimit="10" d="M883.908 577.238L445.743 821.907m435.523-248.179l-411.14 229.579m411.771-232.391L531.011 766.849m345.097-195.394l-233.579 130.43m239.525-136.364l-147.159 82.172m143.151-82.289l-78.086 43.603"/><path fill="none" stroke="#FFF" stroke-width="1.5" stroke-miterlimit="10" d="M10.429 281.808l435.948 518.386M881.73 557.833s2.703 4.798.956 17.574"/><g fill="none" stroke="#FFF" stroke-width="1.5" stroke-miterlimit="10"><path d="M885.133 576.656c-1.143-1.465-1.811-1.684-3.204-.908L445.324 818.807l-.875 5.308 440.103-245.006c-.001 0 1.724-.988.581-2.453z"/><path d="M444.214 98.756a3.455 3.455 0 0 0-2.704-.031c-2.186.863-431.081 183.083-431.081 183.083s-3.971 11.841-.656 22.492l434.675 519.815s-.171-16.522 1.928-23.92l440.102-245.006s1.246-.463-.106-1.906c-.495-.528-59.748-61.498-134.671-138.583"/></g></svg>