<svg xmlns="http://www.w3.org/2000/svg" width="895.455" height="883.456" viewBox="0 0 895.455 883.456"><g fill="none" stroke="#FFF" stroke-miterlimit="10"><path stroke-width=".5" d="M727.482 675.416h.001"/><g stroke-width=".5"><path d="M877.412 746.494s-2.033 5.36-6.848 2.673M745.605 252.591s5.42 6.686 13.525 39.329c8.105 32.642 10.893 37.367 8.336 38.118"/><path d="M700.221 209.888l7.597 29.802L818.79 634.105s35.795 109.409 51.104 115.938c0 0 3.377-5.403 8.78-3.152 0 0 .901-47.725-20.036-114.362-20.938-66.636-80.073-263.168-80.073-263.168l-42.022-148.88s12.457 3.902 16.059 16.959c3.602 13.057 29.492 113.011 29.492 113.011s2.476 14.633-1.801 15.984l5.403-.451s5.178-2.026 1.35-15.533c-3.827-13.507-30.617-113.687-30.617-113.687s-3.377-15.083-20.262-22.062l-3.152-13.057s-17.636-10.978-32.794 8.243z"/></g><ellipse transform="rotate(-19.559 708.106 732.445)" stroke-width=".5" cx="708.239" cy="732.455" rx="4.637" ry="2.364"/><ellipse transform="rotate(-19.559 695.648 737.4)" stroke-width=".5" cx="695.78" cy="737.413" rx="4.637" ry="2.364"/><ellipse transform="rotate(-19.559 683.19 742.357)" stroke-width=".5" cx="683.321" cy="742.37" rx="4.637" ry="2.364"/><ellipse transform="rotate(-19.49 520.287 802.29)" stroke-width=".5" cx="520.3" cy="802.246" rx="11.635" ry="4.948"/><ellipse transform="rotate(-19.559 541.214 795.544)" stroke-width=".5" cx="541.19" cy="795.424" rx="4.637" ry="2.364"/><ellipse transform="rotate(-19.559 670.893 747.44)" stroke-width=".5" cx="670.862" cy="747.328" rx="4.637" ry="2.364"/><path stroke-width=".5" d="M589.797 778.427s.75 2.102 9.305-.901c8.555-3.001 28.067-10.655 28.067-10.655s7.054-2.852 5.403-7.354c0 0-1.351-2.777-6.905-.676-5.553 2.101-30.167 11.707-30.167 11.707s-7.955 3.452-5.703 7.879z"/><ellipse stroke-width=".5" cx="592.826" cy="721.004" rx="26.838" ry="22.755"/><path stroke-width=".5" d="M402.676 348.745s-3.827 1.2-2.551 3.902c1.276 2.702 5.403.901 5.403.901l38.122-13.132s2.326-1.201 1.126-3.227c-1.201-2.026-3.978-.901-3.978-.901l-38.122 12.457z"/><ellipse stroke-width=".5" cx="413.069" cy="325.97" rx="4.465" ry="3.714"/><path stroke-width="1.5" d="M726.713 685.302c0-4.346-.987-8.461-2.746-12.136l-.006-.011-.089-.181-184.017-371.995-.007-.004c-4.985-10.662-15.801-18.053-28.349-18.053-2.667 0-5.254.336-7.726.963h-.001c-4.95.839-10.444 2.688-10.444 2.688l-177.553 59.245s-5.008 1.785-8.433 4.352l-.001.004c-6.823 4.225-11.37 11.776-11.37 20.391a23.9 23.9 0 0 0 1.781 9.071l-.003.008 162.27 391.022.005.002c4.255 11.976 15.683 20.554 29.119 20.554 3.877 0 7.583-.721 11.001-2.024l.01.004 201.117-73.059s7.928-3.274 12.805-7.357l-.001-.004c7.614-5.035 12.638-13.669 12.638-23.48zm-269.931 51.853l241.189-89.448-156.24-318.023-223.179 74.891 138.23 332.58z"/><path stroke-width="1.5" d="M547.623 798.688l137.779-51.628s34.971-11.706 43.525-24.914c8.555-13.207 12.007-29.115 5.103-44.874-6.905-15.758-186.708-377.004-186.708-377.004s-14.408-29.266-51.029-17.86c-36.621 11.406-180.216 58.682-180.216 58.682s-41.311 11.931-24.427 52.791c16.885 40.859 157.816 385.446 157.816 385.446s14.628 51.464 67.989 31.067c25.665-10.055 30.168-11.706 30.168-11.706z"/><path d="M20.497 111.261c11.698-17.313 29.012-7.955 29.012-7.955l93.586 436.111s-26.204 4.913-30.415 35.095"/><path d="M643.549 490.9c28.67-2.753 45.32-4.35 46.696-4.476 7.627-.702 3.603-7.721 3.603-7.721S518.55 85.115 516.444 79.325c-2.106-5.791-8.598-4.562-8.598-4.562S80.743 96.521 68.46 97.574c-12.283 1.053-18.951 5.732-18.951 5.732l101.424 436.111c2.808-2.106 12.283-2.344 12.283-2.344s79.143-7.611 177.776-17.093"/><path d="M344.833 533.397l-212.852 20.409s-15.793 15.442-15.442 31.585c.351 16.144 14.389 25.268 14.389 25.268 22.488-6.421 124.646-18.004 236.021-29.319m307.492-29.161a12523.91 12523.91 0 0 1 21.162-1.883c-15.091-22.812 7.37-51.238 7.37-51.238l-52.861 5.068" stroke-width=".5"/><g stroke-width="1.5"><path d="M649.162 501.64l53.811-5.039c15.793-1.755 8.423-15.793 8.423-15.793S534.752 95.819 527.265 80.377s-29.012-11.698-29.012-11.698S76.649 91.608 43.894 93.947c-32.755 2.34-26.672 33.691-26.672 33.691l94.581 467.314s5.933 22.521 26.73 17.988c14.15-3.085 64.691-11.055 64.691-11.055 4.389-.448 77.339-7.241 165.705-15.454m-209.223-38.958l185.127-17.335"/><path stroke-linecap="round" d="M677.713 557.759l16.135-1.497s9.125.702 5.966-6.668l-8.176-16.792"/></g></g></svg>