<svg xmlns="http://www.w3.org/2000/svg" width="895.455" height="883.456" viewBox="-32.442 155.387 895.455 883.456"><path fill="none" stroke="#FFF" stroke-width="1.5" stroke-miterlimit="10" d="M536.839 902.35l-6.251.241c3.55 14.212 15.705 62.873 17.398 69.688 1.688 6.802 8.689 41.111-13.555 43.097-23.386 2.085-78.102 7.249-111.368 7.249h-217.97c-1.39 0-1.589-.348-.894-.646-1.638.596-1.192 1.192-1.241 1.539 0 .546.546.993 1.092.993h330.133c27.706 0 22.294-43.246 19.017-55.361l-16.361-66.8z"/><path fill="none" stroke="#FFF" stroke-width="1.5" stroke-miterlimit="10" d="M530.745 902.584c-50.331 1.939-104.408 4.018-157.685 6.063.764 9.197 2.866 35.218 4.423 61.447 1.738 31.479-11.916 43.793-25.422 44.587-13.456.794-123.731 5.412-135.251 5.859-7.497.298-10.973.894-12.512 1.44-.645.298-.447.596.943.596h217.97c33.217 0 87.933-5.164 111.368-7.249 22.244-1.986 15.243-36.295 13.555-43.097-1.733-6.809-13.835-55.378-17.389-69.646z"/><path fill="none" stroke="#FFF" stroke-width="1.5" stroke-miterlimit="10" d="M10.748 918.629l4.18 1.515c4.866 1.44 5.164 1.738 20.307 1.341 15.144-.397 720.79-27.507 732.111-28.103 11.321-.596 28.301-6.256 29.94-30.138 1.539-23.882 43.395-657.087 43.793-664.386.397-7.299 2.334-19.066-1.787-23.138l-2.244-1.954"/><path fill="none" stroke="#FFF" stroke-width="1.5" stroke-miterlimit="10" d="M796.094 787.476c-2.731 40.267-4.518 66.732-4.766 70.803-1.291 21.648-14.846 29.195-27.606 29.99-12.76.794-728.685 30.734-744.077 31.28-15.392.497-20.307-7.795-19.563-16.683.149-1.837 3.029-24.081 6.604-58.34"/><path fill="none" stroke="#FFF" stroke-width=".5" stroke-miterlimit="10" d="M834.276 171.351c5.114 3.178 5.263 8.143 5.064 12.413-.447 8.044-28.55 432.861-40.367 605.251l-2.88-1.539h-.05c11.767-172.39 40.714-598.499 41.161-606.493.151-3.128-.296-6.703-2.928-9.632z"/><path fill="none" stroke="#FFF" stroke-width="1.5" stroke-miterlimit="10" d="M6.686 844.476c13.704-132.271 46.226-444.43 47.467-458.283 1.589-17.477 11.469-24.776 20.059-26.564 8.59-1.837 711.257-186.59 734.444-192.101 13.902-3.277 21.698-.546 25.57 3.823 2.632 2.929 3.376 6.753 3.327 9.732-.05 8.044-29.791 434.053-41.558 606.393"/><path fill="none" stroke="#FFF" stroke-width=".5" stroke-miterlimit="10" d="M796.094 215.342l-36.643 533.455-725.11 62.213 42.303-417.916 719.45-177.752zm-391.005 83.663c-1.092 0-3.426-.695-3.426-4.518s3.128-5.412 4.568-5.412 3.525 1.241 3.525 4.27c-.049 4.468-3.624 5.66-4.667 5.66zm18.421-9.633c.348.05.546.447.497.844-.05.447-.397.745-.695.695-.348-.05-.546-.447-.497-.844.049-.446.347-.744.695-.695zM6.686 844.525l789.408-57.049m-.099 0l-789.309 57"/></svg>