<svg xmlns="http://www.w3.org/2000/svg" xmlns:xlink="http://www.w3.org/1999/xlink" width="443" height="593.125" viewBox="90.625 0 443 593.125"><defs><path id="a" d="M361.01 316.043c-8.652 0-15.666 7.015-15.666 15.668v239.793c0 8.653 7.014 15.667 15.666 15.667h144.051c8.652 0 15.666-7.015 15.666-15.667V331.711c0-8.653-7.015-15.668-15.666-15.668H361.01zM262.761 38.46h-28.809l-.349.199-1.321.755-.761.435v1.883h-97.136c-7.807 0-15.148 3.038-20.67 8.553-5.522 5.516-8.564 12.851-8.564 20.652v25.422h-1.129l-.442.442-.755.755-.443.442v18.117l.443.443.755.755.442.442h1.129v16.615h-1.129l-.442.442-.755.755-.443.443v13.837l.443.443.755.755.442.443h1.129v16.363h-1.129l-.442.442-.755.755-.443.443v13.837l.443.442.755.755.442.443h1.129V415.3c0 7.801 3.042 15.137 8.564 20.652 5.522 5.515 12.863 8.553 20.67 8.553h133.352c7.807 0 15.149-3.037 20.67-8.553 5.522-5.516 8.564-12.851 8.564-20.652V283.107l-.159-7.309h65.559V144.976h-65.559l.159-8.107V70.937c0-7.802-3.042-15.137-8.564-20.652-5.522-5.515-12.864-8.553-20.67-8.553h-2.484v-1.751l-.592-.454-.984-.755-.407-.312h-.509zm58.079 8.922c0 23.146 18.764 41.91 41.91 41.91 10.907 0 20.838-4.169 28.294-10.996h100.341s8.161-.865 8.161-11.066v-8.023h21.3V35.556h-21.3v-8.022c0-10.202-8.161-11.066-8.161-11.066H391.044c-7.455-6.827-17.387-10.996-28.294-10.996-23.146 0-41.91 18.764-41.91 41.91"/></defs><clipPath id="b"><use xlink:href="#a" overflow="visible"/></clipPath><g clip-path="url(#b)"><defs><path id="c" d="M101.677 4.732h419.866v583.425H101.677z"/></defs><clipPath id="d"><use xlink:href="#c" overflow="visible"/></clipPath><g clip-path="url(#d)"><image overflow="visible" width="670" height="931" xlink:href="C24A2E07.jpg" transform="translate(101.677 4.732) scale(.6267)"/></g></g><defs><path id="e" d="M101.625 4.988h419.43v582.667h-419.43z"/></defs><clipPath id="f"><use xlink:href="#e" overflow="visible"/></clipPath><path clip-path="url(#f)" fill="none" stroke="#FFF" stroke-width=".5" stroke-miterlimit="10" d="M200.536 66.561c2.359 0 4.28-1.92 4.28-4.28 0-2.359-1.92-4.28-4.28-4.28-2.36 0-4.28 1.92-4.28 4.28a4.285 4.285 0 0 0 4.28 4.28zm.126 330.618c-9.384 0-16.992 7.608-16.992 16.992 0 9.385 7.608 16.992 16.992 16.992s16.992-7.607 16.992-16.992c0-9.384-7.608-16.992-16.992-16.992zm82.442-260.31v-36.735a2.014 2.014 0 0 0-2.014-2.014H119.982a2.014 2.014 0 0 0-2.014 2.014v285.968c0 1.112.902 2.014 2.014 2.014H281.09a2.014 2.014 0 0 0 2.014-2.014V283.107M186.439 81.254h27.691a3.776 3.776 0 1 0 0-7.552h-27.691a3.776 3.776 0 0 0 0 7.552zm104.217 201.853v132.174c0 12.773-10.405 23.164-23.193 23.164H134.112c-12.788 0-23.193-10.391-23.193-23.164V70.92c0-12.773 10.405-23.164 23.193-23.164h133.351c12.788 0 23.193 10.391 23.193 23.164v65.949"/><path clip-path="url(#f)" fill="none" stroke="#FFF" stroke-width=".5" stroke-miterlimit="10" d="M353.922 262.586l-53.089-53.094 53.089-53.094v106.188zm-181.531 5.034l52.351-52.344 22.628 22.625a17.593 17.593 0 0 0 12.524 5.19c4.731 0 9.182-1.845 12.524-5.19l22.629-22.628 52.347 52.347H172.391zm-6.524-111.21l53.089 53.082-53.089 53.09V156.41zm179.739-3.258l-78.968 78.968c-3.601 3.601-9.886 3.601-13.486 0l-78.981-78.968h171.435z"/><path fill="none" stroke="#FFF" stroke-width="1.5" stroke-miterlimit="10" d="M353.782 144.976H157.691v130.822h204.407V144.976h-7.071z"/><defs><path id="g" d="M101.625 4.988h419.43v582.667h-419.43z"/></defs><clipPath id="h"><use xlink:href="#g" overflow="visible"/></clipPath><path clip-path="url(#h)" fill="none" stroke="#FFF" stroke-width="1.5" stroke-miterlimit="10" d="M296.698 136.869V70.937c0-7.802-3.042-15.137-8.564-20.652-5.522-5.515-12.862-8.553-20.67-8.553h-2.484V39.98l-.591-.453-.983-.755-.407-.313h-29.32l-.349.199-1.32.755-.761.435v1.883h-97.136c-7.807 0-15.148 3.037-20.67 8.553-5.523 5.516-8.564 12.85-8.564 20.652v25.421h-1.129l-.442.442-.755.755-.443.442v18.117l.443.442.755.755.442.442h1.129v16.615h-1.129l-.442.442-.755.755-.443.442v13.837l.443.442.755.755.442.442h1.129v16.363h-1.129l-.442.443-.755.755-.443.443v13.838l.443.442.755.755.442.443h1.129V415.3c0 7.801 3.041 15.136 8.564 20.652 5.522 5.515 12.862 8.552 20.67 8.552h133.352c7.808 0 15.149-3.037 20.67-8.552 5.522-5.517 8.564-12.851 8.564-20.652V283.108M520.572 59.207h-21.301V35.555h21.301v23.652zM491.11 16.468H390.769c-7.455-6.828-17.386-10.996-28.293-10.996-23.146 0-41.91 18.764-41.91 41.91 0 23.146 18.764 41.909 41.91 41.909 10.907 0 20.837-4.168 28.293-10.996H491.11s8.161-.864 8.161-11.065V27.533c0-10.201-8.161-11.065-8.161-11.065z"/><path clip-path="url(#h)" fill="none" stroke="#FFF" stroke-width=".5" stroke-miterlimit="10" d="M469.413 56.494h-8.758v-18.81h8.758v18.81zm-14.253 0h-8.758v-18.81h8.758v18.81zm-14.252 0h-8.758v-18.81h8.758v18.81zm-14.253 0h-8.758v-18.81h8.758v18.81zm85.756-13.09h-2.766v-4.009h2.766v4.009zm0 11.964h-2.766v-4.009h2.766v4.009zm-31.035 3.84h-74.469a29.072 29.072 0 0 1-2.501-11.826c0-4.211.896-8.211 2.501-11.827h74.469a29.092 29.092 0 0 1 2.5 11.827c0 4.21-.896 8.21-2.5 11.826zm-92.073-.324c-4.465 10.398-14.794 17.682-26.827 17.682-16.118 0-29.184-13.066-29.184-29.184s13.066-29.185 29.184-29.185c12.033 0 22.363 7.284 26.827 17.682a29.093 29.093 0 0 0-2.358 11.503c0 4.084.842 7.972 2.358 11.502z"/><path clip-path="url(#h)" fill="none" stroke="#FFF" stroke-width="1.5" stroke-miterlimit="10" d="M520.454 571.505c0 8.653-7.015 15.667-15.667 15.667H360.736c-8.652 0-15.667-7.015-15.667-15.667V331.71c0-8.652 7.015-15.667 15.667-15.667h144.051c8.652 0 15.667 7.015 15.667 15.667v239.795z"/><path fill="#FFF" d="M383.161 560.857l-10.367-5.986 10.367-5.986zm99.55-11.972l10.368 5.986-10.368 5.986z"/><defs><path id="i" d="M101.625 4.988h419.43v582.667h-419.43z"/></defs><clipPath id="j"><use xlink:href="#i" overflow="visible"/></clipPath><path clip-path="url(#j)" fill="#FFF" d="M380.078 431.915h-1.24v-7.971c0-.663.021-1.29.061-1.882-.107.108-.227.22-.359.336-.133.118-.74.615-1.821 1.492l-.673-.872 2.96-2.288h1.071v11.185zm56.666 0h-7.352v-1.094l2.945-2.961c.898-.908 1.489-1.555 1.775-1.943.286-.388.5-.765.643-1.133.143-.367.215-.762.215-1.185 0-.597-.181-1.07-.543-1.419-.362-.349-.864-.524-1.507-.524-.464 0-.904.077-1.319.229-.416.153-.879.431-1.388.834l-.673-.864c1.03-.857 2.152-1.285 3.365-1.285 1.051 0 1.874.269 2.471.807.596.538.895 1.261.895 2.169 0 .708-.199 1.41-.596 2.103-.398.694-1.143 1.571-2.234 2.632l-2.448 2.394v.061h5.753v1.179zm52.357-8.553c0 .714-.2 1.298-.601 1.752-.4.454-.968.757-1.702.91v.061c.898.112 1.563.398 1.997.857.433.459.65 1.061.65 1.806 0 1.066-.369 1.885-1.109 2.459-.739.574-1.79.861-3.151.861a9.162 9.162 0 0 1-1.626-.133 5.569 5.569 0 0 1-1.434-.471v-1.209c.484.24 1 .422 1.549.547a7.012 7.012 0 0 0 1.557.188c1.933 0 2.899-.757 2.899-2.272 0-1.356-1.066-2.034-3.198-2.034h-1.102v-1.094h1.117c.872 0 1.563-.193 2.073-.578.51-.385.765-.92.765-1.603 0-.545-.188-.974-.562-1.285-.375-.311-.884-.466-1.526-.466-.49 0-.951.066-1.385.199-.434.133-.928.378-1.485.734l-.642-.857a5.348 5.348 0 0 1 1.587-.853 5.76 5.76 0 0 1 1.894-.31c1.086 0 1.93.249 2.532.746.602.496.903 1.178.903 2.045m-108.725 47.912v-3.718c0-.729.025-1.553.077-2.471h-.061c-.245.49-.474.895-.689 1.216l-3.496 4.972h4.169zm2.876 1.155h-1.66V475h-1.216v-2.571h-5.439v-1.109l5.309-7.566h1.347v7.52h1.66v1.155zm49.636-4.261c1.178 0 2.105.292 2.781.876.676.584 1.013 1.383 1.013 2.398 0 1.158-.368 2.066-1.105 2.723-.737.658-1.753.987-3.048.987-1.26 0-2.221-.201-2.884-.604v-1.224c.357.229.801.409 1.331.54.531.13 1.053.195 1.568.195.898 0 1.595-.211 2.092-.635.497-.423.746-1.035.746-1.836 0-1.561-.957-2.341-2.868-2.341-.485 0-1.133.074-1.943.222l-.658-.421.42-5.233h5.562v1.171h-4.475l-.283 3.358a8.912 8.912 0 0 1 1.751-.176m53.169 5.905c.724 0 1.287-.228 1.687-.685.4-.456.6-1.116.6-1.977 0-.74-.186-1.321-.558-1.745-.372-.423-.928-.634-1.668-.634-.459 0-.88.094-1.262.283a2.33 2.33 0 0 0-.914.78 1.796 1.796 0 0 0-.341 1.033c0 .525.102 1.015.306 1.469.204.454.494.813.868 1.078a2.16 2.16 0 0 0 1.282.398m-3.757-3.855c0-2.198.427-3.842 1.281-4.931.854-1.089 2.117-1.633 3.79-1.633.576 0 1.03.049 1.362.146v1.094a4.346 4.346 0 0 0-1.347-.191c-1.198 0-2.114.374-2.747 1.121-.632.747-.979 1.922-1.04 3.523h.092c.561-.877 1.448-1.316 2.662-1.316 1.005 0 1.796.304 2.375.91.579.607.868 1.43.868 2.471 0 1.162-.318 2.077-.953 2.742s-1.493.999-2.574.999c-1.158 0-2.076-.435-2.754-1.305-.676-.87-1.015-2.08-1.015-3.63"/><path fill="#FFF" d="M376.788 517.105l4.636-10.014h-6.097v-1.171h7.444v1.018l-4.575 10.167z"/><defs><path id="k" d="M101.625 4.988h419.43v582.667h-419.43z"/></defs><clipPath id="l"><use xlink:href="#k" overflow="visible"/></clipPath><path clip-path="url(#l)" fill="#FFF" d="M433.079 506.792c-.637 0-1.137.153-1.499.459-.362.306-.543.714-.543 1.224 0 .469.15.872.451 1.209s.857.674 1.668 1.01c.729-.306 1.246-.635 1.549-.987.304-.352.455-.763.455-1.232 0-.515-.185-.924-.554-1.228-.371-.302-.879-.455-1.527-.455m-2.402 7.49c0 .612.213 1.089.639 1.43.425.342 1.024.513 1.794.513.76 0 1.351-.179 1.775-.536.423-.356.635-.846.635-1.468 0-.495-.199-.935-.596-1.32-.398-.385-1.092-.759-2.081-1.121-.759.326-1.31.687-1.652 1.082s-.514.869-.514 1.42m2.418-8.522c1.02 0 1.829.237 2.425.712.597.474.895 1.129.895 1.966 0 .551-.171 1.053-.512 1.507-.342.454-.888.867-1.637 1.239.908.434 1.553.889 1.935 1.366.383.477.574 1.029.574 1.656 0 .928-.324 1.669-.971 2.223-.648.553-1.535.83-2.662.83-1.193 0-2.111-.261-2.754-.784s-.964-1.263-.964-2.223c0-1.28.78-2.277 2.341-2.991-.704-.398-1.209-.828-1.515-1.289a2.743 2.743 0 0 1-.459-1.549c0-.811.3-1.457.899-1.939.598-.483 1.4-.724 2.405-.724m-2.402 48.339c0 1.627.191 2.811.574 3.553.382.743.992 1.113 1.828 1.113.846 0 1.46-.376 1.84-1.128.38-.752.57-1.932.57-3.538 0-1.606-.19-2.783-.57-3.53-.38-.747-.994-1.121-1.84-1.121-.836 0-1.446.369-1.828 1.105-.384.737-.574 1.919-.574 3.546m6.112 0c0 1.933-.305 3.376-.914 4.33-.61.954-1.541 1.43-2.796 1.43-1.203 0-2.119-.488-2.746-1.465-.628-.977-.941-2.409-.941-4.296 0-1.948.304-3.394.91-4.338.607-.944 1.533-1.416 2.777-1.416 1.214 0 2.136.492 2.765 1.477.63.986.945 2.411.945 4.278m48.953-47.253c-.729 0-1.292.235-1.691.703-.398.469-.596 1.122-.596 1.959 0 .734.184 1.312.551 1.733.367.42.926.631 1.675.631.464 0 .891-.095 1.281-.283.39-.189.697-.447.922-.773.224-.326.337-.668.337-1.025 0-.536-.104-1.03-.313-1.485a2.6 2.6 0 0 0-.876-1.071 2.217 2.217 0 0 0-1.29-.389m3.764 3.848c0 4.376-1.693 6.564-5.079 6.564-.592 0-1.061-.052-1.408-.153v-1.094c.408.133.872.199 1.392.199 1.224 0 2.148-.379 2.773-1.136.625-.757.965-1.918 1.021-3.484h-.092c-.28.423-.653.746-1.117.968a3.586 3.586 0 0 1-1.568.333c-.989 0-1.775-.296-2.357-.888-.581-.591-.872-1.417-.872-2.478 0-1.163.326-2.081.976-2.754.65-.673 1.505-1.01 2.566-1.01.76 0 1.424.195 1.993.585.569.39 1.006.959 1.312 1.706.307.746.46 1.627.46 2.642"/><path clip-path="url(#l)" fill="none" stroke="#FFF" stroke-width=".5" stroke-miterlimit="10" d="M345.069 392.638h175.385m-22.685 162.233c0 6.444-5.224 11.669-11.669 11.669s-11.669-5.224-11.669-11.669 5.224-11.669 11.669-11.669c6.444 0 11.669 5.225 11.669 11.669zm-53.339 0c0 6.444-5.225 11.669-11.669 11.669-6.445 0-11.669-5.224-11.669-11.669s5.224-11.669 11.669-11.669 11.669 5.225 11.669 11.669zm-53.339 0c0 6.444-5.224 11.669-11.669 11.669s-11.669-5.224-11.669-11.669 5.224-11.669 11.669-11.669 11.669 5.225 11.669 11.669zm106.678-42.59c0 6.445-5.224 11.669-11.669 11.669s-11.669-5.225-11.669-11.669c0-6.444 5.224-11.669 11.669-11.669 6.444 0 11.669 5.224 11.669 11.669zm-53.339 0c0 6.445-5.225 11.669-11.669 11.669-6.445 0-11.669-5.225-11.669-11.669 0-6.444 5.224-11.669 11.669-11.669s11.669 5.224 11.669 11.669zm-53.339 0c0 6.445-5.224 11.669-11.669 11.669s-11.669-5.225-11.669-11.669c0-6.444 5.224-11.669 11.669-11.669s11.669 5.224 11.669 11.669zm106.678-42.59c0 6.444-5.224 11.669-11.669 11.669s-11.669-5.224-11.669-11.669 5.224-11.669 11.669-11.669c6.444 0 11.669 5.224 11.669 11.669zm-53.339 0c0 6.444-5.225 11.669-11.669 11.669-6.445 0-11.669-5.224-11.669-11.669s5.224-11.669 11.669-11.669 11.669 5.224 11.669 11.669zm-53.339 0c0 6.444-5.224 11.669-11.669 11.669s-11.669-5.224-11.669-11.669 5.224-11.669 11.669-11.669 11.669 5.224 11.669 11.669zM497.769 427.1c0 6.445-5.224 11.669-11.669 11.669s-11.669-5.224-11.669-11.669c0-6.444 5.224-11.669 11.669-11.669 6.444.001 11.669 5.225 11.669 11.669zm-53.339 0c0 6.445-5.225 11.669-11.669 11.669-6.445 0-11.669-5.224-11.669-11.669 0-6.444 5.224-11.669 11.669-11.669 6.445.001 11.669 5.225 11.669 11.669zm-53.339 0c0 6.445-5.224 11.669-11.669 11.669s-11.669-5.224-11.669-11.669c0-6.444 5.224-11.669 11.669-11.669 6.445.001 11.669 5.225 11.669 11.669zm91.718-49.911a3.917 3.917 0 0 1-3.917 3.917H386.63a3.917 3.917 0 0 1-3.917-3.917V347.16a3.917 3.917 0 0 1 3.917-3.917h92.262a3.917 3.917 0 0 1 3.917 3.917v30.029z"/><path fill="none" stroke="#FFF" stroke-width=".5" stroke-miterlimit="10" d="M473.888 376.1h-7.072v-26.112h7.072V376.1zm-25.242 0h-7.072v-26.112h7.072V376.1zm-25.241 0h-7.072v-26.112h7.072V376.1zm-25.242 0h-7.072v-26.112h7.072V376.1z"/></svg>