<svg xmlns="http://www.w3.org/2000/svg" width="895.455" height="883.456" viewBox="0 0 895.455 883.456"><path fill="none" stroke="#FFF" stroke-width="1.5" stroke-miterlimit="10" d="M9.452 403.812c-6.211-5.033-6.103-15.297 7.752-23.288l631.12-363.998c13.817-7.968 23.425-3.323 24.507 4.655"/><path fill="none" stroke="#FFF" stroke-width="1.5" stroke-miterlimit="10" d="M191.947 504.891c-10.52 6.074-23.577 8.004-29.106 4.302L9.479 403.86c-5.57-3.923 1.171-13.625 15.024-21.616L646.967 23.169c13.818-7.971 25.42-8.859 25.863-1.988l10.32 187.624c.307 6.712-7.986 17.1-18.478 23.158L191.947 504.891z"/><path fill="none" stroke="#FFF" stroke-width=".5" stroke-miterlimit="10" d="M680.122 211.99c.282 5.415-6.415 13.8-14.948 18.728L190.765 504.615c-8.552 4.938-19.093 6.5-23.54 3.484L14.891 402.219c-4.483-3.194.96-11.023 12.153-17.481L647.89 26.593c11.164-6.44 20.534-7.163 20.918-1.613l11.314 187.01z"/><path fill="none" stroke="#FFF" stroke-width=".5" stroke-miterlimit="10" d="M662.098 213.397L178.084 492.82 46.46 395.022 646.978 48.574zm-315.14-1.707c.513.931-.978 2.785-3.33 4.141-2.356 1.359-4.687 1.709-5.205.783-.523-.924.969-2.779 3.335-4.145 2.363-1.362 4.69-1.711 5.2-.779z"/><path fill="none" stroke="#FFF" stroke-width="1.5" stroke-miterlimit="10" d="M669.37 232.926l-34.998 20.206 7.692 13.322c.37.641.146 1.462-.502 1.837L239.269 500.555a1.347 1.347 0 0 1-1.842-.484l-7.692-13.322-34.998 20.206c-10.893 6.289-14.626 20.219-8.336 31.112l184.525 319.606c6.289 10.893 20.219 14.626 31.112 8.336L876.67 591.98c10.893-6.289 14.626-20.219 8.336-31.112L700.482 241.263c-6.29-10.894-20.219-14.626-31.112-8.337z"/><path fill="none" stroke="#FFF" stroke-width="1.5" stroke-miterlimit="10" d="M770.337 439.893c2.374 4.112.842 9.482-3.398 11.929L335.522 700.901c-4.242 2.449-9.656 1.09-12.03-3.022l-94.92-164.406c-2.375-4.113-.845-9.48 3.398-11.93l431.417-249.079c4.24-2.448 9.655-1.091 12.03 3.022l94.92 164.407z"/><path fill="none" stroke="#FFF" stroke-width="1.5" stroke-miterlimit="10" d="M770.337 439.893c2.374 4.112.842 9.482-3.398 11.929L335.522 700.901c-4.242 2.449-9.656 1.09-12.03-3.022l-94.92-164.406c-2.375-4.113-.845-9.48 3.398-11.93l431.417-249.079c4.24-2.448 9.655-1.091 12.03 3.022l94.92 164.407z"/><path fill="none" stroke="#FFF" stroke-width=".5" stroke-miterlimit="10" d="M319.8 536.482c1.121 1.942.408 4.454-1.595 5.61l-19.149 11.055c-2.003 1.157-4.537.52-5.659-1.422l-10.717-18.562c-1.121-1.942-.406-4.455 1.597-5.612l19.149-11.055c2.003-1.157 4.535-.518 5.656 1.424l10.718 18.562zm-29.425 16.989c1.121 1.942.406 4.455-1.597 5.612l-19.149 11.056c-2.003 1.157-4.537.52-5.658-1.422l-10.717-18.562c-1.121-1.942-.406-4.455 1.597-5.612L274 533.487c2.003-1.156 4.537-.52 5.658 1.422l10.717 18.562zm88.278-50.968c1.121 1.942.408 4.454-1.597 5.612l-19.146 11.054c-2.003 1.157-4.537.52-5.659-1.422l-10.717-18.562c-1.121-1.942-.406-4.455 1.597-5.612l19.146-11.054c2.005-1.158 4.537-.52 5.658 1.422l10.718 18.562zm-29.425 16.989c1.121 1.942.406 4.455-1.597 5.612l-19.149 11.055c-2.003 1.157-4.537.52-5.659-1.422l-10.717-18.562c-1.121-1.942-.406-4.455 1.598-5.612l19.149-11.055c2.003-1.156 4.537-.52 5.658 1.422l10.717 18.562zm88.482-51.085c1.121 1.942.406 4.455-1.597 5.612l-19.149 11.055c-2.003 1.157-4.537.52-5.659-1.422l-10.717-18.562c-1.121-1.942-.406-4.455 1.598-5.612l19.149-11.055c2.003-1.157 4.537-.52 5.659 1.422l10.716 18.562zm-29.425 16.988c1.121 1.942.404 4.456-1.6 5.613l-19.146 11.054c-2.003 1.156-4.537.52-5.658-1.422l-10.717-18.562c-1.121-1.942-.406-4.455 1.597-5.612l19.146-11.054c2.003-1.157 4.54-.521 5.661 1.421l10.717 18.562zm88.276-50.966c1.121 1.942.41 4.452-1.598 5.612l-19.146 11.054c-2.003 1.157-4.537.52-5.659-1.422l-10.717-18.562c-1.121-1.942-.406-4.455 1.598-5.612l19.146-11.054c2.008-1.159 4.537-.52 5.659 1.422l10.717 18.562zm-29.425 16.989c1.121 1.942.406 4.455-1.598 5.612l-19.146 11.054c-2.003 1.157-4.537.52-5.659-1.422L430.016 448.1c-1.121-1.942-.406-4.455 1.598-5.612l19.146-11.054c2.003-1.157 4.537-.52 5.659 1.422l10.717 18.562zm59.054-34.095c1.121 1.942.408 4.454-1.595 5.61l-19.149 11.055c-2.003 1.157-4.537.52-5.659-1.422l-10.717-18.562c-1.121-1.942-.406-4.455 1.598-5.612l19.149-11.055c2.003-1.157 4.535-.518 5.656 1.424l10.717 18.562zm59.055-34.096c1.121 1.942.408 4.454-1.595 5.61l-19.149 11.055c-2.003 1.156-4.537.52-5.659-1.422l-10.717-18.562c-1.121-1.942-.406-4.455 1.597-5.612l19.149-11.055c2.003-1.157 4.535-.518 5.656 1.424l10.718 18.562zm-29.425 16.989c1.121 1.942.406 4.455-1.597 5.612l-19.149 11.055c-2.003 1.157-4.537.52-5.659-1.422l-10.717-18.562c-1.121-1.942-.406-4.455 1.598-5.612l19.149-11.055c2.003-1.157 4.537-.52 5.659 1.422l10.716 18.562zm88.278-50.968c1.121 1.942.408 4.454-1.595 5.61l-19.149 11.055c-2.003 1.157-4.537.52-5.659-1.422l-10.717-18.562c-1.121-1.942-.406-4.455 1.597-5.612l19.149-11.055c2.003-1.157 4.535-.518 5.656 1.424l10.718 18.562zm-29.423 16.988c1.121 1.942.406 4.455-1.6 5.613l-19.146 11.054c-2.003 1.157-4.537.52-5.658-1.422l-10.717-18.562c-1.121-1.942-.406-4.455 1.597-5.612l19.146-11.054c2.005-1.158 4.54-.521 5.661 1.421l10.717 18.562zm-28.44 53.152c1.121 1.942.406 4.455-1.598 5.612l-19.146 11.054c-2.006 1.158-4.535.518-5.656-1.424l-10.717-18.562c-1.121-1.942-.41-4.452 1.595-5.61l19.146-11.054c2.003-1.157 4.537-.52 5.659 1.422l10.717 18.562zm59.057-34.097c1.121 1.942.403 4.456-1.6 5.613l-19.144 11.053c-2.006 1.158-4.537.52-5.659-1.422l-10.717-18.562c-1.121-1.942-.408-4.454 1.598-5.612l19.144-11.053c2.003-1.156 4.54-.521 5.661 1.421l10.717 18.562zm-29.427 16.99c1.121 1.942.408 4.454-1.595 5.61l-19.149 11.055c-2.003 1.157-4.537.52-5.659-1.422l-10.717-18.562c-1.121-1.942-.406-4.455 1.598-5.612l19.149-11.055c2.003-1.156 4.535-.518 5.656 1.424l10.717 18.562zm88.28-50.969c1.121 1.942.406 4.455-1.598 5.612l-19.146 11.054c-2.006 1.158-4.54.521-5.661-1.421l-10.717-18.562c-1.121-1.942-.406-4.455 1.6-5.613l19.146-11.054c2.003-1.157 4.537-.52 5.659 1.422l10.717 18.562zm-29.427 16.99c1.121 1.942.406 4.455-1.598 5.612l-19.149 11.055c-2.003 1.157-4.537.52-5.658-1.422l-10.717-18.562c-1.121-1.942-.406-4.455 1.597-5.612l19.149-11.055c2.003-1.157 4.537-.52 5.659 1.422l10.717 18.562zM438.7 504.567c1.121 1.942.406 4.455-1.598 5.612l-19.149 11.055c-2.003 1.157-4.537.52-5.658-1.422l-10.717-18.562c-1.121-1.942-.406-4.455 1.597-5.612l19.149-11.055c2.003-1.157 4.537-.52 5.659 1.422l10.717 18.562zm59.055-34.095c1.121 1.942.406 4.455-1.597 5.612l-19.149 11.055c-2.003 1.157-4.537.52-5.659-1.422l-10.717-18.562c-1.121-1.942-.406-4.455 1.597-5.612l19.149-11.056c2.003-1.157 4.537-.52 5.658 1.422l10.718 18.563zm-29.428 16.99c1.121 1.942.406 4.455-1.597 5.612l-19.149 11.055c-2.003 1.157-4.535.518-5.656-1.424l-10.717-18.562c-1.121-1.942-.408-4.454 1.595-5.61l19.149-11.055c2.003-1.156 4.537-.52 5.658 1.422l10.717 18.562zm-117.908 68.074c1.121 1.942.406 4.455-1.598 5.612l-19.149 11.055c-2.003 1.157-4.535.518-5.656-1.424l-10.717-18.562c-1.121-1.942-.408-4.454 1.595-5.61l19.149-11.055c2.003-1.157 4.537-.52 5.659 1.422l10.717 18.562zm59.055-34.095c1.121 1.942.406 4.455-1.597 5.612l-19.146 11.054c-2.003 1.157-4.54.521-5.661-1.421l-10.717-18.562c-1.121-1.942-.404-4.456 1.6-5.613l19.146-11.054c2.003-1.157 4.537-.52 5.659 1.422l10.716 18.562zm-29.425 16.989c1.121 1.942.406 4.455-1.6 5.613l-19.146 11.054c-2.003 1.157-4.537.52-5.658-1.422l-10.717-18.562c-1.121-1.942-.406-4.455 1.597-5.612l19.146-11.054c2.005-1.158 4.54-.521 5.661 1.421l10.717 18.562zm176.559-101.937c1.121 1.942.406 4.455-1.597 5.612l-19.146 11.054c-2.005 1.158-4.54.521-5.661-1.421l-10.717-18.562c-1.121-1.942-.406-4.455 1.6-5.613l19.146-11.054c2.003-1.157 4.537-.52 5.658 1.422l10.717 18.562zm-29.428 16.99c1.121 1.942.406 4.455-1.597 5.612l-19.149 11.055c-2.003 1.157-4.535.518-5.656-1.424l-10.717-18.562c-1.121-1.942-.408-4.454 1.595-5.61l19.149-11.055c2.003-1.156 4.537-.52 5.658 1.422l10.717 18.562zm82.454-10.093c1.121 1.942.406 4.455-1.597 5.612l-19.146 11.054c-2.003 1.157-4.54.521-5.661-1.421l-10.716-18.56c-1.121-1.942-.403-4.456 1.6-5.613l19.146-11.054c2.003-1.157 4.537-.52 5.659 1.422l10.715 18.56zm59.055-34.096c1.121 1.942.406 4.455-1.595 5.61l-19.151 11.057c-2.003 1.157-4.535.518-5.656-1.424l-10.716-18.56c-1.121-1.942-.408-4.454 1.595-5.61l19.151-11.057c2.001-1.155 4.535-.518 5.656 1.424l10.716 18.56zm-29.427 16.991c1.121 1.942.406 4.455-1.597 5.612l-19.144 11.053c-2.003 1.157-4.537.52-5.659-1.422l-10.716-18.56c-1.121-1.942-.406-4.455 1.597-5.612l19.144-11.053c2.003-1.157 4.537-.52 5.659 1.422l10.716 18.56zM462.097 528.57c1.121 1.942.406 4.455-1.598 5.612l-19.146 11.054c-2.003 1.157-4.537.52-5.659-1.422l-10.716-18.56c-1.121-1.942-.406-4.455 1.598-5.612l19.146-11.054c2.003-1.157 4.537-.52 5.659 1.422l10.716 18.56zm59.055-34.095c1.121 1.942.408 4.454-1.595 5.61l-19.149 11.055c-2.003 1.156-4.537.52-5.659-1.422l-10.716-18.56c-1.121-1.942-.406-4.455 1.597-5.612l19.149-11.055c2.003-1.157 4.535-.518 5.656 1.424l10.717 18.56zm-29.425 16.989c1.121 1.942.406 4.455-1.598 5.612l-19.149 11.055c-2.003 1.157-4.537.52-5.659-1.422l-10.716-18.56c-1.121-1.942-.406-4.455 1.597-5.612l19.149-11.055c2.003-1.157 4.537-.52 5.659 1.422l10.717 18.56zm-117.911 68.075c1.121 1.942.406 4.455-1.598 5.612l-19.146 11.054c-2.003 1.157-4.537.52-5.659-1.422l-10.716-18.56c-1.121-1.942-.406-4.455 1.598-5.612l19.146-11.054c2.003-1.157 4.537-.52 5.659 1.422l10.716 18.56zm59.055-34.095c1.121 1.942.408 4.454-1.597 5.612l-19.146 11.054c-2.003 1.156-4.535.518-5.656-1.424l-10.716-18.56c-1.121-1.942-.408-4.454 1.595-5.61l19.146-11.054c2.005-1.158 4.537-.52 5.659 1.422l10.715 18.56zm-29.425 16.989c1.121 1.942.406 4.455-1.598 5.612l-19.146 11.054c-2.005 1.158-4.54.521-5.661-1.421l-10.716-18.56c-1.121-1.942-.406-4.455 1.6-5.613l19.146-11.054c2.003-1.157 4.537-.52 5.659 1.422l10.716 18.56zm176.561-101.938c1.121 1.942.406 4.455-1.598 5.612l-19.149 11.055c-2.003 1.156-4.537.52-5.659-1.422l-10.716-18.56c-1.121-1.942-.406-4.455 1.597-5.612l19.149-11.055c2.003-1.157 4.537-.52 5.659 1.422l10.717 18.56zm-29.427 16.99c1.121 1.942.408 4.454-1.598 5.612l-19.149 11.055c-2.003 1.157-4.537.52-5.659-1.422l-10.716-18.56c-1.121-1.942-.406-4.455 1.597-5.612l19.149-11.055c2.006-1.158 4.537-.52 5.659 1.422l10.717 18.56zm89.741-14.69c1.121 1.942.408 4.454-1.598 5.612l-19.146 11.054c-2.003 1.157-4.535.518-5.656-1.424l-10.715-18.559c-1.122-1.943-.409-4.455 1.595-5.611l19.146-11.054c2.006-1.158 4.537-.52 5.659 1.423l10.715 18.559zm29.629-17.107c1.121 1.942.408 4.454-1.598 5.612l-19.149 11.055c-2.001 1.155-4.537.52-5.659-1.422l-10.715-18.559c-1.122-1.943-.404-4.457 1.597-5.613l19.149-11.055c2.006-1.158 4.537-.52 5.659 1.423l10.716 18.559zM492.786 547.974c1.121 1.942.406 4.455-1.598 5.612l-19.149 11.055c-2.003 1.156-4.537.52-5.659-1.422l-10.715-18.559c-1.122-1.943-.406-4.456 1.597-5.613l19.149-11.055c2.003-1.157 4.537-.52 5.659 1.423l10.716 18.559zm59.057-34.096c1.121 1.942.403 4.456-1.6 5.613l-19.146 11.054c-2.005 1.158-4.537.52-5.659-1.422l-10.715-18.559c-1.122-1.943-.409-4.455 1.597-5.613l19.146-11.054c2.003-1.156 4.54-.521 5.661 1.422l10.716 18.559zm-29.43 16.991c1.121 1.942.406 4.455-1.597 5.612l-19.149 11.055c-2.003 1.157-4.535.518-5.656-1.424l-10.715-18.559c-1.122-1.943-.409-4.455 1.595-5.611l19.149-11.055c2.003-1.157 4.537-.52 5.659 1.424l10.714 18.558zm-117.908 68.074c1.121 1.942.406 4.455-1.598 5.612l-19.146 11.054c-2.003 1.157-4.54.521-5.661-1.421l-10.715-18.559c-1.122-1.943-.404-4.457 1.599-5.614l19.146-11.054c2.003-1.157 4.537-.52 5.659 1.423l10.716 18.559zm-48.074 68.941c1.271 2.201.677 4.925-1.326 6.082l-19.149 11.055c-2.003 1.157-4.659.309-5.93-1.893l-12.148-21.041c-1.271-2.201-.677-4.924 1.327-6.081l19.149-11.056c2.003-1.156 4.658-.31 5.929 1.891l12.148 21.043zm29.426-16.988c1.271 2.201.68 4.924-1.324 6.081l-19.149 11.055c-2.003 1.156-4.659.309-5.93-1.893l-12.148-21.041c-1.271-2.201-.677-4.924 1.327-6.081l19.149-11.055c2.003-1.157 4.656-.309 5.927 1.893l12.148 21.041zm29.427-16.991c1.271 2.201.677 4.925-1.326 6.082l-19.149 11.055c-2.003 1.157-4.659.309-5.93-1.893l-12.148-21.041c-1.271-2.201-.677-4.924 1.327-6.081l19.149-11.055c2.003-1.157 4.658-.31 5.929 1.891l12.148 21.042zm250.732-144.759c1.271 2.201.679 4.924-1.324 6.081l-19.149 11.055c-2.003 1.157-4.659.309-5.93-1.893l-12.148-21.041c-1.271-2.201-.677-4.924 1.327-6.081l19.149-11.055c2.003-1.157 4.656-.309 5.927 1.893l12.148 21.041zM463.56 564.848c1.121 1.942.406 4.455-1.597 5.612l-19.146 11.054c-2.003 1.157-4.537.52-5.659-1.422l-10.715-18.559c-1.122-1.943-.406-4.456 1.597-5.613l19.146-11.054c2.003-1.157 4.537-.52 5.659 1.423l10.715 18.559zm-29.426 16.989c1.121 1.942.404 4.456-1.6 5.613l-19.146 11.054c-2.003 1.156-4.537.52-5.659-1.422l-10.715-18.559c-1.122-1.943-.406-4.456 1.597-5.613l19.146-11.054c2.003-1.157 4.54-.521 5.661 1.422l10.716 18.559zM610.693 479.9c1.121 1.942.406 4.455-1.597 5.612l-19.149 11.055c-2.003 1.157-4.537.52-5.659-1.422l-10.715-18.559c-1.122-1.943-.406-4.456 1.597-5.613l19.149-11.055c2.003-1.156 4.537-.52 5.659 1.424l10.715 18.558zm-29.427 16.99c1.121 1.942.406 4.455-1.598 5.612l-19.146 11.054c-2.003 1.157-4.537.52-5.659-1.422l-10.715-18.559c-1.122-1.943-.406-4.456 1.597-5.613l19.146-11.054c2.003-1.157 4.537-.52 5.659 1.423l10.716 18.559zm-307.135 28.446c1.121 1.942.405 4.454-1.598 5.61l-19.149 11.056c-2.003 1.156-4.537.521-5.658-1.421l-4.569-7.913c-1.121-1.942-.405-4.454 1.598-5.611l19.149-11.055c2.003-1.157 4.537-.521 5.658 1.421l4.569 7.913zm30.937-17.862c1.121 1.942.405 4.454-1.598 5.611l-19.146 11.054c-2.006 1.158-4.539.522-5.66-1.42l-4.569-7.913c-1.121-1.942-.405-4.454 1.6-5.612l19.146-11.054c2.003-1.157 4.537-.521 5.658 1.421l4.569 7.913zm30.234-17.455c1.121 1.942.405 4.454-1.598 5.611l-19.146 11.054c-2.003 1.157-4.537.521-5.658-1.421l-4.569-7.913c-1.121-1.942-.405-4.454 1.598-5.611l19.146-11.054c2.003-1.157 4.537-.521 5.658 1.421l4.569 7.913zm30.937-17.862c1.121 1.942.407 4.453-1.598 5.61l-19.146 11.054c-2.003 1.157-4.537.521-5.658-1.421l-4.569-7.913c-1.121-1.942-.405-4.454 1.598-5.61l19.146-11.054c2.005-1.158 4.537-.521 5.658 1.421l4.569 7.913zm29.983-17.31c1.121 1.942.405 4.454-1.598 5.61l-19.149 11.055c-2.003 1.157-4.537.521-5.658-1.421l-4.569-7.913c-1.121-1.942-.405-4.454 1.598-5.611l19.149-11.055c2.003-1.157 4.537-.521 5.658 1.421l4.569 7.914zm30.937-17.862c1.121 1.942.405 4.454-1.598 5.611l-19.146 11.054c-2.005 1.158-4.537.521-5.658-1.421l-4.569-7.913c-1.121-1.942-.407-4.453 1.598-5.611l19.146-11.054c2.003-1.157 4.537-.521 5.658 1.421l4.569 7.913zm30.486-17.601c1.121 1.942.405 4.454-1.598 5.611l-19.149 11.055c-2.003 1.156-4.537.521-5.658-1.421l-4.569-7.913c-1.121-1.942-.405-4.454 1.598-5.611l19.149-11.055c2.003-1.157 4.537-.521 5.658 1.421l4.569 7.913zm30.937-17.861c1.121 1.942.405 4.454-1.598 5.611l-19.146 11.054c-2.003 1.156-4.537.521-5.658-1.421l-4.569-7.913c-1.121-1.942-.405-4.454 1.598-5.611l19.146-11.054c2.003-1.156 4.537-.521 5.658 1.421l4.569 7.913zm30.237-17.458c1.121 1.942.405 4.454-1.598 5.611l-19.149 11.055c-2.003 1.157-4.537.521-5.658-1.421l-4.569-7.913c-1.121-1.942-.405-4.454 1.598-5.61l19.149-11.055c2.003-1.157 4.537-.521 5.658 1.421l4.569 7.912zm30.934-17.86c1.121 1.942.407 4.453-1.596 5.609l-19.149 11.055c-2.003 1.157-4.537.521-5.658-1.421l-4.569-7.913c-1.121-1.942-.405-4.454 1.598-5.611l19.149-11.055c2.003-1.157 4.534-.519 5.656 1.423l4.569 7.913zm29.983-17.31c1.121 1.942.405 4.454-1.598 5.611l-19.149 11.055c-2.003 1.156-4.534.52-5.656-1.423l-4.569-7.913c-1.121-1.942-.407-4.453 1.596-5.609l19.149-11.055c2.003-1.157 4.537-.521 5.658 1.421l4.569 7.913zm30.937-17.862c1.121 1.942.405 4.454-1.596 5.609l-19.149 11.056c-2.005 1.158-4.537.521-5.658-1.421l-4.569-7.913c-1.121-1.942-.407-4.453 1.598-5.611l19.149-11.056c2.001-1.155 4.534-.519 5.656 1.423l4.569 7.913zm30.386-17.543c1.121 1.942.405 4.454-1.598 5.611l-19.149 11.056c-2.003 1.157-4.537.521-5.658-1.421l-4.569-7.913c-1.121-1.942-.405-4.454 1.598-5.611l19.149-11.056c2.003-1.157 4.537-.521 5.658 1.421l4.569 7.913zm30.937-17.862c1.121 1.942.405 4.454-1.598 5.611l-19.146 11.054c-2.006 1.158-4.537.521-5.658-1.421l-4.569-7.913c-1.121-1.942-.407-4.453 1.598-5.611l19.146-11.054c2.003-1.157 4.537-.521 5.658 1.421l4.569 7.913zM320.69 572.7c1.121 1.942.406 4.455-1.597 5.612l-33.559 19.375c-2.003 1.157-4.537.52-5.658-1.422l-10.717-18.562c-1.121-1.942-.406-4.455 1.597-5.612l33.559-19.375c2.003-1.157 4.537-.52 5.658 1.422L320.69 572.7zm23.803 23.769c1.121 1.942.406 4.455-1.598 5.612l-41.119 23.74c-2.003 1.157-4.537.52-5.659-1.422l-10.716-18.56c-1.121-1.942-.406-4.455 1.597-5.612l41.119-23.74c2.003-1.157 4.537-.52 5.659 1.422l10.717 18.56zm31.189 19.115c1.121 1.942.406 4.455-1.598 5.612l-56.233 32.466c-2.003 1.157-4.537.52-5.659-1.422l-10.715-18.559c-1.122-1.943-.406-4.456 1.597-5.613l56.233-32.466c2.003-1.157 4.537-.52 5.659 1.423l10.716 18.559zm76.558-2.388c1.121 1.942.404 4.456-1.6 5.613l-26.402 15.243c-2.003 1.157-4.537.52-5.658-1.422l-12.69-21.98c-1.121-1.942-.406-4.455 1.597-5.612l26.402-15.243c2.003-1.157 4.54-.521 5.661 1.421l12.69 21.98zm183.715-106.068c1.121 1.942.406 4.455-1.598 5.612l-26.405 15.245c-2.003 1.156-4.537.52-5.658-1.422l-12.69-21.98c-1.121-1.942-.406-4.455 1.597-5.612l26.405-15.245c2.003-1.157 4.537-.52 5.659 1.422l12.69 21.98zm52.285-183.365c1.121 1.942.406 4.455-1.598 5.612l-34.465 19.899c-2.003 1.157-4.54.521-5.661-1.421l-10.717-18.562c-1.121-1.942-.403-4.456 1.6-5.613l34.465-19.899c2.003-1.157 4.537-.52 5.659 1.422l10.717 18.562zm32.15 55.682c1.121 1.942.404 4.456-1.6 5.613l-41.52 23.971c-2.003 1.157-4.537.52-5.659-1.422l-10.716-18.56c-1.121-1.942-.406-4.455 1.598-5.612l41.52-23.971c2.003-1.157 4.54-.521 5.661 1.421l10.716 18.56zm16.073 27.842c1.121 1.942.406 4.455-1.598 5.612l-56.029 32.349c-2.008 1.159-4.54.521-5.661-1.421l-10.715-18.559c-1.122-1.943-.409-4.455 1.599-5.614l56.029-32.349c2.003-1.157 4.537-.52 5.659 1.423l10.716 18.559zm-40.748 65.339c1.121 1.942.403 4.456-1.6 5.613l-19.144 11.053c-2.006 1.158-4.537.52-5.659-1.422l-4.314-7.473c-1.122-1.943-.409-4.455 1.597-5.613l19.144-11.053c2.003-1.157 4.54-.521 5.661 1.422l4.315 7.473zm58.853-33.979c1.121 1.942.406 4.455-1.598 5.612l-19.146 11.054c-2.006 1.158-4.54.521-5.661-1.421l-4.314-7.473c-1.122-1.943-.406-4.456 1.599-5.614l19.146-11.054c2.003-1.157 4.537-.52 5.659 1.423l4.315 7.473zm-29.428 16.99c1.121 1.942.406 4.455-1.598 5.612l-19.149 11.055c-2.003 1.157-4.537.52-5.659-1.422l-12.69-21.98c-1.121-1.942-.406-4.455 1.597-5.612l19.149-11.055c2.003-1.157 4.537-.52 5.659 1.422l12.691 21.98zM599.371 528.25c1.121 1.942.406 4.455-1.598 5.612l-136.852 79.011c-2.003 1.157-4.537.52-5.659-1.422l-12.69-21.98c-1.121-1.942-.406-4.455 1.597-5.612l136.853-79.012c2.003-1.157 4.537-.52 5.659 1.422l12.69 21.981z"/><path fill="none" stroke="#FFF" stroke-width="1.5" stroke-miterlimit="10" d="M711.366 661.694a6.699 6.699 0 0 1-2.452 9.151l-154.7 89.316a6.7 6.7 0 0 1-9.151-2.452l-63.191-109.45a6.7 6.7 0 0 1 2.452-9.151l154.7-89.316a6.698 6.698 0 0 1 9.151 2.452l63.191 109.45zm-69.302-395.239c.37.641.146 1.462-.502 1.837L239.269 500.555a1.346 1.346 0 0 1-1.841-.484l-9.043-15.663a1.348 1.348 0 0 1 .502-1.837L631.18 250.307a1.345 1.345 0 0 1 1.841.484l9.043 15.664z"/></svg>