<svg xmlns="http://www.w3.org/2000/svg" width="895.455" height="883.456" viewBox="0 0 895.455 883.456"><path fill="none" stroke="#FFF" stroke-width="1.5" stroke-miterlimit="10" d="M486.976 829.813c0 7.867-4.582 14.244-10.235 14.244s-10.235-6.377-10.235-14.244 4.582-14.245 10.235-14.245 10.235 6.378 10.235 14.245zm-7.194-739.321c0 2.93-1.61 5.305-3.596 5.305-1.987 0-3.597-2.375-3.597-5.305s1.61-5.306 3.597-5.306c1.986 0 3.596 2.376 3.596 5.306zM280.085 26.739s-47.817-11.583-47.393 36.377c.423 47.96 0 769.057 0 769.057s-4.232 35.679 27.928 35.679m-10.187.398l435.002-8.489s22.004 0 22.004-43.291V118.291s3.808-36.924-40.623-40.744c-44.431-3.82-396.918-52.204-396.918-52.204s-47.816-10.187-47.393 37.773 0 769.057 0 769.057-4.232 36.077 27.928 36.077zm8.04-772.453v697.754l423.577-3.82V147.577l-423.577-51.78z"/><path fill="#FFF" d="M682.134 206.333l-423.798-47.088.202-1.854 423.798 47.088zm-304.6-80.249l9.223 9.058 5.057-4.442c2.079 2.864 3.35 6.618 3.35 10.742 0 8.97-5.966 16.241-13.326 16.241-7.359 0-13.325-7.271-13.325-16.241 0-7.131 3.776-13.175 9.021-15.358m-91.991 586.879h373.86V492.698l-373.86-21.958v242.223zm375.708 1.865H283.695V468.763l.977.058 376.579 22.118v223.889zM285.543 335.086l186.005 15.079V248.212l-186.005-18.003v104.877zm187.854 17.101l-189.702-15.38V228.156l189.702 18.362v105.669zm14.711-.678l171.295 13.888v-99.002l-171.295-16.579v101.693zm173.143 15.909L486.26 353.23V247.764l174.991 16.937v102.717zM488.108 468.686l171.295 10.487V378.309l-171.295-12.328v102.705zm173.143 12.468L486.26 470.442V363.977l.99.072 174.001 12.523v104.582zm-375.708-24.868l186.005 11.388V364.788l-186.005-13.387v104.885zm187.854 13.369l-189.702-11.614V349.398l.99.072 188.712 13.581v106.604zM682.24 762.681l.004 1.865-423.799 1.144-.005-1.865z"/><path fill="#FFF" d="M364.089 764.527l1.848.03-.442 28.178-1.849-.03zm176.701-1.057h-1.848v-28.439H417.556v28.439h-1.848v-30.304H540.79zM293.862 584.937l357.685 11.131v-96.059l-357.685-18.864v103.792zm359.533 13.054l-.953-.029-360.429-11.218V479.182l.972.051 360.41 19.005v99.753z"/><path fill="#FFF" d="M652.435 548.077L292.902 534.09l.07-1.864 359.533 13.986zm-358.573 97.461l357.685 8.813V605.86l-357.685-10.668v50.346zm359.533 10.725l-.947-.024-360.435-8.88v-54.086l.951.027 360.431 10.75v52.213zM293.862 706.13l357.685 1.854V661.35l-357.685-7.422v52.202zm359.533 3.73l-.929-.005-360.453-1.871v-55.96l.943.019 360.439 7.478v50.339zM510.521 295.021c2.297 0 4.16 2.007 4.16 4.483 0 2.476-1.863 4.483-4.16 4.483s-4.159-2.007-4.159-4.483c0-2.476 1.862-4.483 4.159-4.483m8.172 8.525c.527-1.234.84-2.595.84-4.042 0-5.365-4.035-9.713-9.012-9.713s-9.011 4.348-9.011 9.713c0 1.441.31 2.797.832 4.027a.379.379 0 0 1-.018-.006l.067.102a9.738 9.738 0 0 0 1.861 2.836l6.269 9.553 6.27-9.553a9.753 9.753 0 0 0 1.862-2.837l.066-.101c-.008.008-.018.013-.026.021m-203.524-7.887v-4.16l3.339.347v4.162l-3.339-.349zm-10.68-5.27l2.885.3v4.155l-2.885-.302v-4.153zm8.831-.958l-4.098-.425v-4.487l4.098.426v4.486zm0 6.034l-4.098-.428v-4.156l4.098.426v4.158zm-8.831-11.438l2.885.3v4.486l-2.885-.3v-4.486zm14.019 5.944l-3.339-.347v-4.487l3.339.347v4.487zm0-14.118v7.755l-14.019-1.456v-7.513l14.019 1.214zm-1.685-3.235v-1.767l-2.453-.233v1.789l-12.884-1.109v25.953l19.525 2.185v-26.458l-4.188-.36zm-6.697 136.574l-2.767 4.303v-4.213l-3.464-.09v-12.637l14.734.717.013 11.92h-8.516zm13.905-15.745l-25.548-1.243v21.912l6.006.155v7.305l4.798-7.46h14.767l-.023-20.669zm198.275 40.015l-23.568-1.855v-27.846l12.63 1.274v4.497h-1.848v-2.808l-8.934-.902v24.061l19.871 1.563v-13.6h1.849z"/><path fill="#FFF" d="M510.599 421.035l-6.009-5.447 1.234-1.388 4.62 4.187 8.239-9.47 1.39 1.231zM405.497 151.809l9.679.971-4.393-12.346-.418-1.305-.044-.004-.417 1.222-4.407 11.462zm9.967 1.784l-10.256-1.028-2.333 6.081-.851-.086 7.837-20.351.951.094 7.851 21.925-.851-.085-2.348-6.55zm16.479 5.237l-.043-.019c-.48.93-1.164 1.613-2.052 2.051-.888.439-1.99.592-3.306.46-1.642-.164-2.907-.852-3.796-2.065-.889-1.21-1.333-3.046-1.333-5.505v-8.956l.778.077v8.986c0 2.178.382 3.801 1.146 4.871.763 1.068 1.821 1.67 3.176 1.806 1.652.165 2.903-.103 3.752-.807.85-.704 1.4-1.721 1.649-3.051v-10.829l.793.079v15.707l-.648-.064-.116-2.741zm7.419-16.474v4.24l3.544.355v.797l-3.544-.355v10.86c0 1.316.211 2.262.634 2.836.422.575.994.898 1.714.971.269.027.504.04.705.041.203.001.481-.004.837-.018l.144.727c-.25.052-.503.08-.757.083a7.715 7.715 0 0 1-.885-.045c-1.058-.106-1.851-.522-2.385-1.248-.532-.726-.799-1.868-.799-3.426v-10.86l-2.882-.289v-.798l2.882.29v-4.24l.792.079zm8.37 8.62l.043.019c.48-1.094 1.193-1.949 2.139-2.566.945-.616 2.062-.86 3.349-.731 1.652.166 2.891.793 3.717 1.883.826 1.089 1.239 2.765 1.239 5.031v9.581l-.778-.077v-9.581c0-2.131-.358-3.64-1.073-4.53-.716-.888-1.765-1.403-3.148-1.541-1.555-.156-2.786.25-3.688 1.219a7.287 7.287 0 0 0-1.8 3.398v10.06l-.778-.077v-22.647l.778.078v10.481zm14.923 6.114c0 2.013.538 3.748 1.614 5.206 1.075 1.459 2.559 2.282 4.451 2.471 1.862.187 3.332-.343 4.407-1.589 1.077-1.248 1.615-2.873 1.615-4.877v-.61c0-1.965-.544-3.685-1.629-5.164-1.085-1.478-2.559-2.311-4.422-2.497-1.873-.188-3.347.349-4.422 1.61-1.076 1.263-1.614 2.875-1.614 4.84v.61zm-.778-.688c0-2.342.621-4.172 1.866-5.49 1.243-1.317 2.892-1.872 4.948-1.666 2.064.206 3.718 1.091 4.963 2.653 1.243 1.562 1.865 3.519 1.865 5.871v.61c0 2.361-.619 4.198-1.858 5.511-1.24 1.314-2.886 1.867-4.941 1.66-2.075-.207-3.734-1.092-4.977-2.655-1.245-1.561-1.866-3.523-1.866-5.884v-.61zm24.245-4.553l-1.009-.187c-1.421-.143-2.557.189-3.406.993-.851.806-1.41 1.95-1.678 3.432v10.293l-.778-.077v-15.708l.633.063.145 2.745v.42l.043.004c.421-1.051 1.051-1.835 1.886-2.351.836-.517 1.888-.71 3.155-.584.221.023.423.057.606.104.182.047.345.103.489.166l-.086.687zm3.111 15.454l.778.078v-15.707l-.778-.078v15.707zm0-20.644l.778.077v-2.003l-.778-.077v2.003zm5.718 20.433l11.093 1.113v.784l-12.145-1.218v-.638l10.243-13.245-9.795-.982v-.798l10.846 1.087v.697zm17.762 2.101c1.498.15 2.78-.048 3.846-.594 1.067-.547 1.877-1.397 2.435-2.55v-3.732l-3.832-.384c-1.949-.196-3.491.02-4.624.647-1.134.627-1.699 1.55-1.699 2.769 0 .997.35 1.857 1.051 2.581.701.723 1.642 1.145 2.823 1.263m6.281-1.722l-.043-.019c-.586.87-1.403 1.543-2.449 2.019-1.048.476-2.311.64-3.789.491-1.47-.147-2.612-.652-3.428-1.512-.816-.861-1.224-1.94-1.224-3.236 0-1.443.628-2.539 1.887-3.288 1.258-.751 2.981-1.016 5.17-.796l3.876.389v-2.294c0-1.335-.409-2.402-1.225-3.201-.817-.798-1.992-1.274-3.529-1.428-1.45-.144-2.643.098-3.58.73-.936.632-1.404 1.5-1.404 2.604l-.777-.107c0-1.269.54-2.296 1.62-3.084 1.081-.786 2.46-1.095 4.141-.927 1.71.172 3.058.726 4.048 1.662.989.936 1.484 2.222 1.484 3.857v7.869c0 .562.029 1.102.086 1.62.058.52.164 1.048.318 1.586l-.866-.087a36.399 36.399 0 0 1-.251-1.571 8.91 8.91 0 0 1-.065-1.118v-.159zm7.533-16.376v4.24l3.544.355v.797l-3.544-.355v10.86c0 1.316.211 2.262.634 2.836.422.575.994.899 1.714.971.269.026.504.04.705.041.203.002.482-.005.837-.018l.144.726c-.25.053-.502.081-.757.084a7.725 7.725 0 0 1-.885-.045c-1.057-.106-1.851-.521-2.385-1.248-.532-.726-.799-1.868-.799-3.426v-10.86l-2.882-.289v-.797l2.882.288v-4.239l.792.079zm7.779 20.727l.777.078v-15.708l-.777-.077v15.707zm0-20.643l.777.077v-2.003l-.777-.077v2.003zm5.445 13.64c0 2.013.538 3.748 1.614 5.207 1.075 1.458 2.559 2.282 4.451 2.471 1.863.187 3.333-.343 4.408-1.59 1.076-1.247 1.614-2.872 1.614-4.876v-.61c0-1.965-.544-3.686-1.629-5.164-1.085-1.478-2.559-2.311-4.422-2.497-1.873-.189-3.347.348-4.422 1.611-1.076 1.261-1.614 2.873-1.614 4.838v.61zm-.778-.688c0-2.342.622-4.171 1.866-5.489 1.243-1.317 2.892-1.873 4.948-1.666 2.065.206 3.719 1.09 4.963 2.652 1.243 1.563 1.866 3.52 1.866 5.871v.61c0 2.362-.62 4.199-1.859 5.512-1.239 1.314-2.885 1.866-4.941 1.66-2.075-.208-3.734-1.092-4.977-2.655-1.244-1.561-1.866-3.523-1.866-5.885v-.61zm18.151-2.187l.043.019c.479-1.094 1.193-1.949 2.139-2.567.945-.616 2.062-.859 3.349-.73 1.652.166 2.891.792 3.717 1.882.826 1.089 1.239 2.766 1.239 5.032v9.581l-.778-.078v-9.581c0-2.13-.358-3.639-1.073-4.529-.716-.889-1.765-1.403-3.148-1.542-1.555-.156-2.786.25-3.688 1.219a7.297 7.297 0 0 0-1.8 3.398v10.062l-.778-.079v-15.707l.735.073.043 3.358v.189zM306.386 509.371l5.555.242v.405l-5.965-.26v-10.912l.41.017zm7.012-3.187c0 1.04.278 1.92.832 2.641.556.723 1.322 1.104 2.299 1.148.961.041 1.719-.276 2.275-.951.555-.674.833-1.53.833-2.564v-.315c0-1.013-.28-1.887-.84-2.617-.561-.733-1.321-1.12-2.284-1.162-.966-.042-1.727.278-2.283.961-.554.683-.832 1.532-.832 2.544v.315zm-.402-.331c0-1.209.32-2.173.963-2.888.642-.716 1.494-1.051 2.554-1.006 1.066.048 1.92.456 2.562 1.226.643.77.963 1.761.963 2.976v.315c0 1.218-.319 2.185-.959 2.899-.64.714-1.49 1.049-2.55 1.002-1.072-.048-1.928-.456-2.57-1.226-.643-.77-.963-1.765-.963-2.983v-.315zm8.998.701c0 1.144.217 2.049.648 2.715.431.665 1.082 1.018 1.956 1.055.728.032 1.318-.104 1.77-.408.45-.306.775-.736.974-1.293v-3.679a3.77 3.77 0 0 0-.911-1.546c-.414-.417-1.021-.645-1.819-.68-.872-.038-1.527.279-1.963.949-.437.671-.655 1.579-.655 2.728v.159zm-.408-.175c0-1.315.262-2.331.788-3.05.525-.72 1.274-1.057 2.247-1.015.643.029 1.189.195 1.639.499.448.304.804.714 1.066 1.231l.023-.007.06-1.45.341.015v8.004c0 1.058-.265 1.874-.799 2.449-.533.574-1.281.84-2.242.798a6.56 6.56 0 0 1-1.227-.175 4.912 4.912 0 0 1-1.108-.393l.119-.399c.371.18.721.317 1.049.406.327.088.711.144 1.152.162.873.039 1.532-.193 1.978-.697.446-.501.67-1.226.67-2.169v-1.133l-.023-.007a2.684 2.684 0 0 1-1.075.976c-.454.231-1 .333-1.639.306-.967-.042-1.712-.434-2.235-1.173-.523-.741-.784-1.746-.784-3.021v-.157zm8.827 4.448l.4.018v-8.11l-.4-.016v8.108zm0-10.658l.4.018v-1.034l-.4-.018v1.034zm3.443 4.528l.023.009a3.185 3.185 0 0 1 1.103-1.386c.489-.346 1.065-.504 1.73-.475.852.036 1.491.324 1.918.863.427.537.639 1.391.639 2.561v4.946l-.401-.018v-4.947c0-1.098-.185-1.868-.554-2.305-.369-.439-.911-.674-1.625-.705-.803-.035-1.438.211-1.903.738a4.015 4.015 0 0 0-.93 1.806v5.194l-.403-.018v-8.108l.38.017.023 1.731v.097zm-27.478 55.935l2.981.131c1.046.045 1.823-.173 2.332-.659.508-.485.761-1.118.761-1.903 0-.805-.252-1.47-.758-1.998-.505-.527-1.284-.812-2.335-.858l-2.981-.131v5.418zm0 .406v4.684l-.403-.018v-10.913l3.384.148c1.146.051 2.014.368 2.607.951.592.582.889 1.354.889 2.312 0 .971-.297 1.72-.889 2.248-.593.528-1.461.768-2.607.717l-2.981-.129zm10.262 4.894c.773.033 1.435-.108 1.986-.421.55-.311.969-.774 1.256-1.386v-1.927l-1.978-.087c-1.006-.044-1.802.113-2.387.47s-.877.848-.877 1.479c0 .515.181.948.542 1.302.362.351.849.542 1.458.57m3.242-1.073l-.022-.009a3.22 3.22 0 0 1-1.264 1.115c-.541.275-1.193.397-1.956.364-.758-.033-1.349-.261-1.769-.681-.423-.421-.633-.966-.633-1.636 0-.745.325-1.329.974-1.752.65-.424 1.54-.612 2.671-.561l1.999.088v-1.186c0-.688-.21-1.227-.632-1.617-.42-.388-1.029-.599-1.821-.634-.749-.033-1.366.128-1.849.483-.484.353-.725.814-.725 1.384l-.401-.033c0-.654.279-1.2.837-1.639.557-.437 1.269-.637 2.138-.599.882.038 1.578.286 2.089.739.51.456.766 1.106.766 1.949v4.063c0 .29.015.568.045.832.03.268.084.538.163.811l-.447-.02a20.753 20.753 0 0 1-.13-.805 4.57 4.57 0 0 1-.033-.574v-.082zm7.92-.186c0-.435-.179-.834-.535-1.197-.358-.362-.997-.666-1.918-.912-.978-.251-1.675-.544-2.094-.874-.419-.332-.628-.821-.628-1.47 0-.595.238-1.074.717-1.439.479-.364 1.137-.526 1.975-.489.907.04 1.613.278 2.119.717.506.439.758 1.014.758 1.723l-.408-.016c0-.539-.219-1.004-.655-1.39-.437-.386-1.041-.597-1.814-.63-.769-.035-1.343.104-1.721.411-.38.308-.57.68-.57 1.115s.159.805.476 1.111c.317.306.972.597 1.964.869.917.255 1.602.57 2.056.945.453.375.68.892.68 1.552 0 .648-.253 1.156-.759 1.52-.506.366-1.195.53-2.066.492-.958-.042-1.698-.286-2.224-.729-.526-.44-.788-.983-.788-1.622l.4.018c.045.656.316 1.135.815 1.433.499.299 1.096.463 1.797.494.758.033 1.351-.113 1.78-.439.428-.326.643-.723.643-1.193m7.577.332c0-.433-.178-.834-.535-1.196-.358-.363-.997-.667-1.918-.913-.978-.251-1.674-.544-2.094-.874-.418-.331-.628-.821-.628-1.47 0-.595.238-1.074.717-1.438.479-.365 1.137-.527 1.975-.49.907.04 1.613.278 2.119.717s.759 1.015.759 1.725l-.409-.018c0-.539-.218-1.002-.655-1.39-.437-.386-1.041-.595-1.814-.63-.769-.035-1.343.104-1.721.412-.38.307-.57.679-.57 1.114 0 .435.159.805.476 1.111.317.306.972.597 1.964.869.917.256 1.602.572 2.056.945.453.375.68.892.68 1.552 0 .648-.253 1.156-.758 1.522-.507.364-1.195.528-2.067.49-.958-.042-1.698-.284-2.224-.728-.526-.441-.788-.984-.788-1.623l.401.018c.045.656.315 1.135.815 1.433.498.299 1.096.465 1.796.494.758.034 1.351-.113 1.78-.439.429-.327.643-.724.643-1.193m4.091-.181l.432 1.726.022.002.535-1.684 1.807-5.684.41.016 1.799 5.843.528 1.732h.022l.447-1.689 1.636-5.691.468.02-2.342 8.006-.403-.016-1.984-6.18-.372-1.426-.023-.009-.394 1.401-1.956 6.006-.401-.018-2.336-8.21.462.02zm9.854-1.12c0 1.038.278 1.92.832 2.641.555.721 1.322 1.102 2.299 1.146.961.041 1.719-.276 2.274-.949.556-.676.833-1.53.833-2.565v-.315c0-1.014-.28-1.886-.84-2.619-.56-.732-1.321-1.118-2.283-1.159-.966-.044-1.728.278-2.283.959-.554.683-.832 1.532-.832 2.546v.315zm-.403-.333c0-1.207.321-2.171.963-2.888.643-.716 1.495-1.051 2.555-1.004 1.065.046 1.92.454 2.562 1.224.642.77.963 1.763.963 2.976v.315c0 1.22-.32 2.187-.96 2.901-.639.712-1.49 1.047-2.549 1-1.072-.046-1.928-.456-2.571-1.224-.642-.77-.963-1.765-.963-2.985v-.315zm12.516-3.056l-.52-.069c-.735-.031-1.32.173-1.758.614-.44.44-.729 1.047-.868 1.821v5.312l-.401-.016v-8.11l.327.015.074 1.411v.219h.023c.218-.554.543-.978.974-1.27.431-.289.974-.42 1.629-.393.114.005.218.018.312.036.094.02.178.044.253.071l-.045.359zm1.414 3.974c0 1.143.214 2.049.643 2.715.429.665 1.079 1.016 1.952 1.054.714.031 1.298-.098 1.751-.391.454-.292.787-.709 1-1.249v-3.799a3.679 3.679 0 0 0-.925-1.507c-.419-.404-1.023-.626-1.811-.659-.873-.038-1.525.277-1.959.947-.435.67-.651 1.581-.651 2.73v.159zm-.417-.177c0-1.313.263-2.329.788-3.049.526-.719 1.274-1.058 2.246-1.014.644.027 1.19.193 1.636.495.447.301.803.707 1.071 1.219l.022.001v-5.029l.403.018v11.692l-.388-.017-.015-1.253-.022-.009a2.631 2.631 0 0 1-1.071.989c-.456.235-1.006.337-1.651.31-.967-.042-1.711-.434-2.235-1.173-.522-.741-.784-1.749-.784-3.022v-.158zm104.532 60.272l-5.428-.151v5.081l6.186.175v.404l-6.589-.186v-10.912l6.589.186v.404l-6.186-.173v4.616l5.428.152zm3.034-.709l.022.009a3.276 3.276 0 0 1 1.104-1.404c.49-.353 1.065-.523 1.73-.503.853.024 1.492.301 1.918.833.427.531.64 1.382.64 2.551v4.946l-.402-.011v-4.946c0-1.1-.185-1.865-.554-2.298-.368-.432-.911-.659-1.625-.68-.803-.021-1.438.235-1.903.769a4.097 4.097 0 0 0-.93 1.821v5.194l-.402-.011v-8.109l.379.011.023 1.731v.097zm8.835-3.769v2.189l1.83.053v.412l-1.83-.053v5.607c0 .679.108 1.16.327 1.44.217.281.512.427.884.438.139.003.261.002.365-.006.105-.007.248-.02.431-.04l.075.37c-.129.034-.259.06-.391.071a4.123 4.123 0 0 1-.457.009c-.545-.015-.956-.2-1.231-.556-.275-.353-.412-.934-.412-1.737v-5.607l-1.488-.042v-.412l1.488.042v-2.189l.409.011zm6.663 2.631c-.819-.024-1.492.249-2.019.816-.528.568-.84 1.309-.933 2.227l5.607.157v-.248c0-.845-.241-1.542-.722-2.092-.481-.552-1.125-.838-1.933-.86m.149 8.015c-1.012-.027-1.852-.417-2.521-1.164-.67-.748-1.005-1.695-1.005-2.839v-.479c0-1.189.322-2.151.963-2.881.642-.732 1.447-1.084 2.414-1.056.922.025 1.662.338 2.219.941.558.603.837 1.423.837 2.457v.621l-6.031-.169v.577c0 1 .295 1.841.885 2.524s1.336 1.038 2.239 1.064c.475.012.899-.049 1.271-.19.372-.138.746-.384 1.123-.732l.215.321a3.22 3.22 0 0 1-1.093.766c-.411.177-.917.257-1.516.239m8.328-7.74l-.521-.06c-.733-.02-1.319.193-1.758.641-.439.446-.728 1.058-.867 1.834v5.314l-.4-.011v-8.11l.326.01.074 1.411v.217l.022.001c.218-.559.543-.987.975-1.285.431-.297.975-.437 1.628-.419.115.003.219.014.313.033.094.016.178.038.253.065l-.045.359zm-52.809 57.546l2.974.056c1.131.022 1.951-.195 2.462-.646.51-.454.767-1.037.767-1.751 0-.834-.26-1.467-.778-1.899-.519-.432-1.31-.659-2.376-.679l-3.049-.059v4.978zm0 .404v5.127l-.402-.009v-10.911l3.451.065c1.164.022 2.049.283 2.651.782.602.499.902 1.234.902 2.209 0 .619-.187 1.174-.564 1.664-.376.49-.894.802-1.554.935v.021c.758.15 1.294.441 1.607.873.311.433.467 1.003.467 1.706v1.027c0 .347.04.65.119.918.08.266.216.488.409.667v.187l-.394-.007a2.133 2.133 0 0 1-.402-.765 3.634 3.634 0 0 1-.133-1.022v-.996c0-.759-.24-1.346-.721-1.761-.481-.413-1.195-.628-2.142-.646l-3.294-.064zm12.136-2.504c-.818-.016-1.49.262-2.018.834-.528.574-.84 1.317-.933 2.235l5.606.107v-.247c0-.844-.24-1.539-.721-2.086-.481-.546-1.125-.828-1.934-.843m.149 8.015c-1.011-.02-1.851-.401-2.521-1.144-.669-.741-1.004-1.684-1.004-2.828v-.481c0-1.189.322-2.151.963-2.888.642-.738 1.447-1.097 2.413-1.078.922.018 1.663.324 2.22.923.558.597.837 1.413.837 2.448v.621l-6.031-.115v.577c0 1 .295 1.838.885 2.517.59.678 1.335 1.025 2.238 1.042.476.009.9-.057 1.272-.2s.746-.39 1.123-.742l.215.319a3.292 3.292 0 0 1-1.093.776c-.411.18-.917.264-1.517.253m4.811-3.97c0 1.143.216 2.043.647 2.699.431.655 1.084.99 1.957 1.007.728.014 1.319-.137 1.769-.454.451-.315.775-.754.974-1.315v-3.68a3.65 3.65 0 0 0-.911-1.522c-.413-.408-1.02-.62-1.818-.636-.873-.016-1.527.317-1.963.998-.437.681-.655 1.595-.655 2.744v.159zm-.409-.166c0-1.313.263-2.336.789-3.068.525-.733 1.273-1.09 2.245-1.071.645.012 1.192.166 1.64.459.448.293.805.695 1.067 1.205l.023-.007.059-1.453.343.007v8.004c0 1.057-.268 1.881-.8 2.467-.534.588-1.28.872-2.242.854a6.488 6.488 0 0 1-1.228-.144 4.73 4.73 0 0 1-1.107-.366l.118-.402c.372.171.722.299 1.049.381a5.43 5.43 0 0 0 1.153.134c.872.017 1.532-.233 1.978-.747.446-.513.669-1.241.669-2.187v-1.13l-.022-.008a2.801 2.801 0 0 1-1.074 1.002c-.454.244-1.001.359-1.64.348-.968-.018-1.712-.392-2.236-1.118-.522-.729-.784-1.729-.784-3.002v-.158zm8.828 4.231l.401.007v-8.108l-.401-.007v8.108zm0-10.658l.401.007v-1.034l-.401-.007v1.034zm7.971 8.823c0-.433-.179-.829-.535-1.182-.358-.355-.998-.643-1.919-.865-.977-.229-1.674-.505-2.093-.823-.42-.321-.629-.807-.629-1.455 0-.596.239-1.08.718-1.455.479-.376 1.136-.556 1.975-.54.906.017 1.613.239 2.118.665.506.428.759.996.759 1.705l-.409-.007c0-.54-.218-.997-.655-1.374-.436-.375-1.04-.57-1.813-.584-.769-.015-1.343.136-1.722.453-.379.319-.57.694-.57 1.129 0 .436.159.802.477 1.1.317.297.971.572 1.963.82.917.233 1.602.532 2.056.894.454.364.681.874.681 1.534 0 .65-.253 1.163-.759 1.542-.506.377-1.195.557-2.067.541-.957-.018-1.698-.242-2.223-.672-.527-.43-.789-.965-.789-1.604l.401.007c.045.655.316 1.127.815 1.413.498.288 1.097.437 1.796.45.758.014 1.352-.146 1.78-.483.429-.335.644-.739.644-1.209m3.547-8.244v2.189l1.83.036v.412l-1.83-.036v5.607c0 .679.109 1.158.328 1.437.218.28.513.422.885.43.138.001.26 0 .364-.01.105-.007.248-.021.431-.043l.075.369a2.194 2.194 0 0 1-.391.075 3.81 3.81 0 0 1-.457.013c-.545-.009-.956-.191-1.231-.545-.275-.351-.413-.93-.413-1.733v-5.608l-1.486-.027v-.412l1.486.028v-2.189l.409.007zm7.467 2.624l-.521-.055c-.734-.014-1.319.204-1.759.656-.439.452-.727 1.066-.866 1.843v5.312l-.401-.007v-8.108l.327.006.074 1.409v.219h.023c.218-.561.542-.991.974-1.293.431-.303.974-.446 1.628-.434a1.843 1.843 0 0 1 .566.093l-.045.359zm3.317 7.642c.774.014 1.435-.142 1.986-.47.55-.326.969-.798 1.257-1.417v-1.927l-1.978-.038c-1.008-.02-1.803.157-2.388.528-.585.372-.877.871-.877 1.501 0 .515.181.943.543 1.287.361.345.847.523 1.457.536m3.243-1.153l-.023-.009a3.305 3.305 0 0 1-1.264 1.145c-.541.29-1.192.428-1.956.414-.759-.015-1.349-.228-1.769-.637-.422-.41-.633-.951-.633-1.621 0-.745.325-1.337.975-1.776.648-.441 1.538-.648 2.669-.627l2.001.039v-1.186c0-.688-.211-1.222-.633-1.601-.421-.377-1.029-.573-1.822-.59-.748-.014-1.365.162-1.848.528-.483.365-.724.833-.724 1.403l-.402-.022c0-.656.279-1.208.837-1.661.557-.45 1.27-.668 2.137-.652.883.018 1.58.246 2.09.688.511.443.767 1.086.767 1.931v4.061c0 .29.014.568.044.832.03.266.083.536.162.805l-.445-.007a20.536 20.536 0 0 1-.13-.801 4.58 4.58 0 0 1-.033-.574v-.082zm3.888-8.771v2.189l1.829.036v.412l-1.829-.036v5.607c0 .679.109 1.158.328 1.437.218.28.513.422.885.43.138.001.26 0 .364-.01.103-.007.247-.021.43-.043l.075.369a2.194 2.194 0 0 1-.391.075c-.13.013-.282.017-.456.013-.546-.009-.956-.191-1.231-.545-.275-.351-.413-.93-.413-1.733v-5.608l-1.487-.029v-.411l1.487.029v-2.189l.409.007zm4.016 10.376l.4.007v-8.108l-.4-.009v8.11zm0-10.658l.4.007v-1.034l-.4-.007v1.034zm2.811 6.813c0 1.04.278 1.914.833 2.621.555.708 1.321 1.071 2.298 1.089.962.018 1.72-.317 2.275-1.005.555-.689.833-1.55.833-2.584v-.316c0-1.014-.28-1.879-.84-2.596-.56-.718-1.321-1.088-2.283-1.106-.967-.018-1.728.322-2.283 1.018s-.833 1.552-.833 2.564v.315zm-.401-.322c0-1.208.32-2.178.962-2.912.642-.731 1.494-1.087 2.555-1.067 1.066.02 1.919.408 2.562 1.162.642.754.963 1.739.963 2.952v.315c0 1.22-.32 2.194-.959 2.924-.64.729-1.49 1.084-2.551 1.064-1.071-.02-1.928-.408-2.57-1.162s-.962-1.741-.962-2.961v-.315zm9.369-1.889l.023.007a3.326 3.326 0 0 1 1.103-1.413c.489-.359 1.065-.532 1.73-.519.853.016 1.492.289 1.919.818.426.528.639 1.375.639 2.544v4.946l-.402-.007v-4.946c0-1.099-.184-1.863-.553-2.293-.37-.43-.912-.65-1.626-.665-.803-.015-1.438.248-1.903.785a4.155 4.155 0 0 0-.93 1.83v5.194l-.402-.009v-8.108l.38.008.022 1.731v.097zm-75.442 67.48l-5.428-.002v5.081l6.187.002v.405l-6.589-.004V743l6.589.004v.404l-6.187-.002v4.617l5.428.002zm4.99.976l2.565-3.597h.507l-2.827 3.949 2.975 4.161h-.499l-2.728-3.81-2.722 3.806h-.499l2.975-4.157-2.826-3.953h.506zm7.496 4.267c.699 0 1.292-.182 1.777-.546.486-.365.754-.92.803-1.665l.402.002c-.045.819-.346 1.46-.903 1.921-.558.463-1.251.692-2.079.692-1.046 0-1.856-.368-2.428-1.098-.573-.732-.859-1.719-.859-2.957v-.316c0-1.233.285-2.216.855-2.948.57-.732 1.376-1.096 2.417-1.096.833 0 1.53.244 2.094.733.562.492.863 1.19.903 2.093l-.402-.002c-.039-.783-.304-1.382-.792-1.797-.488-.415-1.089-.623-1.803-.623-.962 0-1.681.333-2.157 1.003-.475.669-.714 1.548-.714 2.637v.316c0 1.099.239 1.983.714 2.649.476.667 1.2 1.002 2.172 1.002m5.398-6.032l.023.009a3.407 3.407 0 0 1 1.104-1.437c.488-.364 1.064-.548 1.729-.548.852 0 1.492.26 1.919.779.426.52.639 1.364.639 2.534v4.946h-.402v-4.946c0-1.1-.185-1.86-.554-2.282-.369-.423-.911-.634-1.625-.634-.803 0-1.438.273-1.903.82a4.227 4.227 0 0 0-.93 1.846v5.194h-.402v-11.692h.402v5.411zm9.742 6.047c.774 0 1.435-.168 1.986-.505.55-.338.969-.819 1.256-1.444v-1.925h-1.978c-1.006 0-1.802.19-2.387.572-.585.381-.877.887-.877 1.517 0 .514.18.94.542 1.279.362.337.849.504 1.458.506m3.242-1.213l-.022-.007a3.434 3.434 0 0 1-1.264 1.169c-.541.299-1.193.448-1.956.448-.758-.002-1.349-.202-1.77-.605-.422-.402-.632-.938-.632-1.608 0-.743.325-1.342.974-1.794.65-.451 1.54-.677 2.67-.677h2v-1.184c0-.688-.21-1.218-.632-1.588-.421-.37-1.029-.555-1.821-.555-.749 0-1.365.185-1.849.561-.483.375-.725.846-.725 1.416l-.401-.016c0-.654.279-1.213.837-1.674.557-.462 1.269-.692 2.138-.692.882 0 1.578.217 2.089.649.51.431.766 1.071.766 1.914v4.063c0 .289.015.566.045.832.03.264.084.532.163.801h-.446c-.065-.36-.108-.626-.13-.797a4.57 4.57 0 0 1-.034-.574v-.082zm3.392-4.827l.023.009a3.413 3.413 0 0 1 1.103-1.437c.489-.364 1.065-.548 1.73-.548.852 0 1.492.26 1.919.779.426.519.639 1.364.639 2.534v4.946h-.402v-4.946c0-1.1-.185-1.86-.554-2.282-.369-.423-.911-.634-1.625-.634-.803 0-1.438.271-1.903.82a4.227 4.227 0 0 0-.93 1.846v5.194h-.402v-8.109h.379l.023 1.731v.097zm7.964 2.381c0 1.143.216 2.039.647 2.686.431.648 1.083.971 1.956.972.728 0 1.319-.162 1.77-.486.45-.326.775-.77.974-1.335v-3.679a3.57 3.57 0 0 0-.911-1.507c-.414-.399-1.02-.6-1.819-.6-.872-.002-1.527.345-1.963 1.033-.436.69-.654 1.61-.654 2.759v.157zm-.409-.157c0-1.315.263-2.342.788-3.085.525-.741 1.274-1.113 2.246-1.111.644 0 1.191.142 1.64.428a3.01 3.01 0 0 1 1.066 1.184l.023-.008.06-1.455h.342v8.005c0 1.059-.267 1.888-.8 2.485-.533.596-1.28.895-2.242.895a6.49 6.49 0 0 1-1.227-.121 4.697 4.697 0 0 1-1.108-.346l.119-.404c.372.166.721.284 1.049.361.327.074.711.113 1.153.113.872 0 1.531-.261 1.977-.784.447-.522.67-1.254.67-2.199v-1.132l-.023-.007c-.262.43-.621.771-1.074 1.024-.454.251-1 .377-1.64.377-.967-.002-1.711-.359-2.235-1.077-.522-.717-.784-1.711-.784-2.986v-.157zm11.474-3.788c-.818 0-1.491.289-2.019.872-.528.581-.839 1.333-.933 2.251l5.608.002v-.248c0-.843-.242-1.533-.723-2.07-.48-.538-1.124-.807-1.933-.807m.149 8.011c-1.011 0-1.851-.366-2.521-1.094-.669-.731-1.004-1.667-1.004-2.812v-.479c0-1.19.321-2.159.963-2.909.642-.748 1.446-1.123 2.413-1.122.923 0 1.663.294 2.22.882.558.586.837 1.397.837 2.431v.621l-6.031-.002v.578c0 .999.294 1.834.885 2.5.59.666 1.335 1.002 2.238 1.002.476 0 .9-.075 1.272-.224.372-.151.746-.405 1.123-.765l.215.315a3.37 3.37 0 0 1-1.093.797c-.411.188-.917.281-1.517.281m11.973-7.967l-.521-.045c-.734-.002-1.319.227-1.758.688-.439.459-.728 1.078-.867 1.857v5.315h-.401v-8.11h.327l.074 1.409v.217h.023c.218-.564.542-1.001.974-1.311.431-.31.974-.464 1.628-.463.115 0 .219.008.313.022.094.017.178.037.253.06l-.045.361zm3.316 7.576c.773.002 1.435-.166 1.986-.503.55-.338.969-.819 1.256-1.444v-1.925h-1.978c-1.006 0-1.802.19-2.387.572-.585.381-.877.887-.877 1.517 0 .514.18.94.542 1.279.362.336.849.504 1.458.504m3.242-1.211l-.022-.007a3.434 3.434 0 0 1-1.264 1.169c-.541.299-1.193.448-1.956.446-.758 0-1.349-.2-1.77-.603-.422-.402-.632-.938-.632-1.608 0-.743.325-1.342.974-1.794.65-.451 1.54-.679 2.67-.677h2v-1.184c0-.688-.21-1.218-.632-1.588-.421-.37-1.029-.556-1.821-.556-.749-.001-1.365.186-1.849.561-.483.376-.725.847-.725 1.417l-.401-.016c0-.654.279-1.213.837-1.674.557-.462 1.269-.694 2.138-.692.882 0 1.578.217 2.089.649.51.431.766 1.07.766 1.914v4.063c0 .289.015.566.045.832.03.264.084.532.163.801h-.446c-.065-.36-.108-.626-.13-.798a4.554 4.554 0 0 1-.034-.573v-.082zm3.89-8.842v2.187l1.83.002v.414l-1.83-.002v5.605c0 .68.109 1.157.328 1.432.217.275.512.411.884.411.139 0 .26-.003.365-.012.104-.01.247-.028.431-.053l.074.368c-.129.04-.259.067-.391.082a4.1 4.1 0 0 1-.456.02c-.546 0-.956-.174-1.231-.521-.276-.346-.413-.922-.413-1.727v-5.605h-1.487v-.414h1.487v-2.187h.409zm6.663 2.446c-.818 0-1.491.289-2.019.872-.528.581-.838 1.333-.933 2.251l5.608.002v-.248c0-.843-.241-1.533-.723-2.071-.48-.537-1.124-.806-1.933-.806m.149 8.011c-1.011 0-1.851-.366-2.521-1.094-.669-.731-1.004-1.667-1.004-2.813v-.478c0-1.19.321-2.158.963-2.909.642-.748 1.446-1.122 2.413-1.122.923 0 1.663.294 2.22.882.558.586.837 1.398.837 2.433v.621l-6.031-.004v.577c0 1 .294 1.834.885 2.501.59.667 1.335 1.002 2.238 1.002.476 0 .9-.075 1.272-.224.372-.151.746-.405 1.123-.765l.215.315c-.317.344-.681.61-1.093.798-.411.187-.917.28-1.517.28m9.712-2.14c0-.433-.179-.825-.536-1.173-.357-.346-.997-.623-1.918-.827-.977-.213-1.674-.473-2.094-.785-.419-.313-.628-.794-.628-1.444 0-.593.239-1.083.717-1.468.479-.384 1.137-.577 1.975-.575.907 0 1.614.209 2.119.626.506.417.759.98.759 1.69h-.409c0-.54-.219-.994-.655-1.36-.436-.368-1.04-.552-1.814-.552-.769-.002-1.342.16-1.722.486-.379.325-.569.705-.569 1.139 0 .435.159.797.476 1.091.318.291.972.553 1.964.785.917.214 1.602.499 2.056.854.453.355.681.861.681 1.522 0 .648-.254 1.168-.759 1.554-.506.387-1.195.58-2.067.58-.957-.001-1.699-.211-2.224-.63-.526-.42-.788-.949-.788-1.59h.401c.045.656.316 1.122.815 1.399.498.277 1.096.415 1.796.417.758 0 1.352-.171 1.78-.517.429-.344.644-.752.644-1.222m-221.202 28.165l-5.428-.002v5.081l6.187.002v.405l-6.589-.004v-10.913l6.589.004v.404l-6.187-.001v4.616l5.428.002zm10.129-5.424v7.398c0 1.209-.336 2.123-1.007 2.742-.673.62-1.568.929-2.689.927-1.126 0-2.024-.309-2.695-.928-.673-.62-1.008-1.534-1.008-2.743v-7.398h.401v7.398c0 1.043.303 1.85.907 2.417.605.568 1.404.85 2.395.85.986.002 1.783-.28 2.387-.845.605-.564.907-1.371.907-2.42v-7.398h.402zm3.228 5.391l2.974.001c1.13 0 1.951-.231 2.461-.693.511-.459.767-1.047.767-1.763 0-.834-.259-1.463-.777-1.887-.519-.423-1.311-.632-2.376-.632l-3.049-.002v4.976zm0 .404v5.127h-.402v-10.913l3.451.002c1.164 0 2.048.244 2.651.732.602.488.903 1.218.903 2.193 0 .619-.188 1.178-.565 1.675-.377.495-.895.816-1.554.962v.021c.758.135 1.293.418 1.606.846.312.428.468.992.468 1.697v1.027c0 .344.04.65.119.914.08.266.216.485.409.66v.187h-.393a2.064 2.064 0 0 1-.402-.757 3.523 3.523 0 0 1-.135-1.019v-.998c0-.759-.24-1.34-.721-1.746-.481-.406-1.195-.608-2.141-.608l-3.294-.002zm70.256 5.03l-.402.004-6.968-10.133-.022.007v10.186l-.409.004V774.69l.409-.004 6.968 10.113.022-.011v-10.162l.402-.003zm4.572-.278c.773-.007 1.435-.18 1.986-.523.55-.342.969-.826 1.256-1.453v-1.927l-1.978.019c-1.006.009-1.802.205-2.387.593-.585.386-.877.895-.877 1.525 0 .513.18.938.542 1.274.362.334.849.498 1.458.492m3.242-1.241l-.022-.007c-.302.48-.724.874-1.264 1.18-.541.302-1.192.457-1.956.464-.758.006-1.349-.189-1.77-.588-.422-.399-.632-.932-.632-1.603 0-.743.325-1.344.974-1.801.65-.457 1.54-.694 2.67-.703l2-.016v-1.184c0-.688-.21-1.218-.632-1.584-.421-.366-1.029-.547-1.821-.539-.749.007-1.365.2-1.849.579-.483.379-.724.852-.724 1.422l-.402-.013c0-.654.279-1.215.837-1.681.557-.466 1.269-.704 2.138-.712.882-.007 1.578.204 2.089.63.51.428.766 1.066.766 1.909v4.063c0 .29.015.567.045.831s.084.531.163.801l-.446.003c-.065-.36-.108-.626-.13-.797a4.547 4.547 0 0 1-.034-.574v-.08zm3.89-8.878v2.187l1.83-.016v.413l-1.83.017v5.605c0 .68.109 1.157.328 1.43.217.273.512.406.884.402.139 0 .26-.007.365-.016.104-.011.247-.031.43-.056l.074.366a2.131 2.131 0 0 1-.389.085 4.008 4.008 0 0 1-.457.026c-.546.005-.956-.164-1.231-.51-.276-.345-.413-.918-.413-1.723v-5.606l-1.487.013v-.413l1.487-.013v-2.187l.409-.004zm4.015 2.153v8.11l.401-.004v-8.11l-.401.004zm0-3.582v1.034l.401-.003v-1.035l-.401.004zm2.812 7.77c0 1.04.277 1.904.832 2.597.556.693 1.321 1.035 2.298 1.026.962-.009 1.72-.364 2.276-1.069.555-.703.832-1.574.832-2.608v-.315c0-1.015-.279-1.87-.84-2.574-.56-.703-1.321-1.05-2.283-1.041-.966.009-1.727.368-2.283 1.082-.555.71-.832 1.573-.832 2.587v.315zm-.402-.311c0-1.209.32-2.189.963-2.939.642-.751 1.493-1.129 2.554-1.139 1.066-.009 1.92.356 2.562 1.091.642.738.963 1.712.963 2.925v.315c0 1.22-.319 2.204-.959 2.95-.639.749-1.49 1.126-2.551 1.135-1.071.009-1.927-.353-2.569-1.091-.643-.736-.963-1.712-.963-2.932v-.315zm9.37-2.151l.023.009a3.452 3.452 0 0 1 1.103-1.446c.489-.37 1.065-.559 1.73-.564.852-.008 1.492.247 1.919.763.426.515.639 1.358.639 2.527v4.947l-.402.003v-4.946c0-1.1-.185-1.859-.554-2.278-.369-.419-.911-.625-1.625-.619-.803.007-1.438.285-1.903.837a4.278 4.278 0 0 0-.93 1.854v5.194l-.402.004v-8.11l.379-.004.023 1.733v.096zm9.741 5.957c.773-.005 1.434-.18 1.985-.521.55-.344.969-.828 1.256-1.455v-1.925l-1.978.017c-1.005.009-1.801.207-2.386.593-.585.386-.877.896-.877 1.527 0 .513.18.937.542 1.273.362.333.849.497 1.458.491m3.241-1.24l-.022-.007c-.302.48-.724.874-1.264 1.18-.541.302-1.192.459-1.955.464-.758.007-1.349-.187-1.77-.586-.422-.399-.632-.933-.632-1.603 0-.743.325-1.346.974-1.803.65-.457 1.54-.692 2.669-.703l2-.016v-1.184c0-.688-.21-1.216-.632-1.582-.421-.367-1.029-.547-1.82-.541-.749.007-1.365.2-1.849.579-.483.379-.725.854-.725 1.424l-.401-.013c0-.654.279-1.216.836-1.681.558-.468 1.27-.705 2.139-.714.881-.007 1.577.204 2.088.632.51.426.766 1.064.766 1.907v4.063c0 .29.015.566.045.832.03.264.084.53.163.8l-.446.003c-.065-.36-.108-.624-.13-.795a4.57 4.57 0 0 1-.034-.574v-.082zm3.087-10.265v11.692l.401-.004v-11.692zm12.418 7.522c0-1.149-.218-2.067-.654-2.752-.436-.685-1.088-1.025-1.955-1.018-.799.007-1.408.21-1.83.61a3.414 3.414 0 0 0-.907 1.497v3.717c.198.56.523.996.977 1.315.454.319 1.046.474 1.774.468.867-.007 1.517-.335 1.949-.989.431-.65.646-1.548.646-2.691v-.157zm.417.153c0 1.275-.263 2.273-.789 2.994-.525.723-1.269 1.085-2.23 1.095-.65.005-1.205-.119-1.666-.367a2.726 2.726 0 0 1-1.071-1.025h-.022l-.053 1.259-.334.003v-11.692l.402-.003v5.013l.022.008a2.97 2.97 0 0 1 1.059-1.179c.449-.284.999-.427 1.647-.433.967-.009 1.714.357 2.243 1.093.528.739.792 1.763.792 3.078v.156zm3.993 3.632c.773-.007 1.435-.18 1.985-.523a3.25 3.25 0 0 0 1.256-1.455v-1.925l-1.977.018c-1.006.008-1.802.206-2.387.594-.585.386-.877.894-.877 1.524 0 .514.18.939.542 1.274.362.334.849.497 1.458.493m3.241-1.242l-.022-.007a3.457 3.457 0 0 1-1.263 1.18c-.541.304-1.193.459-1.956.466-.758.005-1.349-.189-1.77-.588-.422-.399-.632-.933-.632-1.603 0-.743.325-1.346.974-1.803.65-.457 1.54-.692 2.67-.701l1.999-.018v-1.184c0-.688-.21-1.217-.632-1.582-.42-.366-1.028-.547-1.82-.54-.749.006-1.365.199-1.849.58-.483.378-.725.852-.725 1.422l-.401-.013c0-.654.279-1.215.836-1.681.558-.468 1.27-.705 2.139-.712.881-.007 1.578.202 2.088.63.51.426.766 1.064.766 1.907v4.063c0 .29.015.567.045.832.03.264.084.532.163.8l-.446.003a17.087 17.087 0 0 1-.13-.795 4.57 4.57 0 0 1-.034-.574v-.082zm3.391-4.857l.023.009a3.446 3.446 0 0 1 1.104-1.446c.488-.371 1.065-.559 1.729-.564.852-.008 1.492.247 1.919.763.426.515.639 1.358.639 2.527v4.947l-.402.001v-4.946c0-1.1-.185-1.857-.554-2.276s-.911-.627-1.625-.62c-.803.008-1.437.287-1.903.838a4.283 4.283 0 0 0-.93 1.854v5.194l-.402.004v-8.11l.38-.003.022 1.731v.097zm9.437 2.054l-1.1.011v4.145l-.402.003v-11.691l.402-.004v7.143l.944-.01 3.659-3.591.528-.005-3.733 3.728 4.008 4.379-.521.006zm40.587-.266c0-1.149-.218-2.067-.654-2.754-.436-.684-1.088-1.023-1.955-1.016-.799.006-1.408.21-1.83.61a3.413 3.413 0 0 0-.906 1.497v3.717c.198.559.523.996.976 1.315.454.319 1.046.474 1.774.468.867-.009 1.517-.337 1.949-.989.431-.65.646-1.548.646-2.691v-.157zm.417.153c0 1.275-.263 2.273-.789 2.994-.525.723-1.269 1.085-2.23 1.095-.65.005-1.205-.119-1.666-.368a2.72 2.72 0 0 1-1.07-1.024h-.022l-.053 1.259-.334.003v-11.692l.402-.003v5.013l.022.006a3.002 3.002 0 0 1 1.058-1.179c.449-.282.999-.426 1.647-.431.967-.009 1.715.357 2.242 1.093.529.739.793 1.762.793 3.077v.157zm7.592 2.429l-.023-.007c-.248.508-.601.9-1.059 1.174-.459.279-1.027.418-1.707.425-.848.007-1.501-.277-1.96-.853-.458-.575-.687-1.498-.687-2.768v-4.624l.401-.003v4.64c0 1.124.197 1.94.592 2.448.394.511.94.761 1.64.756.852-.008 1.498-.217 1.937-.629.438-.411.723-.967.851-1.668v-5.591l.409-.002v8.108l-.334.004-.06-1.41zm5.057-.103l.32.869.067-.181 2.781-7.355.447-.004-3.577 9.49c-.223.581-.475 1.049-.756 1.404-.279.355-.744.534-1.393.539a1.945 1.945 0 0 1-.566-.076l.068-.383c.054.015.136.03.244.044.109.013.194.02.254.018.466-.003.824-.136 1.074-.406.25-.266.475-.67.673-1.211l.483-1.324-3.205-8.037.439-.003 2.647 6.616zm4.952.528v.899l.639-.005v-.899l-.639.005zm.038-7.21v.899l.64-.005v-.9l-.64.006zm10.128 8.022l-.402.004v-10.545l-2.96.586v-.358l3.362-.66zm4.721-.941v.899l.64-.005v-.899zm5.08-4.923l.825-.005c.927-.01 1.646-.239 2.157-.691a2.17 2.17 0 0 0 .766-1.695c0-.745-.22-1.35-.658-1.816-.439-.466-1.104-.696-1.997-.688-.818.007-1.488.246-2.012.719-.522.47-.784 1.107-.784 1.912l-.402.004c0-.923.303-1.659.911-2.207.607-.547 1.37-.823 2.287-.833.951-.007 1.699.246 2.242.765.543.518.814 1.241.814 2.169 0 .59-.177 1.109-.531 1.556-.355.448-.84.77-1.454.965l.007.022c.709.169 1.255.477 1.64.927.384.449.576 1.03.576 1.746 0 .969-.295 1.721-.885 2.258-.589.538-1.371.809-2.342.818-.937.007-1.754-.255-2.451-.787-.696-.533-1.044-1.327-1.044-2.376l.402-.002c0 .825.288 1.492.865 2.003.578.514 1.321.765 2.228.758.912-.008 1.611-.242 2.097-.7.486-.459.729-1.105.729-1.939 0-.869-.279-1.501-.837-1.892-.558-.394-1.332-.585-2.324-.576l-.825.006v-.421zm6.729.761l.58-5.957 5.132-.044v.397l-4.768.04-.453 4.606.023.007a3.248 3.248 0 0 1 1-.706c.359-.157.903-.25 1.632-.275.882-.031 1.599.253 2.149.856.55.601.825 1.437.825 2.507 0 1.139-.255 2.031-.766 2.678-.511.646-1.321.972-2.431.983-.898.007-1.632-.235-2.205-.727-.573-.491-.858-1.251-.858-2.274l.408-.004c0 .88.234 1.533.702 1.965.469.432 1.12.643 1.953.636.982-.009 1.691-.277 2.13-.805s.659-1.339.659-2.433c0-.94-.22-1.669-.659-2.184s-1.072-.77-1.9-.763c-.808.005-1.435.142-1.881.41-.446.266-.769.666-.967 1.204l-.305-.117zm42.201 2.61c0-.433-.179-.823-.536-1.169-.357-.342-.997-.614-1.918-.811-.977-.202-1.674-.457-2.094-.765-.419-.309-.628-.788-.628-1.438 0-.594.239-1.086.717-1.474.479-.387 1.137-.586 1.975-.593.907-.009 1.614.195 2.119.606.506.414.759.975.759 1.685l-.409.003c0-.54-.219-.992-.655-1.354-.436-.365-1.04-.543-1.814-.536-.769.006-1.342.173-1.722.503-.379.326-.569.708-.569 1.142 0 .435.159.797.476 1.087.318.289.972.546 1.964.766.917.206 1.602.485 2.056.837.453.351.681.856.681 1.516 0 .649-.254 1.17-.759 1.559-.506.394-1.195.592-2.067.6-.957.009-1.699-.195-2.224-.609-.526-.417-.788-.941-.788-1.582l.401-.004c.045.654.316 1.118.815 1.391.498.272 1.096.407 1.796.399.758-.005 1.352-.182 1.78-.532.429-.347.644-.757.644-1.227m5.39-5.915c-.818.007-1.491.304-2.019.892-.528.585-.839 1.341-.933 2.258l5.607-.047v-.248c0-.843-.241-1.531-.722-2.065-.48-.533-1.124-.798-1.933-.79m.149 8.011c-1.011.007-1.851-.35-2.521-1.073-.669-.722-1.004-1.657-1.004-2.802v-.479c0-1.19.321-2.16.963-2.916.642-.754 1.446-1.136 2.413-1.146.923-.007 1.663.279 2.22.864.557.581.836 1.389.836 2.424v.621l-6.03.051v.577c0 1 .294 1.832.884 2.493.591.661 1.336.989 2.239.982.476-.006.9-.084 1.272-.235.372-.155.745-.412 1.122-.776l.215.313a3.408 3.408 0 0 1-1.092.807c-.411.191-.917.29-1.517.295m4.878-11.893h.401v11.692h-.401zm3.138-.025v11.692l.401-.004v-11.692zm2.849 10.767v.9l.639-.006v-.9l-.639.006zm.037-7.21v.9l.64-.005v-.9l-.64.005zm10.129 8.022l-.402.004v-10.545l-2.96.586v-.358l3.362-.66zm4.722-.939v.899l.639-.005v-.899zm9.592.816l-6.477.057v-.405l3.547-4.154c.689-.809 1.184-1.495 1.487-2.054.302-.559.454-1.084.454-1.574 0-.81-.215-1.431-.644-1.865-.429-.433-1.069-.646-1.921-.639-.908.008-1.6.273-2.075.794-.476.521-.715 1.206-.715 2.055l-.401.003c0-.929.285-1.701.855-2.318.57-.618 1.348-.929 2.336-.938.911-.007 1.635.237 2.17.734.536.497.804 1.222.804 2.171 0 .619-.191 1.236-.573 1.852-.381.613-.935 1.353-1.659 2.214l-3.137 3.714 5.949-.051v.404zm4.61-3.945c.748-.005 1.366-.222 1.852-.648a3.52 3.52 0 0 0 1.034-1.548v-1.133c0-1.129-.256-1.985-.767-2.568-.511-.582-1.186-.87-2.029-.863-.848.007-1.529.357-2.042 1.053-.513.694-.769 1.511-.769 2.456 0 .909.243 1.68.728 2.313.486.634 1.15.946 1.993.938m-.082 3.659c.932-.009 1.66-.292 2.183-.852.523-.558.785-1.344.785-2.359v-1.776h-.023a3.065 3.065 0 0 1-1.156 1.261c-.498.306-1.067.459-1.707.464-.952.009-1.72-.337-2.305-1.04-.585-.701-.877-1.571-.877-2.604 0-1.1.299-2.025.899-2.777.6-.752 1.38-1.131 2.343-1.14.991-.009 1.787.311 2.387.958.599.646.9 1.602.9 2.866v3.77c0 1.144-.309 2.033-.926 2.668-.617.636-1.451.956-2.503.965a5.9 5.9 0 0 1-1.163-.105 6.736 6.736 0 0 1-1.164-.346l.118-.428a5.64 5.64 0 0 0 1.065.368 4.89 4.89 0 0 0 1.144.107M340.576 276.04l2.981.309c1.046.109 1.824-.063 2.333-.518.508-.454.761-1.073.761-1.857 0-.805-.252-1.486-.758-2.044-.505-.556-1.284-.889-2.336-.999l-2.981-.309v5.418zm0 .405v4.684l-.402-.042v-10.912l3.383.351c1.147.119 2.015.488 2.607 1.107.593.619.889 1.408.889 2.367 0 .97-.296 1.7-.889 2.194-.592.492-1.46.68-2.607.561l-2.981-.31zm8.939-.667l.022.009c.248-.564.616-1.004 1.104-1.32s1.065-.44 1.729-.372c.853.088 1.492.414 1.919.979.426.564.64 1.431.64 2.6v4.946l-.403-.042v-4.946c0-1.099-.184-1.88-.554-2.339-.368-.461-.91-.729-1.624-.803-.803-.083-1.438.125-1.904.623s-.776 1.083-.929 1.751v5.194l-.402-.042v-11.692l.402.042v5.412zm7.703 3.182c0 1.039.278 1.937.833 2.691.555.755 1.321 1.183 2.298 1.284.961.1 1.72-.171 2.275-.813.556-.641.833-1.479.833-2.514v-.315c0-1.013-.279-1.903-.84-2.669-.56-.765-1.321-1.198-2.284-1.297-.965-.101-1.727.175-2.282.823-.555.65-.833 1.481-.833 2.495v.315zm-.401-.357c0-1.207.32-2.152.962-2.83.642-.678 1.494-.961 2.554-.85 1.066.11 1.92.569 2.563 1.378.642.809.963 1.82.963 3.034v.315c0 1.219-.321 2.166-.959 2.842-.64.675-1.491.958-2.551.848-1.072-.111-1.928-.572-2.57-1.38-.642-.808-.962-1.822-.962-3.042v-.315zm9.37-1.095l.023.01a2.931 2.931 0 0 1 1.103-1.32c.488-.317 1.065-.441 1.729-.372.853.088 1.492.414 1.919.979.426.564.64 1.43.64 2.599v4.946l-.402-.041v-4.946c0-1.099-.184-1.88-.554-2.339-.369-.462-.911-.729-1.625-.804-.803-.082-1.438.125-1.904.623a3.753 3.753 0 0 0-.929 1.751v5.194l-.402-.042v-8.108l.379.04.023 1.732v.098zm10.678-.465c-.818-.084-1.491.137-2.019.664-.528.528-.838 1.246-.932 2.156l5.607.582v-.247c0-.844-.241-1.561-.722-2.148-.481-.587-1.125-.923-1.934-1.007m.15 8.028c-1.013-.105-1.853-.557-2.522-1.356-.67-.799-1.004-1.771-1.004-2.915v-.479c0-1.19.321-2.125.964-2.808.641-.683 1.446-.974 2.412-.874.923.096 1.663.466 2.22 1.111.557.646.837 1.485.837 2.52v.621l-6.031-.626v.577c0 .999.294 1.862.885 2.592.59.728 1.335 1.138 2.239 1.232.476.049.899.019 1.271-.093.372-.111.746-.327 1.124-.647l.214.337c-.317.312-.682.54-1.093.684-.411.145-.917.186-1.516.124m-31.308 11.178c0-1.149-.22-2.092-.658-2.827-.44-.735-1.092-1.147-1.96-1.237-.793-.083-1.401.049-1.822.395-.421.346-.726.801-.915 1.367v3.792c.204.571.533 1.038.989 1.4.457.362 1.044.579 1.763.654.867.09 1.518-.165 1.952-.767.434-.603.651-1.476.651-2.62v-.157zm.408.199c0 1.274-.262 2.242-.788 2.905-.525.662-1.269.943-2.23.844-.64-.067-1.189-.248-1.647-.543a3.196 3.196 0 0 1-1.075-1.12l-.023-.002v4.34l-.401-.042v-11.226l.313.032.081 1.425.022.002c.263-.463.62-.809 1.072-1.038.45-.232.998-.314 1.643-.246.967.1 1.713.548 2.241 1.345.528.797.792 1.853.792 3.167v.157zm3.994 4.08c.774.081 1.436-.02 1.986-.3.55-.279.969-.717 1.256-1.312v-1.927l-1.978-.204c-1.006-.105-1.802.003-2.386.324-.586.323-.878.797-.878 1.428 0 .514.181.959.543 1.333.361.376.848.595 1.457.658m3.242-.878l-.022-.009c-.302.448-.724.794-1.263 1.038-.541.243-1.193.326-1.957.246-.759-.078-1.349-.341-1.77-.787s-.632-1.003-.632-1.673c0-.745.325-1.31.974-1.693.65-.386 1.54-.519 2.67-.402l2 .208v-1.185c0-.689-.21-1.24-.632-1.654-.421-.414-1.028-.662-1.822-.744-.748-.078-1.365.046-1.848.371-.483.323-.725.771-.725 1.34l-.401-.056c0-.655.279-1.184.837-1.589.557-.403 1.27-.561 2.137-.471.883.092 1.579.38 2.09.866.51.486.767 1.15.767 1.995v4.062c0 .289.014.569.043.835.031.269.085.542.164.82l-.446-.046a19.08 19.08 0 0 1-.13-.813 4.627 4.627 0 0 1-.034-.576v-.083zm5.005.506l.32.902.067-.173 2.781-7.04.447.046-3.577 9.086c-.224.557-.476.997-.755 1.319-.28.324-.746.452-1.395.385a2.082 2.082 0 0 1-.312-.059 1.564 1.564 0 0 1-.253-.082l.067-.376c.055.021.136.044.246.07.108.027.192.043.252.05.466.048.824-.048 1.075-.286.25-.24.475-.618.673-1.137l.483-1.268-3.205-8.397.439.045 2.647 6.915zm10.901 2.6l-.402-.041v-5.097c0-1.038-.188-1.779-.564-2.22-.377-.442-.922-.7-1.637-.774-.822-.085-1.466.132-1.93.65a3.729 3.729 0 0 0-.895 1.792v5.126l-.41-.041v-8.11l.387.041.023 1.74v.12l.022.01a2.914 2.914 0 0 1 1.089-1.341c.488-.323 1.068-.451 1.736-.381.705.072 1.264.298 1.678.675.414.378.685.936.814 1.674l.022.011c.229-.591.6-1.057 1.112-1.396.514-.339 1.124-.471 1.833-.397.858.088 1.502.415 1.934.98.431.564.647 1.431.647 2.6v4.946l-.402-.041v-4.947c0-1.099-.188-1.88-.565-2.344s-.922-.73-1.636-.8c-.873-.076-1.556.163-2.049.713-.493.551-.762 1.135-.807 1.756v5.096zm10.643-6.749c-.818-.084-1.492.137-2.02.664-.527.528-.838 1.246-.932 2.155l5.607.583v-.247c0-.844-.24-1.561-.722-2.148-.481-.587-1.125-.923-1.933-1.007m.149 8.028c-1.012-.105-1.852-.557-2.521-1.356-.671-.799-1.005-1.771-1.005-2.915v-.48c0-1.189.322-2.124.964-2.807.641-.683 1.445-.974 2.413-.874.922.096 1.662.466 2.22 1.111.556.646.836 1.485.836 2.519v.622l-6.031-.626v.577c0 .999.294 1.863.885 2.592.59.727 1.335 1.138 2.239 1.232.476.049.899.019 1.271-.093.372-.111.746-.327 1.124-.648l.214.338c-.317.312-.682.54-1.093.684-.411.145-.917.187-1.516.124m5.182-5.9l.023.01a2.94 2.94 0 0 1 1.104-1.32c.488-.317 1.064-.441 1.729-.372.853.088 1.492.414 1.918.979.427.564.641 1.431.641 2.6v4.946l-.403-.042v-4.946c0-1.099-.184-1.88-.554-2.339-.369-.461-.91-.729-1.624-.804-.803-.082-1.439.125-1.904.623a3.764 3.764 0 0 0-.93 1.751v5.194l-.401-.042v-8.108l.379.04.022 1.733v.097zm8.836-3.1v2.189l1.829.189v.412l-1.829-.189v5.606c0 .679.108 1.168.327 1.465.217.298.513.465.885.504.138.014.26.023.364.023.105.001.248-.001.431-.008l.074.375a2.05 2.05 0 0 1-.39.042 4.157 4.157 0 0 1-.457-.024c-.545-.058-.956-.274-1.23-.649-.277-.376-.414-.967-.414-1.771v-5.606l-1.486-.154v-.412l1.486.154v-2.189l.41.043zm8.849 9.231c0-.434-.179-.844-.535-1.228-.358-.385-.997-.728-1.919-1.028-.977-.311-1.674-.645-2.093-1.001-.42-.355-.629-.858-.629-1.507 0-.595.24-1.06.718-1.394.478-.336 1.136-.46 1.974-.373.907.094 1.614.376 2.119.846.506.469.759 1.059.759 1.769l-.409-.043c0-.539-.219-1.016-.654-1.428-.437-.412-1.041-.659-1.815-.739-.768-.08-1.342.023-1.721.307-.379.286-.569.647-.569 1.081 0 .436.158.815.476 1.14.317.325.971.655 1.963.987.917.31 1.602.667 2.056 1.068.454.402.681.933.681 1.592 0 .649-.253 1.142-.759 1.476-.506.335-1.195.457-2.067.367-.957-.1-1.698-.387-2.224-.861s-.788-1.031-.788-1.67l.401.042c.045.658.317 1.153.815 1.482.499.329 1.096.529 1.796.602.759.078 1.352-.032 1.781-.332.428-.3.643-.685.643-1.155m-55.381 102.561c-.113 1.171-.503 2.021-1.166 2.55-.665.53-1.563.754-2.693.672-1.209-.087-2.166-.59-2.867-1.507-.701-.917-1.053-2.108-1.053-3.573v-1.633c0-1.459.352-2.598 1.053-3.416.701-.819 1.658-1.184 2.867-1.098 1.13.082 2.028.436 2.693 1.063.663.628 1.053 1.528 1.166 2.701l-.402-.03c-.118-1.028-.464-1.821-1.037-2.379-.572-.558-1.379-.875-2.42-.951-1.076-.077-1.93.257-2.566 1-.634.743-.952 1.785-.952 3.124v1.649c0 1.349.318 2.441.952 3.277.636.835 1.49 1.29 2.566 1.367 1.041.076 1.849-.113 2.424-.566.576-.453.921-1.213 1.033-2.279l.402.029zm2.068-.406c0 1.039.278 1.928.833 2.664.554.738 1.32 1.142 2.298 1.212.961.069 1.72-.226 2.275-.885.555-.66.833-1.507.833-2.541v-.315c0-1.014-.279-1.894-.841-2.643-.559-.746-1.32-1.155-2.282-1.224-.967-.07-1.729.229-2.283.896-.555.667-.833 1.508-.833 2.521v.315zm-.401-.343c0-1.209.32-2.163.962-2.861s1.494-1.009 2.555-.933c1.066.077 1.919.509 2.561 1.297.643.789.964 1.79.964 3.004v.315c0 1.22-.32 2.177-.96 2.873-.639.695-1.49 1.005-2.55.929-1.071-.078-1.928-.51-2.57-1.298s-.962-1.793-.962-3.011v-.315zm9.369-1.394l.023.009a3.072 3.072 0 0 1 1.103-1.356c.489-.332 1.065-.474 1.73-.426.853.061 1.492.367 1.919.917.425.551.639 1.41.639 2.58v4.946l-.402-.029v-4.946c0-1.1-.185-1.873-.553-2.322-.37-.449-.912-.7-1.626-.751-.803-.058-1.438.17-1.904.683a3.912 3.912 0 0 0-.929 1.781v5.194l-.402-.029v-8.109l.379.028.023 1.732v.098zm8.834-3.381v2.189l1.83.131v.412l-1.83-.131v5.606c0 .679.109 1.164.328 1.455.218.291.513.448.885.475.138.01.26.014.364.011.104-.001.248-.009.431-.021l.074.373c-.128.03-.259.049-.391.054-.13.006-.283.002-.456-.01-.545-.04-.956-.243-1.231-.61-.275-.366-.413-.953-.413-1.757v-5.606l-1.486-.107v-.411l1.486.106v-2.189l.409.03zm5.727 10.472c.773.055 1.435-.067 1.985-.364.551-.297.97-.748 1.257-1.352v-1.927l-1.978-.142c-1.007-.073-1.802.061-2.387.402-.585.339-.877.824-.877 1.454 0 .514.18.954.542 1.317.362.363.849.567 1.458.612m3.242-.982l-.022-.009a3.064 3.064 0 0 1-1.264 1.078c-.541.261-1.193.364-1.956.31-.759-.055-1.349-.299-1.77-.732-.422-.432-.632-.983-.632-1.652 0-.745.325-1.321.974-1.725.649-.406 1.54-.568 2.67-.486l2 .144v-1.185c0-.689-.211-1.234-.632-1.635-.421-.399-1.029-.628-1.822-.685-.748-.054-1.364.089-1.848.43-.484.339-.725.795-.725 1.363l-.402-.043c0-.655.279-1.193.838-1.615.556-.422 1.269-.602 2.137-.54.883.064 1.578.33 2.09.799.51.47.766 1.127.766 1.971v4.062c0 .289.015.568.045.834.03.267.083.539.163.814l-.447-.032a20.995 20.995 0 0 1-.13-.808 4.809 4.809 0 0 1-.033-.575v-.083zm5.719 1.618c.699.05 1.292-.089 1.777-.419.486-.329.754-.865.803-1.606l.401.028c-.044.817-.345 1.436-.902 1.859-.559.421-1.251.603-2.079.542-1.046-.074-1.856-.499-2.428-1.273-.573-.773-.859-1.779-.859-3.017v-.315c0-1.235.285-2.197.855-2.888.57-.691 1.376-.999 2.418-.924.832.06 1.529.355 2.093.886.562.529.863 1.248.902 2.155l-.401-.028c-.039-.788-.304-1.406-.791-1.856-.489-.45-1.09-.701-1.803-.753-.963-.069-1.681.214-2.158.85-.475.635-.714 1.497-.714 2.586v.315c0 1.099.239 2 .714 2.702.477.701 1.201 1.087 2.172 1.156m5.897-9.625v2.189l1.83.132v.412l-1.83-.132v5.606c0 .68.109 1.165.328 1.455.218.291.513.448.885.476.138.01.26.014.364.011.104-.002.248-.01.43-.021l.075.373a2.14 2.14 0 0 1-.391.054 4.3 4.3 0 0 1-.456-.01c-.545-.04-.956-.244-1.231-.61-.275-.367-.413-.953-.413-1.757v-5.606l-1.487-.108v-.411l1.487.107v-2.189l.409.029zm12.97 9.823l-.023-.01a2.433 2.433 0 0 1-1.059 1.089c-.459.239-1.028.335-1.708.286-.847-.061-1.5-.397-1.959-1.011-.459-.612-.687-1.552-.687-2.822v-4.624l.401.03v4.638c0 1.125.197 1.956.591 2.497.394.541.94.836 1.64.886.853.062 1.498-.095 1.937-.471.439-.376.723-.908.852-1.598v-5.591l.409.029v8.109l-.335-.024-.059-1.413zm7.859-.011c0-.434-.178-.839-.535-1.212-.357-.372-.996-.695-1.919-.966-.977-.28-1.675-.592-2.093-.934-.419-.343-.629-.839-.629-1.488 0-.595.24-1.067.718-1.417.479-.351 1.137-.495 1.974-.435.908.065 1.615.325 2.119.778.507.454.759 1.035.759 1.745l-.409-.029c0-.539-.218-1.009-.654-1.408-.437-.399-1.042-.626-1.815-.682-.767-.056-1.342.066-1.721.363-.379.298-.569.664-.569 1.099 0 .435.158.81.477 1.125.316.315.971.624 1.962.924.917.282 1.603.616 2.056 1.003.454.388.681.91.681 1.57 0 .65-.253 1.151-.759 1.5-.505.352-1.195.496-2.067.433-.956-.069-1.698-.333-2.224-.791-.525-.456-.787-1.005-.787-1.644l.401.028c.044.658.316 1.144.814 1.457.499.312 1.097.494 1.796.544.759.055 1.352-.074 1.781-.388.429-.313.643-.705.643-1.175m127.081 4.9v10.103l2.595.187c1.189.085 2.165-.249 2.926-1.004.761-.755 1.142-1.784 1.142-3.088v-1.356c0-1.29-.381-2.366-1.142-3.23-.761-.864-1.737-1.339-2.926-1.425l-2.595-.187zm-.402 10.478v-10.912l2.997.215c1.314.095 2.387.612 3.219 1.552.834.94 1.25 2.126 1.25 3.56v1.334c0 1.439-.416 2.567-1.25 3.384-.832.817-1.905 1.178-3.219 1.083l-2.997-.216zm12.501-6.954c-.819-.058-1.491.184-2.02.728-.527.545-.839 1.272-.933 2.186l5.608.403v-.248c0-.844-.242-1.552-.723-2.124-.48-.572-1.125-.887-1.932-.945m.148 8.023c-1.011-.073-1.851-.498-2.521-1.276-.67-.777-1.004-1.739-1.004-2.883v-.48c0-1.189.321-2.135.963-2.838.642-.703 1.446-1.02 2.414-.951.922.067 1.662.414 2.219 1.041.558.628.837 1.458.837 2.493v.622l-6.031-.435v.577c0 .999.294 1.854.885 2.564.59.709 1.336 1.096 2.238 1.161.477.034.9-.01 1.272-.133.371-.123.746-.351 1.123-.684l.215.33a3.066 3.066 0 0 1-1.093.72c-.411.158-.917.215-1.517.172m10.538.602l-.402-.029v-5.097c0-1.039-.188-1.773-.566-2.202-.376-.43-.921-.67-1.635-.722-.823-.059-1.467.179-1.93.712s-.762 1.141-.896 1.82v5.127l-.409-.03v-8.108l.386.027.023 1.74v.12l.023.009a3.049 3.049 0 0 1 1.089-1.376c.487-.338 1.067-.485 1.736-.436.705.05 1.263.258 1.677.622.414.365.686.914.815 1.647l.022.011a2.996 2.996 0 0 1 1.112-1.431c.512-.355 1.123-.507 1.832-.456.858.062 1.502.368 1.934.918.431.551.647 1.411.647 2.58v4.947l-.402-.029v-4.946c0-1.099-.188-1.875-.565-2.327-.376-.452-.921-.701-1.635-.747-.873-.047-1.556.211-2.05.778-.493.566-.762 1.16-.806 1.781v5.097zm7.667-3.339c0 1.037.277 1.925.833 2.661.554.736 1.32 1.138 2.297 1.209.961.069 1.72-.226 2.276-.884.554-.658.832-1.504.832-2.537v-.315c0-1.012-.279-1.891-.84-2.639-.56-.745-1.321-1.154-2.283-1.223-.966-.07-1.728.229-2.282.895-.556.667-.833 1.506-.833 2.518v.315zm-.402-.344c0-1.207.32-2.159.962-2.857.643-.697 1.494-1.007 2.555-.931 1.066.077 1.92.509 2.562 1.295.642.788.963 1.787.963 3v.315c0 1.217-.32 2.173-.959 2.868-.64.695-1.491 1.005-2.551.929-1.071-.078-1.927-.51-2.57-1.296-.642-.788-.962-1.791-.962-3.008v-.315zm-28.353-118.792l4.998.519-2.269-6.381-.216-.675-.022-.002-.215.63-2.276 5.909zm5.146.94l-5.294-.55-1.205 3.135-.439-.045 4.045-10.493.491.051 4.053 11.333-.439-.046-1.212-3.385zm3.227-.31c0 1.144.215 2.062.644 2.754.428.691 1.079 1.082 1.952 1.173.714.073 1.297-.021 1.75-.286.455-.265.788-.662 1.001-1.189v-3.8a3.953 3.953 0 0 0-.926-1.562c-.419-.431-1.023-.687-1.811-.769-.872-.091-1.525.187-1.959.831-.433.645-.651 1.542-.651 2.691v.157zm-.417-.201c0-1.314.264-2.315.789-3.002.526-.688 1.273-.98 2.246-.879.645.067 1.19.264 1.636.593s.802.757 1.071 1.284l.022.003v-5.03l.402.042v11.692l-.387-.041-.015-1.252-.022-.011a2.427 2.427 0 0 1-1.071.924c-.456.207-1.006.277-1.651.211-.968-.101-1.711-.537-2.235-1.308-.522-.772-.785-1.794-.785-3.068v-.158zm12.256-2.481l-.52-.099c-.735-.077-1.321.093-1.759.506-.439.414-.728 1.005-.867 1.769v5.314l-.401-.041v-8.109l.327.034.074 1.416v.217l.023.003c.218-.542.542-.945.974-1.211.431-.265.974-.364 1.629-.295.114.012.218.03.311.054.094.025.179.054.253.087l-.044.355zm4.113.389c-.819-.084-1.492.137-2.02.664-.528.528-.839 1.246-.932 2.155l5.607.583v-.247c0-.845-.241-1.561-.723-2.148-.48-.587-1.124-.923-1.932-1.007m.149 8.028c-1.012-.105-1.852-.557-2.522-1.356-.67-.799-1.004-1.771-1.004-2.915v-.48c0-1.189.321-2.124.964-2.807.641-.683 1.445-.974 2.413-.874.922.096 1.662.466 2.22 1.111.556.645.836 1.485.836 2.519v.622l-6.031-.626v.577c0 .999.294 1.863.885 2.592.59.727 1.335 1.138 2.239 1.232.476.049.899.019 1.271-.093.372-.11.746-.327 1.124-.647l.214.337a2.93 2.93 0 0 1-1.093.684c-.411.145-.917.187-1.516.124m9.712-1.135c0-.434-.179-.845-.535-1.228-.358-.385-.997-.728-1.919-1.028-.977-.312-1.674-.645-2.094-1.001-.419-.356-.628-.859-.628-1.507 0-.596.24-1.06.718-1.395.478-.335 1.135-.459 1.974-.372.907.094 1.614.376 2.119.845.506.47.759 1.06.759 1.77l-.409-.043c0-.539-.219-1.016-.654-1.428-.437-.413-1.041-.659-1.815-.739-.768-.08-1.342.023-1.722.307-.378.286-.568.646-.568 1.08 0 .436.158.815.476 1.141.317.325.971.654 1.962.986.918.311 1.603.667 2.056 1.069.455.402.681.933.681 1.592 0 .649-.252 1.142-.759 1.476-.505.334-1.193.457-2.066.366-.957-.099-1.698-.386-2.224-.86s-.788-1.031-.788-1.67l.401.042c.045.658.316 1.152.815 1.482.499.328 1.096.529 1.796.601.759.079 1.352-.031 1.781-.331.428-.301.643-.685.643-1.155m7.577.787c0-.434-.179-.844-.534-1.228-.358-.385-.998-.728-1.919-1.028-.977-.311-1.675-.645-2.094-1.001-.419-.355-.628-.858-.628-1.507 0-.595.239-1.06.718-1.394.478-.336 1.135-.46 1.974-.373.907.094 1.614.376 2.119.845.506.47.758 1.06.758 1.77l-.408-.043c0-.539-.219-1.015-.655-1.428-.436-.413-1.041-.659-1.814-.739-.769-.08-1.342.023-1.722.307-.379.286-.569.647-.569 1.081 0 .436.158.815.477 1.14.317.325.971.655 1.962.987.918.31 1.603.666 2.056 1.067.454.403.681.934.681 1.593 0 .649-.252 1.142-.759 1.476-.506.335-1.194.457-2.066.367-.958-.1-1.698-.387-2.224-.861s-.789-1.031-.789-1.67l.402.042c.044.658.316 1.152.814 1.482.499.329 1.097.529 1.797.602.758.078 1.352-.032 1.78-.332.429-.3.643-.685.643-1.155m5.392-5.309c-.818-.084-1.491.137-2.019.664s-.839 1.246-.933 2.155l5.607.583v-.247c0-.845-.24-1.561-.722-2.148-.481-.587-1.125-.923-1.933-1.007m.149 8.028c-1.012-.105-1.852-.557-2.521-1.357-.67-.798-1.004-1.77-1.004-2.914v-.48c0-1.189.321-2.124.963-2.807.641-.683 1.446-.974 2.413-.874.922.096 1.662.466 2.22 1.111.557.645.836 1.485.836 2.519v.622l-6.031-.626v.577c0 .999.295 1.862.885 2.592.591.727 1.335 1.138 2.239 1.232.476.049.9.019 1.272-.093.371-.111.745-.327 1.123-.648l.215.338a2.94 2.94 0 0 1-1.094.684c-.41.145-.917.186-1.516.124m9.711-1.135c0-.435-.179-.845-.535-1.229-.358-.384-.997-.727-1.918-1.027-.978-.312-1.675-.645-2.094-1.001-.42-.356-.629-.859-.629-1.508 0-.595.24-1.059.718-1.394.478-.335 1.136-.459 1.975-.373.906.095 1.613.376 2.118.846.506.47.759 1.06.759 1.769l-.409-.042c0-.539-.218-1.016-.654-1.429-.436-.412-1.041-.658-1.814-.739-.769-.079-1.342.023-1.722.308-.379.286-.569.646-.569 1.08 0 .436.158.815.476 1.14.317.326.972.655 1.963.987.917.311 1.602.667 2.056 1.069.454.401.681.932.681 1.591 0 .65-.253 1.143-.76 1.477-.505.334-1.193.457-2.066.366-.957-.099-1.698-.387-2.224-.861-.526-.473-.788-1.03-.788-1.669l.402.041c.044.658.316 1.153.814 1.482.499.329 1.096.529 1.796.602.759.079 1.352-.032 1.781-.332.428-.3.643-.684.643-1.154"/></svg>