<svg xmlns="http://www.w3.org/2000/svg" xmlns:xlink="http://www.w3.org/1999/xlink" width="64" height="64" viewBox="0 0 64 64"><defs><path id="a" d="M8.852 2h46.296v60H8.852z"/></defs><clipPath id="b"><use xlink:href="#a" overflow="visible"/></clipPath><path clip-path="url(#b)" fill="#FFF" d="M47.37 35.888v-2.224a.74.74 0 0 0-.74-.74H11.074a.74.74 0 0 0-.74.74v2.224H47.37zm-37.036 20c0 .408.332.74.74.74H46.63a.74.74 0 0 0 .74-.74V41.813H10.334v14.075zm.74-24.446H46.63c1.227 0 2.222.995 2.222 2.222v22.224a2.222 2.222 0 0 1-2.222 2.222H11.074a2.222 2.222 0 0 1-2.222-2.222V33.664c0-1.227.995-2.222 2.222-2.222"/><path fill="#FFF" d="M32.649 5.535V22H16.184L32.649 5.535zm0-3.535l-21.24 21.24-.012.002v8.2H13.9V24.5h21.248V4.498h17.501v55.003H13.9V58.11h-2.502V62h43.751V2h-22.5z"/></svg>