<svg xmlns="http://www.w3.org/2000/svg" xmlns:xlink="http://www.w3.org/1999/xlink" width="64" height="64" viewBox="0 0 64 64"><defs><path id="a" d="M2 6.375h60v51.25H2z"/></defs><clipPath id="b"><use xlink:href="#a" overflow="visible"/></clipPath><path clip-path="url(#b)" fill="#FFF" d="M57 55.125H7a2.503 2.503 0 0 1-2.5-2.5v-30h55v30c0 1.379-1.123 2.5-2.5 2.5M4.5 11.375c0-1.379 1.122-2.5 2.5-2.5h12.5c1.377 0 2.5 1.121 2.5 2.5v3.75h35c1.377 0 2.5 1.121 2.5 2.5v2.5h-55v-8.75zm52.5 1.25H24.5v-1.25a5 5 0 0 0-5-5H7a5 5 0 0 0-5 5v41.25a5 5 0 0 0 5 5h50a5 5 0 0 0 5-5v-35a5 5 0 0 0-5-5"/></svg>