<svg xmlns="http://www.w3.org/2000/svg" xmlns:xlink="http://www.w3.org/1999/xlink" width="64" height="64" viewBox="0 0 64 64"><defs><path id="a" d="M2 2h60v60H2z"/></defs><clipPath id="b"><use xlink:href="#a" overflow="visible"/></clipPath><path clip-path="url(#b)" fill="#FFF" d="M38.426 58.836c2.332-2.418 4.302-6.106 5.705-10.626a41.816 41.816 0 0 1 7.544 3.121 27.582 27.582 0 0 1-13.249 7.505M12.325 51.33a41.716 41.716 0 0 1 7.476-3.1c1.398 4.496 3.359 8.168 5.677 10.585a27.604 27.604 0 0 1-13.153-7.485M25.478 5.185c-2.316 2.414-4.277 6.083-5.675 10.573a41.757 41.757 0 0 1-7.471-3.096 27.586 27.586 0 0 1 13.146-7.477m26.19 7.477a42.015 42.015 0 0 1-7.54 3.118c-1.403-4.514-3.373-8.2-5.702-10.618a27.598 27.598 0 0 1 13.242 7.5M46.414 30.8c-.088-4.576-.668-8.882-1.637-12.708a44.291 44.291 0 0 0 8.544-3.598A27.47 27.47 0 0 1 59.569 30.8H46.414zm0 2.4H59.57a27.456 27.456 0 0 1-6.242 16.296 44.343 44.343 0 0 0-8.548-3.6c.967-3.822 1.547-8.128 1.634-12.696M33.2 44.035V33.2h10.799c-.088 4.463-.644 8.533-1.54 12.068a44.019 44.019 0 0 0-9.259-1.233m0 15.375V46.432c2.956.085 5.831.476 8.604 1.145-2.088 6.618-5.368 10.938-8.604 11.833m-2.4-12.978v13.006c-3.259-.851-6.57-5.184-8.674-11.845a41.795 41.795 0 0 1 8.674-1.161M19.927 33.2H30.8v10.835a44.128 44.128 0 0 0-9.329 1.249c-.899-3.536-1.457-7.614-1.544-12.084m-2.416 0c.088 4.578.668 8.892 1.638 12.72a44.225 44.225 0 0 0-8.476 3.578A27.462 27.462 0 0 1 4.43 33.2h13.081zm0-2.4H4.43a27.457 27.457 0 0 1 6.244-16.298 43.976 43.976 0 0 0 8.476 3.576c-.97 3.828-1.551 8.143-1.639 12.722M30.8 19.951V30.8H19.927c.088-4.474.647-8.555 1.546-12.094a44.098 44.098 0 0 0 9.327 1.245m0-15.389v12.991a41.575 41.575 0 0 1-8.671-1.16C24.235 9.739 27.543 5.41 30.8 4.562m2.4 12.991V4.59c3.235.895 6.512 5.208 8.602 11.822a41.742 41.742 0 0 1-8.602 1.141m0 2.4a44.103 44.103 0 0 0 9.256-1.232c.899 3.536 1.456 7.612 1.543 12.079H33.2V19.953zM32 2h-.037l-.035.002C15.391 2.04 2 15.456 2 32c0 16.54 13.391 29.958 29.928 29.998l.035.002H32c16.566 0 30-13.434 30-30C62 15.432 48.566 2 32 2"/></svg>