<svg xmlns="http://www.w3.org/2000/svg" xmlns:xlink="http://www.w3.org/1999/xlink" width="64" height="64" viewBox="0 0 64 64"><defs><path id="a" d="M2 2h60v60H2z"/></defs><clipPath id="b"><use xlink:href="#a" overflow="visible"/></clipPath><path clip-path="url(#b)" fill="#FFF" d="M32.15 21.097a3.598 3.598 0 1 0 0-7.198 3.598 3.598 0 1 0 0 7.198"/><path fill="#FFF" d="M34.595 25.897v-2.4h-7.2v2.4h2.4v20.4h-2.4v2.4h9.6v-2.4h-2.4z"/><defs><path id="c" d="M2 2h60v60H2z"/></defs><clipPath id="d"><use xlink:href="#c" overflow="visible"/></clipPath><path clip-path="url(#d)" fill="#FFF" d="M32 59.6C16.78 59.6 4.4 47.218 4.4 32S16.78 4.4 32 4.4 59.6 16.782 59.6 32 47.22 59.6 32 59.6M32 2C15.432 2 2 15.432 2 32c0 16.571 13.432 30 30 30s30-13.429 30-30C62 15.432 48.568 2 32 2"/></svg>