<svg xmlns="http://www.w3.org/2000/svg" width="64" height="64" viewBox="0 0 64 64"><path fill="#FFF" d="M30.572 10.886h2.223v8.89h-2.223z"/><path fill="#FFF" d="M36.49 29.98l-1.507.582v2.324l.738.738 3.931 3.933-4.018 4.021-.652.65v6.218l.652.65 1.795 1.798-1.795 1.798-.652.65v6.442h-6.667V30.532l-1.423-.548c-5.19-2.002-8.545-6.881-8.545-12.431 0-7.354 5.983-13.336 13.336-13.336s13.336 5.982 13.336 13.336c0 5.544-3.348 10.421-8.529 12.427m10.752-12.427c0-8.593-6.967-15.559-15.559-15.559S16.126 8.96 16.126 17.553c0 6.618 4.14 12.257 9.967 14.505v29.947h11.113v-7.744l3.369-3.369-3.369-3.369v-4.376l5.59-5.592-5.504-5.504c5.819-2.252 9.95-7.886 9.95-14.498"/></svg>