<svg xmlns="http://www.w3.org/2000/svg" xmlns:xlink="http://www.w3.org/1999/xlink" width="64" height="64" viewBox="0 0 64 64"><defs><path id="a" d="M2 2h60v60H2z"/></defs><clipPath id="b"><use xlink:href="#a" overflow="visible"/></clipPath><path clip-path="url(#b)" fill="#FFF" d="M32 59.6C16.782 59.6 4.4 47.22 4.4 32 4.4 16.782 16.782 4.4 32 4.4S59.6 16.782 59.6 32c0 15.22-12.382 27.6-27.6 27.6M32 2C15.432 2 2 15.432 2 32c0 16.571 13.432 30 30 30s30-13.429 30-30C62 15.432 48.568 2 32 2"/><path clip-path="url(#b)" fill="#FFF" d="M38.232 45.165H25.768l3.863-11.195.661-1.914-1.776-.972a7.212 7.212 0 0 1-3.746-6.319c0-3.971 3.229-7.2 7.2-7.2s7.2 3.229 7.2 7.2a7.208 7.208 0 0 1-3.71 6.295l-1.76.978.658 1.902 3.874 11.225zm3.338-20.4a9.6 9.6 0 0 0-9.6-9.6 9.6 9.6 0 0 0-4.608 18.023L22.4 47.565h19.2l-4.974-14.407a9.594 9.594 0 0 0 4.944-8.393"/></svg>