<svg xmlns="http://www.w3.org/2000/svg" xmlns:xlink="http://www.w3.org/1999/xlink" width="64" height="64" viewBox="0 0 64 64"><defs><path id="a" d="M2 3.211h60v57.578H2z"/></defs><clipPath id="b"><use xlink:href="#a" overflow="visible"/></clipPath><path clip-path="url(#b)" fill="#FFF" d="M56.779 34.115h-4.01v2.308h1.05c1.641 0 2.977 1.336 2.977 2.977s-1.336 2.977-2.977 2.977h-3.358v2.308h.868a2.872 2.872 0 0 1 2.868 2.87 2.873 2.873 0 0 1-2.868 2.871h-3.175v2.308h.315c1.681 0 3.052 1.289 3.052 2.871 0 1.584-1.371 2.871-3.052 2.871h-2.947v.007H30.321c-2.232 0-6.202-1.769-9.392-3.189-3.136-1.395-5.118-2.251-6.362-2.251H4.308V30.777c2.1-.024 6.628-.072 9.493-.072 4.268 0 6.508-1.88 12.494-6.899 6.309-5.293 6.63-14.903 6.63-16.776 0-.942 1.446-1.513 2.082-1.513 1.208 0 4.041 0 4.041 6.016 0 7.604-3.838 15.201-3.876 15.277l-.858 1.679h14.137c.04.03.065 0 .065 0h8.265c1.687 0 2.913 1.17 2.913 2.713a2.919 2.919 0 0 1-2.915 2.913M62 31.203c0-2.834-2.244-5.02-5.221-5.02H38.001c1.199-2.782 3.353-8.62 3.353-14.648 0-6.88-3.452-8.324-6.348-8.324-1.794 0-4.389 1.36-4.389 3.82 0 1.038-.164 10.275-5.806 15.008-6.009 5.041-7.718 6.359-11.01 6.359-3.84 0-10.663.084-10.663.084L2 28.497v26.851h12.567c.816 0 3.264 1.09 5.424 2.052 3.568 1.588 7.608 3.389 10.33 3.389h18.148v-.007c2.955 0 5.36-2.324 5.36-5.178 0-1.163-.414-2.227-1.086-3.092 2.165-.62 3.763-2.596 3.763-4.957a5.14 5.14 0 0 0-1.09-3.144c2.131-.681 3.689-2.656 3.689-5.01a5.23 5.23 0 0 0-1.066-3.148c2.268-.568 3.961-2.608 3.961-5.05"/></svg>