<svg xmlns="http://www.w3.org/2000/svg" xmlns:xlink="http://www.w3.org/1999/xlink" width="64" height="64" viewBox="0 0 64 64"><path fill="#FFF" d="M19.367 28.316h25.264v2.105H19.367zm0 8.42h25.264v2.105H19.367zm8.422 8.424h16.842v2.105H27.789z"/><defs><path id="a" d="M6.737 2h50.526v60H6.737z"/></defs><clipPath id="b"><use xlink:href="#a" overflow="visible"/></clipPath><path clip-path="url(#b)" fill="#FFF" d="M8.843 59.894h46.316V9.368H38.315v1.504a12.844 12.844 0 0 1 6.317 9.023H19.368c.646-3.872 3.029-7.151 6.317-9.023V9.368H8.843v50.526zM36.21 12.096v-3.78A4.215 4.215 0 0 0 32 4.106a4.215 4.215 0 0 0-4.21 4.21v3.781l-1.065.605a10.7 10.7 0 0 0-4.562 5.088h19.672a10.692 10.692 0 0 0-4.562-5.088l-1.063-.606zM25.779 7.263A6.312 6.312 0 0 1 32 2.001a6.313 6.313 0 0 1 6.221 5.263h19.043v54.737H6.736V7.263h19.043z"/></svg>