<svg xmlns="http://www.w3.org/2000/svg" xmlns:xlink="http://www.w3.org/1999/xlink" width="64" height="64" viewBox="0 0 64 64"><defs><path id="a" d="M2.068 12.843h59.863v38.314H2.068z"/></defs><clipPath id="b"><use xlink:href="#a" overflow="visible"/></clipPath><path clip-path="url(#b)" fill="#646362" d="M59.538 47.287L43.991 31.738l15.548-15.549v31.098zM6.374 48.761l15.331-15.329 6.628 6.626a5.157 5.157 0 0 0 3.668 1.519 5.16 5.16 0 0 0 3.667-1.519l6.628-6.628 15.331 15.331H6.374zM4.462 16.192l15.549 15.546L4.462 47.287V16.192zm52.641-.954L33.975 38.366c-1.053 1.053-2.894 1.053-3.949 0L6.894 15.238h50.209zm2.394-2.395H2.068v38.314h59.865V12.843h-2.436z"/></svg>