<svg xmlns="http://www.w3.org/2000/svg" width="64" height="64" viewBox="0 0 64 64"><path fill="#FFF" d="M32 59.87c-9.45 0-17.136-7.687-17.136-17.136 0-9.449 7.687-17.135 17.136-17.135 9.449 0 17.136 7.687 17.136 17.135 0 9.449-7.687 17.136-17.136 17.136M20.219 10.315V4.176H30.89v14.655h2.142V4.176h10.749v6.138c0 1.174-2.628 8.086-5.248 14.301A19.174 19.174 0 0 0 32 23.455c-2.321 0-4.537.432-6.598 1.182-2.224-5.356-5.183-13.031-5.183-14.322m20.287 15.138c1.307-3.103 5.417-13.033 5.417-15.139v-8.28H18.077v8.28c0 2.11 4.083 12.103 5.357 15.168-6.343 3.156-10.712 9.685-10.712 17.251 0 10.648 8.63 19.278 19.278 19.278 10.647 0 19.278-8.63 19.278-19.278 0-7.589-4.397-14.135-10.772-17.28"/><path fill="#FFF" d="M32 53.445c-5.906 0-10.71-4.805-10.71-10.71s4.805-10.71 10.71-10.71c5.907 0 10.71 4.805 10.71 10.71S37.907 53.445 32 53.445m0-23.563c-7.098 0-12.852 5.755-12.852 12.852S24.902 55.587 32 55.587c7.099 0 12.852-5.755 12.852-12.852S39.099 29.882 32 29.882"/></svg>