<svg xmlns="http://www.w3.org/2000/svg" xmlns:xlink="http://www.w3.org/1999/xlink" width="64" height="64" viewBox="0 0 64 64"><defs><path id="a" d="M14.222 2h35.556v60H14.222z"/></defs><clipPath id="b"><use xlink:href="#a" overflow="visible"/></clipPath><path clip-path="url(#b)" fill="#FFF" d="M47.556 8.712H16.444V5.01c0-.434.352-.788.787-.788h29.538c.434 0 .787.353.787.788v3.702zm0 37.74H16.444V10.934h31.111v35.518zm0 12.539a.787.787 0 0 1-.787.787H17.231a.787.787 0 0 1-.787-.787V48.674h31.111v10.317zM46.769 2H17.231a3.01 3.01 0 0 0-3.009 3.01v53.981A3.009 3.009 0 0 0 17.231 62h29.538a3.009 3.009 0 0 0 3.009-3.009V5.01A3.01 3.01 0 0 0 46.769 2"/><path fill="#FFF" d="M28.667 53.111h6.667v2.222h-6.667z"/></svg>