<svg xmlns="http://www.w3.org/2000/svg" xmlns:xlink="http://www.w3.org/1999/xlink" width="64" height="64" viewBox="0 0 64 64"><path fill="#FFF" d="M23.05 43.186h33.794V19.093h1.72v25.814H17.261v-1.721h1.72z"/><path fill="#FFF" d="M60.285 22.534v24.094H20.702v1.722h41.305V22.534zm-14.627-3.39h5.163v1.722h-5.163z"/><path fill="#FFF" d="M45.658 36.301h5.163v1.722h-5.163zM18.12 19.144h5.163v1.722H18.12zm0 17.157h5.163v1.722H18.12zM1.993 28.558l8.747 8.747 1.216-1.218-6.67-6.669h27.241v-1.722H5.286l6.67-6.667-1.216-1.218z"/><path fill="#FFF" d="M13.818 15.65v11.16h1.723v-9.437h37.86v22.371h-37.86v-9.442h-1.723v11.164h41.305V15.65z"/><defs><path id="a" d="M1.993 15.65h60.013v32.699H1.993z"/></defs><clipPath id="b"><use xlink:href="#a" overflow="visible"/></clipPath><path clip-path="url(#b)" fill="#FFF" d="M31.521 30.304A3.433 3.433 0 0 0 34.47 32a3.447 3.447 0 0 0 3.443-3.443 3.446 3.446 0 0 0-3.443-3.441c-1.259 0-2.35.686-2.949 1.696h-1.904a5.16 5.16 0 0 1 10.016 1.745 5.164 5.164 0 0 1-5.163 5.165 5.161 5.161 0 0 1-4.853-3.418h1.904z"/></svg>