<svg xmlns="http://www.w3.org/2000/svg" xmlns:xlink="http://www.w3.org/1999/xlink" width="64" height="64" viewBox="0 0 64 64"><path fill="#FFF" d="M17 10.75h30v5H17v-5zm-2.499 7.5h35v-10h-35v10z"/><defs><path id="a" d="M9.5 2h44.999v60H9.5z"/></defs><clipPath id="b"><use xlink:href="#a" overflow="visible"/></clipPath><path clip-path="url(#b)" fill="#FFF" d="M52 57a2.503 2.503 0 0 1-2.499 2.501h-35A2.503 2.503 0 0 1 12.002 57V7a2.505 2.505 0 0 1 2.499-2.501h35A2.505 2.505 0 0 1 52 7v50zM49.5 2h-35a5 5 0 0 0-5 5v50a5 5 0 0 0 5 5h35a5 5 0 0 0 5-5V7a4.999 4.999 0 0 0-5-5"/><path fill="#FFF" d="M17 29.5v-7.499h-2.499V32H24.5v-2.5h-2.499zM17 42v-7.5h-2.499v9.999H24.5V42h-2.499zm0 12.5V47h-2.499v9.999H24.5V54.5h-2.499zm12.5-25v-7.499h-2.499V32H37v-2.5h-2.499zm12.5 0v-7.499h-2.499V32H49.5v-2.5h-2.499zM29.5 42v-7.5h-2.499v9.999H37V42h-2.499zM42 42v-7.5h-2.499v9.999H49.5V42h-2.499zm0 12.5V47h-2.499v9.999H49.5V54.5h-2.499zm-12.5 0V47h-2.499v9.999H37V54.5h-2.499z"/></svg>