<svg xmlns="http://www.w3.org/2000/svg" xmlns:xlink="http://www.w3.org/1999/xlink" width="64" height="64" viewBox="0 0 64 64"><defs><path id="a" d="M1.998 4.398h60.004v55.204H1.998z"/></defs><clipPath id="b"><use xlink:href="#a" overflow="visible"/></clipPath><path clip-path="url(#b)" fill="#FFF" d="M32 40.401c-4.224 0-7.719-3.136-8.305-7.201H32v-2.4h-8.305c.586-4.065 4.08-7.201 8.305-7.201 4.631 0 8.401 3.769 8.401 8.401s-3.77 8.401-8.401 8.401m0-19.202c-5.558 0-10.132 4.2-10.73 9.601h-2.471v2.4h2.471c.598 5.4 5.172 9.601 10.73 9.601 5.966 0 10.801-4.835 10.801-10.801S37.966 21.199 32 21.199"/><path fill="#FFF" d="M9.198 42.951V35.75h-2.4v9.601h2.4zm0-16.951v-7.201h-2.4V28.4h2.4zm40.803 24.001H13.999V13.999h36.003v36.002zM11.599 11.598v40.804h40.803V11.598H11.599z"/><path fill="#FFF" d="M4.398 6.798h55.204v50.404H4.398V6.798zm-2.4-2.4v55.204h60.005V4.398H1.998z"/></svg>