<svg xmlns="http://www.w3.org/2000/svg" xmlns:xlink="http://www.w3.org/1999/xlink" width="64" height="64" viewBox="0 0 64 64"><defs><path id="a" d="M2 2h60v60H2z"/></defs><clipPath id="b"><use xlink:href="#a" overflow="visible"/></clipPath><path clip-path="url(#b)" fill="#FFF" d="M47.321 45.732l-8.734-8.735a8.222 8.222 0 0 0 1.619-3.962h12.425a20.57 20.57 0 0 1-5.31 12.697m-14.287 6.781V40.206a8.24 8.24 0 0 0 4.108-1.728l8.716 8.718a20.582 20.582 0 0 1-12.824 5.317m-14.891-5.317l8.716-8.718a8.241 8.241 0 0 0 4.107 1.728v12.307a20.577 20.577 0 0 1-12.823-5.317m-6.774-14.162h12.426a8.222 8.222 0 0 0 1.619 3.962l-8.734 8.735a20.578 20.578 0 0 1-5.311-12.697m5.311-15.017l8.842 8.842a8.243 8.243 0 0 0-1.726 4.107h-12.44a20.588 20.588 0 0 1 5.324-12.949m14.286-6.78v12.559a8.226 8.226 0 0 0-3.962 1.619l-8.86-8.86a20.571 20.571 0 0 1 12.822-5.318m14.891 5.317l-8.86 8.86a8.218 8.218 0 0 0-3.962-1.619V11.237a20.576 20.576 0 0 1 12.822 5.317M32 38.208a6.214 6.214 0 0 1-6.207-6.207c0-3.423 2.784-6.208 6.207-6.208s6.207 2.785 6.207 6.208A6.214 6.214 0 0 1 32 38.208m20.644-7.242H40.206a8.245 8.245 0 0 0-1.728-4.107l8.842-8.842a20.577 20.577 0 0 1 5.324 12.949M62 33.034v-2.069h-7.264a22.66 22.66 0 0 0-5.93-14.435l5.138-5.137-1.462-1.463-5.138 5.137a22.67 22.67 0 0 0-14.309-5.926V2h-2.069v7.142a22.674 22.674 0 0 0-14.309 5.926L11.52 9.93l-1.463 1.463 5.136 5.137a22.67 22.67 0 0 0-5.929 14.435H2v2.069h7.271a22.67 22.67 0 0 0 5.922 14.185l-5.138 5.138 1.463 1.463 5.138-5.138a22.683 22.683 0 0 0 14.309 5.927V62h2.069v-7.391a22.679 22.679 0 0 0 14.311-5.927l5.137 5.138 1.463-1.463-5.137-5.138a22.68 22.68 0 0 0 5.922-14.185H62z"/></svg>