<svg xmlns="http://www.w3.org/2000/svg" xmlns:xlink="http://www.w3.org/1999/xlink" width="64" height="64" viewBox="0 0 64 64"><defs><path id="a" d="M4.4 2h55.2v60H4.4z"/></defs><clipPath id="b"><use xlink:href="#a" overflow="visible"/></clipPath><path clip-path="url(#b)" fill="#FFF" d="M32 59.6c-13.895 0-25.2-11.306-25.2-25.2C6.8 20.504 18.105 9.2 32 9.2s25.2 11.304 25.2 25.2c0 13.894-11.305 25.2-25.2 25.2m20.345-43.849l2.03-2.029 2.058 2.057 2.545-2.545-5.812-5.812-2.545 2.545 2.057 2.058-2.03 2.029A27.49 27.49 0 0 0 33.8 6.864V2h-3.6v4.864C15.797 7.791 4.4 19.761 4.4 34.4 4.4 49.644 16.757 62 32 62s27.6-12.356 27.6-27.6c0-7.19-2.751-13.736-7.255-18.649"/><path clip-path="url(#b)" fill="#FFF" d="M33.2 31.02V15.2h-2.4v15.82a3.591 3.591 0 0 0-2.4 3.379 3.59 3.59 0 0 0 2.4 3.38v5.02h2.4v-5.02a3.592 3.592 0 0 0 2.4-3.38 3.592 3.592 0 0 0-2.4-3.379"/></svg>