<svg xmlns="http://www.w3.org/2000/svg" xmlns:xlink="http://www.w3.org/1999/xlink" width="64" height="64" viewBox="0 0 64 64"><defs><path id="a" d="M1.998 2h60.004v60H1.998z"/></defs><clipPath id="b"><use xlink:href="#a" overflow="visible"/></clipPath><path clip-path="url(#b)" fill="#FFF" d="M34.958 34.082c-.047.059-.113.109-.164.164A3.576 3.576 0 0 1 32 35.6a3.599 3.599 0 0 1-3.599-3.599c0-1.057.463-1.997 1.186-2.655.092-.107.18-.215.318-.32l14.548-11.07a1.214 1.214 0 0 1 1.477 0c.531.408.629 1.168.221 1.696l-11.193 14.43z"/><path clip-path="url(#b)" fill="#FFF" d="M32 2.001c.393 0 .778.045 1.168.059v1.243h.032v13.094h-2.4V4.461c-14.663.637-26.401 12.725-26.401 27.54C4.399 47.219 16.778 59.6 32 59.6s27.601-12.381 27.601-27.599c0-7.61-3.095-14.511-8.096-19.51l1.706-1.704a29.894 29.894 0 0 1 8.79 21.214c0 16.568-13.43 30-30.002 30s-30.002-13.432-30.002-30c.001-16.57 13.431-30 30.003-30"/></svg>