<svg xmlns="http://www.w3.org/2000/svg" xmlns:xlink="http://www.w3.org/1999/xlink" width="64" height="64" viewBox="0 0 64 64"><defs><path id="a" d="M2 2.002h60v59.995H2z"/></defs><clipPath id="b"><use xlink:href="#a" overflow="visible"/></clipPath><path clip-path="url(#b)" fill="#FFF" d="M29.042 34.081c.047.059.113.108.164.164.66.82 1.66 1.355 2.794 1.355a3.6 3.6 0 0 0 3.6-3.6 3.586 3.586 0 0 0-1.186-2.656c-.095-.106-.181-.214-.319-.319l-14.548-11.07a1.215 1.215 0 0 0-1.477 0 1.211 1.211 0 0 0-.22 1.698l11.192 14.428z"/><path clip-path="url(#b)" fill="#FFF" d="M32 2.002c-.394 0-.778.044-1.168.059v1.244H30.8v13.092h2.4V4.463C47.863 5.098 59.6 17.187 59.6 32c0 15.218-12.379 27.598-27.6 27.598S4.4 47.218 4.4 32c0-7.61 3.096-14.51 8.095-19.507l-1.706-1.706C5.359 16.215 2 23.715 2 32c0 16.568 13.429 29.998 30 29.998S62 48.568 62 32 48.571 2.002 32 2.002"/></svg>