<svg xmlns="http://www.w3.org/2000/svg" xmlns:xlink="http://www.w3.org/1999/xlink" width="64" height="64" viewBox="0 0 64 64"><defs><path id="a" d="M1.992 18.53h60.016v26.94H1.992z"/></defs><clipPath id="b"><use xlink:href="#a" overflow="visible"/></clipPath><path clip-path="url(#b)" fill="#FFF" d="M48.063 43.468h-2.904v-2.904h2.904v2.904zM6.998 35.556c-1.655 0-3.004-1.347-3.004-3.004s1.348-3.005 3.004-3.005c1.657 0 3.006 1.348 3.006 3.005s-1.349 3.004-3.006 3.004m31.048-15.022c1.105 0 2.004.898 2.004 2.004a2.006 2.006 0 0 1-2.004 2.001 2.003 2.003 0 0 1 0-4.005m12.02 24.936v-6.909h-6.909v3.006h-4.809c-1.112.01-1.782.014-2.923-1.127l-6.87-6.87h27.954l-2.321 1.41 1.042 1.711 6.78-4.124-6.78-4.122-1.042 1.711 2.321 1.41H20.375l6.355-6.353c1.127-1.127 2.018-1.676 2.723-1.676h4.729a3.994 3.994 0 0 0 3.864 3.005 4.005 4.005 0 1 0 0-8.012 3.995 3.995 0 0 0-3.864 3.005h-4.729c-1.664 0-3.087 1.209-4.141 2.263l-7.771 7.769h-5.634a5.007 5.007 0 0 0-9.915.985 5.007 5.007 0 0 0 9.91 1.018h13.819l8.287 8.286c1.733 1.735 3.065 1.724 4.355 1.714h4.794v1.9h6.909z"/></svg>