<svg xmlns="http://www.w3.org/2000/svg" xmlns:xlink="http://www.w3.org/1999/xlink" width="64" height="64" viewBox="0 0 64 64"><path fill="#646362" d="M38.943 23.904h16.191v2.313H38.943zm-.003 13.88h16.193v2.313H38.94zm.001-6.94h11.547v2.313H38.941z"/><path fill="#646362" d="M4.239 19.276H59.76v39.328H4.239V19.276zm0-6.94h23.135v4.627H4.239v-4.627zm32.388 0H59.76v4.627H36.627v-4.627zm-6.94-6.94h4.627v11.567h-4.627V5.396zm-2.313-2.313v6.94H1.925v50.893h60.148V10.023H36.627v-6.94h-9.253z"/><defs><path id="a" d="M1.926 3.084h60.148v57.833H1.926z"/></defs><clipPath id="b"><use xlink:href="#a" overflow="visible"/></clipPath><path clip-path="url(#b)" fill="#646362" d="M36.027 48.322c-1.67-.696-5.613-2.066-8.055-2.787-.206-.065-.239-.074-.239-.942 0-.716.293-1.437.58-2.046.311-.663.68-1.777.811-2.778.37-.43.875-1.278 1.2-2.893.284-1.424.152-1.943-.038-2.429-.02-.052-.04-.101-.056-.152-.07-.334.027-2.069.273-3.416.166-.924-.045-2.888-1.316-4.515-.802-1.027-2.339-2.288-5.147-2.462H22.5c-2.758.173-4.296 1.435-5.098 2.462-1.272 1.627-1.484 3.591-1.318 4.515.248 1.346.343 3.081.275 3.409-.014.058-.036.107-.058.159-.186.486-.32 1.005-.036 2.429.324 1.616.83 2.463 1.2 2.893.13 1.001.499 2.115.813 2.778.226.484.334 1.144.334 2.077 0 .867-.034.877-.228.938-2.523.746-6.542 2.198-8.041 2.854-1.187.51-1.477 1.424-1.477 2.248v.999h2.313v-.999c0-.036.002-.065.004-.089a.633.633 0 0 1 .087-.04c1.422-.624 5.364-2.044 7.813-2.769 1.842-.584 1.842-2.313 1.842-3.143 0-1.281-.175-2.254-.555-3.063a7.96 7.96 0 0 1-.611-2.087l-.09-.69-.454-.526c-.069-.08-.423-.539-.683-1.836-.173-.877-.112-1.039-.076-1.135.061-.148.112-.298.161-.508.202-.934-.067-3.271-.257-4.312-.061-.34.027-1.608.862-2.675.732-.938 1.861-1.466 3.356-1.574h1.388c1.522.108 2.666.636 3.398 1.574.835 1.066.924 2.335.862 2.675-.19 1.039-.457 3.374-.257 4.314l.02.09.025.089c.031.101.067.199.116.327.038.098.101.258-.072 1.133-.264 1.299-.618 1.762-.687 1.842l-.45.524-.09.685a8.215 8.215 0 0 1-.611 2.091c-.374.793-.801 1.854-.801 3.033 0 .831 0 2.561 1.898 3.161 2.31.681 6.185 2.021 7.795 2.693.244.105.333.233.358.282v.934h2.313v-.999c.001-.825-.57-1.833-1.756-2.343"/></svg>