<svg xmlns="http://www.w3.org/2000/svg" xmlns:xlink="http://www.w3.org/1999/xlink" width="64" height="64" viewBox="0 0 64 64"><defs><path id="a" d="M2.053 2h59.893v60H2.053z"/></defs><clipPath id="b"><use xlink:href="#a" overflow="visible"/></clipPath><path clip-path="url(#b)" fill="#FFF" d="M58.957 6.832L27.254 38.539h-1.739v-1.955L57.113 4.988c.331-.332.719-.38.921-.38a1.302 1.302 0 0 1 1.307 1.306 1.304 1.304 0 0 1-.384.918m-9.98 52.561H4.659V15.077h38.677L22.907 35.504v5.641h5.426L48.977 20.5v38.893zM60.799 3.145A3.903 3.903 0 0 0 58.033 2a3.897 3.897 0 0 0-2.765 1.145L43.763 14.649v-2.178H2.054V62h49.529V20.291h-2.397L60.799 8.676a3.906 3.906 0 0 0 0-5.531"/></svg>